<svg width="50" height="50" viewBox="0 0 50 50" fill="none" xmlns="http://www.w3.org/2000/svg">
<path fill-rule="evenodd" clip-rule="evenodd" d="M31.5039 15.9246C39.1595 15.9246 45.3656 22.4601 45.3656 30.5221C45.3656 33.5942 44.4644 36.4446 42.9253 38.7962L50 46.2465L46.4357 50L39.361 42.5497C37.1279 44.1706 34.4211 45.1196 31.5039 45.1196C23.8483 45.1196 17.6422 38.584 17.6422 30.5221C17.6422 22.4601 23.8483 15.9246 31.5039 15.9246ZM31.5039 21.2327C26.6321 21.2327 22.6828 25.3917 22.6828 30.5221C22.6828 35.6524 26.6321 39.8114 31.5039 39.8114C36.3756 39.8114 40.325 35.6524 40.325 30.5221C40.325 25.3917 36.3756 21.2327 31.5039 21.2327ZM15.1696 29.1949C15.138 29.6329 15.1219 30.0755 15.1219 30.5221C15.1219 31.8924 15.2736 33.2253 15.5603 34.5034L0 34.5032V29.195L15.1696 29.1949ZM10.0812 0V26.5409H2.52031V0H10.0812ZM20.1625 10.6164L20.1622 18.0736C17.9257 20.3338 16.2971 23.2558 15.5603 26.5407L12.6015 26.5409V10.6164H20.1625ZM30.2437 5.30818L30.2437 13.3207C27.4739 13.5426 24.8966 14.4899 22.6827 15.9825L22.6828 5.30818H30.2437ZM40.325 7.96228L40.325 15.9825C38.1112 14.4899 35.5339 13.5427 32.7641 13.3208L32.764 7.96228H40.325Z" fill="black"/>
</svg>
