<svg width="192" height="115" viewBox="0 0 192 115" fill="none" xmlns="http://www.w3.org/2000/svg">
<path d="M71.6338 3.54102V2.54102H70.8816L70.673 3.26369L71.6338 3.54102ZM95.0713 3.54102L96.0177 3.86398L96.4692 2.54102H95.0713V3.54102ZM58.2305 111.5V112.5H58.9458L59.1769 111.823L58.2305 111.5ZM36.917 111.5L35.9696 111.82L36.1993 112.5H36.917V111.5ZM0.442383 3.54102V2.54102H-0.951005L-0.505007 3.8611L0.442383 3.54102ZM24.5391 3.54102L25.5005 3.26607L25.2932 2.54102H24.5391V3.54102ZM47.9766 85.499L47.0151 85.774L47.9721 89.1204L48.9373 85.7764L47.9766 85.499ZM71.6338 4.54102H95.0713V2.54102H71.6338V4.54102ZM94.1249 3.21806L57.2841 111.177L59.1769 111.823L96.0177 3.86398L94.1249 3.21806ZM58.2305 110.5H36.917V112.5H58.2305V110.5ZM37.8644 111.18L1.38977 3.22094L-0.505007 3.8611L35.9696 111.82L37.8644 111.18ZM0.442383 4.54102H24.5391V2.54102H0.442383V4.54102ZM23.5776 3.81596L47.0151 85.774L48.938 85.2241L25.5005 3.26607L23.5776 3.81596ZM48.9373 85.7764L72.5946 3.81834L70.673 3.26369L47.0158 85.2217L48.9373 85.7764ZM124.808 78.1748L125.798 78.0375L125.679 77.1748H124.808V78.1748ZM128.836 89.2344L128.063 89.8685L128.064 89.8704L128.836 89.2344ZM160.623 94.1416L160.956 95.0846L160.959 95.0835L160.623 94.1416ZM165.384 73.3408L165.914 72.4928L165.904 72.4869L165.384 73.3408ZM150.662 68.2871L150.443 69.2629L150.448 69.264L150.662 68.2871ZM139.236 65.7236L139.016 66.699L139.017 66.6994L139.236 65.7236ZM115.945 57.4473L116.515 56.6254L116.51 56.6221L115.945 57.4473ZM175.638 9.47363L175.035 10.2713L175.04 10.2754L175.638 9.47363ZM188.309 35.6943V36.6943H189.343L189.308 35.6603L188.309 35.6943ZM166.629 35.6943L165.631 35.7544L165.687 36.6943H166.629V35.6943ZM158.133 21.8516L158.593 20.9638L158.59 20.9621L158.133 21.8516ZM131.033 41.1143L131.533 40.2484L131.527 40.2445L131.52 40.2407L131.033 41.1143ZM145.096 45.582L145.329 44.6097L145.327 44.6092L145.096 45.582ZM163.699 50.0498L163.466 51.0222L163.466 51.0223L163.699 50.0498ZM182.156 57.8867L181.537 58.6721L181.537 58.6722L182.156 57.8867ZM180.472 104.542L181.125 105.299L181.126 105.298L180.472 104.542ZM115.359 104.688L114.735 105.469L114.738 105.472L115.359 104.688ZM103.274 78.1748V77.1748H102.274V78.1748H103.274ZM123.817 78.3121C124.513 83.3302 125.895 87.2248 128.063 89.8685L129.609 88.6003C127.773 86.3612 126.47 82.8827 125.798 78.0375L123.817 78.3121ZM128.064 89.8704C132 94.6461 138.637 96.8994 147.659 96.8994V94.8994C138.908 94.8994 132.996 92.7093 129.608 88.5984L128.064 89.8704ZM147.659 96.8994C153.043 96.8994 157.489 96.3083 160.956 95.0846L160.29 93.1986C157.117 94.3187 152.92 94.8994 147.659 94.8994V96.8994ZM160.959 95.0835C164.241 93.913 166.786 92.2097 168.508 89.9282C170.234 87.6394 171.071 84.8486 171.071 81.6172H169.071C169.071 84.4893 168.334 86.8376 166.911 88.7237C165.483 90.6169 163.303 92.1241 160.287 93.1997L160.959 95.0835ZM171.071 81.6172C171.071 77.694 169.319 74.6212 165.914 72.4928L164.854 74.1888C167.698 75.9667 169.071 78.4115 169.071 81.6172H171.071ZM165.904 72.4869C162.635 70.4946 157.597 68.7819 150.876 67.3103L150.448 69.264C157.107 70.722 161.883 72.3784 164.863 74.1948L165.904 72.4869ZM150.881 67.3114L139.455 64.7479L139.017 66.6994L150.443 69.2629L150.881 67.3114ZM139.457 64.7483C128.237 62.2116 120.64 59.4851 116.515 56.6254L115.376 58.2691C119.844 61.3665 127.775 64.1575 139.016 66.699L139.457 64.7483ZM116.51 56.6221C109.564 51.8672 106.032 44.4248 106.032 34.083H104.032C104.032 44.9326 107.775 53.0663 115.38 58.2724L116.51 56.6221ZM106.032 34.083C106.032 24.6912 109.433 16.9293 116.252 10.726L114.906 9.24662C107.663 15.8363 104.032 24.1389 104.032 34.083H106.032ZM116.252 10.726C123.033 4.55725 133.079 1.3916 146.561 1.3916V-0.608398C132.796 -0.608398 122.188 2.62244 114.906 9.24662L116.252 10.726ZM146.561 1.3916C157.75 1.3916 167.223 4.36512 175.035 10.2713L176.241 8.67597C168.037 2.47277 158.125 -0.608398 146.561 -0.608398V1.3916ZM175.04 10.2754C182.816 16.0723 186.927 24.5086 187.309 35.7284L189.308 35.6603C188.909 23.9309 184.572 14.8867 176.235 8.67189L175.04 10.2754ZM188.309 34.6943H166.629V36.6943H188.309V34.6943ZM167.627 35.6343C167.218 28.8292 164.213 23.878 158.593 20.9638L157.673 22.7393C162.599 25.2939 165.259 29.5712 165.631 35.7544L167.627 35.6343ZM158.59 20.9621C154.895 19.0633 150.357 18.1416 145.022 18.1416V20.1416C150.137 20.1416 154.34 21.0266 157.676 22.741L158.59 20.9621ZM145.022 18.1416C139.087 18.1416 134.231 19.3375 130.546 21.8288L131.667 23.4857C134.915 21.2894 139.337 20.1416 145.022 20.1416V18.1416ZM130.546 21.8288C126.803 24.3593 124.906 27.9418 124.906 32.4717H126.906C126.906 28.6031 128.476 25.6427 131.667 23.4857L130.546 21.8288ZM124.906 32.4717C124.906 34.5523 125.369 36.4186 126.328 38.0356C127.287 39.6519 128.709 40.9643 130.546 41.9878L131.52 40.2407C129.939 39.3599 128.798 38.2798 128.048 37.0152C127.298 35.7513 126.906 34.2485 126.906 32.4717H124.906ZM130.533 41.9801C132.877 43.3344 137.708 44.851 144.864 46.5548L145.327 44.6092C138.128 42.8951 133.584 41.4332 131.533 40.2484L130.533 41.9801ZM144.862 46.5544L163.466 51.0222L163.933 49.0775L145.329 44.6097L144.862 46.5544ZM163.466 51.0223C171.553 52.9593 177.548 55.5275 181.537 58.6721L182.775 57.1014C178.464 53.703 172.154 51.0465 163.932 49.0773L163.466 51.0223ZM181.537 58.6722C187.699 63.5268 190.824 70.5606 190.824 79.9326H192.824C192.824 70.0663 189.504 62.4028 182.775 57.1012L181.537 58.6722ZM190.824 79.9326C190.824 89.5007 187.17 97.4294 179.818 103.785L181.126 105.298C188.91 98.5687 192.824 90.0911 192.824 79.9326H190.824ZM179.818 103.785C172.54 110.071 162.16 113.283 148.538 113.283V115.283C162.455 115.283 173.365 112.001 181.125 105.299L179.818 103.785ZM148.538 113.283C134.619 113.283 123.806 110.118 115.981 103.905L114.738 105.472C123.026 112.052 134.332 115.283 148.538 115.283V113.283ZM115.984 103.908C108.188 97.6705 104.274 89.1322 104.274 78.1748H102.274C102.274 89.6783 106.418 98.8158 114.735 105.469L115.984 103.908ZM103.274 79.1748H124.808V77.1748H103.274V79.1748Z" fill="url(#paint0_linear_1049_3085)"/>
<defs>
<linearGradient id="paint0_linear_1049_3085" x1="97.5" y1="-30.5" x2="152.746" y2="185.3" gradientUnits="userSpaceOnUse">
<stop stop-color="#3FEAE0"/>
<stop offset="1" stop-color="#064682"/>
</linearGradient>
</defs>
</svg>
