<svg width="133" height="133" viewBox="0 0 133 133" fill="none" xmlns="http://www.w3.org/2000/svg">
<g clip-path="url(#clip0_123_231)">
<g filter="url(#filter0_i_123_231)">
<path d="M15.9086 23.4176C39.7031 -4.52304 81.6424 -7.88414 109.583 15.9103C137.524 39.7048 140.885 81.6442 117.091 109.585C93.2962 137.526 51.3565 140.887 23.4159 117.093C-4.52482 93.298 -7.88591 51.3582 15.9086 23.4176Z" fill="url(#paint0_radial_123_231)"/>
</g>
<path d="M73.6586 66.0685L70.3406 57.1107L61.3782 60.4299L59.4476 55.2174L73.6231 49.9673L78.871 64.1379L73.6586 66.0685ZM82.1646 73.0306L80.2341 67.8182L75.0217 69.7488L76.9522 74.9612L82.1646 73.0306ZM71.3408 71.1125L62.3831 74.4298L59.0637 65.4673L53.8502 67.395L53.851 67.3979L59.1007 81.5734L73.2785 76.3225L71.3408 71.1125ZM57.7009 61.7924L55.7704 56.5798L50.5581 58.5101L52.4886 63.723L57.7009 61.7924Z" fill="url(#paint1_linear_123_231)"/>
<path d="M62.7404 64.1036L62.7392 64.103L68.0284 62.1441L69.9856 67.4286L69.988 67.4363L69.9809 67.4393L64.6963 69.3964L62.7374 64.1072L62.7368 64.1042L62.7404 64.1036Z" fill="white" fill-opacity="0.8"/>
</g>
<defs>
<filter id="filter0_i_123_231" x="0.0478516" y="0.0496216" width="132.903" height="132.904" filterUnits="userSpaceOnUse" color-interpolation-filters="sRGB">
<feFlood flood-opacity="0" result="BackgroundImageFix"/>
<feBlend mode="normal" in="SourceGraphic" in2="BackgroundImageFix" result="shape"/>
<feColorMatrix in="SourceAlpha" type="matrix" values="0 0 0 0 0 0 0 0 0 0 0 0 0 0 0 0 0 0 127 0" result="hardAlpha"/>
<feOffset/>
<feGaussianBlur stdDeviation="16.5"/>
<feComposite in2="hardAlpha" operator="arithmetic" k2="-1" k3="1"/>
<feColorMatrix type="matrix" values="0 0 0 0 0.844 0 0 0 0 0.5125 0 0 0 0 1 0 0 0 0.56 0"/>
<feBlend mode="normal" in2="shape" result="effect1_innerShadow_123_231"/>
</filter>
<radialGradient id="paint0_radial_123_231" cx="0" cy="0" r="1" gradientUnits="userSpaceOnUse" gradientTransform="translate(3.85493 47.2246) rotate(26.2742) scale(127.365 113.435)">
<stop stop-color="#FF900E"/>
<stop offset="0.785301" stop-color="#FFCD6C"/>
<stop offset="1" stop-color="white"/>
</radialGradient>
<linearGradient id="paint1_linear_123_231" x1="51.0108" y1="57.9711" x2="82.1321" y2="75.3625" gradientUnits="userSpaceOnUse">
<stop offset="0.576968" stop-color="white"/>
<stop offset="1" stop-color="white" stop-opacity="0.3"/>
</linearGradient>
<clipPath id="clip0_123_231">
<rect width="133" height="133" fill="white"/>
</clipPath>
</defs>
</svg>
