<svg width="134" height="151" viewBox="0 0 134 151" fill="none" xmlns="http://www.w3.org/2000/svg">
<g filter="url(#filter0_bd_188_2019)">
<path d="M4 2.72656C4 1.62199 4.89543 0.726562 6 0.726562H128C129.105 0.726562 130 1.62199 130 2.72656V140.012C130 141.605 128.229 142.559 126.899 141.682L68.101 102.911C67.4331 102.47 66.5669 102.47 65.899 102.911L7.10098 141.682C5.77123 142.559 4 141.605 4 140.012V2.72656Z" fill="url(#paint0_radial_188_2019)" fill-opacity="0.6" shape-rendering="crispEdges"/>
<path d="M6 1.22656H128C128.828 1.22656 129.5 1.89814 129.5 2.72656V140.012C129.5 141.207 128.172 141.922 127.174 141.264L68.3762 102.493C67.5413 101.943 66.4587 101.943 65.6238 102.493L6.82574 141.264C5.82842 141.922 4.5 141.207 4.5 140.012V2.72656C4.5 1.89813 5.17157 1.22656 6 1.22656Z" stroke="#F5FBF2" stroke-opacity="0.2" shape-rendering="crispEdges"/>
</g>
<path d="M36.227 40.6619C35.2188 37.9533 38.2473 35.5254 40.6717 37.0988L81.2751 63.4493C83.7811 65.0756 82.6294 68.9658 79.642 68.9658H48.8473C47.5941 68.9658 46.473 68.1868 46.0358 67.0124L36.227 40.6619Z" fill="url(#paint1_linear_188_2019)"/>
<path d="M97.4922 40.6256C98.5109 37.9235 95.498 35.4834 93.0665 37.0413L51.8676 63.4398C49.3446 65.0565 50.4896 68.9658 53.4861 68.9658H84.7324C85.981 68.9658 87.0991 68.1924 87.5395 67.0241L97.4922 40.6256Z" fill="url(#paint2_linear_188_2019)"/>
<path d="M64.1777 30.4486C65.2748 28.2072 68.4696 28.2072 69.5667 30.4486L86.4821 65.0074C87.4577 67.0005 86.0067 69.3263 83.7876 69.3263H49.9568C47.7377 69.3263 46.2867 67.0005 47.2623 65.0074L64.1777 30.4486Z" fill="url(#paint3_linear_188_2019)"/>
<g filter="url(#filter1_d_188_2019)">
<path d="M64.3904 30.2318C65.4876 27.9903 68.6824 27.9903 69.7796 30.2318L86.6954 64.7927C87.6709 66.7858 86.2199 69.1116 84.0008 69.1116H50.1692C47.9501 69.1116 46.4991 66.7858 47.4746 64.7927L64.3904 30.2318Z" fill="url(#paint4_linear_188_2019)"/>
</g>
<ellipse cx="66.8735" cy="21.6957" rx="3.999" ry="3.96918" fill="url(#paint5_linear_188_2019)"/>
<ellipse cx="35.2719" cy="33.2426" rx="3.27191" ry="3.24751" fill="url(#paint6_linear_188_2019)"/>
<ellipse cx="98.3056" cy="33.2426" rx="3.27191" ry="3.24751" fill="url(#paint7_linear_188_2019)"/>
<path d="M42.7735 88.3346C42.7735 89.2946 42.5255 90.1026 42.0295 90.7586C41.5335 91.3986 40.8615 91.8866 40.0135 92.2226C39.1815 92.5586 38.2695 92.7266 37.2775 92.7266H29.0455V75.6866H38.1655C38.9655 75.6866 39.6535 75.9026 40.2295 76.3346C40.8215 76.7506 41.2695 77.2946 41.5735 77.9666C41.8935 78.6226 42.0535 79.3106 42.0535 80.0306C42.0535 80.8466 41.8455 81.6226 41.4295 82.3586C41.0135 83.0946 40.4055 83.6386 39.6055 83.9906C40.5815 84.2786 41.3495 84.7986 41.9095 85.5506C42.4855 86.3026 42.7735 87.2306 42.7735 88.3346ZM39.4375 87.7106C39.4375 87.2786 39.3495 86.8946 39.1735 86.5586C38.9975 86.2066 38.7575 85.9346 38.4535 85.7426C38.1655 85.5346 37.8295 85.4306 37.4455 85.4306H32.3575V89.9186H37.2775C37.6775 89.9186 38.0375 89.8226 38.3575 89.6306C38.6935 89.4226 38.9575 89.1506 39.1495 88.8146C39.3415 88.4786 39.4375 88.1106 39.4375 87.7106ZM32.3575 78.5186V82.8146H36.7735C37.1415 82.8146 37.4775 82.7266 37.7815 82.5506C38.0855 82.3746 38.3255 82.1266 38.5015 81.8066C38.6935 81.4866 38.7895 81.1026 38.7895 80.6546C38.7895 80.2226 38.7015 79.8466 38.5255 79.5266C38.3655 79.2066 38.1415 78.9586 37.8535 78.7826C37.5815 78.6066 37.2695 78.5186 36.9175 78.5186H32.3575ZM52.534 82.9346C51.558 82.9346 50.686 83.1266 49.918 83.5106C49.15 83.8786 48.598 84.4146 48.262 85.1186V92.7266H45.046V80.1506H47.998V82.8386C48.446 81.9746 49.014 81.2946 49.702 80.7986C50.39 80.3026 51.118 80.0306 51.886 79.9826C52.062 79.9826 52.198 79.9826 52.294 79.9826C52.39 79.9826 52.47 79.9906 52.534 80.0066V82.9346ZM59.9712 92.9666C58.9472 92.9666 58.0272 92.7986 57.2112 92.4626C56.3952 92.1106 55.6992 91.6306 55.1232 91.0226C54.5632 90.4146 54.1312 89.7186 53.8272 88.9346C53.5232 88.1506 53.3712 87.3266 53.3712 86.4626C53.3712 85.5826 53.5232 84.7506 53.8272 83.9666C54.1312 83.1826 54.5632 82.4866 55.1232 81.8786C55.6992 81.2706 56.3952 80.7986 57.2112 80.4626C58.0272 80.1106 58.9472 79.9346 59.9712 79.9346C60.9952 79.9346 61.9072 80.1106 62.7072 80.4626C63.5232 80.7986 64.2192 81.2706 64.7952 81.8786C65.3712 82.4866 65.8032 83.1826 66.0912 83.9666C66.3952 84.7506 66.5472 85.5826 66.5472 86.4626C66.5472 87.3266 66.3952 88.1506 66.0912 88.9346C65.8032 89.7186 65.3712 90.4146 64.7952 91.0226C64.2352 91.6306 63.5472 92.1106 62.7312 92.4626C61.9152 92.7986 60.9952 92.9666 59.9712 92.9666ZM56.6832 86.4626C56.6832 87.1986 56.8272 87.8546 57.1152 88.4306C57.4032 88.9906 57.7952 89.4306 58.2912 89.7506C58.7872 90.0706 59.3472 90.2306 59.9712 90.2306C60.5792 90.2306 61.1312 90.0706 61.6272 89.7506C62.1232 89.4146 62.5152 88.9666 62.8032 88.4066C63.1072 87.8306 63.2592 87.1746 63.2592 86.4386C63.2592 85.7186 63.1072 85.0706 62.8032 84.4946C62.5152 83.9186 62.1232 83.4706 61.6272 83.1506C61.1312 82.8306 60.5792 82.6706 59.9712 82.6706C59.3472 82.6706 58.7872 82.8386 58.2912 83.1746C57.7952 83.4946 57.4032 83.9426 57.1152 84.5186C56.8272 85.0786 56.6832 85.7266 56.6832 86.4626ZM80.4059 92.7266H77.1899V85.6706C77.1899 84.6626 77.0139 83.9266 76.6619 83.4626C76.3099 82.9986 75.8219 82.7666 75.1979 82.7666C74.7659 82.7666 74.3259 82.8786 73.8779 83.1026C73.4459 83.3266 73.0539 83.6386 72.7019 84.0386C72.3499 84.4226 72.0939 84.8706 71.9339 85.3826V92.7266H68.7179V80.1506H71.6219V82.4786C71.9419 81.9346 72.3499 81.4786 72.8459 81.1106C73.3419 80.7266 73.9099 80.4386 74.5499 80.2466C75.2059 80.0386 75.8939 79.9346 76.6139 79.9346C77.3979 79.9346 78.0379 80.0786 78.5339 80.3666C79.0459 80.6386 79.4299 81.0146 79.6859 81.4946C79.9579 81.9586 80.1419 82.4866 80.2379 83.0786C80.3499 83.6706 80.4059 84.2706 80.4059 84.8786V92.7266ZM82.3623 90.7586L89.2983 82.4066H82.6503V80.1506H92.7543V82.1186L85.8663 90.4706H92.8743V92.7266H82.3623V90.7586ZM100.659 92.9666C99.6513 92.9666 98.7393 92.7986 97.9233 92.4626C97.1073 92.1106 96.4113 91.6386 95.8353 91.0466C95.2593 90.4386 94.8113 89.7506 94.4913 88.9826C94.1873 88.1986 94.0353 87.3746 94.0353 86.5106C94.0353 85.3106 94.2993 84.2146 94.8273 83.2226C95.3713 82.2306 96.1393 81.4386 97.1313 80.8466C98.1393 80.2386 99.3233 79.9346 100.683 79.9346C102.059 79.9346 103.235 80.2386 104.211 80.8466C105.187 81.4386 105.931 82.2306 106.443 83.2226C106.971 84.1986 107.235 85.2546 107.235 86.3906C107.235 86.5826 107.227 86.7826 107.211 86.9906C107.195 87.1826 107.179 87.3426 107.163 87.4706H97.4433C97.5073 88.1106 97.6913 88.6706 97.9953 89.1506C98.3153 89.6306 98.7153 89.9986 99.1953 90.2546C99.6913 90.4946 100.219 90.6146 100.779 90.6146C101.419 90.6146 102.019 90.4626 102.579 90.1586C103.155 89.8386 103.547 89.4226 103.755 88.9106L106.515 89.6786C106.211 90.3186 105.771 90.8866 105.195 91.3826C104.635 91.8786 103.971 92.2706 103.203 92.5586C102.435 92.8306 101.587 92.9666 100.659 92.9666ZM97.3713 85.4306H103.947C103.883 84.7906 103.699 84.2386 103.395 83.7746C103.107 83.2946 102.723 82.9266 102.243 82.6706C101.763 82.3986 101.227 82.2626 100.635 82.2626C100.059 82.2626 99.5313 82.3986 99.0513 82.6706C98.5873 82.9266 98.2033 83.2946 97.8993 83.7746C97.6113 84.2386 97.4353 84.7906 97.3713 85.4306Z" fill="#F5F5F6"/>
<defs>
<filter id="filter0_bd_188_2019" x="-96" y="-99.2734" width="326" height="341.289" filterUnits="userSpaceOnUse" color-interpolation-filters="sRGB">
<feFlood flood-opacity="0" result="BackgroundImageFix"/>
<feGaussianBlur in="BackgroundImageFix" stdDeviation="50"/>
<feComposite in2="SourceAlpha" operator="in" result="effect1_backgroundBlur_188_2019"/>
<feColorMatrix in="SourceAlpha" type="matrix" values="0 0 0 0 0 0 0 0 0 0 0 0 0 0 0 0 0 0 127 0" result="hardAlpha"/>
<feOffset dy="4"/>
<feGaussianBlur stdDeviation="2"/>
<feComposite in2="hardAlpha" operator="out"/>
<feColorMatrix type="matrix" values="0 0 0 0 0 0 0 0 0 0 0 0 0 0 0 0 0 0 0.25 0"/>
<feBlend mode="normal" in2="effect1_backgroundBlur_188_2019" result="effect2_dropShadow_188_2019"/>
<feBlend mode="normal" in="SourceGraphic" in2="effect2_dropShadow_188_2019" result="shape"/>
</filter>
<filter id="filter1_d_188_2019" x="43.1655" y="28.5508" width="47.8389" height="48.5608" filterUnits="userSpaceOnUse" color-interpolation-filters="sRGB">
<feFlood flood-opacity="0" result="BackgroundImageFix"/>
<feColorMatrix in="SourceAlpha" type="matrix" values="0 0 0 0 0 0 0 0 0 0 0 0 0 0 0 0 0 0 127 0" result="hardAlpha"/>
<feOffset dy="4"/>
<feGaussianBlur stdDeviation="2"/>
<feComposite in2="hardAlpha" operator="out"/>
<feColorMatrix type="matrix" values="0 0 0 0 0 0 0 0 0 0 0 0 0 0 0 0 0 0 0.25 0"/>
<feBlend mode="normal" in2="BackgroundImageFix" result="effect1_dropShadow_188_2019"/>
<feBlend mode="normal" in="SourceGraphic" in2="effect1_dropShadow_188_2019" result="shape"/>
</filter>
<radialGradient id="paint0_radial_188_2019" cx="0" cy="0" r="1" gradientUnits="userSpaceOnUse" gradientTransform="translate(-5.26469 -10.7511) rotate(46.1479) scale(232.124 206.785)">
<stop stop-color="#E4F9FF"/>
<stop offset="0.871834" stop-color="#CDD7FF" stop-opacity="0.74"/>
<stop offset="1" stop-color="#020062" stop-opacity="0"/>
</radialGradient>
<linearGradient id="paint1_linear_188_2019" x1="61" y1="74.7266" x2="44.7952" y2="41.3259" gradientUnits="userSpaceOnUse">
<stop stop-color="#FCD0B8"/>
<stop offset="1" stop-color="#FEEEE5"/>
</linearGradient>
<linearGradient id="paint2_linear_188_2019" x1="81" y1="71.2266" x2="92.7295" y2="28.652" gradientUnits="userSpaceOnUse">
<stop stop-color="#FCD0B8"/>
<stop offset="1" stop-color="#FEF2EA"/>
</linearGradient>
<linearGradient id="paint3_linear_188_2019" x1="55.7588" y1="47.7904" x2="78.3032" y2="47.7904" gradientUnits="userSpaceOnUse">
<stop stop-color="#D1D2D6"/>
<stop offset="0.253056" stop-color="#CCCED4"/>
<stop offset="0.485509" stop-color="#BCC5D3"/>
<stop offset="0.508175" stop-color="#A8B0BD"/>
<stop offset="0.793364" stop-color="#8F9EB3"/>
<stop offset="0.83589" stop-color="#8B9CB6"/>
<stop offset="0.936891" stop-color="#8B9AB2"/>
</linearGradient>
<linearGradient id="paint4_linear_188_2019" x1="41" y1="52.7266" x2="74" y2="21.2266" gradientUnits="userSpaceOnUse">
<stop stop-color="#FFDCC8"/>
<stop offset="0.994792" stop-color="#FEF7ED"/>
</linearGradient>
<linearGradient id="paint5_linear_188_2019" x1="66.8144" y1="26.9074" x2="62.5555" y2="21.1678" gradientUnits="userSpaceOnUse">
<stop stop-color="#FCD0B8"/>
<stop offset="1" stop-color="#FEEEE5"/>
</linearGradient>
<linearGradient id="paint6_linear_188_2019" x1="35.2236" y1="37.5068" x2="31.739" y2="32.8107" gradientUnits="userSpaceOnUse">
<stop stop-color="#FCD0B8"/>
<stop offset="1" stop-color="#FEEEE5"/>
</linearGradient>
<linearGradient id="paint7_linear_188_2019" x1="98.2573" y1="37.5068" x2="94.7727" y2="32.8107" gradientUnits="userSpaceOnUse">
<stop stop-color="#FCD0B8"/>
<stop offset="1" stop-color="#FEEEE5"/>
</linearGradient>
</defs>
</svg>
