<svg width="134" height="150" viewBox="0 0 134 150" fill="none" xmlns="http://www.w3.org/2000/svg">
<g filter="url(#filter0_bd_188_3895)">
<path d="M4 2C4 0.895427 4.89543 0 6 0H128C129.105 0 130 0.89543 130 2V139.286C130 140.878 128.229 141.832 126.899 140.955L68.101 102.184C67.4331 101.744 66.5669 101.744 65.899 102.184L7.10098 140.955C5.77123 141.832 4 140.878 4 139.286V2Z" fill="url(#paint0_radial_188_3895)" fill-opacity="0.6" shape-rendering="crispEdges"/>
</g>
<g filter="url(#filter1_di_188_3895)">
<path d="M36.727 39.9354C35.7188 37.2268 38.7473 34.7989 41.1717 36.3723L81.7751 62.7228C84.2811 64.3491 83.1294 68.2393 80.142 68.2393H49.3473C48.0941 68.2393 46.973 67.4603 46.5358 66.2859L36.727 39.9354Z" fill="url(#paint1_linear_188_3895)"/>
</g>
<g filter="url(#filter2_di_188_3895)">
<path d="M97.9922 39.8991C99.0109 37.197 95.998 34.7569 93.5665 36.3148L52.3676 62.7134C49.8446 64.33 50.9896 68.2393 53.9861 68.2393H85.2324C86.481 68.2393 87.5991 67.466 88.0395 66.2976L97.9922 39.8991Z" fill="url(#paint2_linear_188_3895)"/>
</g>
<path d="M64.6777 29.7221C65.7748 27.4806 68.9696 27.4806 70.0667 29.7221L86.9821 64.2809C87.9577 66.274 86.5067 68.5998 84.2876 68.5998H50.4568C48.2377 68.5998 46.7867 66.274 47.7623 64.2809L64.6777 29.7221Z" fill="url(#paint3_linear_188_3895)"/>
<g filter="url(#filter3_di_188_3895)">
<path d="M64.3904 29.5053C65.4876 27.2637 68.6824 27.2637 69.7796 29.5053L86.6954 64.0661C87.6709 66.0593 86.2199 68.385 84.0008 68.385H50.1692C47.9501 68.385 46.4991 66.0593 47.4746 64.0662L64.3904 29.5053Z" fill="url(#paint4_linear_188_3895)"/>
</g>
<g filter="url(#filter4_di_188_3895)">
<ellipse cx="67.3735" cy="20.9692" rx="3.999" ry="3.96918" fill="url(#paint5_linear_188_3895)"/>
</g>
<g filter="url(#filter5_di_188_3895)">
<ellipse cx="35.7719" cy="32.516" rx="3.27191" ry="3.24751" fill="url(#paint6_linear_188_3895)"/>
</g>
<g filter="url(#filter6_di_188_3895)">
<ellipse cx="98.8056" cy="32.516" rx="3.27191" ry="3.24751" fill="url(#paint7_linear_188_3895)"/>
</g>
<path d="M17.8385 92V74.96H24.0305C25.8865 74.96 27.4385 75.344 28.6865 76.112C29.9345 76.864 30.8705 77.888 31.4945 79.184C32.1185 80.464 32.4305 81.888 32.4305 83.456C32.4305 85.184 32.0865 86.688 31.3985 87.968C30.7105 89.248 29.7345 90.24 28.4705 90.944C27.2225 91.648 25.7425 92 24.0305 92H17.8385ZM29.0945 83.456C29.0945 82.352 28.8945 81.384 28.4945 80.552C28.0945 79.704 27.5185 79.048 26.7665 78.584C26.0145 78.104 25.1025 77.864 24.0305 77.864H21.1505V89.096H24.0305C25.1185 89.096 26.0385 88.856 26.7905 88.376C27.5425 87.88 28.1105 87.208 28.4945 86.36C28.8945 85.496 29.0945 84.528 29.0945 83.456ZM34.6593 92V79.424H37.8753V92H34.6593ZM34.6593 77.672V74.48H37.8753V77.672H34.6593ZM39.9125 88.28C39.9125 87.464 40.1365 86.752 40.5845 86.144C41.0485 85.52 41.6885 85.04 42.5045 84.704C43.3205 84.368 44.2565 84.2 45.3125 84.2C45.8405 84.2 46.3765 84.24 46.9205 84.32C47.4645 84.4 47.9365 84.528 48.3365 84.704V84.032C48.3365 83.232 48.0965 82.616 47.6165 82.184C47.1525 81.752 46.4565 81.536 45.5285 81.536C44.8405 81.536 44.1845 81.656 43.5605 81.896C42.9365 82.136 42.2805 82.488 41.5925 82.952L40.5605 80.84C41.3925 80.296 42.2405 79.888 43.1045 79.616C43.9845 79.344 44.9045 79.208 45.8645 79.208C47.6565 79.208 49.0485 79.656 50.0405 80.552C51.0485 81.448 51.5525 82.728 51.5525 84.392V88.4C51.5525 88.736 51.6085 88.976 51.7205 89.12C51.8485 89.264 52.0485 89.352 52.3205 89.384V92C52.0325 92.048 51.7685 92.088 51.5285 92.12C51.3045 92.152 51.1125 92.168 50.9525 92.168C50.3125 92.168 49.8245 92.024 49.4885 91.736C49.1685 91.448 48.9685 91.096 48.8885 90.68L48.8165 90.032C48.2725 90.736 47.5925 91.28 46.7765 91.664C45.9605 92.048 45.1285 92.24 44.2805 92.24C43.4485 92.24 42.6965 92.072 42.0245 91.736C41.3685 91.384 40.8485 90.912 40.4645 90.32C40.0965 89.712 39.9125 89.032 39.9125 88.28ZM47.7365 88.928C47.9125 88.736 48.0565 88.544 48.1685 88.352C48.2805 88.16 48.3365 87.984 48.3365 87.824V86.552C47.9525 86.392 47.5365 86.272 47.0885 86.192C46.6405 86.096 46.2165 86.048 45.8165 86.048C44.9845 86.048 44.2965 86.232 43.7525 86.6C43.2245 86.952 42.9605 87.424 42.9605 88.016C42.9605 88.336 43.0485 88.64 43.2245 88.928C43.4005 89.216 43.6565 89.448 43.9925 89.624C44.3285 89.8 44.7285 89.888 45.1925 89.888C45.6725 89.888 46.1445 89.8 46.6085 89.624C47.0725 89.432 47.4485 89.2 47.7365 88.928ZM74.0938 92H70.8778V84.944C70.8778 83.952 70.7018 83.224 70.3498 82.76C70.0138 82.28 69.5418 82.04 68.9338 82.04C68.3098 82.04 67.7098 82.288 67.1338 82.784C66.5738 83.264 66.1738 83.896 65.9338 84.68V92H62.7178V84.944C62.7178 83.936 62.5418 83.2 62.1898 82.736C61.8538 82.272 61.3818 82.04 60.7738 82.04C60.1498 82.04 59.5498 82.28 58.9738 82.76C58.4138 83.24 58.0138 83.872 57.7738 84.656V92H54.5578V79.424H57.4618V81.752C57.9418 80.936 58.5818 80.312 59.3818 79.88C60.1818 79.432 61.1018 79.208 62.1418 79.208C63.1818 79.208 63.9898 79.464 64.5658 79.976C65.1578 80.488 65.5338 81.12 65.6938 81.872C66.2058 81.008 66.8538 80.352 67.6378 79.904C68.4378 79.44 69.3338 79.208 70.3258 79.208C71.1098 79.208 71.7418 79.352 72.2218 79.64C72.7178 79.912 73.1018 80.288 73.3738 80.768C73.6458 81.232 73.8298 81.76 73.9258 82.352C74.0378 82.944 74.0938 83.544 74.0938 84.152V92ZM82.7017 92.24C81.6777 92.24 80.7577 92.072 79.9417 91.736C79.1257 91.384 78.4297 90.904 77.8537 90.296C77.2937 89.688 76.8617 88.992 76.5577 88.208C76.2537 87.424 76.1017 86.6 76.1017 85.736C76.1017 84.856 76.2537 84.024 76.5577 83.24C76.8617 82.456 77.2937 81.76 77.8537 81.152C78.4297 80.544 79.1257 80.072 79.9417 79.736C80.7577 79.384 81.6777 79.208 82.7017 79.208C83.7257 79.208 84.6377 79.384 85.4377 79.736C86.2537 80.072 86.9497 80.544 87.5257 81.152C88.1017 81.76 88.5337 82.456 88.8217 83.24C89.1257 84.024 89.2777 84.856 89.2777 85.736C89.2777 86.6 89.1257 87.424 88.8217 88.208C88.5337 88.992 88.1017 89.688 87.5257 90.296C86.9657 90.904 86.2777 91.384 85.4617 91.736C84.6457 92.072 83.7257 92.24 82.7017 92.24ZM79.4137 85.736C79.4137 86.472 79.5577 87.128 79.8457 87.704C80.1337 88.264 80.5257 88.704 81.0217 89.024C81.5177 89.344 82.0777 89.504 82.7017 89.504C83.3097 89.504 83.8617 89.344 84.3577 89.024C84.8537 88.688 85.2457 88.24 85.5337 87.68C85.8377 87.104 85.9897 86.448 85.9897 85.712C85.9897 84.992 85.8377 84.344 85.5337 83.768C85.2457 83.192 84.8537 82.744 84.3577 82.424C83.8617 82.104 83.3097 81.944 82.7017 81.944C82.0777 81.944 81.5177 82.112 81.0217 82.448C80.5257 82.768 80.1337 83.216 79.8457 83.792C79.5577 84.352 79.4137 85 79.4137 85.736ZM103.136 92H99.9204V84.944C99.9204 83.936 99.7444 83.2 99.3924 82.736C99.0404 82.272 98.5524 82.04 97.9284 82.04C97.4964 82.04 97.0564 82.152 96.6084 82.376C96.1764 82.6 95.7844 82.912 95.4324 83.312C95.0804 83.696 94.8244 84.144 94.6644 84.656V92H91.4484V79.424H94.3524V81.752C94.6724 81.208 95.0804 80.752 95.5764 80.384C96.0724 80 96.6404 79.712 97.2804 79.52C97.9364 79.312 98.6244 79.208 99.3444 79.208C100.128 79.208 100.768 79.352 101.264 79.64C101.776 79.912 102.16 80.288 102.416 80.768C102.688 81.232 102.872 81.76 102.968 82.352C103.08 82.944 103.136 83.544 103.136 84.152V92ZM105.165 85.712C105.165 84.496 105.405 83.4 105.885 82.424C106.365 81.432 107.029 80.648 107.877 80.072C108.725 79.496 109.693 79.208 110.781 79.208C111.709 79.208 112.541 79.44 113.277 79.904C114.029 80.352 114.613 80.928 115.029 81.632V74.48H118.245V88.4C118.245 88.736 118.301 88.976 118.413 89.12C118.525 89.264 118.717 89.352 118.989 89.384V92C118.429 92.112 117.973 92.168 117.621 92.168C117.045 92.168 116.565 92.024 116.181 91.736C115.813 91.448 115.605 91.072 115.557 90.608L115.509 89.816C115.045 90.6 114.413 91.2 113.613 91.616C112.829 92.032 112.005 92.24 111.141 92.24C110.277 92.24 109.477 92.072 108.741 91.736C108.021 91.4 107.389 90.936 106.845 90.344C106.317 89.752 105.901 89.064 105.597 88.28C105.309 87.48 105.165 86.624 105.165 85.712ZM115.029 87.392V84.392C114.869 83.928 114.613 83.512 114.261 83.144C113.909 82.776 113.517 82.488 113.085 82.28C112.653 82.056 112.221 81.944 111.789 81.944C111.293 81.944 110.845 82.048 110.445 82.256C110.045 82.464 109.693 82.744 109.389 83.096C109.101 83.448 108.877 83.856 108.717 84.32C108.573 84.784 108.501 85.272 108.501 85.784C108.501 86.296 108.581 86.784 108.741 87.248C108.917 87.696 109.165 88.088 109.485 88.424C109.805 88.76 110.173 89.024 110.589 89.216C111.021 89.408 111.485 89.504 111.981 89.504C112.285 89.504 112.589 89.456 112.893 89.36C113.213 89.248 113.509 89.104 113.781 88.928C114.069 88.736 114.317 88.512 114.525 88.256C114.749 87.984 114.917 87.696 115.029 87.392Z" fill="#AEFFEB"/>
<defs>
<filter id="filter0_bd_188_3895" x="-96" y="-100" width="326" height="341.289" filterUnits="userSpaceOnUse" color-interpolation-filters="sRGB">
<feFlood flood-opacity="0" result="BackgroundImageFix"/>
<feGaussianBlur in="BackgroundImageFix" stdDeviation="50"/>
<feComposite in2="SourceAlpha" operator="in" result="effect1_backgroundBlur_188_3895"/>
<feColorMatrix in="SourceAlpha" type="matrix" values="0 0 0 0 0 0 0 0 0 0 0 0 0 0 0 0 0 0 127 0" result="hardAlpha"/>
<feOffset dy="4"/>
<feGaussianBlur stdDeviation="2"/>
<feComposite in2="hardAlpha" operator="out"/>
<feColorMatrix type="matrix" values="0 0 0 0 0 0 0 0 0 0 0 0 0 0 0 0 0 0 0.25 0"/>
<feBlend mode="normal" in2="effect1_backgroundBlur_188_3895" result="effect2_dropShadow_188_3895"/>
<feBlend mode="normal" in="SourceGraphic" in2="effect2_dropShadow_188_3895" result="shape"/>
</filter>
<filter id="filter1_di_188_3895" x="32.5278" y="34.8752" width="54.6196" height="40.3641" filterUnits="userSpaceOnUse" color-interpolation-filters="sRGB">
<feFlood flood-opacity="0" result="BackgroundImageFix"/>
<feColorMatrix in="SourceAlpha" type="matrix" values="0 0 0 0 0 0 0 0 0 0 0 0 0 0 0 0 0 0 127 0" result="hardAlpha"/>
<feOffset dy="3"/>
<feGaussianBlur stdDeviation="2"/>
<feComposite in2="hardAlpha" operator="out"/>
<feColorMatrix type="matrix" values="0 0 0 0 0.958125 0 0 0 0 0.941875 0 0 0 0 0.941875 0 0 0 0.13 0"/>
<feBlend mode="normal" in2="BackgroundImageFix" result="effect1_dropShadow_188_3895"/>
<feBlend mode="normal" in="SourceGraphic" in2="effect1_dropShadow_188_3895" result="shape"/>
<feColorMatrix in="SourceAlpha" type="matrix" values="0 0 0 0 0 0 0 0 0 0 0 0 0 0 0 0 0 0 127 0" result="hardAlpha"/>
<feOffset dy="4"/>
<feGaussianBlur stdDeviation="2"/>
<feComposite in2="hardAlpha" operator="arithmetic" k2="-1" k3="1"/>
<feColorMatrix type="matrix" values="0 0 0 0 1 0 0 0 0 1 0 0 0 0 1 0 0 0 0.64 0"/>
<feBlend mode="normal" in2="shape" result="effect2_innerShadow_188_3895"/>
</filter>
<filter id="filter2_di_188_3895" x="46.9805" y="34.8272" width="55.2153" height="40.4121" filterUnits="userSpaceOnUse" color-interpolation-filters="sRGB">
<feFlood flood-opacity="0" result="BackgroundImageFix"/>
<feColorMatrix in="SourceAlpha" type="matrix" values="0 0 0 0 0 0 0 0 0 0 0 0 0 0 0 0 0 0 127 0" result="hardAlpha"/>
<feOffset dy="3"/>
<feGaussianBlur stdDeviation="2"/>
<feComposite in2="hardAlpha" operator="out"/>
<feColorMatrix type="matrix" values="0 0 0 0 0.958125 0 0 0 0 0.941875 0 0 0 0 0.941875 0 0 0 0.13 0"/>
<feBlend mode="normal" in2="BackgroundImageFix" result="effect1_dropShadow_188_3895"/>
<feBlend mode="normal" in="SourceGraphic" in2="effect1_dropShadow_188_3895" result="shape"/>
<feColorMatrix in="SourceAlpha" type="matrix" values="0 0 0 0 0 0 0 0 0 0 0 0 0 0 0 0 0 0 127 0" result="hardAlpha"/>
<feOffset dy="4"/>
<feGaussianBlur stdDeviation="2"/>
<feComposite in2="hardAlpha" operator="arithmetic" k2="-1" k3="1"/>
<feColorMatrix type="matrix" values="0 0 0 0 1 0 0 0 0 1 0 0 0 0 1 0 0 0 0.64 0"/>
<feBlend mode="normal" in2="shape" result="effect2_innerShadow_188_3895"/>
</filter>
<filter id="filter3_di_188_3895" x="43.1655" y="26.8241" width="47.8389" height="48.5609" filterUnits="userSpaceOnUse" color-interpolation-filters="sRGB">
<feFlood flood-opacity="0" result="BackgroundImageFix"/>
<feColorMatrix in="SourceAlpha" type="matrix" values="0 0 0 0 0 0 0 0 0 0 0 0 0 0 0 0 0 0 127 0" result="hardAlpha"/>
<feOffset dy="3"/>
<feGaussianBlur stdDeviation="2"/>
<feComposite in2="hardAlpha" operator="out"/>
<feColorMatrix type="matrix" values="0 0 0 0 0.958125 0 0 0 0 0.941875 0 0 0 0 0.941875 0 0 0 0.13 0"/>
<feBlend mode="normal" in2="BackgroundImageFix" result="effect1_dropShadow_188_3895"/>
<feBlend mode="normal" in="SourceGraphic" in2="effect1_dropShadow_188_3895" result="shape"/>
<feColorMatrix in="SourceAlpha" type="matrix" values="0 0 0 0 0 0 0 0 0 0 0 0 0 0 0 0 0 0 127 0" result="hardAlpha"/>
<feOffset dy="4"/>
<feGaussianBlur stdDeviation="2"/>
<feComposite in2="hardAlpha" operator="arithmetic" k2="-1" k3="1"/>
<feColorMatrix type="matrix" values="0 0 0 0 1 0 0 0 0 1 0 0 0 0 1 0 0 0 0.64 0"/>
<feBlend mode="normal" in2="shape" result="effect2_innerShadow_188_3895"/>
</filter>
<filter id="filter4_di_188_3895" x="59.3745" y="15" width="15.998" height="15.9384" filterUnits="userSpaceOnUse" color-interpolation-filters="sRGB">
<feFlood flood-opacity="0" result="BackgroundImageFix"/>
<feColorMatrix in="SourceAlpha" type="matrix" values="0 0 0 0 0 0 0 0 0 0 0 0 0 0 0 0 0 0 127 0" result="hardAlpha"/>
<feOffset dy="2"/>
<feGaussianBlur stdDeviation="2"/>
<feComposite in2="hardAlpha" operator="out"/>
<feColorMatrix type="matrix" values="0 0 0 0 0.989062 0 0 0 0 0.985937 0 0 0 0 0.985937 0 0 0 0.25 0"/>
<feBlend mode="normal" in2="BackgroundImageFix" result="effect1_dropShadow_188_3895"/>
<feBlend mode="normal" in="SourceGraphic" in2="effect1_dropShadow_188_3895" result="shape"/>
<feColorMatrix in="SourceAlpha" type="matrix" values="0 0 0 0 0 0 0 0 0 0 0 0 0 0 0 0 0 0 127 0" result="hardAlpha"/>
<feOffset dy="4"/>
<feGaussianBlur stdDeviation="2"/>
<feComposite in2="hardAlpha" operator="arithmetic" k2="-1" k3="1"/>
<feColorMatrix type="matrix" values="0 0 0 0 1 0 0 0 0 1 0 0 0 0 1 0 0 0 0.64 0"/>
<feBlend mode="normal" in2="shape" result="effect2_innerShadow_188_3895"/>
</filter>
<filter id="filter5_di_188_3895" x="28.5" y="27.2685" width="14.5439" height="14.495" filterUnits="userSpaceOnUse" color-interpolation-filters="sRGB">
<feFlood flood-opacity="0" result="BackgroundImageFix"/>
<feColorMatrix in="SourceAlpha" type="matrix" values="0 0 0 0 0 0 0 0 0 0 0 0 0 0 0 0 0 0 127 0" result="hardAlpha"/>
<feOffset dy="2"/>
<feGaussianBlur stdDeviation="2"/>
<feComposite in2="hardAlpha" operator="out"/>
<feColorMatrix type="matrix" values="0 0 0 0 0.989062 0 0 0 0 0.985937 0 0 0 0 0.985937 0 0 0 0.25 0"/>
<feBlend mode="normal" in2="BackgroundImageFix" result="effect1_dropShadow_188_3895"/>
<feBlend mode="normal" in="SourceGraphic" in2="effect1_dropShadow_188_3895" result="shape"/>
<feColorMatrix in="SourceAlpha" type="matrix" values="0 0 0 0 0 0 0 0 0 0 0 0 0 0 0 0 0 0 127 0" result="hardAlpha"/>
<feOffset dy="4"/>
<feGaussianBlur stdDeviation="2"/>
<feComposite in2="hardAlpha" operator="arithmetic" k2="-1" k3="1"/>
<feColorMatrix type="matrix" values="0 0 0 0 1 0 0 0 0 1 0 0 0 0 1 0 0 0 0.64 0"/>
<feBlend mode="normal" in2="shape" result="effect2_innerShadow_188_3895"/>
</filter>
<filter id="filter6_di_188_3895" x="91.5337" y="27.2685" width="14.5439" height="14.495" filterUnits="userSpaceOnUse" color-interpolation-filters="sRGB">
<feFlood flood-opacity="0" result="BackgroundImageFix"/>
<feColorMatrix in="SourceAlpha" type="matrix" values="0 0 0 0 0 0 0 0 0 0 0 0 0 0 0 0 0 0 127 0" result="hardAlpha"/>
<feOffset dy="2"/>
<feGaussianBlur stdDeviation="2"/>
<feComposite in2="hardAlpha" operator="out"/>
<feColorMatrix type="matrix" values="0 0 0 0 0.989062 0 0 0 0 0.985937 0 0 0 0 0.985937 0 0 0 0.25 0"/>
<feBlend mode="normal" in2="BackgroundImageFix" result="effect1_dropShadow_188_3895"/>
<feBlend mode="normal" in="SourceGraphic" in2="effect1_dropShadow_188_3895" result="shape"/>
<feColorMatrix in="SourceAlpha" type="matrix" values="0 0 0 0 0 0 0 0 0 0 0 0 0 0 0 0 0 0 127 0" result="hardAlpha"/>
<feOffset dy="4"/>
<feGaussianBlur stdDeviation="2"/>
<feComposite in2="hardAlpha" operator="arithmetic" k2="-1" k3="1"/>
<feColorMatrix type="matrix" values="0 0 0 0 1 0 0 0 0 1 0 0 0 0 1 0 0 0 0.64 0"/>
<feBlend mode="normal" in2="shape" result="effect2_innerShadow_188_3895"/>
</filter>
<radialGradient id="paint0_radial_188_3895" cx="0" cy="0" r="1" gradientUnits="userSpaceOnUse" gradientTransform="translate(-5.26469 -11.4776) rotate(46.1479) scale(232.124 206.785)">
<stop stop-color="#E4F9FF"/>
<stop offset="0.871834" stop-color="#CDD7FF" stop-opacity="0.74"/>
<stop offset="1" stop-color="#020062" stop-opacity="0"/>
</radialGradient>
<linearGradient id="paint1_linear_188_3895" x1="61.8229" y1="59.4205" x2="37.5639" y2="39.9893" gradientUnits="userSpaceOnUse">
<stop stop-color="#BAFCEC"/>
<stop offset="0.400251" stop-color="#B2FBEA"/>
<stop offset="0.795824" stop-color="#B7FCEC"/>
</linearGradient>
<linearGradient id="paint2_linear_188_3895" x1="72.5609" y1="59.4205" x2="96.8856" y2="39.6869" gradientUnits="userSpaceOnUse">
<stop stop-color="#BAFCEC"/>
<stop offset="0.400251" stop-color="#B2FBEA"/>
<stop offset="0.795824" stop-color="#B7FCEC"/>
</linearGradient>
<linearGradient id="paint3_linear_188_3895" x1="56.2588" y1="47.0639" x2="78.8032" y2="47.0639" gradientUnits="userSpaceOnUse">
<stop stop-color="#D1D2D6"/>
<stop offset="0.253056" stop-color="#CCCED4"/>
<stop offset="0.485509" stop-color="#BCC5D3"/>
<stop offset="0.508175" stop-color="#A8B0BD"/>
<stop offset="0.793364" stop-color="#8F9EB3"/>
<stop offset="0.83589" stop-color="#8B9CB6"/>
<stop offset="0.936891" stop-color="#8B9AB2"/>
</linearGradient>
<linearGradient id="paint4_linear_188_3895" x1="67" y1="69" x2="37.5" y2="56" gradientUnits="userSpaceOnUse">
<stop stop-color="#BAFCEC"/>
<stop offset="0.400251" stop-color="#B2FBEA"/>
<stop offset="0.795824" stop-color="#B7FCEC"/>
</linearGradient>
<linearGradient id="paint5_linear_188_3895" x1="67.36" y1="23.0363" x2="62.9527" y2="20.7281" gradientUnits="userSpaceOnUse">
<stop stop-color="#BAFCEC"/>
<stop offset="0.400251" stop-color="#B2FBEA"/>
<stop offset="0.795824" stop-color="#B7FCEC"/>
</linearGradient>
<linearGradient id="paint6_linear_188_3895" x1="35.7608" y1="34.2073" x2="32.1549" y2="32.3188" gradientUnits="userSpaceOnUse">
<stop stop-color="#BAFCEC"/>
<stop offset="0.400251" stop-color="#B2FBEA"/>
<stop offset="0.795824" stop-color="#B7FCEC"/>
</linearGradient>
<linearGradient id="paint7_linear_188_3895" x1="98.7945" y1="34.2073" x2="95.1886" y2="32.3188" gradientUnits="userSpaceOnUse">
<stop stop-color="#BAFCEC"/>
<stop offset="0.400251" stop-color="#B2FBEA"/>
<stop offset="0.795824" stop-color="#B7FCEC"/>
</linearGradient>
</defs>
</svg>
