<svg width="134" height="151" viewBox="0 0 134 151" fill="none" xmlns="http://www.w3.org/2000/svg">
<g filter="url(#filter0_bd_188_2220)">
<path d="M4 2.72656C4 1.62199 4.89543 0.726562 6 0.726562H128C129.105 0.726562 130 1.62199 130 2.72656V140.012C130 141.605 128.229 142.559 126.899 141.682L68.101 102.911C67.4331 102.47 66.5669 102.47 65.899 102.911L7.10098 141.682C5.77123 142.559 4 141.605 4 140.012V2.72656Z" fill="url(#paint0_radial_188_2220)" fill-opacity="0.6" shape-rendering="crispEdges"/>
<path d="M6 1.22656H128C128.828 1.22656 129.5 1.89814 129.5 2.72656V140.012C129.5 141.207 128.172 141.922 127.174 141.264L68.3762 102.493C67.5413 101.943 66.4587 101.943 65.6238 102.493L6.82574 141.264C5.82842 141.922 4.5 141.207 4.5 140.012V2.72656C4.5 1.89813 5.17157 1.22656 6 1.22656Z" stroke="#F5FBF2" stroke-opacity="0.2" shape-rendering="crispEdges"/>
</g>
<path d="M36.227 40.662C35.2188 37.9534 38.2473 35.5255 40.6717 37.0989L81.2751 63.4494C83.7811 65.0757 82.6294 68.9659 79.642 68.9659H48.8473C47.5941 68.9659 46.473 68.1869 46.0358 67.0125L36.227 40.662Z" fill="url(#paint1_linear_188_2220)"/>
<path d="M97.4922 40.6257C98.5109 37.9236 95.498 35.4835 93.0665 37.0414L51.8676 63.44C49.3446 65.0566 50.4896 68.9659 53.4861 68.9659H84.7324C85.981 68.9659 87.0991 68.1926 87.5395 67.0242L97.4922 40.6257Z" fill="url(#paint2_linear_188_2220)"/>
<path d="M64.1777 30.4486C65.2748 28.2072 68.4696 28.2072 69.5667 30.4486L86.4821 65.0074C87.4577 67.0005 86.0067 69.3263 83.7876 69.3263H49.9568C47.7377 69.3263 46.2867 67.0005 47.2623 65.0074L64.1777 30.4486Z" fill="url(#paint3_linear_188_2220)"/>
<g filter="url(#filter1_d_188_2220)">
<mask id="mask0_188_2220" style="mask-type:alpha" maskUnits="userSpaceOnUse" x="47" y="28" width="41" height="42">
<path d="M64.3901 30.2316C65.4872 27.9901 68.682 27.9901 69.7791 30.2316L86.6946 64.7904C87.6701 66.7835 86.2191 69.1092 84 69.1092H50.1692C47.9501 69.1092 46.4991 66.7835 47.4747 64.7904L64.3901 30.2316Z" fill="white"/>
</mask>
<g mask="url(#mask0_188_2220)">
<g filter="url(#filter2_f_188_2220)">
<ellipse cx="32.6958" cy="25.4145" rx="32.6958" ry="25.4145" transform="matrix(0.633266 0.773934 -0.775812 0.630964 67 11.7266)" fill="url(#paint4_linear_188_2220)"/>
</g>
</g>
</g>
<ellipse cx="66.8735" cy="21.6957" rx="3.999" ry="3.96918" fill="url(#paint5_linear_188_2220)"/>
<ellipse cx="35.2719" cy="33.2426" rx="3.27191" ry="3.24751" fill="url(#paint6_linear_188_2220)"/>
<ellipse cx="98.3056" cy="33.2426" rx="3.27191" ry="3.24751" fill="url(#paint7_linear_188_2220)"/>
<path d="M44.3404 92.8466C43.2364 92.8466 42.1884 92.6226 41.1964 92.1746C40.2204 91.7266 39.3564 91.1106 38.6044 90.3266C37.8684 89.5266 37.2924 88.5986 36.8764 87.5426C36.4604 86.4866 36.2524 85.3426 36.2524 84.1106C36.2524 82.9426 36.4604 81.8466 36.8764 80.8226C37.2924 79.7826 37.8764 78.8706 38.6284 78.0866C39.3804 77.3026 40.2604 76.6866 41.2684 76.2386C42.2764 75.7906 43.3724 75.5666 44.5564 75.5666C46.1564 75.5666 47.5244 75.9106 48.6604 76.5986C49.8124 77.2706 50.6764 78.1666 51.2524 79.2866L48.7804 81.1106C48.3484 80.2626 47.7404 79.6146 46.9564 79.1666C46.1884 78.7186 45.3484 78.4946 44.4364 78.4946C43.7164 78.4946 43.0604 78.6466 42.4684 78.9506C41.8764 79.2546 41.3644 79.6706 40.9324 80.1986C40.5004 80.7266 40.1644 81.3346 39.9244 82.0226C39.7004 82.7106 39.5884 83.4386 39.5884 84.2066C39.5884 85.0226 39.7084 85.7746 39.9484 86.4626C40.2044 87.1506 40.5564 87.7506 41.0044 88.2626C41.4684 88.7746 42.0044 89.1826 42.6124 89.4866C43.2204 89.7746 43.8924 89.9186 44.6284 89.9186C45.4924 89.9186 46.3164 89.6946 47.1004 89.2466C47.9004 88.7986 48.6444 88.1426 49.3324 87.2786V90.5426C47.9084 92.0786 46.2444 92.8466 44.3404 92.8466ZM49.0924 86.3906H45.6604V83.9666H51.8284V92.7266H49.0924V86.3906ZM60.147 92.9666C59.123 92.9666 58.203 92.7986 57.387 92.4626C56.571 92.1106 55.875 91.6306 55.299 91.0226C54.739 90.4146 54.307 89.7186 54.003 88.9346C53.699 88.1506 53.547 87.3266 53.547 86.4626C53.547 85.5826 53.699 84.7506 54.003 83.9666C54.307 83.1826 54.739 82.4866 55.299 81.8786C55.875 81.2706 56.571 80.7986 57.387 80.4626C58.203 80.1106 59.123 79.9346 60.147 79.9346C61.171 79.9346 62.083 80.1106 62.883 80.4626C63.699 80.7986 64.395 81.2706 64.971 81.8786C65.547 82.4866 65.979 83.1826 66.267 83.9666C66.571 84.7506 66.723 85.5826 66.723 86.4626C66.723 87.3266 66.571 88.1506 66.267 88.9346C65.979 89.7186 65.547 90.4146 64.971 91.0226C64.411 91.6306 63.723 92.1106 62.907 92.4626C62.091 92.7986 61.171 92.9666 60.147 92.9666ZM56.859 86.4626C56.859 87.1986 57.003 87.8546 57.291 88.4306C57.579 88.9906 57.971 89.4306 58.467 89.7506C58.963 90.0706 59.523 90.2306 60.147 90.2306C60.755 90.2306 61.307 90.0706 61.803 89.7506C62.299 89.4146 62.691 88.9666 62.979 88.4066C63.283 87.8306 63.435 87.1746 63.435 86.4386C63.435 85.7186 63.283 85.0706 62.979 84.4946C62.691 83.9186 62.299 83.4706 61.803 83.1506C61.307 82.8306 60.755 82.6706 60.147 82.6706C59.523 82.6706 58.963 82.8386 58.467 83.1746C57.971 83.4946 57.579 83.9426 57.291 84.5186C57.003 85.0786 56.859 85.7266 56.859 86.4626ZM68.8697 75.2066H72.0857V88.6946C72.0857 89.2706 72.1817 89.6626 72.3737 89.8706C72.5657 90.0626 72.8297 90.1586 73.1657 90.1586C73.4217 90.1586 73.6857 90.1266 73.9577 90.0626C74.2297 89.9986 74.4697 89.9186 74.6777 89.8226L75.1097 92.2706C74.6777 92.4786 74.1737 92.6386 73.5977 92.7506C73.0217 92.8626 72.5017 92.9186 72.0377 92.9186C71.0297 92.9186 70.2457 92.6546 69.6857 92.1266C69.1417 91.5826 68.8697 90.8146 68.8697 89.8226V75.2066ZM75.7429 86.4386C75.7429 85.2226 75.9829 84.1266 76.4629 83.1506C76.9429 82.1586 77.6069 81.3746 78.4549 80.7986C79.3029 80.2226 80.2709 79.9346 81.3589 79.9346C82.2869 79.9346 83.1189 80.1666 83.8549 80.6306C84.6069 81.0786 85.1909 81.6546 85.6069 82.3586V75.2066H88.8229V89.1266C88.8229 89.4626 88.8789 89.7026 88.9909 89.8466C89.1029 89.9906 89.2949 90.0786 89.5669 90.1106V92.7266C89.0069 92.8386 88.5509 92.8946 88.1989 92.8946C87.6229 92.8946 87.1429 92.7506 86.7589 92.4626C86.3909 92.1746 86.1829 91.7986 86.1349 91.3346L86.0869 90.5426C85.6229 91.3266 84.9909 91.9266 84.1909 92.3426C83.4069 92.7586 82.5829 92.9666 81.7189 92.9666C80.8549 92.9666 80.0549 92.7986 79.3189 92.4626C78.5989 92.1266 77.9669 91.6626 77.4229 91.0706C76.8949 90.4786 76.4789 89.7906 76.1749 89.0066C75.8869 88.2066 75.7429 87.3506 75.7429 86.4386ZM85.6069 88.1186V85.1186C85.4469 84.6546 85.1909 84.2386 84.8389 83.8706C84.4869 83.5026 84.0949 83.2146 83.6629 83.0066C83.2309 82.7826 82.7989 82.6706 82.3669 82.6706C81.8709 82.6706 81.4229 82.7746 81.0229 82.9826C80.6229 83.1906 80.2709 83.4706 79.9669 83.8226C79.6789 84.1746 79.4549 84.5826 79.2949 85.0466C79.1509 85.5106 79.0789 85.9986 79.0789 86.5106C79.0789 87.0226 79.1589 87.5106 79.3189 87.9746C79.4949 88.4226 79.7429 88.8146 80.0629 89.1506C80.3829 89.4866 80.7509 89.7506 81.1669 89.9426C81.5989 90.1346 82.0629 90.2306 82.5589 90.2306C82.8629 90.2306 83.1669 90.1826 83.4709 90.0866C83.7909 89.9746 84.0869 89.8306 84.3589 89.6546C84.6469 89.4626 84.8949 89.2386 85.1029 88.9826C85.3269 88.7106 85.4949 88.4226 85.6069 88.1186Z" fill="#FEF3BA"/>
<defs>
<filter id="filter0_bd_188_2220" x="-96" y="-99.2734" width="326" height="341.289" filterUnits="userSpaceOnUse" color-interpolation-filters="sRGB">
<feFlood flood-opacity="0" result="BackgroundImageFix"/>
<feGaussianBlur in="BackgroundImageFix" stdDeviation="50"/>
<feComposite in2="SourceAlpha" operator="in" result="effect1_backgroundBlur_188_2220"/>
<feColorMatrix in="SourceAlpha" type="matrix" values="0 0 0 0 0 0 0 0 0 0 0 0 0 0 0 0 0 0 127 0" result="hardAlpha"/>
<feOffset dy="4"/>
<feGaussianBlur stdDeviation="2"/>
<feComposite in2="hardAlpha" operator="out"/>
<feColorMatrix type="matrix" values="0 0 0 0 0 0 0 0 0 0 0 0 0 0 0 0 0 0 0.25 0"/>
<feBlend mode="normal" in2="effect1_backgroundBlur_188_2220" result="effect2_dropShadow_188_2220"/>
<feBlend mode="normal" in="SourceGraphic" in2="effect2_dropShadow_188_2220" result="shape"/>
</filter>
<filter id="filter1_d_188_2220" x="43.1655" y="28.5505" width="47.8384" height="48.5587" filterUnits="userSpaceOnUse" color-interpolation-filters="sRGB">
<feFlood flood-opacity="0" result="BackgroundImageFix"/>
<feColorMatrix in="SourceAlpha" type="matrix" values="0 0 0 0 0 0 0 0 0 0 0 0 0 0 0 0 0 0 127 0" result="hardAlpha"/>
<feOffset dy="4"/>
<feGaussianBlur stdDeviation="2"/>
<feComposite in2="hardAlpha" operator="out"/>
<feColorMatrix type="matrix" values="0 0 0 0 0 0 0 0 0 0 0 0 0 0 0 0 0 0 0.25 0"/>
<feBlend mode="normal" in2="BackgroundImageFix" result="effect1_dropShadow_188_2220"/>
<feBlend mode="normal" in="SourceGraphic" in2="effect1_dropShadow_188_2220" result="shape"/>
</filter>
<filter id="filter2_f_188_2220" x="29.397" y="13.1052" width="77.1826" height="79.9226" filterUnits="userSpaceOnUse" color-interpolation-filters="sRGB">
<feFlood flood-opacity="0" result="BackgroundImageFix"/>
<feBlend mode="normal" in="SourceGraphic" in2="BackgroundImageFix" result="shape"/>
<feGaussianBlur stdDeviation="5" result="effect1_foregroundBlur_188_2220"/>
</filter>
<radialGradient id="paint0_radial_188_2220" cx="0" cy="0" r="1" gradientUnits="userSpaceOnUse" gradientTransform="translate(-5.26469 -10.7511) rotate(46.1479) scale(232.124 206.785)">
<stop stop-color="#E4F9FF"/>
<stop offset="0.871834" stop-color="#CDD7FF" stop-opacity="0.74"/>
<stop offset="1" stop-color="#020062" stop-opacity="0"/>
</radialGradient>
<linearGradient id="paint1_linear_188_2220" x1="36.5021" y1="42.6249" x2="76.3972" y2="71.8786" gradientUnits="userSpaceOnUse">
<stop stop-color="#FBF9E5"/>
<stop offset="1" stop-color="#FDF9D4"/>
</linearGradient>
<linearGradient id="paint2_linear_188_2220" x1="98" y1="36.7267" x2="64.798" y2="66.2689" gradientUnits="userSpaceOnUse">
<stop stop-color="#F1E9BF"/>
<stop offset="1" stop-color="white"/>
</linearGradient>
<linearGradient id="paint3_linear_188_2220" x1="55.7588" y1="47.7904" x2="78.3032" y2="47.7904" gradientUnits="userSpaceOnUse">
<stop stop-color="#D6D6D1"/>
<stop offset="0.0001" stop-color="#D6D6D1"/>
<stop offset="0.253056" stop-color="#D4D3CC"/>
<stop offset="0.485509" stop-color="#D3D1BC"/>
<stop offset="0.508175" stop-color="#BDBBA8"/>
<stop offset="0.793364" stop-color="#B3AF8F"/>
<stop offset="0.83589" stop-color="#B6B28B"/>
<stop offset="0.936891" stop-color="#B2AE8B"/>
</linearGradient>
<linearGradient id="paint4_linear_188_2220" x1="74.7871" y1="33.9699" x2="13.0721" y2="44.9718" gradientUnits="userSpaceOnUse">
<stop stop-color="#FEF3BA"/>
<stop offset="1" stop-color="#FAF8E4" stop-opacity="0.56"/>
</linearGradient>
<linearGradient id="paint5_linear_188_2220" x1="66.8735" y1="17.7266" x2="66.8735" y2="25.6649" gradientUnits="userSpaceOnUse">
<stop stop-color="white"/>
<stop offset="1" stop-color="#F2F2CF"/>
</linearGradient>
<linearGradient id="paint6_linear_188_2220" x1="35.2719" y1="29.9951" x2="35.2719" y2="36.4901" gradientUnits="userSpaceOnUse">
<stop stop-color="white"/>
<stop offset="1" stop-color="#F2F2CF"/>
</linearGradient>
<linearGradient id="paint7_linear_188_2220" x1="98.3056" y1="29.9951" x2="98.3056" y2="36.4901" gradientUnits="userSpaceOnUse">
<stop stop-color="white"/>
<stop offset="1" stop-color="#F2F2CF"/>
</linearGradient>
</defs>
</svg>
