<svg width="134" height="151" viewBox="0 0 134 151" fill="none" xmlns="http://www.w3.org/2000/svg">
<g filter="url(#filter0_bd_188_2222)">
<path d="M4 2.72656C4 1.62199 4.89543 0.726562 6 0.726562H128C129.105 0.726562 130 1.62199 130 2.72656V140.012C130 141.605 128.229 142.559 126.899 141.682L68.101 102.911C67.4331 102.47 66.5669 102.47 65.899 102.911L7.10098 141.682C5.77123 142.559 4 141.605 4 140.012V2.72656Z" fill="url(#paint0_radial_188_2222)" fill-opacity="0.6" shape-rendering="crispEdges"/>
<path d="M6 1.22656H128C128.828 1.22656 129.5 1.89814 129.5 2.72656V140.012C129.5 141.207 128.172 141.922 127.174 141.264L68.3762 102.493C67.5413 101.943 66.4587 101.943 65.6238 102.493L6.82574 141.264C5.82842 141.922 4.5 141.207 4.5 140.012V2.72656C4.5 1.89813 5.17157 1.22656 6 1.22656Z" stroke="#F5FBF2" stroke-opacity="0.2" shape-rendering="crispEdges"/>
</g>
<path d="M36.227 40.662C35.2188 37.9534 38.2473 35.5255 40.6717 37.0989L81.2751 63.4494C83.7811 65.0757 82.6294 68.9659 79.642 68.9659H48.8473C47.5941 68.9659 46.473 68.1869 46.0358 67.0125L36.227 40.662Z" fill="url(#paint1_linear_188_2222)"/>
<path d="M97.4922 40.6257C98.5109 37.9236 95.498 35.4835 93.0665 37.0414L51.8676 63.44C49.3446 65.0566 50.4896 68.9659 53.4861 68.9659H84.7324C85.981 68.9659 87.0991 68.1926 87.5395 67.0242L97.4922 40.6257Z" fill="url(#paint2_linear_188_2222)"/>
<path d="M64.1777 30.4486C65.2748 28.2072 68.4696 28.2072 69.5667 30.4486L86.4821 65.0074C87.4577 67.0005 86.0067 69.3263 83.7876 69.3263H49.9568C47.7377 69.3263 46.2867 67.0005 47.2623 65.0074L64.1777 30.4486Z" fill="url(#paint3_linear_188_2222)"/>
<g filter="url(#filter1_d_188_2222)">
<path d="M64.3904 30.2318C65.4876 27.9903 68.6824 27.9903 69.7796 30.2318L86.6954 64.7927C87.6709 66.7858 86.2199 69.1116 84.0008 69.1116H50.1692C47.9501 69.1116 46.4991 66.7858 47.4746 64.7927L64.3904 30.2318Z" fill="url(#paint4_linear_188_2222)"/>
</g>
<ellipse cx="66.8735" cy="21.6957" rx="3.999" ry="3.96918" fill="url(#paint5_linear_188_2222)"/>
<ellipse cx="35.2719" cy="33.2426" rx="3.27191" ry="3.24751" fill="url(#paint6_linear_188_2222)"/>
<ellipse cx="98.3056" cy="33.2426" rx="3.27191" ry="3.24751" fill="url(#paint7_linear_188_2222)"/>
<path d="M17.1666 92.7266V75.6866H24.3906C25.1746 75.6866 25.8946 75.8466 26.5506 76.1666C27.2066 76.4866 27.7746 76.9186 28.2546 77.4626C28.7506 78.0066 29.1346 78.6146 29.4066 79.2866C29.6786 79.9586 29.8146 80.6466 29.8146 81.3506C29.8146 82.3106 29.5906 83.2226 29.1426 84.0866C28.6946 84.9506 28.0786 85.6546 27.2946 86.1986C26.5106 86.7426 25.5826 87.0146 24.5106 87.0146H20.4786V92.7266H17.1666ZM20.4786 84.1106H24.3186C24.7186 84.1106 25.0786 83.9986 25.3986 83.7746C25.7186 83.5506 25.9746 83.2306 26.1666 82.8146C26.3586 82.3826 26.4546 81.8946 26.4546 81.3506C26.4546 80.7586 26.3426 80.2546 26.1186 79.8386C25.9106 79.4226 25.6306 79.1106 25.2786 78.9026C24.9426 78.6946 24.5746 78.5906 24.1746 78.5906H20.4786V84.1106ZM31.7838 75.2066H34.9998V88.6946C34.9998 89.2706 35.0958 89.6626 35.2878 89.8706C35.4798 90.0626 35.7438 90.1586 36.0798 90.1586C36.3358 90.1586 36.5998 90.1266 36.8718 90.0626C37.1438 89.9986 37.3838 89.9186 37.5918 89.8226L38.0238 92.2706C37.5918 92.4786 37.0878 92.6386 36.5117 92.7506C35.9358 92.8626 35.4158 92.9186 34.9518 92.9186C33.9438 92.9186 33.1598 92.6546 32.5998 92.1266C32.0558 91.5826 31.7838 90.8146 31.7838 89.8226V75.2066ZM38.5609 89.0066C38.5609 88.1906 38.7849 87.4786 39.2329 86.8706C39.6969 86.2466 40.3369 85.7666 41.1529 85.4306C41.9689 85.0946 42.9049 84.9266 43.9609 84.9266C44.4889 84.9266 45.0249 84.9666 45.5689 85.0466C46.1129 85.1266 46.5849 85.2546 46.9849 85.4306V84.7586C46.9849 83.9586 46.7449 83.3426 46.2649 82.9106C45.8009 82.4786 45.1049 82.2626 44.1769 82.2626C43.4889 82.2626 42.8329 82.3826 42.2089 82.6226C41.5849 82.8626 40.9289 83.2146 40.2409 83.6786L39.2089 81.5666C40.0409 81.0226 40.8889 80.6146 41.7529 80.3426C42.6329 80.0706 43.5529 79.9346 44.5129 79.9346C46.3049 79.9346 47.6969 80.3826 48.6889 81.2786C49.6969 82.1746 50.2009 83.4546 50.2009 85.1186V89.1266C50.2009 89.4626 50.2569 89.7026 50.3689 89.8466C50.4969 89.9906 50.6969 90.0786 50.9689 90.1106V92.7266C50.6809 92.7746 50.4169 92.8146 50.1769 92.8466C49.9529 92.8786 49.7609 92.8946 49.6009 92.8946C48.9609 92.8946 48.4729 92.7506 48.1369 92.4626C47.8169 92.1746 47.6169 91.8226 47.5369 91.4066L47.4649 90.7586C46.9209 91.4626 46.2409 92.0066 45.4249 92.3906C44.6089 92.7746 43.7769 92.9666 42.9289 92.9666C42.0969 92.9666 41.3449 92.7986 40.6729 92.4626C40.0169 92.1106 39.4969 91.6386 39.1129 91.0466C38.7449 90.4386 38.5609 89.7586 38.5609 89.0066ZM46.3849 89.6546C46.5609 89.4626 46.7049 89.2706 46.8169 89.0786C46.9289 88.8866 46.9849 88.7106 46.9849 88.5506V87.2786C46.6009 87.1186 46.1849 86.9986 45.7369 86.9186C45.2889 86.8226 44.8649 86.7746 44.4649 86.7746C43.6329 86.7746 42.9449 86.9586 42.4009 87.3266C41.8729 87.6786 41.6089 88.1506 41.6089 88.7426C41.6089 89.0626 41.6969 89.3666 41.8729 89.6546C42.0489 89.9426 42.3049 90.1746 42.6409 90.3506C42.9769 90.5266 43.3769 90.6146 43.8409 90.6146C44.3209 90.6146 44.7929 90.5266 45.2569 90.3506C45.7209 90.1586 46.0969 89.9266 46.3849 89.6546ZM60.625 92.0786C60.353 92.1906 60.025 92.3186 59.641 92.4626C59.257 92.6066 58.841 92.7186 58.393 92.7986C57.961 92.8946 57.521 92.9426 57.073 92.9426C56.481 92.9426 55.937 92.8386 55.441 92.6306C54.945 92.4226 54.545 92.0946 54.241 91.6466C53.953 91.1826 53.809 90.5826 53.809 89.8466V82.6226H52.153V80.1506H53.809V76.0706H57.025V80.1506H59.665V82.6226H57.025V88.7666C57.041 89.1986 57.161 89.5106 57.385 89.7026C57.609 89.8946 57.889 89.9906 58.225 89.9906C58.561 89.9906 58.889 89.9346 59.209 89.8226C59.529 89.7106 59.785 89.6146 59.977 89.5346L60.625 92.0786ZM62.2999 92.7266V80.1506H65.5159V92.7266H62.2999ZM62.2999 78.3986V75.2066H65.5159V78.3986H62.2999ZM80.1051 92.7266H76.8891V85.6706C76.8891 84.6626 76.7131 83.9266 76.3611 83.4626C76.0091 82.9986 75.5211 82.7666 74.8971 82.7666C74.4651 82.7666 74.0251 82.8786 73.5771 83.1026C73.1451 83.3266 72.7531 83.6386 72.4011 84.0386C72.0491 84.4226 71.7931 84.8706 71.6331 85.3826V92.7266H68.4171V80.1506H71.3211V82.4786C71.6411 81.9346 72.0491 81.4786 72.5451 81.1106C73.0411 80.7266 73.6091 80.4386 74.2491 80.2466C74.9051 80.0386 75.5931 79.9346 76.3131 79.9346C77.0971 79.9346 77.7371 80.0786 78.2331 80.3666C78.7451 80.6386 79.1291 81.0146 79.3851 81.4946C79.6571 81.9586 79.8411 82.4866 79.9371 83.0786C80.0491 83.6706 80.1051 84.2706 80.1051 84.8786V92.7266ZM82.7815 88.0226V80.1506H85.9975V87.3266C85.9975 88.2866 86.1735 89.0146 86.5255 89.5106C86.8775 89.9906 87.3975 90.2306 88.0855 90.2306C88.5015 90.2306 88.9095 90.1506 89.3095 89.9906C89.7255 89.8146 90.1015 89.5586 90.4375 89.2226C90.7895 88.8866 91.0855 88.4626 91.3255 87.9506V80.1506H94.5415V89.1266C94.5415 89.4626 94.5975 89.7026 94.7095 89.8466C94.8375 89.9906 95.0375 90.0786 95.3095 90.1106V92.7266C94.9895 92.7746 94.7175 92.8066 94.4935 92.8226C94.2855 92.8546 94.0935 92.8706 93.9175 92.8706C93.3415 92.8706 92.8695 92.7426 92.5015 92.4866C92.1495 92.2146 91.9415 91.8466 91.8775 91.3826L91.8055 90.3746C91.2455 91.2226 90.5255 91.8706 89.6455 92.3186C88.7655 92.7506 87.7975 92.9666 86.7415 92.9666C85.4455 92.9666 84.4615 92.5506 83.7895 91.7186C83.1175 90.8706 82.7815 89.6386 82.7815 88.0226ZM117.273 92.7266H114.057V85.6706C114.057 84.6786 113.881 83.9506 113.529 83.4866C113.193 83.0066 112.721 82.7666 112.113 82.7666C111.489 82.7666 110.889 83.0146 110.313 83.5106C109.753 83.9906 109.353 84.6226 109.113 85.4066V92.7266H105.897V85.6706C105.897 84.6626 105.721 83.9266 105.369 83.4626C105.033 82.9986 104.561 82.7666 103.953 82.7666C103.329 82.7666 102.729 83.0066 102.153 83.4866C101.593 83.9666 101.193 84.5986 100.953 85.3826V92.7266H97.7374V80.1506H100.641V82.4786C101.121 81.6626 101.761 81.0386 102.561 80.6066C103.361 80.1586 104.281 79.9346 105.321 79.9346C106.361 79.9346 107.169 80.1906 107.745 80.7026C108.337 81.2146 108.713 81.8466 108.873 82.5986C109.385 81.7346 110.033 81.0786 110.817 80.6306C111.617 80.1666 112.513 79.9346 113.505 79.9346C114.289 79.9346 114.921 80.0786 115.401 80.3666C115.897 80.6386 116.281 81.0146 116.553 81.4946C116.825 81.9586 117.009 82.4866 117.105 83.0786C117.217 83.6706 117.273 84.2706 117.273 84.8786V92.7266Z" fill="#F5F5F6"/>
<defs>
<filter id="filter0_bd_188_2222" x="-96" y="-99.2734" width="326" height="341.289" filterUnits="userSpaceOnUse" color-interpolation-filters="sRGB">
<feFlood flood-opacity="0" result="BackgroundImageFix"/>
<feGaussianBlur in="BackgroundImageFix" stdDeviation="50"/>
<feComposite in2="SourceAlpha" operator="in" result="effect1_backgroundBlur_188_2222"/>
<feColorMatrix in="SourceAlpha" type="matrix" values="0 0 0 0 0 0 0 0 0 0 0 0 0 0 0 0 0 0 127 0" result="hardAlpha"/>
<feOffset dy="4"/>
<feGaussianBlur stdDeviation="2"/>
<feComposite in2="hardAlpha" operator="out"/>
<feColorMatrix type="matrix" values="0 0 0 0 0 0 0 0 0 0 0 0 0 0 0 0 0 0 0.25 0"/>
<feBlend mode="normal" in2="effect1_backgroundBlur_188_2222" result="effect2_dropShadow_188_2222"/>
<feBlend mode="normal" in="SourceGraphic" in2="effect2_dropShadow_188_2222" result="shape"/>
</filter>
<filter id="filter1_d_188_2222" x="43.1655" y="28.5507" width="47.8389" height="48.5609" filterUnits="userSpaceOnUse" color-interpolation-filters="sRGB">
<feFlood flood-opacity="0" result="BackgroundImageFix"/>
<feColorMatrix in="SourceAlpha" type="matrix" values="0 0 0 0 0 0 0 0 0 0 0 0 0 0 0 0 0 0 127 0" result="hardAlpha"/>
<feOffset dy="4"/>
<feGaussianBlur stdDeviation="2"/>
<feComposite in2="hardAlpha" operator="out"/>
<feColorMatrix type="matrix" values="0 0 0 0 0 0 0 0 0 0 0 0 0 0 0 0 0 0 0.25 0"/>
<feBlend mode="normal" in2="BackgroundImageFix" result="effect1_dropShadow_188_2222"/>
<feBlend mode="normal" in="SourceGraphic" in2="effect1_dropShadow_188_2222" result="shape"/>
</filter>
<radialGradient id="paint0_radial_188_2222" cx="0" cy="0" r="1" gradientUnits="userSpaceOnUse" gradientTransform="translate(-5.26469 -10.7511) rotate(46.1479) scale(232.124 206.785)">
<stop stop-color="#E4F9FF"/>
<stop offset="0.871834" stop-color="#CDD7FF" stop-opacity="0.74"/>
<stop offset="1" stop-color="#020062" stop-opacity="0"/>
</radialGradient>
<linearGradient id="paint1_linear_188_2222" x1="28.5" y1="50.7267" x2="40.8081" y2="29.4175" gradientUnits="userSpaceOnUse">
<stop offset="0.169667" stop-color="#CAECFF"/>
<stop offset="0.45785" stop-color="#D9F1FF"/>
<stop offset="0.74021" stop-color="#EDF8FF"/>
<stop offset="0.940967" stop-color="#D1EEFF"/>
</linearGradient>
<linearGradient id="paint2_linear_188_2222" x1="105.305" y1="50.7267" x2="93.0753" y2="29.2825" gradientUnits="userSpaceOnUse">
<stop offset="0.169667" stop-color="#CAECFF"/>
<stop offset="0.45785" stop-color="#D9F1FF"/>
<stop offset="0.74021" stop-color="#EDF8FF"/>
<stop offset="0.940967" stop-color="#D1EEFF"/>
</linearGradient>
<linearGradient id="paint3_linear_188_2222" x1="55.7588" y1="47.7904" x2="78.3032" y2="47.7904" gradientUnits="userSpaceOnUse">
<stop stop-color="#D1D2D6"/>
<stop offset="0.253056" stop-color="#CCCED4"/>
<stop offset="0.485509" stop-color="#BCC5D3"/>
<stop offset="0.508175" stop-color="#A8B0BD"/>
<stop offset="0.793364" stop-color="#8F9EB3"/>
<stop offset="0.83589" stop-color="#8B9CB6"/>
<stop offset="0.936891" stop-color="#8B9AB2"/>
</linearGradient>
<linearGradient id="paint4_linear_188_2222" x1="41" y1="52.7266" x2="74" y2="21.2266" gradientUnits="userSpaceOnUse">
<stop offset="0.227189" stop-color="#CAECFF"/>
<stop offset="0.45785" stop-color="#D9F1FF"/>
<stop offset="0.656252" stop-color="#EDF8FF"/>
<stop offset="0.994792" stop-color="#D1EEFF"/>
</linearGradient>
<linearGradient id="paint5_linear_188_2222" x1="66.8735" y1="17.7266" x2="66.8735" y2="25.6649" gradientUnits="userSpaceOnUse">
<stop stop-color="white"/>
<stop offset="1" stop-color="#CFE5F2"/>
</linearGradient>
<linearGradient id="paint6_linear_188_2222" x1="35.2719" y1="29.9951" x2="35.2719" y2="36.4901" gradientUnits="userSpaceOnUse">
<stop stop-color="white"/>
<stop offset="1" stop-color="#CFE5F2"/>
</linearGradient>
<linearGradient id="paint7_linear_188_2222" x1="98.3056" y1="29.9951" x2="98.3056" y2="36.4901" gradientUnits="userSpaceOnUse">
<stop stop-color="white"/>
<stop offset="1" stop-color="#CFE5F2"/>
</linearGradient>
</defs>
</svg>
