<svg width="134" height="151" viewBox="0 0 134 151" fill="none" xmlns="http://www.w3.org/2000/svg">
<g filter="url(#filter0_bd_188_2221)">
<path d="M4 2.72656C4 1.62199 4.89543 0.726562 6 0.726562H128C129.105 0.726562 130 1.62199 130 2.72656V140.012C130 141.605 128.229 142.559 126.899 141.682L68.101 102.911C67.4331 102.47 66.5669 102.47 65.899 102.911L7.10098 141.682C5.77123 142.559 4 141.605 4 140.012V2.72656Z" fill="url(#paint0_radial_188_2221)" fill-opacity="0.6" shape-rendering="crispEdges"/>
<path d="M6 1.22656H128C128.828 1.22656 129.5 1.89814 129.5 2.72656V140.012C129.5 141.207 128.172 141.922 127.174 141.264L68.3762 102.493C67.5413 101.943 66.4587 101.943 65.6238 102.493L6.82574 141.264C5.82842 141.922 4.5 141.207 4.5 140.012V2.72656C4.5 1.89813 5.17157 1.22656 6 1.22656Z" stroke="#F5FBF2" stroke-opacity="0.2" shape-rendering="crispEdges"/>
</g>
<path d="M36.227 40.662C35.2188 37.9534 38.2473 35.5255 40.6717 37.0989L81.2751 63.4494C83.7811 65.0757 82.6294 68.9659 79.642 68.9659H48.8473C47.5941 68.9659 46.473 68.1869 46.0358 67.0125L36.227 40.662Z" fill="url(#paint1_linear_188_2221)"/>
<path d="M97.4922 40.6257C98.5109 37.9236 95.498 35.4835 93.0665 37.0414L51.8676 63.44C49.3446 65.0566 50.4896 68.9659 53.4861 68.9659H84.7324C85.981 68.9659 87.0991 68.1926 87.5395 67.0242L97.4922 40.6257Z" fill="url(#paint2_linear_188_2221)"/>
<path d="M64.1777 30.4486C65.2748 28.2072 68.4696 28.2072 69.5667 30.4486L86.4821 65.0074C87.4577 67.0005 86.0067 69.3263 83.7876 69.3263H49.9568C47.7377 69.3263 46.2867 67.0005 47.2623 65.0074L64.1777 30.4486Z" fill="url(#paint3_linear_188_2221)"/>
<g filter="url(#filter1_d_188_2221)">
<mask id="mask0_188_2221" style="mask-type:alpha" maskUnits="userSpaceOnUse" x="47" y="28" width="41" height="42">
<path d="M64.3901 30.2316C65.4872 27.9901 68.682 27.9901 69.7791 30.2316L86.6946 64.7904C87.6701 66.7835 86.2191 69.1092 84 69.1092H50.1692C47.9501 69.1092 46.4991 66.7835 47.4747 64.7904L64.3901 30.2316Z" fill="#EAEAEA"/>
</mask>
<g mask="url(#mask0_188_2221)">
<ellipse cx="30.8411" cy="31.0369" rx="30.8411" ry="31.0369" transform="matrix(0.633266 0.773934 -0.775812 0.630964 67 11.7266)" fill="url(#paint4_linear_188_2221)"/>
</g>
</g>
<ellipse cx="66.8735" cy="21.6957" rx="3.999" ry="3.96918" fill="url(#paint5_linear_188_2221)"/>
<ellipse cx="35.2719" cy="33.2426" rx="3.27191" ry="3.24751" fill="url(#paint6_linear_188_2221)"/>
<ellipse cx="98.3056" cy="33.2426" rx="3.27191" ry="3.24751" fill="url(#paint7_linear_188_2221)"/>
<path d="M30.6489 78.5906H25.2009V92.7266H21.9129V78.5906H16.4649V75.6866H30.6489V78.5906ZM32.4523 92.7266V80.1506H35.6683V92.7266H32.4523ZM32.4523 78.3986V75.2066H35.6683V78.3986H32.4523ZM46.1055 92.0786C45.8335 92.1906 45.5055 92.3186 45.1215 92.4626C44.7375 92.6066 44.3215 92.7186 43.8735 92.7986C43.4415 92.8946 43.0015 92.9426 42.5535 92.9426C41.9615 92.9426 41.4175 92.8386 40.9215 92.6306C40.4255 92.4226 40.0255 92.0946 39.7215 91.6466C39.4335 91.1826 39.2895 90.5826 39.2895 89.8466V82.6226H37.6335V80.1506H39.2895V76.0706H42.5055V80.1506H45.1455V82.6226H42.5055V88.7666C42.5215 89.1986 42.6415 89.5106 42.8655 89.7026C43.0895 89.8946 43.3695 89.9906 43.7055 89.9906C44.0415 89.9906 44.3695 89.9346 44.6895 89.8226C45.0095 89.7106 45.2655 89.6146 45.4575 89.5346L46.1055 92.0786ZM46.9164 89.0066C46.9164 88.1906 47.1404 87.4786 47.5884 86.8706C48.0524 86.2466 48.6924 85.7666 49.5084 85.4306C50.3244 85.0946 51.2604 84.9266 52.3164 84.9266C52.8444 84.9266 53.3804 84.9666 53.9244 85.0466C54.4684 85.1266 54.9404 85.2546 55.3404 85.4306V84.7586C55.3404 83.9586 55.1004 83.3426 54.6204 82.9106C54.1564 82.4786 53.4604 82.2626 52.5324 82.2626C51.8444 82.2626 51.1884 82.3826 50.5644 82.6226C49.9404 82.8626 49.2844 83.2146 48.5964 83.6786L47.5644 81.5666C48.3964 81.0226 49.2444 80.6146 50.1084 80.3426C50.9884 80.0706 51.9084 79.9346 52.8684 79.9346C54.6604 79.9346 56.0524 80.3826 57.0444 81.2786C58.0524 82.1746 58.5564 83.4546 58.5564 85.1186V89.1266C58.5564 89.4626 58.6124 89.7026 58.7244 89.8466C58.8524 89.9906 59.0524 90.0786 59.3244 90.1106V92.7266C59.0364 92.7746 58.7724 92.8146 58.5324 92.8466C58.3084 92.8786 58.1164 92.8946 57.9564 92.8946C57.3164 92.8946 56.8284 92.7506 56.4924 92.4626C56.1724 92.1746 55.9724 91.8226 55.8924 91.4066L55.8204 90.7586C55.2764 91.4626 54.5964 92.0066 53.7804 92.3906C52.9644 92.7746 52.1324 92.9666 51.2844 92.9666C50.4524 92.9666 49.7004 92.7986 49.0284 92.4626C48.3724 92.1106 47.8524 91.6386 47.4684 91.0466C47.1004 90.4386 46.9164 89.7586 46.9164 89.0066ZM54.7404 89.6546C54.9164 89.4626 55.0604 89.2706 55.1724 89.0786C55.2844 88.8866 55.3404 88.7106 55.3404 88.5506V87.2786C54.9564 87.1186 54.5404 86.9986 54.0924 86.9186C53.6444 86.8226 53.2204 86.7746 52.8204 86.7746C51.9884 86.7746 51.3004 86.9586 50.7564 87.3266C50.2284 87.6786 49.9644 88.1506 49.9644 88.7426C49.9644 89.0626 50.0524 89.3666 50.2284 89.6546C50.4044 89.9426 50.6604 90.1746 50.9964 90.3506C51.3324 90.5266 51.7324 90.6146 52.1964 90.6146C52.6764 90.6146 53.1484 90.5266 53.6124 90.3506C54.0764 90.1586 54.4524 89.9266 54.7404 89.6546ZM73.2497 92.7266H70.0337V85.6706C70.0337 84.6626 69.8577 83.9266 69.5057 83.4626C69.1537 82.9986 68.6657 82.7666 68.0417 82.7666C67.6097 82.7666 67.1697 82.8786 66.7217 83.1026C66.2897 83.3266 65.8977 83.6386 65.5457 84.0386C65.1937 84.4226 64.9377 84.8706 64.7777 85.3826V92.7266H61.5617V80.1506H64.4657V82.4786C64.7857 81.9346 65.1937 81.4786 65.6897 81.1106C66.1857 80.7266 66.7537 80.4386 67.3937 80.2466C68.0497 80.0386 68.7377 79.9346 69.4577 79.9346C70.2417 79.9346 70.8817 80.0786 71.3777 80.3666C71.8897 80.6386 72.2737 81.0146 72.5297 81.4946C72.8017 81.9586 72.9857 82.4866 73.0817 83.0786C73.1937 83.6706 73.2497 84.2706 73.2497 84.8786V92.7266ZM76.046 92.7266V80.1506H79.262V92.7266H76.046ZM76.046 78.3986V75.2066H79.262V78.3986H76.046ZM82.0432 88.0226V80.1506H85.2592V87.3266C85.2592 88.2866 85.4352 89.0146 85.7872 89.5106C86.1392 89.9906 86.6592 90.2306 87.3472 90.2306C87.7632 90.2306 88.1712 90.1506 88.5712 89.9906C88.9872 89.8146 89.3632 89.5586 89.6992 89.2226C90.0512 88.8866 90.3472 88.4626 90.5872 87.9506V80.1506H93.8032V89.1266C93.8032 89.4626 93.8592 89.7026 93.9712 89.8466C94.0992 89.9906 94.2992 90.0786 94.5712 90.1106V92.7266C94.2512 92.7746 93.9792 92.8066 93.7552 92.8226C93.5472 92.8546 93.3552 92.8706 93.1792 92.8706C92.6032 92.8706 92.1312 92.7426 91.7632 92.4866C91.4112 92.2146 91.2032 91.8466 91.1392 91.3826L91.0672 90.3746C90.5072 91.2226 89.7872 91.8706 88.9072 92.3186C88.0272 92.7506 87.0592 92.9666 86.0032 92.9666C84.7072 92.9666 83.7232 92.5506 83.0512 91.7186C82.3792 90.8706 82.0432 89.6386 82.0432 88.0226ZM116.535 92.7266H113.319V85.6706C113.319 84.6786 113.143 83.9506 112.791 83.4866C112.455 83.0066 111.983 82.7666 111.375 82.7666C110.751 82.7666 110.151 83.0146 109.575 83.5106C109.015 83.9906 108.615 84.6226 108.375 85.4066V92.7266H105.159V85.6706C105.159 84.6626 104.983 83.9266 104.631 83.4626C104.295 82.9986 103.823 82.7666 103.215 82.7666C102.591 82.7666 101.991 83.0066 101.415 83.4866C100.855 83.9666 100.455 84.5986 100.215 85.3826V92.7266H96.9992V80.1506H99.9032V82.4786C100.383 81.6626 101.023 81.0386 101.823 80.6066C102.623 80.1586 103.543 79.9346 104.583 79.9346C105.623 79.9346 106.431 80.1906 107.007 80.7026C107.599 81.2146 107.975 81.8466 108.135 82.5986C108.647 81.7346 109.295 81.0786 110.079 80.6306C110.879 80.1666 111.775 79.9346 112.767 79.9346C113.551 79.9346 114.183 80.0786 114.663 80.3666C115.159 80.6386 115.543 81.0146 115.815 81.4946C116.087 81.9586 116.271 82.4866 116.367 83.0786C116.479 83.6706 116.535 84.2706 116.535 84.8786V92.7266Z" fill="#D6FBFD"/>
<defs>
<filter id="filter0_bd_188_2221" x="-96" y="-99.2734" width="326" height="341.289" filterUnits="userSpaceOnUse" color-interpolation-filters="sRGB">
<feFlood flood-opacity="0" result="BackgroundImageFix"/>
<feGaussianBlur in="BackgroundImageFix" stdDeviation="50"/>
<feComposite in2="SourceAlpha" operator="in" result="effect1_backgroundBlur_188_2221"/>
<feColorMatrix in="SourceAlpha" type="matrix" values="0 0 0 0 0 0 0 0 0 0 0 0 0 0 0 0 0 0 127 0" result="hardAlpha"/>
<feOffset dy="4"/>
<feGaussianBlur stdDeviation="2"/>
<feComposite in2="hardAlpha" operator="out"/>
<feColorMatrix type="matrix" values="0 0 0 0 0 0 0 0 0 0 0 0 0 0 0 0 0 0 0.25 0"/>
<feBlend mode="normal" in2="effect1_backgroundBlur_188_2221" result="effect2_dropShadow_188_2221"/>
<feBlend mode="normal" in="SourceGraphic" in2="effect2_dropShadow_188_2221" result="shape"/>
</filter>
<filter id="filter1_d_188_2221" x="43.1655" y="28.5505" width="47.8384" height="48.5587" filterUnits="userSpaceOnUse" color-interpolation-filters="sRGB">
<feFlood flood-opacity="0" result="BackgroundImageFix"/>
<feColorMatrix in="SourceAlpha" type="matrix" values="0 0 0 0 0 0 0 0 0 0 0 0 0 0 0 0 0 0 127 0" result="hardAlpha"/>
<feOffset dy="4"/>
<feGaussianBlur stdDeviation="2"/>
<feComposite in2="hardAlpha" operator="out"/>
<feColorMatrix type="matrix" values="0 0 0 0 0 0 0 0 0 0 0 0 0 0 0 0 0 0 0.25 0"/>
<feBlend mode="normal" in2="BackgroundImageFix" result="effect1_dropShadow_188_2221"/>
<feBlend mode="normal" in="SourceGraphic" in2="effect1_dropShadow_188_2221" result="shape"/>
</filter>
<radialGradient id="paint0_radial_188_2221" cx="0" cy="0" r="1" gradientUnits="userSpaceOnUse" gradientTransform="translate(-5.26469 -10.7511) rotate(46.1479) scale(232.124 206.785)">
<stop stop-color="#E4F9FF"/>
<stop offset="0.871834" stop-color="#CDD7FF" stop-opacity="0.74"/>
<stop offset="1" stop-color="#020062" stop-opacity="0"/>
</radialGradient>
<linearGradient id="paint1_linear_188_2221" x1="36.5021" y1="42.6249" x2="76.3972" y2="71.8786" gradientUnits="userSpaceOnUse">
<stop stop-color="#CEFAFD"/>
<stop offset="1" stop-color="#EEFFFE"/>
</linearGradient>
<linearGradient id="paint2_linear_188_2221" x1="103.5" y1="37.2267" x2="76.6695" y2="63.8972" gradientUnits="userSpaceOnUse">
<stop offset="0.0001" stop-color="#CFFAFC"/>
<stop offset="1" stop-color="#D6FBFD"/>
</linearGradient>
<linearGradient id="paint3_linear_188_2221" x1="55.7588" y1="47.7904" x2="78.3032" y2="47.7904" gradientUnits="userSpaceOnUse">
<stop stop-color="#D1D6D6"/>
<stop offset="0.253056" stop-color="#CCD4D4"/>
<stop offset="0.485509" stop-color="#BCD3D2"/>
<stop offset="0.508175" stop-color="#8FDCE1"/>
<stop offset="0.793364" stop-color="#8FB3B3"/>
<stop offset="0.83589" stop-color="#8BB4B6"/>
<stop offset="0.936891" stop-color="#8BB2AF"/>
</linearGradient>
<linearGradient id="paint4_linear_188_2221" x1="53.0084" y1="21.3562" x2="4.50494" y2="52.6578" gradientUnits="userSpaceOnUse">
<stop stop-color="#D2F9F4"/>
<stop offset="1" stop-color="#D2F7F3"/>
</linearGradient>
<linearGradient id="paint5_linear_188_2221" x1="66.8735" y1="17.7266" x2="66.8735" y2="25.6649" gradientUnits="userSpaceOnUse">
<stop stop-color="white"/>
<stop offset="1" stop-color="#CFFFF6"/>
</linearGradient>
<linearGradient id="paint6_linear_188_2221" x1="35.2719" y1="29.9951" x2="35.2719" y2="36.4901" gradientUnits="userSpaceOnUse">
<stop stop-color="white"/>
<stop offset="1" stop-color="#CFFFF6"/>
</linearGradient>
<linearGradient id="paint7_linear_188_2221" x1="98.3056" y1="29.9951" x2="98.3056" y2="36.4901" gradientUnits="userSpaceOnUse">
<stop stop-color="white"/>
<stop offset="1" stop-color="#CFFFF6"/>
</linearGradient>
</defs>
</svg>
