<svg width="64" height="64" viewBox="0 0 64 64" fill="none" xmlns="http://www.w3.org/2000/svg">
<path d="M58.6859 32.3609C58.6859 47.0881 46.7461 59.0279 32.0178 59.0279C17.2895 59.0279 5.35315 47.0881 5.35315 32.3609C5.35315 17.6337 17.2929 5.69629 32.0178 5.69629C46.7427 5.69629 58.6859 17.6337 58.6859 32.3609Z" fill="url(#paint0_linear_494_14066)"/>
<path style="mix-blend-mode:overlay" opacity="0.5" d="M48.9211 32.3294C48.9218 35.5878 47.9562 38.7731 46.1464 41.4827C44.3366 44.1922 41.764 46.3042 38.7539 47.5515C35.7437 48.7988 32.4313 49.1255 29.2355 48.4902C26.0397 47.8548 23.1041 46.286 20.7999 43.9822C18.4958 41.6784 16.9266 38.743 16.2908 35.5472C15.655 32.3515 15.9812 29.039 17.2281 26.0287C18.475 23.0184 20.5866 20.4455 23.2959 18.6353C26.0052 16.8252 29.1904 15.8591 32.4488 15.8594C36.817 15.8597 41.0063 17.5949 44.0953 20.6835C47.1843 23.7721 48.9202 27.9612 48.9211 32.3294Z" fill="url(#paint1_linear_494_14066)"/>
<g style="mix-blend-mode:soft-light">
<path d="M31.9856 6.35089C46.6704 6.35089 58.5941 18.0785 58.9633 32.675C58.9633 32.4457 59 32.2163 59 31.987C59 17.0683 46.9031 4.97266 31.9856 4.97266C17.0681 4.97266 4.97009 17.0638 4.97009 31.9824C4.97009 32.2118 4.9999 32.4411 5.00564 32.6704C5.376 18.0785 17.3008 6.35089 31.9856 6.35089Z" fill="#F3EFF9"/>
</g>
<g style="mix-blend-mode:multiply" opacity="0.4">
<path d="M31.9856 57.669C17.2894 57.669 5.36109 45.9265 5.00334 31.3174C5.00334 31.5467 4.97009 31.76 4.97009 31.9824C4.97009 46.9022 17.0635 58.9968 31.9856 58.9968C46.9077 58.9968 59 46.9022 59 31.9824C59 31.76 58.9701 31.541 58.9644 31.3174C58.6067 45.9265 46.6807 57.669 31.9856 57.669Z" fill="black"/>
</g>
<g style="mix-blend-mode:overlay" opacity="0.58">
<path d="M31.9868 6.7168C18.2101 6.7168 7.04321 17.8803 7.04321 31.6592C7.04321 45.4381 18.2101 56.6016 31.9868 56.6016C45.7634 56.6016 56.9258 45.4324 56.9258 31.6592C56.9258 17.886 45.76 6.7168 31.9868 6.7168Z" fill="#F3EFF9"/>
</g>
<g style="mix-blend-mode:soft-light">
<path d="M20.8553 9.47322L23.9248 14.5505C26.7175 13.1829 29.8047 12.5262 32.9122 12.6388C36.0197 12.7515 39.0513 13.6299 41.7376 15.196H41.8832L44.9172 10.2174C41.2999 8.05952 37.1926 6.85885 32.9826 6.72865C28.7727 6.59845 24.599 7.54301 20.8553 9.47322Z" fill="#F3EFF9"/>
</g>
<path d="M16.8422 32.7919C16.8405 29.8279 17.6391 26.9185 19.1539 24.3708C20.6686 21.8231 22.8431 19.7317 25.4479 18.3174C28.0526 16.9031 30.991 16.2184 33.9526 16.3355C36.9143 16.4527 39.7893 17.3674 42.2742 18.9831C40.5205 17.6212 38.5094 16.6282 36.3619 16.0639C34.2144 15.4996 31.975 15.3756 29.7783 15.6994C27.5816 16.0232 25.4732 16.7881 23.5799 17.948C21.6866 19.108 20.0475 20.639 18.7614 22.449C17.4752 24.259 16.5686 26.3105 16.096 28.48C15.6234 30.6495 15.5947 32.8922 16.0115 35.0731C16.4284 37.2541 17.2821 39.3281 18.5215 41.1704C19.7608 43.0128 21.3601 44.5853 23.2231 45.7934C21.2367 44.2579 19.6287 42.2876 18.5225 40.0338C17.4164 37.7799 16.8415 35.3025 16.8422 32.7919Z" fill="white"/>
<path style="mix-blend-mode:overlay" opacity="0.53" d="M32.184 15.5059C31.3121 15.514 30.4422 15.5907 29.5823 15.7352L18.7318 22.5002C16.7525 25.2917 15.6961 28.6324 15.7107 32.0543C15.7253 35.4762 16.8102 38.8078 18.8132 41.5823L36.759 16.1686C35.2728 15.7332 33.7326 15.5101 32.184 15.5059Z" fill="url(#paint2_linear_494_14066)"/>
<path style="mix-blend-mode:overlay" opacity="0.53" d="M32.1839 48.4557C36.2746 48.4565 40.2179 46.9282 43.2396 44.1708L43.6925 20.2064C41.7884 18.3434 39.4601 16.9709 36.908 16.207L29.4022 48.1977C30.3205 48.3618 31.2511 48.4481 32.1839 48.4557Z" fill="url(#paint3_linear_494_14066)"/>
<path style="mix-blend-mode:overlay" opacity="0.4" d="M32.1839 15.5059C28.8813 15.5026 25.6541 16.493 22.922 18.3485C20.1899 20.204 18.0793 22.8385 16.8646 25.9097C15.65 28.9808 15.3875 32.3463 16.1112 35.5686C16.835 38.7909 18.5116 41.7209 20.923 43.9776C21.5215 40.4162 23.0947 35.2908 27.0517 30.6493C31.4788 25.4597 39.739 23.1768 45.4067 22.1861C43.8795 20.1152 41.8874 18.4318 39.5907 17.2716C37.2941 16.1113 34.757 15.5065 32.1839 15.5059Z" fill="url(#paint4_linear_494_14066)"/>
<g style="mix-blend-mode:multiply" opacity="0.25">
<path d="M44.5606 53.1422L41.6356 48.0088C38.7236 49.7506 35.3964 50.6765 32.0032 50.6894C28.61 50.7023 25.2759 49.8017 22.3506 48.0822L19.4095 53.2041C23.2258 55.4394 27.5708 56.6124 31.9935 56.6015C36.4162 56.5906 40.7554 55.3962 44.5606 53.1422Z" fill="black"/>
</g>
<g style="mix-blend-mode:multiply" opacity="0.15">
<path d="M56.9258 31.6589C56.9258 31.5442 56.9109 31.4227 56.9098 31.3034L50.9955 31.2725C50.9955 31.402 51.015 31.5282 51.015 31.6589C51.015 38.628 47.2552 44.7051 41.6643 48.0223L44.5985 53.1488C51.9667 48.8134 56.9258 40.8249 56.9258 31.6589Z" fill="black"/>
</g>
<g style="mix-blend-mode:multiply" opacity="0.1">
<path d="M22.4125 48.0872C19.5362 46.4159 17.1489 44.019 15.4891 41.136C13.8293 38.2531 12.9552 34.985 12.954 31.6584C12.954 31.5438 12.9689 31.4291 12.9712 31.3145L7.05927 31.3248C7.05927 31.4394 7.04321 31.5472 7.04321 31.6596C7.04321 40.8624 12.0413 48.883 19.4623 53.2046L22.4125 48.0872Z" fill="black"/>
</g>
<path opacity="0.7" d="M29.8459 5.17188C31.739 9.07038 38.754 19.9851 38.754 19.9851C38.754 19.9851 49.3236 32.3227 49.726 32.7332C50.1285 33.1437 40.7469 18.319 40.7469 18.319L29.8459 5.17188Z" fill="white"/>
<path opacity="0.7" d="M29.9194 31.9816C32.7676 28.7791 41.1506 18.9583 41.1506 18.9583C41.1506 18.9583 48.145 5.83293 48.3135 5.45684C48.364 5.34218 39.3699 17.8105 39.3699 17.8105L29.9194 31.9816Z" fill="white"/>
<path d="M41.9326 16.6046C39.3401 14.5877 39.8182 8.90961 39.7907 7.30664V8.84311C39.7815 8.59315 39.7735 8.33287 39.7735 8.27783V7.30664C39.7678 7.76529 39.7322 8.49454 39.6382 9.33616C39.6382 9.33616 38.8711 15.0326 37.5066 16.2216C34.4302 18.9047 26.6848 18.4002 29.6603 18.4587C39.6841 18.6742 39.6841 28.4709 39.7735 31.6757V30.0556C39.7804 30.1702 39.7861 30.2666 39.7907 30.3342V31.6723C40.0028 24.0702 39.9753 19.2636 48.7286 18.618C51.6192 18.4048 44.947 18.9574 41.9326 16.6046Z" fill="white"/>
<defs>
<linearGradient id="paint0_linear_494_14066" x1="21.7773" y1="7.95972" x2="43.805" y2="60.4416" gradientUnits="userSpaceOnUse">
<stop offset="0.06" stop-color="#E38250"/>
<stop offset="0.45" stop-color="#BD6E50"/>
<stop offset="1" stop-color="#572600"/>
</linearGradient>
<linearGradient id="paint1_linear_494_14066" x1="15.9753" y1="32.3317" x2="48.9211" y2="32.3317" gradientUnits="userSpaceOnUse">
<stop stop-color="white"/>
<stop offset="1" stop-color="white"/>
</linearGradient>
<linearGradient id="paint2_linear_494_14066" x1="28.3371" y1="38.9301" x2="26.8201" y2="28.645" gradientUnits="userSpaceOnUse">
<stop stop-color="white"/>
<stop offset="1" stop-color="white"/>
</linearGradient>
<linearGradient id="paint3_linear_494_14066" x1="38.3034" y1="46.1063" x2="36.3186" y2="32.6507" gradientUnits="userSpaceOnUse">
<stop stop-color="white"/>
<stop offset="1" stop-color="white"/>
</linearGradient>
<linearGradient id="paint4_linear_494_14066" x1="15.7116" y1="29.7457" x2="45.4068" y2="29.7457" gradientUnits="userSpaceOnUse">
<stop stop-color="white"/>
<stop offset="1" stop-color="white"/>
</linearGradient>
</defs>
</svg>
