<svg width="106" height="105" viewBox="0 0 106 105" fill="none" xmlns="http://www.w3.org/2000/svg">
<path d="M33.586 104.002L33.5859 40.4877L78.0752 40.4877L78.0752 104.002L55.8306 93.6386L33.586 104.002Z" fill="#8544F5"/>
<g filter="url(#filter0_d_348_1294)">
<path d="M50.2521 12.5907C54.325 9.82029 59.6773 9.82029 63.7502 12.5907L64.9893 13.4335C66.6398 14.5562 68.5444 15.2494 70.5305 15.4503L72.0214 15.6011C76.9222 16.0969 81.0223 19.5373 82.3615 24.2775L82.769 25.7196C83.3117 27.6406 84.3251 29.3959 85.7174 30.8264L86.7625 31.9003C90.1981 35.4303 91.1275 40.7012 89.1065 45.1933L88.4916 46.5599C87.6726 48.3803 87.3206 50.3764 87.4676 52.3671L87.578 53.8616C87.9408 58.774 85.2646 63.4092 80.829 65.5513L79.4796 66.2029C77.682 67.071 76.1293 68.3738 74.9623 69.9934L74.0862 71.2091C71.2065 75.2054 66.177 77.036 61.4022 75.8257L59.9496 75.4575C58.0146 74.9671 55.9878 74.9671 54.0527 75.4575L52.6002 75.8257C47.8254 77.036 42.7959 75.2054 39.9161 71.2091L39.0401 69.9934C37.873 68.3738 36.3204 67.071 34.5228 66.2029L33.1734 65.5513C28.7377 63.4092 26.0616 58.774 26.4244 53.8616L26.5347 52.3671C26.6817 50.3764 26.3298 48.3803 25.5107 46.5599L24.8959 45.1933C22.8749 40.7012 23.8043 35.4303 27.2398 31.9003L28.285 30.8264C29.6772 29.3959 30.6906 27.6406 31.2334 25.7196L31.6408 24.2775C32.9801 19.5373 37.0802 16.0969 41.981 15.6011L43.4719 15.4503C45.4579 15.2494 47.3625 14.5562 49.0131 13.4335L50.2521 12.5907Z" fill="#8544F5"/>
<path d="M63.469 13.0041L64.7081 13.8469C66.4274 15.0164 68.4113 15.7385 70.4802 15.9478L71.9711 16.0986C76.6677 16.5737 80.5969 19.8707 81.8804 24.4135L82.2878 25.8555C82.8532 27.8566 83.9088 29.685 85.3591 31.1751L86.4042 32.249C89.6966 35.6319 90.5873 40.6832 88.6505 44.9882L88.0356 46.3547C87.1825 48.251 86.8159 50.3302 86.969 52.404L87.0794 53.8984C87.427 58.6062 84.8624 63.0482 80.6115 65.101L79.2621 65.7527C77.3896 66.6569 75.7723 68.014 74.5567 69.701L73.6806 70.9168C70.9208 74.7466 66.1009 76.5009 61.525 75.341L60.0725 74.9729C58.0568 74.4619 55.9455 74.4619 53.9299 74.9729L52.4773 75.341C47.9015 76.5009 43.0815 74.7466 40.3218 70.9168L39.4457 69.701C38.23 68.014 36.6127 66.6569 34.7402 65.7527L33.3908 65.101C29.14 63.0482 26.5754 58.6062 26.923 53.8984L27.0334 52.404C27.1865 50.3302 26.8199 48.251 25.9667 46.3547L25.3519 44.9882C23.4151 40.6832 24.3057 35.6319 27.5981 32.249L28.6433 31.1751C30.0936 29.685 31.1492 27.8566 31.7146 25.8555L32.122 24.4135C33.4055 19.8707 37.3347 16.5737 42.0313 16.0986L43.5222 15.9478C45.591 15.7385 47.575 15.0164 49.2943 13.8469L50.5333 13.0041C54.4366 10.3491 59.5658 10.3491 63.469 13.0041Z" stroke="white" stroke-opacity="0.1"/>
</g>
<g clip-path="url(#clip0_348_1294)">
<path d="M38.4948 49.5304C38.3635 49.5304 38.2325 49.4804 38.1327 49.3804C37.9323 49.1803 37.9323 48.8564 38.1327 48.656L50.0854 36.7038C50.2855 36.5037 50.6094 36.5037 50.8098 36.7038C51.0098 36.9041 51.0098 37.228 50.8098 37.4281L38.8567 49.3804C38.757 49.4804 38.6259 49.5304 38.4948 49.5304Z" fill="#E2E1E5"/>
<path d="M39.9439 50.9803C39.8128 50.9803 39.6818 50.9301 39.5817 50.8303C39.3816 50.6299 39.3816 50.3063 39.5817 50.1059L51.534 38.1532C51.7343 37.9528 52.0582 37.9528 52.2583 38.1532C52.4586 38.3535 52.4586 38.6772 52.2583 38.8775L40.306 50.8303C40.2062 50.9301 40.0752 50.9803 39.9439 50.9803Z" fill="#E2E1E5"/>
<path d="M39.2196 51.2796C38.8259 51.2796 38.4325 51.13 38.1329 50.8309C37.5338 50.2306 37.5338 49.2559 38.1329 48.6569C38.3329 48.4568 38.6568 48.4568 38.8569 48.6569C39.0573 48.8572 39.0573 49.1811 38.8569 49.3812C38.6573 49.5811 38.6573 49.9057 38.8577 50.106C39.0573 50.3059 39.3822 50.3054 39.5817 50.1055C39.7821 49.9065 40.1065 49.9057 40.3066 50.106C40.5064 50.3069 40.5064 50.6305 40.3061 50.8309C40.0064 51.13 39.613 51.2796 39.2196 51.2796Z" fill="#E2E1E5"/>
<path d="M57.692 44.8225C57.561 44.8225 57.4299 44.7722 57.3299 44.6724L44.2909 31.6332C44.0905 31.4328 44.0905 31.1092 44.2909 30.9089C44.491 30.7088 44.8149 30.7088 45.0149 30.9089L58.0542 43.9481C58.2545 44.1484 58.2545 44.4721 58.0542 44.6724C57.9539 44.7722 57.8228 44.8225 57.692 44.8225Z" fill="#E2E1E5"/>
<path d="M57.6917 44.8226C57.4863 44.8226 57.2923 44.698 57.2135 44.4942C57.196 44.4482 55.4007 39.8464 52.2585 36.7043C49.1172 33.5624 44.5149 31.7666 44.4686 31.7491C44.2045 31.647 44.0732 31.3512 44.1752 31.0868C44.276 30.8219 44.5737 30.6924 44.837 30.7927C45.0331 30.8679 49.6847 32.6812 52.9829 35.9802C56.2816 39.2789 58.0944 43.9305 58.1696 44.126C58.2712 44.3904 58.1389 44.6863 57.8758 44.7878C57.8152 44.8113 57.7532 44.8226 57.6917 44.8226Z" fill="#E2E1E5"/>
<path d="M51.8736 36.1527C51.7425 36.1527 51.6114 36.1024 51.5114 36.0026C51.3113 35.8023 51.3113 35.4786 51.5114 35.2783L52.6209 34.1688C52.8212 33.9685 53.1449 33.9685 53.3452 34.1688C53.5455 34.3691 53.5455 34.6928 53.3452 34.8931L52.2357 36.0026C52.1359 36.1024 52.0049 36.1527 51.8736 36.1527Z" fill="#E2E1E5"/>
<path d="M54.4318 36.4923C54.3007 36.4923 54.1694 36.4421 54.0696 36.342L52.621 34.8931C52.4206 34.6928 52.4206 34.3691 52.621 34.1688C52.8213 33.9685 53.1449 33.9685 53.3453 34.1688L54.7939 35.6179C54.9943 35.818 54.9943 36.1419 54.7939 36.342C54.6941 36.4421 54.5628 36.4923 54.4318 36.4923Z" fill="#E2E1E5"/>
<path d="M53.323 37.6017C53.1919 37.6017 53.0606 37.5516 52.9608 37.4516C52.7605 37.2515 52.7605 36.9276 52.9608 36.7275L54.0703 35.618C54.2706 35.4177 54.5943 35.4177 54.7946 35.618C54.9949 35.8181 54.9949 36.142 54.7946 36.3421L53.6851 37.4516C53.5853 37.5516 53.454 37.6017 53.323 37.6017Z" fill="#E2E1E5"/>
<path d="M49.4359 55.8897C49.3191 55.8897 49.2018 55.8497 49.1055 55.7689C48.8894 55.5861 48.8621 55.2627 49.045 55.0471L54.6795 48.3882C54.8618 48.1726 55.1857 48.1456 55.4013 48.3279C55.6174 48.5107 55.6446 48.8339 55.4615 49.0495L49.8271 55.7084C49.7263 55.8282 49.5812 55.8897 49.4359 55.8897Z" fill="#E2E1E5"/>
<path d="M56.6074 50.2549C56.5101 50.2549 56.411 50.2269 56.3235 50.1689L54.7868 49.1444C54.5512 48.9871 54.4877 48.6697 54.645 48.4341C54.8018 48.1985 55.1187 48.1355 55.3553 48.292L56.892 49.3165C57.1278 49.4738 57.1914 49.7915 57.034 50.0271C56.9357 50.1751 56.7732 50.2549 56.6074 50.2549Z" fill="#E2E1E5"/>
<path d="M56.6081 50.2551C56.4771 50.2551 56.3458 50.2051 56.246 50.105C56.0456 49.9047 56.0456 49.5811 56.246 49.3807L61.3682 44.2585C61.5686 44.0584 61.8922 44.0584 62.0925 44.2585C62.2929 44.4588 62.2929 44.7824 62.0925 44.9828L56.9703 50.105C56.8702 50.2051 56.7392 50.2551 56.6081 50.2551Z" fill="#E2E1E5"/>
<path d="M68.9004 52.304C68.7693 52.304 68.638 52.254 68.5382 52.1539L61.3671 44.9828C61.1667 44.7824 61.1667 44.4588 61.3671 44.2585C61.5674 44.0584 61.891 44.0584 62.0914 44.2585L69.2625 51.4296C69.4629 51.63 69.4629 51.9536 69.2625 52.1539C69.1625 52.254 69.0314 52.304 68.9004 52.304Z" fill="#E2E1E5"/>
<path d="M69.9527 55.8892C69.7311 55.8892 69.5265 55.7449 69.461 55.521L68.4095 51.9354C68.33 51.6638 68.4853 51.3797 68.7571 51.2997C69.0293 51.2214 69.3134 51.3754 69.3929 51.6476L70.4444 55.2331C70.5239 55.5045 70.3686 55.7889 70.0967 55.8687C70.049 55.8827 70.0004 55.8892 69.9527 55.8892Z" fill="#E2E1E5"/>
<path d="M59.7075 44.6203C59.4244 44.6203 59.1953 44.3914 59.1953 44.108V41.0347C59.1953 40.7516 59.4244 40.5225 59.7075 40.5225C59.9909 40.5225 60.2198 40.7516 60.2198 41.0347V44.108C60.2198 44.3914 59.9909 44.6203 59.7075 44.6203Z" fill="#E2E1E5"/>
<path d="M57.1461 46.67H54.0728C53.7896 46.67 53.5605 46.4411 53.5605 46.1577C53.5605 45.8746 53.7896 45.6455 54.0728 45.6455H57.1461C57.4295 45.6455 57.6584 45.8746 57.6584 46.1577C57.6584 46.4411 57.4295 46.67 57.1461 46.67Z" fill="#E2E1E5"/>
<path d="M65.8542 34.888C63.3121 34.888 61.2441 32.8201 61.2441 30.278C61.2441 27.7359 63.3121 25.668 65.8542 25.668C68.3965 25.668 70.4642 27.7359 70.4642 30.278C70.4642 32.8201 68.3965 34.888 65.8542 34.888ZM65.8542 26.6924C63.8776 26.6924 62.2686 28.3014 62.2686 30.278C62.2686 32.2546 63.8776 33.8636 65.8542 33.8636C67.831 33.8636 69.4398 32.2546 69.4398 30.278C69.4398 28.3014 67.831 26.6924 65.8542 26.6924Z" fill="#E2E1E5"/>
<path d="M65.8542 36.9377C63.3121 36.9377 61.2441 34.8698 61.2441 32.3277C61.2441 32.0445 61.4732 31.8154 61.7564 31.8154C62.0397 31.8154 62.2686 32.0445 62.2686 32.3277C62.2686 34.3043 63.8776 35.9132 65.8542 35.9132C67.831 35.9132 69.4398 34.3043 69.4398 32.3277C69.4398 32.0445 69.6689 31.8154 69.952 31.8154C70.2354 31.8154 70.4642 32.0445 70.4642 32.3277C70.4642 34.8698 68.3965 36.9377 65.8542 36.9377Z" fill="#E2E1E5"/>
<path d="M68.1605 45.6452C66.8897 45.6452 65.8555 44.611 65.8555 43.3402C65.8555 42.0694 66.8897 41.0352 68.1605 41.0352C69.4313 41.0352 70.4655 42.0694 70.4655 43.3402C70.4655 44.611 69.4313 45.6452 68.1605 45.6452ZM68.1605 42.0596C67.4542 42.0596 66.8799 42.6339 66.8799 43.3402C66.8799 44.0465 67.4542 44.6207 68.1605 44.6207C68.867 44.6207 69.441 44.0465 69.441 43.3402C69.441 42.6339 68.867 42.0596 68.1605 42.0596Z" fill="#E2E1E5"/>
<path d="M68.1605 47.1815C66.8897 47.1815 65.8555 46.1473 65.8555 44.8765C65.8555 44.5934 66.0846 44.3643 66.3677 44.3643C66.6511 44.3643 66.8799 44.5934 66.8799 44.8765C66.8799 45.5828 67.4542 46.157 68.1605 46.157C68.867 46.157 69.441 45.5828 69.441 44.8765C69.441 44.5934 69.6701 44.3643 69.9533 44.3643C70.2366 44.3643 70.4655 44.5934 70.4655 44.8765C70.4655 46.1473 69.4313 47.1815 68.1605 47.1815Z" fill="#E2E1E5"/>
<path d="M66.3677 45.3893C66.0846 45.3893 65.8555 45.1604 65.8555 44.877V43.3404C65.8555 43.0572 66.0846 42.8281 66.3677 42.8281C66.6511 42.8281 66.8799 43.0572 66.8799 43.3404V44.877C66.8799 45.1604 66.6511 45.3893 66.3677 45.3893Z" fill="#E2E1E5"/>
<path d="M69.9517 45.3893C69.6686 45.3893 69.4395 45.1604 69.4395 44.877V43.3404C69.4395 43.0572 69.6686 42.8281 69.9517 42.8281C70.2351 42.8281 70.4639 43.0572 70.4639 43.3404V44.877C70.4639 45.1604 70.2351 45.3893 69.9517 45.3893Z" fill="#E2E1E5"/>
<path d="M63.5506 42.0592C62.5622 42.0592 61.7578 41.2551 61.7578 40.2664C61.7578 39.278 62.5622 38.4736 63.5506 38.4736C64.5393 38.4736 65.3434 39.278 65.3434 40.2664C65.3434 41.2551 64.5393 42.0592 63.5506 42.0592ZM63.5506 39.4981C63.1272 39.4981 62.7823 39.843 62.7823 40.2664C62.7823 40.6901 63.1272 41.0348 63.5506 41.0348C63.9743 41.0348 64.3189 40.6901 64.3189 40.2664C64.3189 39.843 63.9743 39.4981 63.5506 39.4981Z" fill="#E2E1E5"/>
<path d="M69.9521 55.8897H49.4361C49.1527 55.8897 48.9238 55.6608 48.9238 55.3775C48.9238 55.0943 49.1527 54.8652 49.4361 54.8652H69.9521C70.2355 54.8652 70.4643 55.0943 70.4643 55.3775C70.4643 55.6608 70.2355 55.8897 69.9521 55.8897Z" fill="#E2E1E5"/>
<path d="M61.7564 32.839C61.4732 32.839 61.2441 32.6101 61.2441 32.3268V30.2779C61.2441 29.9947 61.4732 29.7656 61.7564 29.7656C62.0397 29.7656 62.2686 29.9947 62.2686 30.2779V32.3268C62.2686 32.6101 62.0397 32.839 61.7564 32.839Z" fill="#E2E1E5"/>
<path d="M69.9517 32.839C69.6686 32.839 69.4395 32.6101 69.4395 32.3268V30.2779C69.4395 29.9947 69.6686 29.7656 69.9517 29.7656C70.2351 29.7656 70.4639 29.9947 70.4639 30.2779V32.3268C70.4639 32.6101 70.2351 32.839 69.9517 32.839Z" fill="#E2E1E5"/>
<path d="M64.3189 36.6388C64.0357 36.6388 63.8066 36.4099 63.8066 36.1266V34.0777C63.8066 33.7945 64.0357 33.5654 64.3189 33.5654C64.6022 33.5654 64.8311 33.7945 64.8311 34.0777V36.1266C64.8311 36.4099 64.6022 36.6388 64.3189 36.6388Z" fill="#E2E1E5"/>
<path d="M67.3911 36.6388C67.108 36.6388 66.8789 36.4099 66.8789 36.1266V34.0777C66.8789 33.7945 67.108 33.5654 67.3911 33.5654C67.6745 33.5654 67.9034 33.7945 67.9034 34.0777V36.1266C67.9034 36.4099 67.6745 36.6388 67.3911 36.6388Z" fill="#E2E1E5"/>
<path d="M65.854 31.8146C65.5709 31.8146 65.3418 31.5857 65.3418 31.3023V29.2534C65.3418 28.9703 65.5709 28.7412 65.854 28.7412C66.1374 28.7412 66.3662 28.9703 66.3662 29.2534V31.3023C66.3662 31.5857 66.1374 31.8146 65.854 31.8146Z" fill="#E2E1E5"/>
</g>
<defs>
<filter id="filter0_d_348_1294" x="0.839844" y="0.512695" width="104.324" height="103.682" filterUnits="userSpaceOnUse" color-interpolation-filters="sRGB">
<feFlood flood-opacity="0" result="BackgroundImageFix"/>
<feColorMatrix in="SourceAlpha" type="matrix" values="0 0 0 0 0 0 0 0 0 0 0 0 0 0 0 0 0 0 127 0" result="hardAlpha"/>
<feOffset dx="-4" dy="9"/>
<feGaussianBlur stdDeviation="9.5"/>
<feComposite in2="hardAlpha" operator="out"/>
<feColorMatrix type="matrix" values="0 0 0 0 0 0 0 0 0 0 0 0 0 0 0 0 0 0 0.1 0"/>
<feBlend mode="normal" in2="BackgroundImageFix" result="effect1_dropShadow_348_1294"/>
<feBlend mode="normal" in="SourceGraphic" in2="effect1_dropShadow_348_1294" result="shape"/>
</filter>
<clipPath id="clip0_348_1294">
<rect width="32.7816" height="32.7816" fill="white" transform="translate(37.6836 24.3887)"/>
</clipPath>
</defs>
</svg>
