<svg width="450" height="372" viewBox="0 0 450 372" fill="none" xmlns="http://www.w3.org/2000/svg">
<g id="No Internet">
<g id="circle">
<path id="Stroke 1" d="M18.1318 171.469V175.258" stroke="#7B3FE4" stroke-width="2.921" stroke-linecap="round"/>
<g id="Group 8">
<path id="Stroke 2" d="M9.62402 173.52L12.7204 176.707" stroke="#7B3FE4" stroke-width="2.921" stroke-linecap="round"/>
<path id="Stroke 4" d="M6 182.004H10.3783" stroke="#7B3FE4" stroke-width="2.921" stroke-linecap="round"/>
<path id="Stroke 6" d="M9.2666 190.641L12.363 187.453" stroke="#7B3FE4" stroke-width="2.921" stroke-linecap="round"/>
</g>
<path id="Stroke 9" d="M18.1318 191.676V187.887" stroke="#7B3FE4" stroke-width="2.921" stroke-linecap="round"/>
<path id="Stroke 10" d="M24.4461 189.147L21.9199 186.621" stroke="#7B3FE4" stroke-width="2.921" stroke-linecap="round"/>
<path id="Stroke 11" d="M29.5002 182.836H25.7109" stroke="#7B3FE4" stroke-width="2.921" stroke-linecap="round"/>
<path id="Stroke 12" d="M26.9744 173.988L24.4482 176.514" stroke="#7B3FE4" stroke-width="2.921" stroke-linecap="round"/>
<path id="Stroke 13" d="M221.49 6V8.52619" stroke="#7B3FE4" stroke-width="2.921" stroke-linecap="round"/>
<path id="Stroke 15" d="M213.911 13.5762H216.437" stroke="#7B3FE4" stroke-width="2.921" stroke-linecap="round"/>
<path id="Stroke 16" d="M221.49 21.159V18.6328" stroke="#7B3FE4" stroke-width="2.921" stroke-linecap="round"/>
<path id="Stroke 17" d="M227.807 13.5791H225.281" stroke="#7B3FE4" stroke-width="2.921" stroke-linecap="round"/>
<path id="Stroke 18" d="M74.9707 112.102V115.891" stroke="#7B3FE4" stroke-width="2.921" stroke-linecap="round"/>
<path id="Stroke 19" d="M63.6035 123.469H67.3928" stroke="#7B3FE4" stroke-width="2.921" stroke-linecap="round"/>
<path id="Stroke 20" d="M74.9707 133.569V129.779" stroke="#7B3FE4" stroke-width="2.921" stroke-linecap="round"/>
<path id="Stroke 21" d="M85.0764 123.469H81.2871" stroke="#7B3FE4" stroke-width="2.921" stroke-linecap="round"/>
<g id="Group 42">
<path id="Stroke 22" d="M346.857 249.826C349.876 249.826 352.324 252.275 352.324 255.294C352.324 258.315 349.876 260.762 346.857 260.762C343.839 260.762 341.391 258.315 341.391 255.294" stroke="#7B3FE4" stroke-width="2.921" stroke-linecap="round"/>
<path id="Stroke 24" d="M371.81 321.708C372.485 326.424 369.213 330.793 364.5 331.469C359.786 332.144 355.417 328.87 354.742 324.156C354.066 319.442 357.339 315.072 362.052 314.396" stroke="#7B3FE4" stroke-width="2.921" stroke-linecap="round"/>
<path id="Fill 26" fill-rule="evenodd" clip-rule="evenodd" d="M371.877 200.216C375.123 199.204 380.098 195.234 381.25 190.963C382.294 194.738 386.673 199.204 390.623 199.542C386.176 201.116 381.925 205.794 381.25 209.468C380.791 205.723 374.911 200.762 371.877 200.216Z" fill="#EBECEE"/>
<path id="Fill 28" fill-rule="evenodd" clip-rule="evenodd" d="M38.6836 248.148C40.3071 247.641 42.7938 245.657 43.3696 243.521C43.8918 245.408 46.0804 247.641 48.0556 247.811C45.8327 248.597 43.7074 250.936 43.3696 252.774C43.1401 250.901 40.1998 248.42 38.6836 248.148Z" fill="#EBECEE"/>
<path id="Fill 30" fill-rule="evenodd" clip-rule="evenodd" d="M68.8117 72.4372C68.8117 74.7798 66.9137 76.6772 64.5728 76.6772C62.2309 76.6772 60.334 74.7798 60.334 72.4372C60.334 70.0958 62.2309 68.1973 64.5728 68.1973C66.9137 68.1973 68.8117 70.0958 68.8117 72.4372Z" fill="#D1D8DF"/>
<path id="Fill 32" fill-rule="evenodd" clip-rule="evenodd" d="M319.134 338.645C319.134 342.559 315.961 345.732 312.049 345.732C308.135 345.732 304.963 342.559 304.963 338.645C304.963 334.731 308.135 331.559 312.049 331.559C315.961 331.559 319.134 334.731 319.134 338.645Z" fill="#EBECEE"/>
<path id="Fill 34" fill-rule="evenodd" clip-rule="evenodd" d="M450.001 64.6195C450.001 67.7247 447.485 70.241 444.382 70.241C441.277 70.241 438.762 67.7247 438.762 64.6195C438.762 61.5144 441.277 58.998 444.382 58.998C447.485 58.998 450.001 61.5144 450.001 64.6195Z" fill="#EBECEE"/>
<path id="Stroke 36" fill-rule="evenodd" clip-rule="evenodd" d="M148.032 327.163C148.032 329.12 146.446 330.707 144.489 330.707C142.533 330.707 140.947 329.12 140.947 327.163C140.947 325.206 142.533 323.619 144.489 323.619C146.446 323.619 148.032 325.206 148.032 327.163Z" stroke="#7B3FE4" stroke-width="2.921" stroke-linecap="round"/>
<path id="Stroke 38" fill-rule="evenodd" clip-rule="evenodd" d="M145.927 45.197C145.927 47.5396 144.029 49.437 141.688 49.437C139.347 49.437 137.449 47.5396 137.449 45.197C137.449 42.8555 139.347 40.957 141.688 40.957C144.029 40.957 145.927 42.8555 145.927 45.197Z" stroke="#7B3FE4" stroke-width="2.921" stroke-linecap="round"/>
<path id="Stroke 40" fill-rule="evenodd" clip-rule="evenodd" d="M254.05 366.406C251.341 367.436 248.31 366.075 247.279 363.367C246.249 360.658 247.608 357.624 250.318 356.595C253.026 355.564 256.057 356.924 257.087 359.633C258.119 362.343 256.758 365.375 254.05 366.406Z" stroke="#7B3FE4" stroke-width="2.921" stroke-linecap="round"/>
</g>
</g>
<path id="Fill 1" fill-rule="evenodd" clip-rule="evenodd" d="M179.804 278.774H204.03L191.34 319.152L247.869 262.047H213.835L232.871 178.406L179.804 278.774Z" fill="#B210FF"/>
<g id="Group 6">
<path id="Fill 2" fill-rule="evenodd" clip-rule="evenodd" d="M324.722 153.026C318.749 148.782 311.776 145.856 304.218 144.689C300.084 108.574 269.425 80.5254 232.203 80.5254C209.008 80.5254 188.361 91.4234 175.088 108.378C170.431 106.818 165.46 105.967 160.276 105.967C136.477 105.967 116.851 123.807 114.018 146.842C94.3223 152.948 80.0215 171.309 80.0215 193.007C80.0215 219.62 101.532 241.203 128.12 241.328C129.489 241.512 130.881 241.619 132.301 241.619H290.336C293.254 242.166 296.247 242.464 299.323 242.464C326.017 242.464 347.649 220.829 347.649 194.138C347.649 176.766 338.48 161.542 324.722 153.026Z" fill="#F1F2F7"/>
<path id="Fill 4" fill-rule="evenodd" clip-rule="evenodd" d="M190.378 125.653C184.785 123.383 178.561 122.109 172.001 122.109C147.706 122.109 128.019 139.451 128.019 160.839C128.019 163.002 128.225 165.12 128.614 167.183C147.503 140.5 160.519 129.903 190.378 125.653Z" fill="#E0E2EE"/>
</g>
</g>
</svg>
