<svg width="64" height="64" viewBox="0 0 64 64" fill="none" xmlns="http://www.w3.org/2000/svg">
<path d="M53.609 18.427C53.268 18.4266 52.9345 18.5269 52.6503 18.7153C52.3661 18.9037 52.1438 19.1719 52.0114 19.4861C51.879 19.8003 51.8424 20.1467 51.9061 20.4816C51.9697 20.8166 52.1309 21.1253 52.3694 21.3691C50.8782 21.9039 48.2346 22.7389 45.5263 23.0706C45.2935 22.7111 45.1533 22.2437 45.1838 21.6216C45.2485 20.2518 45.244 18.8828 45.2252 17.8859C45.7415 17.9467 46.2627 17.8231 46.6969 17.537C47.131 17.2509 47.4501 16.8207 47.5979 16.3222C47.7456 15.8238 47.7126 15.2891 47.5046 14.8126C47.2966 14.3362 46.9269 13.9485 46.4609 13.718C45.9949 13.4875 45.4624 13.429 44.9575 13.5529C44.4525 13.6768 44.0076 13.975 43.7011 14.395C43.3947 14.815 43.2464 15.3297 43.2825 15.8484C43.3186 16.367 43.5367 16.8563 43.8984 17.2297L38.7155 20.6994L32.9699 12.0936C33.5344 11.8577 33.9997 11.4337 34.2868 10.8935C34.5739 10.3533 34.6651 9.73038 34.5448 9.13059C34.4245 8.5308 34.1002 7.99118 33.627 7.60348C33.1539 7.21577 32.561 7.00391 31.9493 7.00391C31.3375 7.00391 30.7447 7.21577 30.2715 7.60348C29.7983 7.99118 29.474 8.5308 29.3538 9.13059C29.2335 9.73038 29.3246 10.3533 29.6117 10.8935C29.8988 11.4337 30.3642 11.8577 30.9286 12.0936L25.1929 20.685L20.0298 17.2297C20.3976 16.853 20.6204 16.3582 20.6586 15.833C20.6968 15.3079 20.548 14.7861 20.2385 14.36C19.9291 13.934 19.4789 13.6311 18.9676 13.5051C18.4564 13.379 17.917 13.4378 17.4449 13.6711C16.9729 13.9044 16.5986 14.2972 16.3882 14.7799C16.1779 15.2627 16.145 15.8042 16.2955 16.3089C16.4461 16.8135 16.7702 17.2486 17.2106 17.5372C17.6511 17.8258 18.1794 17.9493 18.7021 17.8859C18.6823 18.8828 18.6796 20.2518 18.7444 21.6216C18.7731 22.2464 18.6329 22.7165 18.4001 23.0733C15.6891 22.7461 13.05 21.9129 11.5525 21.3771C11.9029 21.0564 12.1266 20.6205 12.1828 20.1488C12.2391 19.6771 12.1242 19.2008 11.8591 18.8067C11.594 18.4125 11.1962 18.1265 10.7381 18.0008C10.2799 17.875 9.79192 17.9179 9.36271 18.1215C8.9335 18.3251 8.59161 18.676 8.3992 19.1103C8.20678 19.5447 8.17662 20.0337 8.3142 20.4884C8.45178 20.9431 8.74797 21.3333 9.14891 21.5881C9.54984 21.8429 10.0289 21.9454 10.499 21.8769L12.7516 34.4719V35.5425C12.7516 35.5425 14.677 35.4193 31.2944 35.4193H32.6032C49.2198 35.4193 51.1452 35.5425 51.1452 35.5425V34.4719L53.3986 21.8733C53.4679 21.8851 53.5379 21.8923 53.6081 21.8949C53.8358 21.8949 54.0612 21.85 54.2716 21.7629C54.482 21.6758 54.6731 21.5481 54.8341 21.387C54.9951 21.226 55.1229 21.0349 55.21 20.8245C55.2971 20.6141 55.342 20.3887 55.342 20.161C55.342 19.9333 55.2971 19.7078 55.21 19.4974C55.1229 19.2871 54.9951 19.0959 54.8341 18.9349C54.6731 18.7739 54.482 18.6462 54.2716 18.559C54.0612 18.4719 53.8358 18.427 53.6081 18.427H53.609Z" fill="url(#paint0_linear_494_14026)"/>
<g style="mix-blend-mode:overlay">
<path d="M33.0526 12.0938C33.0238 12.1072 33.0022 12.1459 32.9717 12.1585L39.4993 21.9229L44.3002 17.6083C43.9163 17.2119 44.0629 17.5185 44.0629 16.9198C44.0628 16.4953 44.1854 16.0798 44.4161 15.7234C44.6467 15.367 44.9755 15.0849 45.3628 14.9111C45.75 14.7372 46.1793 14.6791 46.5989 14.7436C47.0185 14.8082 47.4104 14.9927 47.7276 15.2749C47.6625 14.9379 47.5197 14.6208 47.3104 14.3488C47.1011 14.0769 46.8311 13.8575 46.5221 13.7084C46.213 13.5592 45.8734 13.4843 45.5303 13.4896C45.1871 13.4949 44.8499 13.5803 44.5457 13.739C44.2414 13.8977 43.9783 14.1252 43.7776 14.4036C43.5768 14.6819 43.4439 15.0033 43.3893 15.3421C43.3347 15.6809 43.36 16.0278 43.4632 16.3551C43.5665 16.6824 43.7447 16.981 43.9838 17.2272L38.7991 20.6969L33.0526 12.0938Z" fill="white"/>
<path d="M30.0863 10.874C30.0859 10.3514 30.2402 9.84037 30.5298 9.40532C30.8193 8.97027 31.2312 8.63065 31.7134 8.42928C32.1957 8.2279 32.7267 8.17377 33.2397 8.27371C33.7527 8.37365 34.2245 8.62318 34.5959 8.99087C34.4948 8.59569 34.3037 8.22922 34.0376 7.92008C33.7714 7.61094 33.4374 7.36749 33.0617 7.20873C32.6859 7.04996 32.2786 6.98019 31.8714 7.00484C31.4642 7.02949 31.0683 7.14791 30.7144 7.35085C30.3606 7.55379 30.0584 7.83577 29.8315 8.17476C29.6046 8.51375 29.4591 8.90059 29.4064 9.30509C29.3537 9.70959 29.3952 10.1208 29.5276 10.5066C29.6601 10.8924 29.8799 11.2424 30.1699 11.5293C30.1145 11.3153 30.0864 11.0951 30.0863 10.874Z" fill="white"/>
<path d="M45.964 23.0228C45.9526 23.4712 46.0729 23.9131 46.3101 24.2938C49.0229 23.963 51.662 23.1253 53.1541 22.5932C52.8359 22.2713 52.6576 21.8368 52.6579 21.3842C52.6584 21.0639 52.7476 20.7499 52.9158 20.4773C53.0839 20.2047 53.3244 19.984 53.6104 19.8398C53.8964 19.6957 54.2168 19.6336 54.536 19.6606C54.8552 19.6876 55.1606 19.8026 55.4184 19.9927C55.3915 19.7166 55.2988 19.451 55.1481 19.2181C54.9974 18.9852 54.793 18.7918 54.5522 18.6542C54.3113 18.5166 54.0409 18.4388 53.7637 18.4273C53.4866 18.4158 53.2107 18.4709 52.9592 18.588C52.7077 18.7051 52.488 18.8808 52.3185 19.1004C52.149 19.32 52.0346 19.577 51.9849 19.85C51.9352 20.1229 51.9517 20.4037 52.033 20.669C52.1143 20.9342 52.258 21.1761 52.4521 21.3743C51.0301 21.8803 48.551 22.666 45.964 23.0228Z" fill="white"/>
<path d="M19.5254 22.8448C19.4616 21.4749 19.4643 20.1051 19.484 19.1091C19.3995 19.1181 18.9186 17.9172 18.7712 17.8857C18.7712 18.6687 18.7838 20.7397 18.8252 21.6215C18.8548 22.2462 18.7146 22.7163 18.4809 23.0731C16.3712 22.8188 14.3074 22.2579 12.7892 21.7689C12.7175 22.0827 12.5597 22.3704 12.3335 22.5994C13.8319 23.1388 16.4683 23.9693 19.1811 24.2965C19.4148 23.9397 19.555 23.4686 19.5254 22.8448Z" fill="white"/>
<path d="M20.8117 18.453L25.9748 21.9101L31.156 14C31.5155 13.1749 31.2809 12.4171 31.0094 12.0908L25.2746 20.6823L20.1088 17.2306C20.0135 17.4166 20.1088 17.6881 20.8117 18.453Z" fill="white"/>
<path d="M13.5946 35.5195L11.3277 23.1007C11.2675 23.1061 11.1848 23.1187 11.1218 23.1187C11.0476 23.1181 10.9737 23.1088 10.9016 23.0908L13.0185 34.4724V35.5429C13.0185 35.5429 13.0661 35.5321 13.5946 35.5195Z" fill="white"/>
<path d="M9.36547 21.3839C9.36583 21.0637 9.45495 20.7499 9.62294 20.4774C9.79092 20.2049 10.0312 19.9842 10.317 19.8401C10.6029 19.6959 10.9231 19.6338 11.2421 19.6607C11.5611 19.6876 11.8664 19.8024 12.1241 19.9924C12.0956 19.7047 11.9955 19.4286 11.833 19.1894C11.6706 18.9502 11.4509 18.7555 11.1939 18.6228C10.937 18.4902 10.651 18.4239 10.3619 18.4301C10.0728 18.4362 9.78984 18.5145 9.53876 18.6579C9.28767 18.8013 9.07643 19.0052 8.92426 19.2511C8.77209 19.497 8.68383 19.777 8.6675 20.0657C8.65117 20.3544 8.7073 20.6426 8.83077 20.904C8.95425 21.1655 9.14114 21.3919 9.37445 21.5627C9.36906 21.5016 9.36547 21.4432 9.36547 21.3839Z" fill="white"/>
<path d="M17.067 17.3457C17.0399 17.2065 17.0261 17.065 17.0256 16.9232C17.0255 16.4987 17.1482 16.0832 17.3788 15.7268C17.6095 15.3704 17.9382 15.0883 18.3255 14.9145C18.7128 14.7406 19.1421 14.6825 19.5617 14.747C19.9812 14.8116 20.3732 14.9961 20.6903 15.2783C20.6236 14.9348 20.476 14.6123 20.2598 14.3372C20.0436 14.0622 19.7649 13.8426 19.447 13.6967C19.129 13.5508 18.7808 13.4828 18.4313 13.4982C18.0818 13.5137 17.741 13.6122 17.4371 13.7856C17.1333 13.9589 16.8751 14.2022 16.684 14.4952C16.4928 14.7883 16.3743 15.1226 16.3381 15.4706C16.3019 15.8186 16.3492 16.1701 16.4759 16.4962C16.6027 16.8223 16.8053 17.1135 17.067 17.3457Z" fill="white"/>
</g>
<path d="M26.3398 33.4213C25.938 32.1944 3.29362 23.1238 3.29362 23.1238C2.0298 21.7342 2.44148 24.402 2.87024 28.4173C3.299 32.4326 3.4635 34.2861 4.39833 35.0384C5.33315 35.7908 23.6414 38.9575 24.9825 39.4024C26.3236 39.8474 26.7416 34.6483 26.3398 33.4213Z" fill="url(#paint1_linear_494_14026)"/>
<path opacity="0.49" d="M26.1204 34.6672C25.7186 33.4402 3.07423 24.3697 3.07423 24.3697C2.78569 24.0533 2.58524 23.949 2.45221 24.0218C2.41535 22.8137 2.60682 22.3679 3.29356 23.123C3.29356 23.123 25.938 32.1935 26.3398 33.4205C26.5807 34.1548 26.5276 36.3112 26.16 37.8294C26.3155 36.5548 26.2993 35.2155 26.1204 34.6672Z" fill="white"/>
<path d="M26.3937 39.8445C25.8194 38.5987 0.890002 31.5623 0.890002 31.5623C-0.649768 30.3578 0.0909093 33.1848 0.996974 37.4868C1.90304 41.7888 2.28416 43.7843 3.39876 44.3721C4.51336 44.96 24.0324 46.6148 25.5533 46.7622C27.0742 46.9097 26.9681 41.0913 26.3937 39.8445Z" fill="url(#paint2_linear_494_14026)"/>
<path opacity="0.49" d="M26.2877 41.2699C25.7133 40.0231 0.783047 32.9877 0.783047 32.9877C0.432486 32.7126 0.200577 32.6497 0.0639483 32.7638C-0.107736 31.4461 0.054956 30.9068 0.891807 31.5621C0.891807 31.5621 25.8212 38.5984 26.3955 39.8443C26.7398 40.5903 26.9151 42.9732 26.6742 44.735C26.7066 43.2941 26.5439 41.8263 26.2877 41.2699Z" fill="white"/>
<path d="M29.7959 48.012C29.0238 46.7535 1.54076 42.1594 1.54076 42.1594C-0.308227 41.1805 0.811765 44.1702 2.26704 48.7733C3.72232 53.3764 4.35423 55.5202 5.66389 55.9104C6.97354 56.3005 27.8427 56.1683 29.5622 55.9661C31.2818 55.7638 30.5672 49.2695 29.7959 48.012Z" fill="url(#paint3_linear_494_14026)"/>
<path opacity="0.49" d="M29.8221 49.6335C29.0509 48.375 1.5669 43.7827 1.5669 43.7827C1.14533 43.5589 0.87926 43.5445 0.73544 43.7063C0.408251 42.2681 0.535891 41.6272 1.54443 42.1593C1.54443 42.1593 29.0275 46.7535 29.7996 48.0119C30.2607 48.7642 30.6985 51.3925 30.6086 53.4249C30.4989 51.8015 30.1664 50.1952 29.8221 49.6335Z" fill="white"/>
<path d="M37.6602 33.4213C38.062 32.1944 60.7064 23.1238 60.7064 23.1238C61.9702 21.7342 61.5585 24.402 61.1298 28.4173C60.701 32.4326 60.5374 34.2861 59.5972 35.0384C58.657 35.7908 40.3541 38.9575 39.013 39.4024C37.6719 39.8474 37.2584 34.6483 37.6602 33.4213Z" fill="url(#paint4_linear_494_14026)"/>
<path opacity="0.49" d="M37.8795 34.6672C38.2813 33.4402 60.9257 24.3697 60.9257 24.3697C61.2143 24.0533 61.4147 23.949 61.5477 24.0218C61.5855 22.8137 61.3931 22.3679 60.7064 23.123C60.7064 23.123 38.062 32.1935 37.6602 33.4205C37.4193 34.1548 37.4723 36.3112 37.8399 37.8294C37.6844 36.5548 37.7006 35.2155 37.8795 34.6672Z" fill="white"/>
<path d="M37.6063 39.8445C38.1807 38.5987 63.11 31.5623 63.11 31.5623C64.6498 30.3578 63.9091 33.1848 63.003 37.4868C62.097 41.7888 61.7159 43.7843 60.6022 44.3721C59.4885 44.96 39.9676 46.6148 38.4458 46.7622C36.924 46.9097 37.0319 41.0913 37.6063 39.8445Z" fill="url(#paint5_linear_494_14026)"/>
<path opacity="0.49" d="M37.7132 41.2699C38.2876 40.0231 63.2169 32.9877 63.2169 32.9877C63.5684 32.7126 63.7994 32.6497 63.936 32.7638C64.1077 31.4461 63.9459 30.9068 63.1082 31.5621C63.1082 31.5621 38.1788 38.5984 37.6044 39.8443C37.261 40.5903 37.0858 42.9732 37.3258 44.735C37.2943 43.2941 37.457 41.8263 37.7132 41.2699Z" fill="white"/>
<path d="M34.2049 48.012C34.9761 46.7535 62.46 42.1594 62.46 42.1594C64.3081 41.1805 63.1881 44.1702 61.7329 48.7733C60.2776 53.3764 59.6457 55.5202 58.336 55.9104C57.0263 56.3005 36.1572 56.1683 34.4386 55.9661C32.7199 55.7638 33.4327 49.2695 34.2049 48.012Z" fill="url(#paint6_linear_494_14026)"/>
<path opacity="0.49" d="M34.178 49.6335C34.9492 48.375 62.4332 43.7827 62.4332 43.7827C62.8548 43.5589 63.1208 43.5445 63.2646 43.7063C63.5918 42.2681 63.4651 41.6272 62.4557 42.1593C62.4557 42.1593 34.9717 46.7535 34.2005 48.0119C33.7384 48.7642 33.3016 51.3925 33.387 53.4249C33.502 51.8015 33.8337 50.1952 34.178 49.6335Z" fill="white"/>
<g style="mix-blend-mode:overlay">
<path d="M9.88327 17.3281C8.5898 17.3281 7.53992 18.3052 7.53992 19.5106C7.53992 20.716 8.5898 21.6913 9.88327 21.6913C11.1768 21.6913 12.2257 20.7142 12.2257 19.5106C12.2257 18.307 11.1768 17.3281 9.88327 17.3281Z" fill="white"/>
</g>
<path opacity="0.7" d="M7.74396 22.3802C8.37317 21.6746 10.2213 19.5092 10.2213 19.5092C10.2213 19.5092 11.7655 16.6112 11.8024 16.5294C11.8132 16.507 9.82935 19.2548 9.82935 19.2548L7.74396 22.3802Z" fill="white"/>
<path d="M10.3928 18.9913C9.82295 18.5419 9.92632 17.2934 9.92182 16.9383V17.2781C9.92182 17.2242 9.91733 17.1657 9.91733 17.1523V16.9365C9.9162 17.0868 9.9057 17.2369 9.88587 17.386C9.88587 17.386 9.71868 18.6444 9.41756 18.9033C8.73891 19.4983 7.03105 19.3833 7.68633 19.3985C9.89845 19.4462 9.89845 21.6053 9.91733 22.3136V21.954C9.91733 21.9792 9.92182 22.0008 9.92182 22.0134V22.3109C9.96857 20.6345 9.96317 19.5738 11.893 19.4345C12.5321 19.3869 11.0589 19.51 10.3928 18.9913Z" fill="white"/>
<path d="M50.6804 40.8679L50.666 40.7807L40.9942 24.0913L40.3173 24.0742H22.3794L21.6963 24.0778L12.0172 40.7816L12.0028 40.8706L21.6855 57.577L21.6945 57.5743H40.9987H41.0005H41.0032L50.6804 40.8679Z" fill="url(#paint7_linear_494_14026)"/>
<path style="mix-blend-mode:overlay" opacity="0.5" d="M25.3357 51.2372L19.343 40.8589L25.3357 30.4805H37.3186L43.3123 40.8589L37.3186 51.2372H25.3357Z" fill="url(#paint8_linear_494_14026)"/>
<path style="mix-blend-mode:overlay" d="M21.6873 24.0752L25.3349 30.4446H37.3187L40.9959 24.0752H21.6873Z" fill="url(#paint9_linear_494_14026)"/>
<g style="mix-blend-mode:overlay" opacity="0.53">
<path d="M37.1029 51.1736L37.2305 50.9507L37.6674 31.3921L37.1029 30.415H33.6342L29.2458 51.1736H37.1029Z" fill="url(#paint10_linear_494_14026)"/>
<path d="M19.343 41.1674L22.4873 46.6136L33.6297 30.415H26.8783L19.343 41.1674Z" fill="url(#paint11_linear_494_14026)"/>
</g>
<path style="mix-blend-mode:overlay" d="M22.373 24.0752L25.7618 29.6797H36.8943L40.3101 24.0752H22.373Z" fill="url(#paint12_linear_494_14026)"/>
<g style="mix-blend-mode:multiply" opacity="0.24">
<path d="M40.9959 57.5744L37.3474 51.2041H25.3636L21.6873 57.5744H40.9959Z" fill="black"/>
</g>
<path style="mix-blend-mode:overlay" opacity="0.25" d="M39.7627 57.0968L36.5798 51.7422H26.1277L22.9205 57.0968H39.7627Z" fill="url(#paint13_linear_494_14026)"/>
<path style="mix-blend-mode:overlay" d="M12.0099 40.7826L19.3492 40.8185L25.3582 30.4482L21.6899 24.0752L12.0099 40.7826Z" fill="url(#paint14_linear_494_14026)"/>
<g style="mix-blend-mode:multiply" opacity="0.23">
<path d="M50.5015 40.6706L43.1604 40.6338L37.1532 51.0023L40.8206 57.3771L50.5015 40.6706Z" fill="black"/>
</g>
<path style="mix-blend-mode:overlay" d="M49.8849 41.8274L43.3878 41.7959L38.0719 50.9716L41.3168 56.612L49.8849 41.8274Z" fill="url(#paint15_linear_494_14026)"/>
<g style="mix-blend-mode:multiply" opacity="0.1">
<path d="M21.6782 57.5765L25.3591 51.2269L19.351 40.8584L11.9955 40.8701L21.6782 57.5765Z" fill="black"/>
</g>
<path style="mix-blend-mode:overlay" opacity="0.53" d="M12.9681 41.8274L19.4643 41.7959L24.7793 50.9716L21.5344 56.612L12.9681 41.8274Z" fill="url(#paint16_linear_494_14026)"/>
<path style="mix-blend-mode:overlay" d="M12.8683 39.8209L19.3654 39.855L24.6804 30.6775L21.4355 25.0371L12.8683 39.8209Z" fill="url(#paint17_linear_494_14026)"/>
<path style="mix-blend-mode:overlay" d="M40.9762 24.0752L37.2962 30.4257L43.3061 40.7951L50.6588 40.7817L40.9762 24.0752Z" fill="url(#paint18_linear_494_14026)"/>
<path style="mix-blend-mode:overlay" d="M49.785 39.8209L43.2888 39.855L37.9738 30.6775L41.2187 25.0371L49.785 39.8209Z" fill="url(#paint19_linear_494_14026)"/>
<path style="mix-blend-mode:overlay" opacity="0.4" d="M41.2448 37.2502L37.3186 30.4502H25.3357L19.3429 40.8295L22.4728 46.2479C24.1591 44.2758 26.5824 41.7382 29.5334 39.9558C33.8148 37.3706 38.9302 37.1783 41.2448 37.2502Z" fill="url(#paint20_linear_494_14026)"/>
<path d="M21.6872 24.0742L24.7793 30.4472L19.1641 40.3924L11.9955 40.8706L19.0445 41.2813L24.6804 50.0696L19.76 41.0234L25.3591 30.8337L37.1065 30.7933L42.4952 39.3964L37.6674 30.4472L40.9959 24.1614L37.1065 30.156H25.3591L21.6872 24.0742Z" fill="white"/>
<path opacity="0.7" d="M15.9156 35.4189C16.6652 36.9623 19.4455 41.2886 19.4455 41.2886C19.4455 41.2886 23.6342 46.1785 23.7924 46.3412C23.9506 46.5038 20.2356 40.6297 20.2356 40.6297L15.9156 35.4189Z" fill="white"/>
<path opacity="0.7" d="M15.9452 46.043C17.0724 44.7729 20.3955 40.8816 20.3955 40.8816C20.3955 40.8816 23.1649 35.679 23.2333 35.5315C23.2521 35.4875 19.6908 40.4259 19.6908 40.4259L15.9452 46.043Z" fill="white"/>
<path d="M20.7047 39.9481C19.6782 39.149 19.8661 36.8982 19.8562 36.2627V36.8703C19.8562 36.7724 19.8481 36.669 19.8481 36.6465V36.2627C19.8441 36.5316 19.8261 36.8001 19.7942 37.0672C19.7942 37.0672 19.4913 39.3243 18.951 39.7935C17.7322 40.8586 14.6634 40.6573 15.8418 40.6816C19.8131 40.7669 19.8131 44.6492 19.8481 45.9202V45.2766C19.8481 45.3242 19.8544 45.3665 19.8562 45.3872V45.9193C19.9407 42.9063 19.9299 41.0016 23.3978 40.7463C24.5438 40.6672 21.9002 40.8829 20.7047 39.9481Z" fill="white"/>
<defs>
<linearGradient id="paint0_linear_494_14026" x1="31.9623" y1="6.53406" x2="31.9623" y2="41.5883" gradientUnits="userSpaceOnUse">
<stop stop-color="#F7E436"/>
<stop offset="1" stop-color="#CE7C1D"/>
</linearGradient>
<linearGradient id="paint1_linear_494_14026" x1="1.66754" y1="29.5649" x2="26.8313" y2="32.6546" gradientUnits="userSpaceOnUse">
<stop stop-color="#F7E436"/>
<stop offset="1" stop-color="#CE7C1D"/>
</linearGradient>
<linearGradient id="paint2_linear_494_14026" x1="0.20907" y1="39.4133" x2="26.677" y2="38.6786" gradientUnits="userSpaceOnUse">
<stop stop-color="#F7E436"/>
<stop offset="1" stop-color="#CE7C1D"/>
</linearGradient>
<linearGradient id="paint3_linear_494_14026" x1="2.03627" y1="51.2485" x2="29.8371" y2="46.5614" gradientUnits="userSpaceOnUse">
<stop stop-color="#F7E436"/>
<stop offset="1" stop-color="#CE7C1D"/>
</linearGradient>
<linearGradient id="paint4_linear_494_14026" x1="61.8636" y1="29.303" x2="36.7644" y2="32.3453" gradientUnits="userSpaceOnUse">
<stop stop-color="#F7E436"/>
<stop offset="1" stop-color="#CE7C1D"/>
</linearGradient>
<linearGradient id="paint5_linear_494_14026" x1="63.6581" y1="39.3981" x2="37.1809" y2="38.6038" gradientUnits="userSpaceOnUse">
<stop stop-color="#F7E436"/>
<stop offset="1" stop-color="#CE7C1D"/>
</linearGradient>
<linearGradient id="paint6_linear_494_14026" x1="61.7575" y1="50.8953" x2="33.8454" y2="46.1023" gradientUnits="userSpaceOnUse">
<stop stop-color="#F7E436"/>
<stop offset="1" stop-color="#CE7C1D"/>
</linearGradient>
<linearGradient id="paint7_linear_494_14026" x1="12.0028" y1="40.8256" x2="50.6804" y2="40.8256" gradientUnits="userSpaceOnUse">
<stop stop-color="#F7E436"/>
<stop offset="1" stop-color="#CE7C1D"/>
</linearGradient>
<linearGradient id="paint8_linear_494_14026" x1="19.343" y1="40.8589" x2="43.3123" y2="40.8589" gradientUnits="userSpaceOnUse">
<stop stop-color="white"/>
<stop offset="1" stop-color="white"/>
</linearGradient>
<linearGradient id="paint9_linear_494_14026" x1="31.3411" y1="30.3161" x2="31.3411" y2="23.7885" gradientUnits="userSpaceOnUse">
<stop stop-color="white"/>
<stop offset="1" stop-color="white"/>
</linearGradient>
<linearGradient id="paint10_linear_494_14026" x1="29.2458" y1="40.7943" x2="37.6674" y2="40.7943" gradientUnits="userSpaceOnUse">
<stop stop-color="white"/>
<stop offset="1" stop-color="white"/>
</linearGradient>
<linearGradient id="paint11_linear_494_14026" x1="19.343" y1="38.5139" x2="33.6297" y2="38.5139" gradientUnits="userSpaceOnUse">
<stop stop-color="white"/>
<stop offset="1" stop-color="white"/>
</linearGradient>
<linearGradient id="paint12_linear_494_14026" x1="22.373" y1="26.8779" x2="40.3101" y2="26.8779" gradientUnits="userSpaceOnUse">
<stop stop-color="white"/>
<stop offset="1" stop-color="white"/>
</linearGradient>
<linearGradient id="paint13_linear_494_14026" x1="22.9205" y1="54.419" x2="39.7627" y2="54.419" gradientUnits="userSpaceOnUse">
<stop stop-color="white"/>
<stop offset="1" stop-color="white"/>
</linearGradient>
<linearGradient id="paint14_linear_494_14026" x1="14.7582" y1="42.3698" x2="24.4393" y2="25.6624" gradientUnits="userSpaceOnUse">
<stop stop-color="white"/>
<stop offset="1" stop-color="white"/>
</linearGradient>
<linearGradient id="paint15_linear_494_14026" x1="42.7982" y1="51.1217" x2="46.9375" y2="34.5618" gradientUnits="userSpaceOnUse">
<stop stop-color="white"/>
<stop offset="1" stop-color="white"/>
</linearGradient>
<linearGradient id="paint16_linear_494_14026" x1="14.0414" y1="37.057" x2="23.5955" y2="55.528" gradientUnits="userSpaceOnUse">
<stop stop-color="white"/>
<stop offset="1" stop-color="white"/>
</linearGradient>
<linearGradient id="paint17_linear_494_14026" x1="12.8683" y1="32.4456" x2="24.6804" y2="32.4456" gradientUnits="userSpaceOnUse">
<stop stop-color="white"/>
<stop offset="1" stop-color="white"/>
</linearGradient>
<linearGradient id="paint18_linear_494_14026" x1="38.2142" y1="25.676" x2="47.8953" y2="42.3834" gradientUnits="userSpaceOnUse">
<stop stop-color="white"/>
<stop offset="1" stop-color="white"/>
</linearGradient>
<linearGradient id="paint19_linear_494_14026" x1="37.9738" y1="32.4456" x2="49.785" y2="32.4456" gradientUnits="userSpaceOnUse">
<stop stop-color="white"/>
<stop offset="1" stop-color="white"/>
</linearGradient>
<linearGradient id="paint20_linear_494_14026" x1="19.3429" y1="38.345" x2="41.2448" y2="38.345" gradientUnits="userSpaceOnUse">
<stop stop-color="white"/>
<stop offset="1" stop-color="white"/>
</linearGradient>
</defs>
</svg>
