<svg width="16" height="16" viewBox="0 0 16 16" fill="none" xmlns="http://www.w3.org/2000/svg">
<path d="M6.02962 10C4.24962 10 0.696289 10.8933 0.696289 12.6667V14H11.363V12.6667C11.363 10.8933 7.80962 10 6.02962 10ZM2.02962 12.6667C2.17629 12.1867 4.23629 11.3333 6.02962 11.3333C7.82962 11.3333 9.89629 12.1933 10.0296 12.6667H2.02962Z" fill="#E2E1E5"/>
<path d="M3.18962 6H3.36296C3.36296 7.47333 4.55629 8.66667 6.02962 8.66667C7.50296 8.66667 8.69629 7.47333 8.69629 6H8.86962C9.04962 6 9.19629 5.85333 9.19629 5.67333V5.66C9.19629 5.48 9.04962 5.33333 8.86962 5.33333H8.69629C8.69629 4.34667 8.15629 3.5 7.36296 3.03333V3.66667C7.36296 3.85333 7.21629 4 7.02962 4C6.84296 4 6.69629 3.85333 6.69629 3.66667V2.76C6.48296 2.70667 6.26296 2.66667 6.02962 2.66667C5.79629 2.66667 5.57629 2.70667 5.36296 2.76V3.66667C5.36296 3.85333 5.21629 4 5.02962 4C4.84296 4 4.69629 3.85333 4.69629 3.66667V3.03333C3.90296 3.5 3.36296 4.34667 3.36296 5.33333H3.18962C3.00962 5.33333 2.86296 5.48 2.86296 5.66V5.68C2.86296 5.85333 3.00962 6 3.18962 6ZM7.36296 6C7.36296 6.73333 6.76296 7.33333 6.02962 7.33333C5.29629 7.33333 4.69629 6.73333 4.69629 6H7.36296Z" fill="#E2E1E5"/>
<path d="M14.683 4.15333L15.303 3.6L14.803 2.73333L14.0096 2.99333C13.9163 2.92 13.8096 2.86 13.6963 2.81333L13.5296 2H12.5296L12.363 2.81333C12.2496 2.86 12.143 2.92 12.043 2.99333L11.2563 2.73333L10.7563 3.6L11.3763 4.15333C11.363 4.26667 11.363 4.38667 11.3763 4.5L10.7563 5.06667L11.2563 5.93333L12.0563 5.68C12.143 5.74667 12.243 5.8 12.343 5.84667L12.5296 6.66667H13.5296L13.7096 5.85333C13.8163 5.80667 13.9096 5.75333 14.003 5.68667L14.7963 5.94L15.2963 5.07333L14.6763 4.50667C14.6963 4.38 14.6896 4.26667 14.683 4.15333ZM13.0296 5.16667C12.5696 5.16667 12.1963 4.79333 12.1963 4.33333C12.1963 3.87333 12.5696 3.5 13.0296 3.5C13.4896 3.5 13.863 3.87333 13.863 4.33333C13.863 4.79333 13.4896 5.16667 13.0296 5.16667Z" fill="#E2E1E5"/>
<path d="M12.963 7.19333L12.3963 7.38C12.3296 7.32667 12.2563 7.28667 12.1763 7.25333L12.0563 6.66667H11.343L11.223 7.24667C11.143 7.28 11.063 7.32667 10.9963 7.37333L10.4363 7.18667L10.0763 7.80667L10.5163 8.2C10.5096 8.28667 10.5096 8.36667 10.5163 8.44667L10.0763 8.85333L10.4363 9.47333L11.0096 9.29333C11.0763 9.34 11.143 9.38 11.2163 9.41333L11.3363 10H12.0496L12.1763 9.42C12.2496 9.38667 12.323 9.34667 12.3896 9.3L12.9563 9.48L13.3163 8.86L12.8763 8.45333C12.883 8.36667 12.883 8.28667 12.8763 8.20667L13.3163 7.81333L12.963 7.19333ZM11.6963 8.92667C11.3696 8.92667 11.103 8.66 11.103 8.33333C11.103 8.00667 11.3696 7.74 11.6963 7.74C12.023 7.74 12.2896 8.00667 12.2896 8.33333C12.2896 8.66 12.023 8.92667 11.6963 8.92667Z" fill="#E2E1E5"/>
</svg>
