<svg width="16" height="16" viewBox="0 0 16 16" fill="none" xmlns="http://www.w3.org/2000/svg">
<path d="M2.66667 11.0003C3.40305 11.0003 4 10.4034 4 9.66699C4 8.93061 3.40305 8.33366 2.66667 8.33366C1.93029 8.33366 1.33333 8.93061 1.33333 9.66699C1.33333 10.4034 1.93029 11.0003 2.66667 11.0003Z" fill="#E2E1E5"/>
<path d="M0.813333 12.0537C0.32 12.267 0 12.747 0 13.287V14.3337H3V13.2603C3 12.707 3.15333 12.187 3.42 11.7337C3.17333 11.6937 2.92667 11.667 2.66667 11.667C2.00667 11.667 1.38 11.807 0.813333 12.0537Z" fill="#E2E1E5"/>
<path d="M13.3333 11.0003C14.0697 11.0003 14.6667 10.4034 14.6667 9.66699C14.6667 8.93061 14.0697 8.33366 13.3333 8.33366C12.597 8.33366 12 8.93061 12 9.66699C12 10.4034 12.597 11.0003 13.3333 11.0003Z" fill="#E2E1E5"/>
<path d="M15.1867 12.0537C14.62 11.807 13.9933 11.667 13.3333 11.667C13.0733 11.667 12.8267 11.6937 12.58 11.7337C12.8467 12.187 13 12.707 13 13.2603V14.3337H16V13.287C16 12.747 15.68 12.267 15.1867 12.0537Z" fill="#E2E1E5"/>
<path d="M10.8267 11.4337C10.0467 11.087 9.08667 10.8337 8 10.8337C6.91333 10.8337 5.95333 11.0937 5.17333 11.4337C4.45333 11.7537 4 12.4737 4 13.2603V14.3337H12V13.2603C12 12.4737 11.5467 11.7537 10.8267 11.4337ZM5.38 13.0003C5.44 12.847 5.56 12.7203 5.70667 12.6537C6.44 12.327 7.21333 12.167 7.99333 12.167C8.78 12.167 9.54667 12.3337 10.28 12.6537C10.4333 12.7203 10.5467 12.847 10.6067 13.0003H5.38Z" fill="#E2E1E5"/>
<path d="M6 8.33366C6 9.44033 6.89333 10.3337 8 10.3337C9.10667 10.3337 10 9.44033 10 8.33366C10 7.22699 9.10667 6.33366 8 6.33366C6.89333 6.33366 6 7.22699 6 8.33366ZM8.66667 8.33366C8.66667 8.70033 8.36667 9.00033 8 9.00033C7.63333 9.00033 7.33333 8.70033 7.33333 8.33366C7.33333 7.96699 7.63333 7.66699 8 7.66699C8.36667 7.66699 8.66667 7.96699 8.66667 8.33366Z" fill="#E2E1E5"/>
<path d="M1.65333 7.57366C1.44667 7.06699 1.33333 6.57366 1.33333 6.06699C1.33333 4.34699 2.68 3.00033 4.4 3.00033C6.18667 3.00033 6.94667 4.16033 8 5.39366C9.04667 4.17366 9.8 3.00033 11.6 3.00033C13.32 3.00033 14.6667 4.34699 14.6667 6.06699C14.6667 6.57366 14.5533 7.06699 14.3467 7.57366C14.78 7.78032 15.1333 8.12033 15.3667 8.53366C15.7667 7.73366 16 6.92033 16 6.06699C16 3.60033 14.0667 1.66699 11.6 1.66699C10.2067 1.66699 8.87333 2.31366 8 3.34033C7.12667 2.31366 5.79333 1.66699 4.4 1.66699C1.93333 1.66699 0 3.60033 0 6.06699C0 6.92033 0.233333 7.73366 0.64 8.53366C0.873333 8.12033 1.22667 7.78032 1.65333 7.57366Z" fill="#E2E1E5"/>
</svg>
