<svg width="64" height="65" viewBox="0 0 64 65" fill="none" xmlns="http://www.w3.org/2000/svg">
<path d="M31.9992 13.3359C29.6943 13.3359 23.2831 19.2845 23.2831 19.9032V55.3158C23.2831 55.9345 29.6973 60.0028 31.9992 60.0028C34.3011 60.0028 40.716 55.9345 40.716 55.3158V19.9032C40.716 19.2845 34.3011 13.3359 31.9992 13.3359Z" fill="url(#paint0_linear_494_14132)"/>
<path d="M42.1836 21.0898V54.1347C44.5695 54.1347 50.8082 48.1861 50.8082 47.5675V27.6555C50.8082 27.0361 44.5695 21.0898 42.1836 21.0898Z" fill="url(#paint1_linear_494_14132)"/>
<path d="M13.1899 27.6555V47.5652C13.1899 48.1838 19.4294 54.1324 21.6309 54.1324V21.0898C19.4294 21.0898 13.1899 27.0361 13.1899 27.6555Z" fill="url(#paint2_linear_494_14132)"/>
<g style="mix-blend-mode:multiply">
<path d="M31.9991 58.5278C34.3039 58.5278 40.7159 54.4594 40.7159 53.8408V55.315C40.7159 55.9336 34.3009 60.002 31.9991 60.002C29.6972 60.002 23.283 55.9336 23.283 55.315V53.8408C23.283 54.4579 29.6972 58.5278 31.9991 58.5278Z" fill="#A2B2E7"/>
<path d="M50.8082 46.0898V47.564C50.8082 48.1827 44.5695 54.1312 42.1836 54.1312V52.6571C44.5695 52.6571 50.8082 46.7085 50.8082 46.0898Z" fill="#A2B2E7"/>
<path d="M21.6295 52.6571V54.1312C19.428 54.1312 13.1885 48.1827 13.1885 47.564V46.0898C13.19 46.7085 19.4294 52.6571 21.6295 52.6571Z" fill="#A2B2E7"/>
</g>
<g style="mix-blend-mode:multiply" opacity="0.68">
<path d="M31.9991 14.8109C34.3039 14.8109 40.7159 20.7595 40.7159 21.3781V19.9032C40.7159 19.2845 34.3009 13.3359 31.9991 13.3359C29.6972 13.3359 23.283 19.2845 23.283 19.9032V21.3781C23.283 20.7595 29.6972 14.8109 31.9991 14.8109Z" fill="#5B6CB2"/>
<path d="M50.8082 29.1291V27.6549C50.8082 27.0355 44.5695 21.0869 42.1836 21.0869V22.5619C44.5695 22.5619 50.8082 28.5105 50.8082 29.1291Z" fill="#5B6CB2"/>
<path d="M21.6295 22.5625V21.0898C19.428 21.0898 13.1885 27.0384 13.1885 27.6578V29.132C13.19 28.5111 19.4294 22.5625 21.6295 22.5625Z" fill="#5B6CB2"/>
</g>
<path d="M49.873 13.6909C49.4926 13.6909 49.1278 13.8458 48.8588 14.1214C48.5898 14.397 48.4387 14.7708 48.4387 15.1605C48.4381 15.5437 48.585 15.9117 48.8477 16.1845C47.6142 16.6416 45.4313 17.3463 43.1874 17.6267C42.9948 17.3219 42.8788 16.9265 42.9041 16.3993C42.9576 15.2375 42.9539 14.0779 42.9383 13.233C43.3657 13.2849 43.7973 13.1804 44.1569 12.938C44.5164 12.6955 44.7809 12.3307 44.9035 11.9079C45.0261 11.4852 44.999 11.0316 44.827 10.6273C44.6551 10.223 44.3492 9.8939 43.9635 9.69815C43.5778 9.50241 43.137 9.45258 42.7189 9.55744C42.3008 9.66231 41.9323 9.91514 41.6785 10.2713C41.4246 10.6275 41.3017 11.0641 41.3314 11.5041C41.3611 11.9441 41.5416 12.3592 41.8409 12.6761L37.5524 15.6177L32.7999 8.32363C33.2668 8.12372 33.6516 7.76429 33.8891 7.30646C34.1266 6.84862 34.202 6.32064 34.1025 5.81228C34.003 5.30392 33.7348 4.84656 33.3434 4.51795C32.952 4.18934 32.4616 4.00977 31.9556 4.00977C31.4496 4.00977 30.9593 4.18934 30.5679 4.51795C30.1765 4.84656 29.9083 5.30392 29.8088 5.81228C29.7093 6.32064 29.7847 6.84862 30.0222 7.30646C30.2596 7.76429 30.6445 8.12372 31.1114 8.32363L26.3671 15.6039L22.0964 12.6746C22.3999 12.3554 22.5835 11.9364 22.6147 11.4919C22.6458 11.0474 22.5226 10.6059 22.2667 10.2455C22.0108 9.88508 21.6387 9.62903 21.2164 9.5226C20.794 9.41618 20.3485 9.46625 19.9587 9.66394C19.5689 9.86163 19.2598 10.1942 19.0863 10.6029C18.9127 11.0115 18.8857 11.4699 19.0102 11.897C19.1346 12.324 19.4024 12.6922 19.7662 12.9365C20.1301 13.1807 20.5665 13.2852 20.9983 13.2315C20.9819 14.0764 20.9797 15.236 21.0332 16.3978C21.057 16.9265 20.941 17.3257 20.7484 17.6282C18.5068 17.3562 16.3231 16.6462 15.0867 16.1921C15.3189 15.9502 15.4622 15.6334 15.4923 15.2954C15.5223 14.9575 15.4373 14.6193 15.2516 14.3384C15.0659 14.0574 14.791 13.851 14.4736 13.7542C14.1562 13.6574 13.8159 13.6762 13.5105 13.8074C13.2051 13.9386 12.9534 14.1741 12.7983 14.4739C12.6431 14.7737 12.5941 15.1192 12.6594 15.4519C12.7247 15.7845 12.9005 16.0838 13.1567 16.2987C13.413 16.5136 13.7339 16.631 14.0651 16.6309C14.1149 16.6286 14.1646 16.6233 14.2138 16.6149L16.077 27.2908V28.1967C16.077 28.1967 17.6696 28.0923 31.4147 28.0923H32.4995C46.2439 28.0923 47.8365 28.1967 47.8365 28.1967V27.2908L49.7005 16.6126C49.7578 16.6226 49.8156 16.6287 49.8737 16.6309C50.0648 16.6354 50.2549 16.6007 50.4328 16.5288C50.6107 16.4569 50.7727 16.3493 50.9094 16.2124C51.0461 16.0755 51.1548 15.9119 51.2289 15.7313C51.3031 15.5508 51.3413 15.3568 51.3413 15.1609C51.3413 14.965 51.3031 14.7711 51.2289 14.5905C51.1548 14.4099 51.0461 14.2464 50.9094 14.1094C50.7727 13.9725 50.6107 13.8649 50.4328 13.7931C50.2549 13.7212 50.0648 13.6865 49.8737 13.6909H49.873Z" fill="url(#paint3_linear_494_14132)"/>
<g style="mix-blend-mode:overlay">
<path d="M32.8684 8.32422C32.8446 8.33565 32.8267 8.36765 32.8015 8.37831L38.2008 16.6544L42.1718 12.9975C41.8544 12.6615 41.9755 12.9175 41.9755 12.4139C41.9753 12.054 42.0767 11.7018 42.2674 11.3996C42.4581 11.0974 42.73 10.8582 43.0504 10.7107C43.3708 10.5633 43.7259 10.514 44.073 10.5686C44.4202 10.6233 44.7444 10.7797 45.0068 11.0189C44.953 10.7333 44.8348 10.4645 44.6617 10.234C44.4886 10.0035 44.2653 9.81763 44.0097 9.69119C43.754 9.56475 43.4731 9.50125 43.1893 9.50575C42.9055 9.51026 42.6266 9.58265 42.3749 9.71714C42.1232 9.85164 41.9056 10.0445 41.7396 10.2804C41.5735 10.5163 41.4635 10.7887 41.4184 11.0759C41.3732 11.363 41.3942 11.6571 41.4796 11.9345C41.5649 12.2119 41.7124 12.465 41.9101 12.6737L37.6216 15.6152L32.8684 8.32422Z" fill="white"/>
<path d="M30.4148 7.28922C30.4141 6.84611 30.5414 6.41271 30.7806 6.04362C31.0199 5.67453 31.3605 5.38628 31.7594 5.21519C32.1583 5.04409 32.5977 4.99782 33.0222 5.0822C33.4467 5.16657 33.8374 5.37782 34.1449 5.68932C34.0611 5.35452 33.903 5.04407 33.6828 4.78221C33.4627 4.52034 33.1865 4.31414 32.8757 4.17968C32.565 4.04522 32.2282 3.98613 31.8915 4.00704C31.5548 4.02795 31.2273 4.12828 30.9347 4.30021C30.6421 4.47214 30.3922 4.71101 30.2045 4.9982C30.0169 5.28539 29.8965 5.61313 29.8528 5.95585C29.809 6.29857 29.8432 6.647 29.9525 6.97397C30.0619 7.30094 30.2435 7.5976 30.4832 7.84081C30.4383 7.66053 30.4153 7.47527 30.4148 7.28922Z" fill="white"/>
<path d="M43.5496 17.5849C43.5402 17.965 43.6397 18.3395 43.8358 18.6622C46.0797 18.3811 48.2626 17.6718 49.4968 17.2207C49.2425 16.9578 49.0946 16.6061 49.0827 16.236C49.0708 15.866 49.1959 15.5051 49.4328 15.2256C49.6698 14.9461 50.001 14.7687 50.3602 14.729C50.7195 14.6892 51.08 14.7901 51.3697 15.0114C51.3324 14.6366 51.156 14.2908 50.8771 14.0453C50.5982 13.7999 50.2379 13.6735 49.8707 13.6923C49.5035 13.711 49.1573 13.8735 48.9036 14.1462C48.6499 14.4188 48.508 14.7809 48.5072 15.1576C48.5069 15.5409 48.6541 15.9089 48.9169 16.1816C47.737 16.6189 45.6886 17.284 43.5496 17.5849Z" fill="white"/>
<path d="M21.6808 17.4329C21.628 16.2726 21.6303 15.1115 21.6466 14.2674C21.5767 14.275 21.179 13.2571 21.057 13.2305C21.057 13.8933 21.0674 15.6486 21.1016 16.3967C21.1262 16.9255 21.0102 17.3247 20.8169 17.6271C19.0719 17.4115 17.3648 16.9361 16.109 16.5209C16.0499 16.7872 15.9193 17.0313 15.7321 17.2257C16.9715 17.6828 19.1522 18.3867 21.3961 18.664C21.5894 18.3646 21.7039 17.9662 21.6808 17.4329Z" fill="white"/>
<path d="M22.7449 13.7135L27.0155 16.6428L31.3011 9.9385C31.5985 9.23835 31.4044 8.59687 31.1799 8.32031L26.4364 15.6044L22.1657 12.6751C22.0846 12.8351 22.1597 13.0652 22.7449 13.7135Z" fill="white"/>
<path d="M16.7751 28.175L14.9 17.6492C14.8502 17.6546 14.7818 17.6652 14.7298 17.6652C14.6683 17.6647 14.6072 17.6568 14.5476 17.6416L16.2986 27.2882V28.1941C16.2986 28.1941 16.338 28.1895 16.7751 28.175Z" fill="white"/>
<path d="M13.277 16.1981C13.2766 15.9264 13.3498 15.66 13.4885 15.4284C13.6272 15.1969 13.8259 15.0093 14.0624 14.8867C14.299 14.764 14.5641 14.7111 14.8283 14.7337C15.0925 14.7564 15.3454 14.8537 15.5588 15.0149C15.5352 14.7711 15.4524 14.5371 15.3181 14.3344C15.1837 14.1316 15.002 13.9665 14.7894 13.8541C14.5769 13.7417 14.3403 13.6856 14.1012 13.6908C13.8621 13.696 13.628 13.7623 13.4203 13.8839C13.2127 14.0054 13.0379 14.1783 12.9121 14.3866C12.7862 14.595 12.7132 14.8324 12.6997 15.0771C12.6862 15.3217 12.7326 15.566 12.8347 15.7876C12.9369 16.0092 13.0915 16.2011 13.2844 16.3459C13.28 16.2971 13.277 16.2484 13.277 16.1981Z" fill="white"/>
<path d="M19.6473 12.7743C19.6249 12.6563 19.6135 12.5364 19.6131 12.4162C19.6129 12.0563 19.7143 11.7041 19.905 11.4019C20.0957 11.0997 20.3676 10.8605 20.688 10.7131C21.0084 10.5656 21.3635 10.5163 21.7106 10.571C22.0577 10.6257 22.382 10.782 22.6444 11.0213C22.5892 10.7302 22.4671 10.4568 22.2883 10.2237C22.1094 9.99056 21.8789 9.80447 21.6159 9.68081C21.3529 9.55715 21.0649 9.49947 20.7758 9.51256C20.4867 9.52565 20.2049 9.60913 19.9535 9.75608C19.7022 9.90303 19.4886 10.1092 19.3305 10.3576C19.1724 10.6059 19.0744 10.8893 19.0444 11.1843C19.0145 11.4792 19.0536 11.7772 19.1584 12.0536C19.2633 12.3299 19.4309 12.5767 19.6473 12.7735V12.7743Z" fill="white"/>
</g>
<path d="M27.3174 26.4005C26.985 25.3605 8.25467 17.6726 8.25467 17.6726C7.20931 16.4948 7.54983 18.756 7.90448 22.1592C8.25914 25.5624 8.3952 27.1326 9.16844 27.771C9.94168 28.4095 25.0854 31.0927 26.1947 31.4699C27.304 31.847 27.6519 27.4404 27.3174 26.4005Z" fill="url(#paint4_linear_494_14132)"/>
<path opacity="0.49" d="M27.136 27.4572C26.8036 26.4165 8.07327 18.7286 8.07327 18.7286C7.8346 18.4596 7.6688 18.372 7.55876 18.4337C7.52827 17.4098 7.68664 17.0319 8.25468 17.6719C8.25468 17.6719 26.985 25.3598 27.3174 26.3997C27.5166 27.0222 27.4728 28.8498 27.1687 30.1328C27.2973 29.0571 27.2839 27.9211 27.136 27.4572Z" fill="white"/>
<path d="M27.3619 31.8444C26.8868 30.7885 6.26644 24.8247 6.26644 24.8247C4.99282 23.8038 5.60547 26.196 6.35492 29.8461C7.10437 33.4962 7.41962 35.1837 8.34156 35.6819C9.2635 36.1802 25.4087 37.5866 26.6667 37.7077C27.9247 37.8288 27.837 32.8989 27.3619 31.8444Z" fill="url(#paint5_linear_494_14132)"/>
<path opacity="0.49" d="M27.2741 33.0506C26.799 31.9946 6.17795 26.0308 6.17795 26.0308C5.88798 25.8022 5.69616 25.7443 5.58314 25.8419C5.44114 24.725 5.57571 24.2679 6.26791 24.8233C6.26791 24.8233 26.8882 30.7871 27.3633 31.843C27.6481 32.4754 27.7931 34.495 27.5938 35.9883C27.6206 34.767 27.486 33.5229 27.2741 33.0506Z" fill="white"/>
<path d="M30.1797 38.7646C29.5411 37.698 6.80845 33.8049 6.80845 33.8049C5.27907 32.9752 6.20547 35.5092 7.4092 39.4107C8.61293 43.3121 9.13562 45.1292 10.2189 45.4598C11.3022 45.7905 28.5641 45.6785 29.9864 45.507C31.4088 45.3356 30.814 39.8312 30.1797 38.7646Z" fill="url(#paint6_linear_494_14132)"/>
<path opacity="0.49" d="M30.1976 40.1398C29.5597 39.0732 6.82635 35.1801 6.82635 35.1801C6.47765 34.9912 6.25757 34.9782 6.13861 35.1153C5.86797 33.8964 5.97355 33.3539 6.80776 33.805C6.80776 33.805 29.5404 37.6988 30.1791 38.7646C30.5605 39.4031 30.9226 41.63 30.8482 43.3533C30.7575 41.9774 30.4824 40.616 30.1976 40.1398Z" fill="white"/>
<path d="M36.681 26.4005C37.0134 25.3605 55.7437 17.6726 55.7437 17.6726C56.7891 16.4948 56.4486 18.756 56.0939 22.1592C55.7393 25.5624 55.604 27.1326 54.83 27.771C54.056 28.4095 38.913 31.0927 37.8037 31.4699C36.6944 31.847 36.3509 27.4404 36.681 26.4005Z" fill="url(#paint7_linear_494_14132)"/>
<path opacity="0.49" d="M36.8624 27.4564C37.1947 26.4157 55.9251 18.7286 55.9251 18.7286C56.1637 18.4596 56.3295 18.372 56.4396 18.4337C56.4708 17.4098 56.3117 17.0319 55.7437 17.6719C55.7437 17.6719 37.0133 25.3598 36.681 26.3997C36.4817 27.0222 36.5256 28.8498 36.8297 30.1328C36.701 29.0563 36.7144 27.9204 36.8624 27.4564Z" fill="white"/>
<path d="M36.6365 31.8444C37.1116 30.7885 57.7319 24.8247 57.7319 24.8247C59.0055 23.8038 58.3929 26.196 57.6434 29.8461C56.894 33.4962 56.5787 35.1837 55.6575 35.6819C54.7363 36.1802 38.5896 37.5866 37.3316 37.7077C36.0736 37.8288 36.1614 32.8989 36.6365 31.8444Z" fill="url(#paint8_linear_494_14132)"/>
<path opacity="0.49" d="M36.7226 33.0506C37.1977 31.9946 57.8181 26.0308 57.8181 26.0308C58.1088 25.8022 58.2998 25.7443 58.4129 25.8419C58.5549 24.725 58.421 24.2679 57.7281 24.8233C57.7281 24.8233 37.1078 30.7871 36.6327 31.843C36.3487 32.4754 36.2037 34.495 36.4022 35.9883C36.3784 34.767 36.5122 33.5229 36.7226 33.0506Z" fill="white"/>
<path d="M33.823 38.7646C34.4609 37.698 57.1943 33.8049 57.1943 33.8049C58.723 32.9752 57.7965 35.5092 56.5928 39.4107C55.3891 43.3121 54.8664 45.1292 53.7831 45.4598C52.6998 45.7905 35.4379 45.6785 34.0163 45.507C32.5947 45.3356 33.1843 39.8312 33.823 38.7646Z" fill="url(#paint9_linear_494_14132)"/>
<path opacity="0.49" d="M33.8006 40.1398C34.4385 39.0732 57.1719 35.1801 57.1719 35.1801C57.5206 34.9912 57.7407 34.9782 57.8597 35.1153C58.1303 33.8964 58.0255 33.3539 57.1942 33.805C57.1942 33.805 34.4609 37.6988 33.8229 38.7646C33.4408 39.4031 33.0794 41.63 33.1538 43.3533C33.2408 41.9774 33.5159 40.616 33.8006 40.1398Z" fill="white"/>
<path d="M56.2374 29.8555C57.314 30.3203 58.9616 29.3116 59.5779 27.426C59.864 26.5096 60.0058 25.5524 59.998 24.5903C59.998 24.5903 57.824 24.9004 56.7221 26.7441C56.4389 27.2006 56.2375 27.7053 56.1273 28.2343C56.2556 26.8851 56.2126 25.5245 55.9995 24.1865C55.9801 24.0654 55.9571 23.945 55.9348 23.8239C55.9874 23.8874 56.0454 23.946 56.108 23.9991C57.2709 23.9146 58.3184 22.2469 58.0709 20.2721C57.9388 19.321 57.6592 18.3977 57.2426 17.537C57.2426 17.537 55.427 18.8223 55.2218 20.986C55.2121 21.082 55.2061 21.1749 55.2024 21.2656C55.079 20.9497 54.9442 20.6391 54.798 20.3338C54.5086 19.73 54.1746 19.1498 53.7987 18.5983C53.7132 18.4734 53.624 18.35 53.5333 18.2281L53.5556 18.2204C54.1258 17.1538 53.3637 15.3254 51.6455 14.4637C50.8119 14.0583 49.9185 13.797 49.0016 13.6904C49.0016 13.6904 49.0373 15.9821 50.6581 17.3473C51.5972 18.1382 52.421 18.3058 52.9489 18.3073C53.0976 18.5183 53.2463 18.7355 53.386 18.9564C53.7272 19.4995 54.0284 20.0679 54.2872 20.6569C54.4017 20.9197 54.5102 21.1902 54.6054 21.4568C54.2394 21.023 53.7912 20.67 53.2879 20.4192C52.4558 20.0124 51.5637 19.7498 50.6477 19.6421C50.6477 19.6421 50.6827 21.933 52.3028 23.299C53.9229 24.665 55.2024 24.1736 55.2024 24.1736C55.2269 24.1265 55.249 24.0782 55.2686 24.0288C55.2864 24.1416 55.3043 24.2574 55.3192 24.3671C55.4725 25.5354 55.4907 26.7181 55.3734 27.8907C55.0992 27.2142 54.6574 26.6228 54.0916 26.175C53.3556 25.6003 52.5322 25.154 51.6544 24.8539C51.6544 24.8539 51.2418 27.1083 52.5593 28.7844C53.502 29.9858 54.4597 30.2227 54.9288 30.2601C54.7676 30.8221 54.5661 31.3711 54.3258 31.9026C54.017 32.5841 53.6508 33.2367 53.2314 33.853C53.4009 32.9471 53.2611 31.8326 52.7028 30.785C52.1826 29.8398 51.5167 28.9869 50.731 28.2594C50.731 28.2594 49.3287 30.4132 49.9808 32.7864C50.4908 34.6476 51.5191 35.3066 51.9392 35.5047C51.2183 36.302 50.4238 37.0258 49.5667 37.6661C49.2276 37.9206 48.8782 38.159 48.5258 38.3853C48.9386 37.64 49.1512 36.7959 49.1421 35.939C49.1245 34.8465 48.9365 33.7639 48.5852 32.7323C48.5852 32.7323 46.3629 33.9078 45.8343 36.313C45.4625 37.9998 45.899 39.0557 46.1927 39.5349L46.1614 39.5441C46.1019 39.5585 46.0209 39.5723 45.9443 39.5883L45.4833 39.6804C45.1748 39.7429 44.5911 39.8084 44.2885 39.8747C43.6759 40.0088 42.7919 40.1475 42.18 40.293L41.9242 40.3539L41.9829 40.6236L42.0833 41.0731L42.142 41.3405L42.3993 41.2788C43.0246 41.131 43.9265 40.9847 44.5555 40.8468C44.87 40.7768 45.4596 40.7105 45.7733 40.6457L46.2447 40.5497C46.4149 40.5156 46.5824 40.4685 46.7458 40.4088C47.0726 40.2873 47.3923 40.1469 47.7034 39.9882C47.5815 40.176 47.4878 40.3814 47.4254 40.5977C48.0276 41.8297 50.1622 42.2289 52.0269 41.0754C53.4396 40.2046 54.3905 38.9498 54.3905 38.9498C54.3905 38.9498 52.5734 37.7308 50.502 38.1621C51.2664 37.5486 51.9781 36.8691 52.6292 36.131C52.6217 36.1799 52.6167 36.2292 52.6143 36.2787C53.4522 37.3454 55.6188 37.2692 57.2077 35.7272C58.4084 34.5638 59.0872 33.1254 59.0872 33.1254C59.0872 33.1254 56.7534 32.2112 54.7006 33.4378C54.6121 33.4911 54.5281 33.546 54.447 33.5993C54.7059 33.1451 54.9385 32.6758 55.1437 32.1937C55.6035 31.1145 55.9155 29.9754 56.0708 28.8087C56.0493 29.47 56.2374 29.8555 56.2374 29.8555Z" fill="url(#paint10_linear_494_14132)"/>
<g style="mix-blend-mode:multiply">
<path d="M54.9712 27.1168C54.7905 26.848 54.5804 26.6011 54.3452 26.3809C54.5947 26.6916 54.7974 27.0388 54.9467 27.4109C54.9556 27.3126 54.9631 27.2151 54.9712 27.1168Z" fill="#5B6CB2"/>
<path d="M52.624 28.8457C53.2656 29.6335 53.908 29.9885 54.3942 30.1363C54.4322 30.0182 54.4686 29.9001 54.5035 29.7805C54.1162 29.7493 53.395 29.5801 52.624 28.8457Z" fill="#5B6CB2"/>
<path d="M51.403 35.1449C51.4395 35.1045 51.4774 35.0687 51.5138 35.0245C51.2672 34.9044 51.039 34.7481 50.8365 34.5605C51.0025 34.7773 51.1926 34.9734 51.403 35.1449Z" fill="#5B6CB2"/>
<path d="M52.1822 35.8011C52.1847 35.7516 52.1896 35.7023 52.1971 35.6533C51.5462 36.3917 50.8346 37.0712 50.0699 37.6844C50.425 37.6119 50.787 37.582 51.1488 37.5953C51.6537 37.1477 52.1321 36.6697 52.5815 36.1638C52.43 36.066 52.2951 35.9435 52.1822 35.8011Z" fill="#5B6CB2"/>
<path d="M57.6479 19.7945C57.8955 21.7708 56.8479 23.4377 55.685 23.5215C55.6223 23.4689 55.5643 23.4105 55.5118 23.3471C55.5341 23.4682 55.5571 23.5886 55.5765 23.709C55.7896 25.0469 55.8326 26.4075 55.7044 27.7567C55.7991 27.2931 55.9657 26.8481 56.198 26.4387C56.1884 25.6795 56.123 24.9221 56.0025 24.1729C55.9832 24.0518 55.9601 23.9314 55.9378 23.8103C55.9905 23.8738 56.0484 23.9324 56.111 23.9855C57.2739 23.9009 58.3215 22.2332 58.0739 20.2585C57.9418 19.3074 57.6622 18.3841 57.2456 17.5234C57.2456 17.5234 57.1832 17.5676 57.0813 17.653C57.3575 18.3395 57.5479 19.0591 57.6479 19.7945Z" fill="#5B6CB2"/>
<path d="M55.8114 29.3752C55.8114 29.3752 55.6233 28.989 55.6396 28.333C55.4852 29.4995 55.1742 30.6386 54.7155 31.7179C54.5101 32.2 54.2775 32.6693 54.0188 33.1236C54.0998 33.0695 54.1846 33.0146 54.2731 32.9621C54.4842 32.8362 54.7053 32.7289 54.934 32.6413C55.0084 32.4889 55.0753 32.3366 55.1415 32.1842C55.5171 31.3018 55.7939 30.3786 55.9668 29.4324C55.9137 29.417 55.8618 29.3979 55.8114 29.3752Z" fill="#5B6CB2"/>
<path d="M53.2752 32.6287C53.2069 31.9759 53.0125 31.3435 52.7035 30.7683C52.26 29.9616 51.7095 29.2219 51.0677 28.5703C51.5317 29.1007 51.9366 29.6823 52.2752 30.3043C52.8336 31.3519 52.9734 32.4665 52.8038 33.3731C52.9699 33.1303 53.127 32.8822 53.2752 32.6287Z" fill="#5B6CB2"/>
<path d="M48.9502 37.3248C49.0771 36.8685 49.1406 36.396 49.139 35.9215C49.1215 34.829 48.9334 33.7465 48.5822 32.7148C48.5822 32.7148 48.4914 32.7636 48.3435 32.8588C48.577 33.7049 48.702 34.5784 48.7152 35.4575C48.7242 36.3147 48.5116 37.159 48.0989 37.9046C48.3874 37.7202 48.6711 37.527 48.9502 37.3248Z" fill="#5B6CB2"/>
<path d="M51.5926 40.5992C50.0915 41.5279 48.4164 41.4502 47.5034 40.7424C48.2045 41.8486 50.2328 42.1655 52.0157 41.0631C53.4283 40.1923 54.3793 38.9376 54.3793 38.9376C54.2008 38.8237 54.0153 38.7219 53.8239 38.6328C53.5257 38.9993 52.699 39.9173 51.5926 40.5992Z" fill="#5B6CB2"/>
<path d="M56.7764 35.2496C55.4128 36.5707 53.6247 36.8175 52.6128 36.1852C52.6076 36.2362 52.6061 36.2614 52.6061 36.2614C53.444 37.328 55.6106 37.2518 57.1994 35.7105C58.4002 34.5472 59.079 33.1088 59.079 33.1088C58.8897 33.04 58.6962 32.9837 58.4998 32.9404C58.2389 33.425 57.6441 34.4093 56.7764 35.2496Z" fill="#5B6CB2"/>
<path d="M59.998 24.5732C59.8503 24.5977 59.7041 24.6308 59.5601 24.6723C59.5209 25.445 59.3837 26.2092 59.1519 26.9457C58.592 28.656 57.1838 29.6449 56.1236 29.4659C56.1477 29.5941 56.1859 29.719 56.2374 29.8384C57.3139 30.3024 58.9615 29.2945 59.5779 27.4089C59.864 26.4925 60.0058 25.5353 59.998 24.5732Z" fill="#5B6CB2"/>
<path d="M53.1325 17.7369C53.1253 17.7403 53.1178 17.7431 53.1102 17.7453C53.2009 17.8664 53.2901 17.9898 53.3756 18.1155C53.7515 18.6668 54.0855 19.2467 54.3749 19.8503C54.5206 20.155 54.6554 20.4659 54.7793 20.7828C54.783 20.6921 54.789 20.5992 54.7987 20.5024C54.8031 20.4506 54.8098 20.3996 54.8165 20.3501L54.8009 20.3158C54.5116 19.712 54.1775 19.1318 53.8016 18.5803C53.7161 18.4546 53.6269 18.3319 53.5362 18.21L53.5585 18.2024C54.0046 17.3643 53.6329 16.0616 52.6187 15.1191C53.3027 15.9938 53.5109 17.0352 53.1325 17.7369Z" fill="#5B6CB2"/>
<path d="M50.2351 16.8659C50.1861 16.8248 50.1392 16.7829 50.0939 16.7402C50.2628 16.9559 50.4529 17.1533 50.6612 17.3292C51.5363 18.0659 52.3117 18.2617 52.8396 18.286C52.7378 18.1299 52.6337 17.9752 52.5259 17.8251C51.998 17.8236 51.1742 17.656 50.2351 16.8659Z" fill="#5B6CB2"/>
<path d="M51.8767 22.8183C51.8284 22.7772 51.7816 22.736 51.7355 22.6934C51.9046 22.9086 52.0947 23.1057 52.3028 23.2815C53.4775 24.2719 54.4731 24.2849 54.9318 24.2178C54.9192 24.1074 54.9073 23.9969 54.8924 23.8864C54.8775 23.776 54.8597 23.6579 54.8418 23.5482C54.8222 23.5973 54.8001 23.6454 54.7757 23.6922C54.7757 23.6922 53.4968 24.182 51.8767 22.8183Z" fill="#5B6CB2"/>
<path d="M46.9934 40.1202C47.0559 39.904 47.1497 39.6986 47.2715 39.5107C46.9605 39.6697 46.6407 39.8102 46.3138 39.9313C46.1505 39.9913 45.983 40.0387 45.8127 40.073L45.3413 40.1682C45.0276 40.233 44.438 40.3 44.1235 40.3693C43.5131 40.5042 42.6417 40.6459 42.0186 40.7907L42.0788 41.0588L42.1376 41.327L42.3948 41.2653C43.0201 41.1175 43.922 40.9712 44.551 40.8333C44.8655 40.7632 45.4551 40.6962 45.7689 40.6322L46.2402 40.5362C46.4105 40.5022 46.578 40.455 46.7414 40.3953C46.8544 40.3534 46.9644 40.3092 47.0744 40.2635C47.045 40.2172 47.0179 40.1694 46.9934 40.1202Z" fill="#5B6CB2"/>
</g>
<g style="mix-blend-mode:overlay">
<path d="M54.4686 32.237C54.6908 31.7397 54.874 31.2251 55.0165 30.698C55.0284 30.4756 55.0708 30.295 54.9296 30.2607C54.7898 30.6942 54.5147 31.4896 54.3266 31.9033C54.1035 32.4077 53.4998 33.443 53.2113 33.9116C53.2232 34.2338 53.099 34.2163 53.2998 34.2163C53.7154 33.5962 54.1608 32.9204 54.4686 32.237Z" fill="url(#paint11_linear_494_14132)"/>
<path d="M51.9058 25.2832C52.7835 25.5833 53.607 26.0296 54.343 26.6043C54.6821 26.876 54.9787 27.1992 55.2226 27.5627C54.9472 27.0219 54.5612 26.5485 54.0909 26.1746C53.3549 25.5999 52.5315 25.1536 51.6537 24.8535C51.6537 24.8535 51.282 26.89 52.3809 28.5356C51.5928 26.986 51.9058 25.2832 51.9058 25.2832Z" fill="url(#paint12_linear_494_14132)"/>
<path d="M55.5199 24.4587C55.45 24.3201 55.3913 23.8591 55.366 23.9056C55.3188 23.9411 55.2852 23.9923 55.2708 24.0504C55.46 25.2951 55.4962 26.5592 55.3786 27.8132C55.4724 27.976 55.5544 28.1456 55.624 28.3206C55.7416 27.148 55.7234 25.9652 55.5697 24.797C55.5556 24.6842 55.5377 24.5715 55.5199 24.4587Z" fill="url(#paint13_linear_494_14132)"/>
<path d="M56.7229 26.7446C56.6166 26.9221 56.2285 27.607 56.1534 28.1289C56.1534 28.599 56.6426 27.7304 56.9749 27.175C57.8448 25.7199 59.3817 25.2209 59.9906 25.0746C60.0047 24.7744 59.9988 24.5908 59.9988 24.5908C59.9988 24.5908 57.824 24.8994 56.7229 26.7446Z" fill="url(#paint14_linear_494_14132)"/>
<path d="M55.1199 33.2206C54.8165 33.4042 54.5823 33.4956 54.4686 33.5855C54.5504 33.5314 54.9147 33.52 55.0165 33.5032C57.4701 33.0788 58.1645 33.2343 58.9236 33.4331C59.0277 33.2434 59.0813 33.1284 59.0813 33.1284C59.0813 33.1284 57.056 32.3398 55.1199 33.2206Z" fill="url(#paint15_linear_494_14132)"/>
<path d="M54.0536 19.0328C54.1756 19.2118 54.2923 19.3954 54.4053 19.5813C54.2239 19.2563 54.0293 18.9401 53.8217 18.6328L53.8105 18.6549L53.7882 18.6625C53.8789 18.7806 53.9718 18.9033 54.0536 19.0328Z" fill="url(#paint16_linear_494_14132)"/>
<path d="M49.2566 14.1212C50.1737 14.2278 51.0673 14.4891 51.9012 14.8945C52.517 15.2003 53.0474 15.6605 53.4432 16.2323C53.0469 15.4593 52.4173 14.8383 51.6484 14.4618C50.8148 14.0563 49.9214 13.795 49.0045 13.6885C49.0045 13.6885 49.0283 15.1672 49.8781 16.4563C49.5118 15.7319 49.3 14.9359 49.2566 14.1212Z" fill="url(#paint17_linear_494_14132)"/>
<path d="M55.4589 21.698C55.4634 21.6081 55.4694 21.5152 55.4783 21.4184C55.6649 19.4521 57.1809 18.2118 57.456 18.0015C57.3356 17.7105 57.2471 17.5391 57.2471 17.5391C57.2471 17.5391 55.4314 18.8243 55.2262 20.988C55.2218 21.0322 55.2188 21.0764 55.2158 21.119C55.2991 21.3072 55.3846 21.5 55.4589 21.698Z" fill="url(#paint18_linear_494_14132)"/>
<path d="M54.6084 21.4562C54.2424 21.0224 53.7942 20.6693 53.2909 20.4185C52.4578 20.0119 51.5646 19.7499 50.6478 19.643C50.6478 19.643 50.6716 21.1217 51.5206 22.4108C51.1541 21.6857 50.9424 20.8889 50.8998 20.0734C51.8165 20.1795 52.7096 20.4406 53.543 20.8459C54.0462 21.0971 54.4945 21.4503 54.8605 21.8843C54.7623 21.6146 54.6567 21.351 54.5415 21.0844C54.3044 20.5441 54.0311 20.0212 53.7236 19.5195C53.9296 19.8883 54.1199 20.2662 54.2909 20.6539C54.4047 20.9191 54.511 21.1865 54.6084 21.4562Z" fill="url(#paint19_linear_494_14132)"/>
<path d="M42.2312 41.0567L42.1718 40.787L42.4275 40.7261C43.0387 40.5805 43.9235 40.4419 44.5354 40.3078C44.8424 40.2415 45.4231 40.1767 45.7302 40.1128L46.1919 40.0206C46.2662 40.0053 46.3495 39.9924 46.4097 39.9771L46.441 39.9688C46.1436 39.4888 45.7101 38.4329 46.0818 36.7469C46.5443 34.6434 48.2997 33.4808 48.7354 33.2202C48.6484 32.9155 48.5822 32.7334 48.5822 32.7334C48.5822 32.7334 46.3599 33.9089 45.8313 36.3141C45.4595 38.0009 45.896 39.0568 46.1897 39.536L46.1584 39.5452C46.0989 39.5596 46.0179 39.5734 45.9413 39.5894L45.4804 39.6815C45.1718 39.744 44.5881 39.8095 44.2855 39.8758C43.6729 40.0099 42.7889 40.1486 42.177 40.2941L41.9212 40.355L41.9799 40.6247L42.0803 41.0742L42.139 41.3416L42.2877 41.3058L42.2312 41.0567Z" fill="url(#paint20_linear_494_14132)"/>
<path d="M49.9815 32.7867C50.1253 33.3378 50.3553 33.8614 50.6626 34.3371C50.4818 33.9802 50.338 33.6048 50.2336 33.2172C49.5823 30.8432 50.983 28.691 50.983 28.691C51.6283 29.2883 52.1943 29.9699 52.6663 30.7183C52.1519 29.7999 51.4996 28.9702 50.7332 28.2598C50.7332 28.2598 49.3295 30.4135 49.9815 32.7867Z" fill="url(#paint21_linear_494_14132)"/>
<path d="M51.3697 38.0744C51.077 38.072 50.785 38.1029 50.499 38.1666C51.5682 38.3418 53.5756 38.821 54.227 39.1516C54.3318 39.0282 54.3875 38.9543 54.3875 38.9543C54.3875 38.9543 53.0507 38.0607 51.3697 38.0744Z" fill="url(#paint22_linear_494_14132)"/>
<path d="M48.5227 38.3835C48.4231 38.6883 49.5637 38.0232 49.9057 37.7687C50.734 37.1536 51.5 36.4548 52.1919 35.6827C52.0856 35.6325 52.1057 35.6248 51.9399 35.5029C51.2084 36.289 50.4148 37.0119 49.5674 37.6643C49.4283 37.774 48.6648 38.286 48.5227 38.3835Z" fill="url(#paint23_linear_494_14132)"/>
</g>
<g style="mix-blend-mode:overlay">
<path d="M53.0916 25.5029C53.363 25.6736 53.5779 25.8008 53.5779 25.8008C53.5779 25.8008 53.36 25.6606 53.0916 25.5029Z" fill="url(#paint24_linear_494_14132)"/>
</g>
<path d="M7.76168 29.8555C6.68435 30.3203 5.03749 29.3116 4.42038 27.426C4.13434 26.5096 3.99253 25.5524 4.0003 24.5903C4.0003 24.5903 6.1743 24.9004 7.27692 26.7441C7.56019 27.2006 7.76162 27.7052 7.87172 28.2343C7.74347 26.8851 7.78647 25.5245 7.99961 24.1865C8.01969 24.0654 8.04199 23.945 8.0643 23.8239C8.01164 23.8874 7.95367 23.946 7.89105 23.9991C6.72821 23.9146 5.68062 22.2469 5.9282 20.2721C6.06027 19.321 6.33989 18.3977 6.75647 17.537C6.75647 17.537 8.57211 18.8223 8.77806 20.986C8.78698 21.082 8.79293 21.1749 8.79665 21.2656C8.92007 20.9497 9.05488 20.6391 9.20111 20.3338C9.49073 19.7302 9.82478 19.15 10.2004 18.5983C10.2859 18.4734 10.3751 18.35 10.4658 18.2281L10.4435 18.2204C9.87324 17.1538 10.6361 15.3254 12.3536 14.4637C13.1872 14.0584 14.0806 13.7971 14.9975 13.6904C14.9975 13.6904 14.9618 15.9821 13.3417 17.3473C12.4019 18.1382 11.5781 18.3058 11.0509 18.3073C10.8985 18.5183 10.7535 18.7355 10.613 18.9564C10.2721 19.4997 9.97092 20.068 9.71189 20.6569C9.59739 20.9197 9.48884 21.1902 9.39442 21.4568C9.75996 21.0228 10.208 20.6698 10.7112 20.4192C11.5431 20.0125 12.4349 19.75 13.3506 19.6421C13.3506 19.6421 13.3157 21.933 11.6956 23.299C10.0755 24.665 8.7959 24.1736 8.7959 24.1736C8.77146 24.1265 8.74937 24.0782 8.72973 24.0288C8.71188 24.1416 8.69404 24.2574 8.67917 24.3671C8.52608 25.5354 8.50811 26.7181 8.62564 27.8907C8.89958 27.2143 9.34116 26.6228 9.90669 26.175C10.6428 25.6005 11.4662 25.1542 12.3439 24.8539C12.3439 24.8539 12.7558 27.1045 11.4376 28.7851C10.4948 29.9866 9.53718 30.2235 9.06803 30.2608C9.2292 30.8229 9.43074 31.3719 9.67101 31.9034C9.98009 32.5847 10.3463 33.2373 10.7654 33.8538C10.5959 32.9479 10.7357 31.8333 11.2941 30.7858C11.8147 29.8406 12.4807 28.9878 13.2666 28.2602C13.2666 28.2602 14.6681 30.414 14.016 32.7872C13.5067 34.6484 12.4785 35.3074 12.0577 35.5055C12.7785 36.3028 13.5731 37.0266 14.4302 37.6669C14.7692 37.9213 15.1187 38.1598 15.4755 38.3861C15.0622 37.6409 14.8492 36.7968 14.8584 35.9397C14.8764 34.8473 15.0644 33.7648 15.4153 32.7331C15.4153 32.7331 17.6376 33.9086 18.1663 36.3138C18.538 38.0005 18.1023 39.0565 17.8079 39.5357L17.8391 39.5448C17.8986 39.5593 17.9804 39.573 18.057 39.589L18.5172 39.6812C18.8258 39.7437 19.4094 39.8092 19.7128 39.8755C20.3247 40.0096 21.2094 40.1482 21.8206 40.2937L22.0764 40.3547L22.0176 40.6244L21.918 41.0739L21.8585 41.3413L21.602 41.2796C20.976 41.1318 20.0741 40.9855 19.4458 40.8476C19.1313 40.7775 18.5425 40.7112 18.2287 40.6465L17.7566 40.5505C17.5864 40.5163 17.4189 40.4692 17.2555 40.4095C16.9287 40.2881 16.609 40.1477 16.2979 39.989C16.4198 40.1767 16.5135 40.3822 16.5759 40.5985C15.9744 41.8304 13.8391 42.2296 11.9744 41.0762C10.5617 40.2054 9.61078 38.9506 9.61078 38.9506C9.61078 38.9506 11.4286 37.7316 13.4993 38.1628C12.7349 37.5494 12.0232 36.8698 11.3721 36.1317C11.3796 36.1807 11.3846 36.23 11.387 36.2795C10.5491 37.3461 8.38251 37.2699 6.79364 35.7279C5.59288 34.5646 4.91407 33.1262 4.91407 33.1262C4.91407 33.1262 7.24793 32.212 9.30074 33.4385C9.38922 33.4919 9.47323 33.5467 9.55502 33.6001C9.29587 33.146 9.06324 32.6767 8.85835 32.1944C8.39795 31.1155 8.08568 29.9763 7.93046 28.8095C7.94905 29.47 7.76168 29.8555 7.76168 29.8555Z" fill="url(#paint25_linear_494_14132)"/>
<g style="mix-blend-mode:multiply">
<path d="M9.02698 27.1168C9.20775 26.848 9.41778 26.6011 9.65301 26.3809C9.40353 26.6914 9.20101 27.0386 9.05225 27.4109C9.04259 27.3126 9.03516 27.2151 9.02698 27.1168Z" fill="#5B6CB2"/>
<path d="M11.3743 28.8457C10.7327 29.6335 10.0903 29.9885 9.60404 30.1363C9.56613 30.0182 9.5297 29.9001 9.49475 29.7805C9.88212 29.7493 10.6033 29.5801 11.3743 28.8457Z" fill="#5B6CB2"/>
<path d="M12.5959 35.1449C12.5587 35.1045 12.5216 35.0687 12.4844 35.0245C12.7311 34.9043 12.9595 34.748 13.1624 34.5605C12.9961 34.7769 12.806 34.973 12.5959 35.1449Z" fill="#5B6CB2"/>
<path d="M11.8153 35.8011C11.8128 35.7516 11.8079 35.7023 11.8004 35.6533C12.4513 36.3917 13.1629 37.0712 13.9276 37.6844C13.5728 37.612 13.211 37.5821 12.8495 37.5953C12.3443 37.1481 11.8658 36.67 11.4167 36.1638C11.568 36.066 11.7027 35.9435 11.8153 35.8011Z" fill="#5B6CB2"/>
<path d="M6.35044 19.7945C6.10286 21.7708 7.15046 23.4377 8.3133 23.5215C8.37605 23.4689 8.43402 23.4105 8.48653 23.3471C8.46422 23.4682 8.44117 23.5886 8.42184 23.709C8.20871 25.0469 8.16572 26.4075 8.29396 27.7567C8.19926 27.2931 8.03258 26.8481 7.80028 26.4387C7.80991 25.6795 7.87528 24.9221 7.99582 24.1729C8.01589 24.0518 8.0382 23.9314 8.0605 23.8103C8.00784 23.8738 7.94988 23.9324 7.88727 23.9855C6.72443 23.9009 5.67683 22.2332 5.92442 20.2585C6.05649 19.3074 6.3361 18.3841 6.75268 17.5234C6.75268 17.5234 6.81513 17.5676 6.91699 17.653C6.64115 18.3396 6.4508 19.0591 6.35044 19.7945Z" fill="#5B6CB2"/>
<path d="M8.18769 29.3752C8.18769 29.3752 8.37506 28.989 8.3587 28.333C8.51425 29.4998 8.82677 30.639 9.28734 31.7179C9.49237 32.2001 9.725 32.6695 9.984 33.1236C9.90221 33.0695 9.81819 33.0146 9.72972 32.9621C9.51828 32.8364 9.29694 32.7291 9.06801 32.6413C8.99366 32.4889 8.92674 32.3366 8.86131 32.1842C8.48549 31.3018 8.20838 30.3787 8.03528 29.4324C8.08725 29.4168 8.13816 29.3977 8.18769 29.3752Z" fill="#5B6CB2"/>
<path d="M10.723 32.6287C10.7914 31.9759 10.9857 31.3435 11.2948 30.7683C11.7385 29.9618 12.2889 29.2221 12.9305 28.5703C12.4668 29.1009 12.0619 29.6824 11.723 30.3043C11.1647 31.3519 11.0249 32.4665 11.1944 33.3731C11.0293 33.1303 10.8722 32.8822 10.723 32.6287Z" fill="#5B6CB2"/>
<path d="M15.048 37.3248C14.9211 36.8685 14.8576 36.396 14.8592 35.9215C14.8772 34.8291 15.0652 33.7466 15.4161 32.7148C15.4161 32.7148 15.5075 32.7636 15.6555 32.8588C15.4219 33.7048 15.2969 34.5784 15.2837 35.4575C15.2746 36.3148 15.4875 37.1592 15.9008 37.9046C15.6113 37.7202 15.3271 37.527 15.048 37.3248Z" fill="#5B6CB2"/>
<path d="M12.4035 40.5992C13.9039 41.5279 15.579 41.4502 16.4927 40.7424C15.7916 41.8486 13.7633 42.1655 11.9804 41.0631C10.5678 40.1923 9.61682 38.9376 9.61682 38.9376C9.79528 38.8237 9.9808 38.7219 10.1722 38.6328C10.4771 38.9993 11.2994 39.9173 12.4035 40.5992Z" fill="#5B6CB2"/>
<path d="M7.22267 35.2496C8.58626 36.5707 10.3744 36.8175 11.3863 36.1852C11.3922 36.2362 11.393 36.2614 11.393 36.2614C10.5551 37.328 8.38849 37.2518 6.79962 35.7105C5.59886 34.5472 4.92004 33.1088 4.92004 33.1088C5.1096 33.0399 5.30332 32.9837 5.49998 32.9404C5.76021 33.425 6.355 34.4093 7.22267 35.2496Z" fill="#5B6CB2"/>
<path d="M4.0003 24.5732C4.14824 24.5977 4.29471 24.6308 4.43897 24.6723C4.47792 25.445 4.61488 26.2092 4.84641 26.9457C5.40627 28.656 6.81446 29.6449 7.87544 29.4659C7.85091 29.594 7.81276 29.7189 7.76168 29.8384C6.68435 30.3024 5.03749 29.2945 4.42038 27.4089C4.13434 26.4925 3.99253 25.5353 4.0003 24.5732Z" fill="#5B6CB2"/>
<path d="M10.8658 17.7369L10.8881 17.7453C10.7974 17.8664 10.7082 17.9898 10.6227 18.1155C10.2471 18.6669 9.91303 19.2469 9.62341 19.8503C9.47768 20.155 9.34286 20.4659 9.21894 20.7828C9.21894 20.6921 9.20927 20.5992 9.19961 20.5024C9.19515 20.4506 9.18845 20.3996 9.18176 20.3501L9.19738 20.3158C9.487 19.7121 9.82105 19.1319 10.1966 18.5803C10.2821 18.4546 10.3714 18.3319 10.4621 18.21L10.4398 18.2024C9.99367 17.3643 10.3654 16.0616 11.3796 15.1191C10.7 15.9938 10.4881 17.0352 10.8658 17.7369Z" fill="#5B6CB2"/>
<path d="M13.764 16.8659C13.8124 16.8248 13.8592 16.7829 13.9053 16.7402C13.7364 16.9559 13.5463 17.1533 13.338 17.3292C12.4622 18.0659 11.6874 18.2617 11.1588 18.286C11.2607 18.1299 11.3648 17.9752 11.4733 17.8251C12.0005 17.8236 12.8243 17.656 13.764 16.8659Z" fill="#5B6CB2"/>
<path d="M12.1216 22.8183C12.1699 22.7772 12.2167 22.736 12.2628 22.6934C12.0937 22.9086 11.9036 23.1057 11.6955 23.2815C10.5208 24.2719 9.52526 24.2849 9.06726 24.2178C9.07916 24.1074 9.09105 23.9969 9.10592 23.8864C9.12079 23.776 9.13863 23.6579 9.15648 23.5482C9.17612 23.5973 9.19821 23.6454 9.22265 23.6922C9.22265 23.6922 10.5022 24.182 12.1216 22.8183Z" fill="#5B6CB2"/>
<path d="M17.005 40.1202C16.9425 39.904 16.8487 39.6986 16.7269 39.5107C17.0379 39.6697 17.3577 39.8102 17.6846 39.9313C17.8479 39.9912 18.0154 40.0386 18.1857 40.073L18.6571 40.1682C18.9716 40.233 19.5604 40.3 19.8749 40.3693C20.4861 40.5042 21.3567 40.6459 21.9798 40.7907L21.9203 41.0588L21.8608 41.327L21.6043 41.2653C20.9783 41.1175 20.0764 40.9712 19.4481 40.8333C19.1336 40.7632 18.5448 40.6962 18.231 40.6322L17.7589 40.5362C17.5887 40.5021 17.4212 40.4549 17.2578 40.3953C17.1458 40.3531 17.035 40.3092 16.9254 40.2635C16.9544 40.2155 16.9812 40.169 17.005 40.1202Z" fill="#5B6CB2"/>
</g>
<g style="mix-blend-mode:overlay">
<path d="M9.52977 32.237C9.3076 31.7397 9.12437 31.2251 8.98181 30.698C8.96991 30.4756 8.92754 30.295 9.0688 30.2607C9.20858 30.6942 9.48368 31.4896 9.67178 31.9033C9.89929 32.4077 10.4993 33.443 10.787 33.9116C10.7751 34.2338 10.8993 34.2163 10.6993 34.2163C10.2829 33.5962 9.83758 32.9204 9.52977 32.237Z" fill="url(#paint26_linear_494_14132)"/>
<path d="M12.0926 25.2832C11.2149 25.5833 10.3914 26.0296 9.65544 26.6043C9.31632 26.876 9.01971 27.1992 8.77588 27.5627C9.05121 27.0219 9.4372 26.5485 9.90749 26.1746C10.6436 25.6001 11.467 25.1538 12.3447 24.8535C12.3447 24.8535 12.7164 26.89 11.6175 28.5356C12.4034 26.986 12.0926 25.2832 12.0926 25.2832Z" fill="url(#paint27_linear_494_14132)"/>
<path d="M8.47925 24.4587C8.5484 24.3201 8.60713 23.8591 8.63241 23.9056C8.67957 23.9411 8.71321 23.9923 8.72758 24.0504C8.53878 25.2951 8.50257 26.5592 8.61978 27.8132C8.52602 27.976 8.44401 28.1456 8.37442 28.3206C8.25676 27.148 8.27498 25.9652 8.42869 24.797C8.44356 24.6842 8.46141 24.5715 8.47925 24.4587Z" fill="url(#paint28_linear_494_14132)"/>
<path d="M7.28006 26.7446C7.38563 26.9221 7.77375 27.607 7.84958 28.1289C7.84958 28.599 7.35961 27.7304 7.02726 27.175C6.15811 25.7199 4.62055 25.2209 4.01162 25.0746C3.99749 24.7744 4.00344 24.5908 4.00344 24.5908C4.00344 24.5908 6.17447 24.8994 7.28006 26.7446Z" fill="url(#paint29_linear_494_14132)"/>
<path d="M8.87925 33.2206C9.18185 33.4042 9.41606 33.4956 9.52981 33.5855C9.44877 33.5314 9.08371 33.52 8.98185 33.5032C6.52457 33.0788 5.83385 33.2343 5.07474 33.4331C4.97065 33.2434 4.91711 33.1284 4.91711 33.1284C4.91711 33.1284 6.94242 32.3398 8.87925 33.2206Z" fill="url(#paint30_linear_494_14132)"/>
<path d="M9.94469 19.0328C9.82276 19.2118 9.70677 19.3954 9.59302 19.5813C9.77443 19.2563 9.96898 18.9401 10.1767 18.6328L10.1878 18.6549L10.2101 18.6625C10.1194 18.7806 10.0309 18.9033 9.94469 19.0328Z" fill="url(#paint31_linear_494_14132)"/>
<path d="M14.7418 14.1212C13.8247 14.2278 12.9311 14.4891 12.0972 14.8945C11.4815 15.2003 10.9511 15.6605 10.5552 16.2323C10.9515 15.4593 11.5811 14.8383 12.35 14.4618C13.1837 14.0564 14.077 13.7951 14.9939 13.6885C14.9939 13.6885 14.9701 15.1672 14.121 16.4563C14.4869 15.7317 14.6985 14.9358 14.7418 14.1212Z" fill="url(#paint32_linear_494_14132)"/>
<path d="M8.54392 21.698C8.54392 21.6081 8.53351 21.5152 8.52459 21.4184C8.33872 19.4521 6.82271 18.2118 6.54688 18.0015C6.66732 17.7105 6.75579 17.5391 6.75579 17.5391C6.75579 17.5391 8.57144 18.8243 8.77739 20.988C8.7811 21.0322 8.78482 21.0764 8.78705 21.119C8.69932 21.3072 8.61827 21.5 8.54392 21.698Z" fill="url(#paint33_linear_494_14132)"/>
<path d="M9.39073 21.4562C9.75628 21.0222 10.2043 20.6691 10.7075 20.4185C11.5406 20.012 12.4338 19.75 13.3506 19.643C13.3506 19.643 13.3268 21.1217 12.4785 22.4108C12.8447 21.6855 13.056 20.8888 13.0986 20.0734C12.1819 20.1795 11.2888 20.4406 10.4554 20.8459C9.95216 21.0971 9.50393 21.4503 9.13794 21.8843C9.23608 21.6146 9.34166 21.351 9.45691 21.0844C9.69403 20.5441 9.9673 20.0212 10.2748 19.5195C10.0688 19.8883 9.87847 20.2662 9.70747 20.6539C9.59371 20.9191 9.48813 21.1865 9.39073 21.4562Z" fill="url(#paint34_linear_494_14132)"/>
<path d="M21.7679 41.0567L21.8266 40.787L21.5708 40.7261C20.9597 40.5805 20.0749 40.4419 19.463 40.3078C19.1559 40.2415 18.576 40.1767 18.2682 40.1128L17.8065 40.0206C17.7321 40.0053 17.6496 39.9924 17.5886 39.9771L17.5581 39.9688C17.8555 39.4888 18.2883 38.4329 17.9165 36.7469C17.454 34.6434 15.6986 33.4808 15.2629 33.2202C15.3499 32.9155 15.4161 32.7334 15.4161 32.7334C15.4161 32.7334 17.6384 33.9089 18.1671 36.3141C18.5388 38.0009 18.1031 39.0568 17.8087 39.536L17.8399 39.5452C17.8994 39.5596 17.9812 39.5734 18.0578 39.5894L18.518 39.6815C18.8266 39.744 19.4102 39.8095 19.7136 39.8758C20.3255 40.0099 21.2102 40.1486 21.8214 40.2941L22.0772 40.355L22.0184 40.6247L21.9188 41.0742L21.8593 41.3416L21.7106 41.3058L21.7679 41.0567Z" fill="url(#paint35_linear_494_14132)"/>
<path d="M14.0168 32.7867C13.873 33.3378 13.643 33.8614 13.3358 34.3371C13.5169 33.9803 13.6607 33.6049 13.7648 33.2172C14.4161 30.8432 13.0153 28.691 13.0153 28.691C12.37 29.2883 11.8041 29.9699 11.332 30.7183C11.8464 29.7998 12.4987 28.9701 13.2651 28.2598C13.2651 28.2598 14.6689 30.4135 14.0168 32.7867Z" fill="url(#paint36_linear_494_14132)"/>
<path d="M12.6332 38.0744C12.9259 38.072 13.2179 38.1029 13.5039 38.1666C12.4347 38.3418 10.4273 38.821 9.77595 39.1516C9.67186 39.0282 9.61536 38.9543 9.61536 38.9543C9.61536 38.9543 10.9477 38.0607 12.6332 38.0744Z" fill="url(#paint37_linear_494_14132)"/>
<path d="M15.4763 38.3835C15.5752 38.6883 14.4354 38.0232 14.0927 37.7687C13.2643 37.1536 12.4984 36.4548 11.8064 35.6827C11.9127 35.6325 11.8926 35.6248 12.0584 35.5029C12.7901 36.2888 13.5837 37.0117 14.431 37.6643C14.57 37.774 15.3336 38.286 15.4763 38.3835Z" fill="url(#paint38_linear_494_14132)"/>
</g>
<g style="mix-blend-mode:overlay">
<path d="M10.9067 25.5029C10.636 25.6736 10.4204 25.8008 10.4204 25.8008C10.4204 25.8008 10.6383 25.6606 10.9067 25.5029Z" fill="url(#paint39_linear_494_14132)"/>
</g>
<path d="M51.4254 29.8988L46.8269 23.2356L39.2238 19.5391L24.2184 19.9489L16.8176 24.0554L12.5714 30.9624L32.5263 50.7379L32.5278 50.7409L51.4277 29.9011L51.4254 29.8988Z" fill="url(#paint40_linear_494_14132)"/>
<path d="M50.7711 30.2406L50.3294 30.4852L47.3577 32.1339L43.6245 34.2069L39.1806 27.7707L42.742 25.7937L45.7205 24.142L46.3279 23.8037L50.7711 30.2406Z" fill="#83869B"/>
<path style="mix-blend-mode:overlay" d="M20.5872 34.8362L43.6231 34.2077L39.1807 27.7715L24.6883 28.1669L20.5872 34.8362Z" fill="url(#paint41_linear_494_14132)"/>
<path style="mix-blend-mode:overlay" d="M43.6245 34.2061L41.0342 40.2933L32.5077 50.0375L20.5848 34.8353L43.6245 34.2061Z" fill="url(#paint42_linear_494_14132)"/>
<path d="M50.7711 30.2412L32.5077 50.0388L43.6231 34.2074L50.7711 30.2412Z" fill="#83869B"/>
<path opacity="0.53" d="M13.2421 31.2646L20.5871 34.8355L32.5077 50.0383L13.2421 31.2646Z" fill="#83869B"/>
<path style="mix-blend-mode:overlay" d="M43.6246 34.2077L32.5077 50.0391L41.9836 40.5837L44.8335 38.5511L49.838 30.7588L43.6246 34.2077Z" fill="url(#paint43_linear_494_14132)"/>
<path d="M50.9221 30.7294L43.6246 34.2081L20.5871 34.8366L13.2421 31.2658L20.5641 33.9521L31.4988 33.6535L43.4172 33.9102L50.0314 29.1699L50.9221 30.7294Z" fill="white"/>
<path d="M44.4781 25.0044C44.3369 25.0676 44.0105 25.1568 43.6714 25.2787L46.3287 23.8037C46.3287 23.8037 37.5152 27.613 35.8713 27.76C34.2274 27.9071 24.4957 28.0709 24.4957 28.0709C24.4957 28.0709 28.3069 28.0861 31.9419 28.1653L31.4839 28.1783L32.5077 50.0398L32.3969 28.1745C35.4683 28.2507 38.2922 28.371 38.4193 28.5752C38.4193 28.5752 41.7108 33.8267 41.4357 34.2648C41.1606 34.7028 32.6951 49.4844 32.8051 49.3389C32.9152 49.1934 42.9383 36.8063 43.2142 35.1683C43.49 33.5304 39.1814 27.7677 39.1814 27.7677L42.8246 25.7457C42.6394 25.9346 42.5762 26.167 42.7562 26.455C43.3302 27.3692 45.9257 32.1278 45.9257 32.1278C45.9257 32.1278 49.1451 31.3415 49.0685 30.5279C48.9919 29.7142 46.2112 24.2128 44.4781 25.0044Z" fill="white"/>
<path style="mix-blend-mode:overlay" d="M46.328 23.8035L39.1807 27.7705L24.6883 28.1659L17.3447 24.595L24.4928 20.6296L38.9836 20.2334L46.328 23.8035Z" fill="url(#paint44_linear_494_14132)"/>
<path opacity="0.4" d="M38.9836 20.2344L24.4927 20.6305L46.3279 23.8044L38.9836 20.2344Z" fill="url(#paint45_linear_494_14132)"/>
<path style="mix-blend-mode:overlay" d="M39.2268 29.5788C38.4424 28.2295 36.2253 28.6698 34.0312 28.7895C31.8371 28.9091 28.5441 28.9982 28.5441 28.9982C27.2802 29.0904 27.0571 28.6714 25.6445 29.5315C24.2318 30.3917 23.4459 31.5634 22.973 32.3405C22.5002 33.1176 20.9135 34.8241 22.0295 34.7937C23.1455 34.7632 27.559 33.4444 30.8549 33.4696C34.1509 33.4947 40.2439 34.3609 41.4127 33.5313C42.5815 32.7016 40.0112 30.928 39.2268 29.5788Z" fill="url(#paint46_linear_494_14132)"/>
<path style="mix-blend-mode:overlay" d="M21.083 34.5187L32.3345 49.6835L31.7753 28.1709L24.9054 28.1641L21.083 34.5187Z" fill="url(#paint47_linear_494_14132)"/>
<g style="mix-blend-mode:overlay">
<path d="M21.7039 32.3125C18.8183 32.3125 16.4778 34.5447 16.4778 37.3004C16.4778 40.056 18.8183 42.2844 21.7039 42.2844C24.5894 42.2844 26.9285 40.0514 26.9285 37.3004C26.9285 34.5493 24.5842 32.3125 21.7039 32.3125Z" fill="white"/>
</g>
<path opacity="0.7" d="M16.9276 43.8604C18.3299 42.2483 22.4533 37.2993 22.4533 37.2993C22.4533 37.2993 25.8972 30.6765 25.9805 30.4906C26.0036 30.4372 21.579 36.718 21.579 36.718L16.9276 43.8604Z" fill="white"/>
<path d="M22.8363 36.1144C21.5656 35.0958 21.7953 32.2335 21.7864 31.4229V32.1992C21.7864 32.0758 21.7768 31.9417 21.7768 31.9127V31.4229C21.7717 31.7659 21.7469 32.1083 21.7024 32.4483C21.7024 32.4483 21.3307 35.3213 20.6615 35.9148C19.1485 37.2754 15.3395 37.0126 16.8005 37.0484C21.7329 37.1566 21.7329 42.0904 21.7768 43.7086V42.8941C21.7768 42.952 21.7864 43.0016 21.7864 43.0305V43.7086C21.8913 39.878 21.8779 37.4537 26.182 37.1307C27.6073 37.0187 24.3225 37.2998 22.8363 36.1144Z" fill="white"/>
<g style="mix-blend-mode:overlay">
<path d="M13.4427 12.7402C12.3728 12.7402 11.5044 13.5684 11.5044 14.59C11.5044 15.6117 12.3728 16.4421 13.4427 16.4421C14.5126 16.4421 15.384 15.6102 15.384 14.59C15.384 13.5699 14.5126 12.7402 13.4427 12.7402Z" fill="white"/>
</g>
<path opacity="0.7" d="M11.6733 17.0237C12.1938 16.4257 13.7224 14.5904 13.7224 14.5904C13.7224 14.5904 14.9998 12.1349 15.0303 12.0656C15.0392 12.0457 13.3946 14.3747 13.3946 14.3747L11.6733 17.0237Z" fill="white"/>
<path d="M13.8644 14.1505C13.393 13.7695 13.4785 12.7113 13.4748 12.4111V12.6991C13.4748 12.6526 13.4748 12.6031 13.4748 12.5925V12.4111C13.4739 12.5385 13.4652 12.6658 13.4488 12.7921C13.4488 12.7921 13.3105 13.8587 13.0614 14.0773C12.5001 14.5817 11.0874 14.4849 11.6294 14.4979C13.4592 14.5382 13.4592 16.3675 13.4748 16.9678V16.6631C13.4748 16.6852 13.4748 16.7034 13.4748 16.7141V16.9655C13.5135 15.5447 13.509 14.6457 15.1053 14.5276C15.6339 14.4857 14.4176 14.59 13.8644 14.1505Z" fill="white"/>
<defs>
<linearGradient id="paint0_linear_494_14132" x1="31.9992" y1="58.7" x2="31.9992" y2="44.3649" gradientUnits="userSpaceOnUse">
<stop stop-color="#BF7DDC"/>
<stop offset="1" stop-color="#6679DC"/>
</linearGradient>
<linearGradient id="paint1_linear_494_14132" x1="46.4959" y1="58.7005" x2="46.4959" y2="44.3654" gradientUnits="userSpaceOnUse">
<stop stop-color="#BF7DDC"/>
<stop offset="1" stop-color="#6679DC"/>
</linearGradient>
<linearGradient id="paint2_linear_494_14132" x1="17.4108" y1="58.7005" x2="17.4108" y2="44.3654" gradientUnits="userSpaceOnUse">
<stop stop-color="#BF7DDC"/>
<stop offset="1" stop-color="#6679DC"/>
</linearGradient>
<linearGradient id="paint3_linear_494_14132" x1="32.1173" y1="5.37828" x2="31.25" y2="59.6257" gradientUnits="userSpaceOnUse">
<stop offset="0.06" stop-color="#E5F1DC"/>
<stop offset="0.5" stop-color="#BF7DDC"/>
<stop offset="1" stop-color="#6679DC"/>
</linearGradient>
<linearGradient id="paint4_linear_494_14132" x1="16.8667" y1="14.4957" x2="19.8526" y2="52.5615" gradientUnits="userSpaceOnUse">
<stop stop-color="#DCD6DC"/>
<stop offset="0.45" stop-color="#BF7DDC"/>
<stop offset="1" stop-color="#6679DC"/>
</linearGradient>
<linearGradient id="paint5_linear_494_14132" x1="15.4859" y1="14.6044" x2="18.4718" y2="52.6702" gradientUnits="userSpaceOnUse">
<stop stop-color="#DCD6DC"/>
<stop offset="0.45" stop-color="#BF7DDC"/>
<stop offset="1" stop-color="#6679DC"/>
</linearGradient>
<linearGradient id="paint6_linear_494_14132" x1="16.6532" y1="14.5124" x2="19.6391" y2="52.5782" gradientUnits="userSpaceOnUse">
<stop stop-color="#DCD6DC"/>
<stop offset="0.45" stop-color="#BF7DDC"/>
<stop offset="1" stop-color="#6679DC"/>
</linearGradient>
<linearGradient id="paint7_linear_494_14132" x1="45.6945" y1="12.2345" x2="48.6797" y2="50.3003" gradientUnits="userSpaceOnUse">
<stop stop-color="#DCD6DC"/>
<stop offset="0.45" stop-color="#BF7DDC"/>
<stop offset="1" stop-color="#6679DC"/>
</linearGradient>
<linearGradient id="paint8_linear_494_14132" x1="46.0596" y1="12.206" x2="49.0448" y2="50.2718" gradientUnits="userSpaceOnUse">
<stop stop-color="#DCD6DC"/>
<stop offset="0.45" stop-color="#BF7DDC"/>
<stop offset="1" stop-color="#6679DC"/>
</linearGradient>
<linearGradient id="paint9_linear_494_14132" x1="43.6016" y1="12.3982" x2="46.5875" y2="50.464" gradientUnits="userSpaceOnUse">
<stop stop-color="#DCD6DC"/>
<stop offset="0.45" stop-color="#BF7DDC"/>
<stop offset="1" stop-color="#6679DC"/>
</linearGradient>
<linearGradient id="paint10_linear_494_14132" x1="53.0121" y1="18.436" x2="49.887" y2="40.131" gradientUnits="userSpaceOnUse">
<stop offset="0.06" stop-color="#E5F1DC"/>
<stop offset="0.5" stop-color="#BF7DDC"/>
<stop offset="1" stop-color="#6679DC"/>
</linearGradient>
<linearGradient id="paint11_linear_494_14132" x1="53.1831" y1="32.237" x2="55.0322" y2="32.237" gradientUnits="userSpaceOnUse">
<stop stop-color="white"/>
<stop offset="1" stop-color="white"/>
</linearGradient>
<linearGradient id="paint12_linear_494_14132" x1="51.5935" y1="26.6942" x2="55.2226" y2="26.6942" gradientUnits="userSpaceOnUse">
<stop stop-color="white"/>
<stop offset="1" stop-color="white"/>
</linearGradient>
<linearGradient id="paint13_linear_494_14132" x1="55.2708" y1="26.1112" x2="55.7006" y2="26.1112" gradientUnits="userSpaceOnUse">
<stop stop-color="white"/>
<stop offset="1" stop-color="white"/>
</linearGradient>
<linearGradient id="paint14_linear_494_14132" x1="56.1526" y1="26.4269" x2="59.9988" y2="26.4269" gradientUnits="userSpaceOnUse">
<stop stop-color="white"/>
<stop offset="1" stop-color="white"/>
</linearGradient>
<linearGradient id="paint15_linear_494_14132" x1="54.4686" y1="33.1947" x2="59.0813" y2="33.1947" gradientUnits="userSpaceOnUse">
<stop stop-color="white"/>
<stop offset="1" stop-color="white"/>
</linearGradient>
<linearGradient id="paint16_linear_494_14132" x1="53.7882" y1="19.1029" x2="54.4053" y2="19.1029" gradientUnits="userSpaceOnUse">
<stop stop-color="white"/>
<stop offset="1" stop-color="white"/>
</linearGradient>
<linearGradient id="paint17_linear_494_14132" x1="49.0045" y1="15.0743" x2="53.4432" y2="15.0743" gradientUnits="userSpaceOnUse">
<stop stop-color="white"/>
<stop offset="1" stop-color="white"/>
</linearGradient>
<linearGradient id="paint18_linear_494_14132" x1="55.2143" y1="19.6159" x2="57.4545" y2="19.6159" gradientUnits="userSpaceOnUse">
<stop stop-color="white"/>
<stop offset="1" stop-color="white"/>
</linearGradient>
<linearGradient id="paint19_linear_494_14132" x1="50.6478" y1="20.9678" x2="54.8605" y2="20.9678" gradientUnits="userSpaceOnUse">
<stop stop-color="white"/>
<stop offset="1" stop-color="white"/>
</linearGradient>
<linearGradient id="paint20_linear_494_14132" x1="41.9197" y1="37.0387" x2="48.7354" y2="37.0387" gradientUnits="userSpaceOnUse">
<stop stop-color="white"/>
<stop offset="1" stop-color="white"/>
</linearGradient>
<linearGradient id="paint21_linear_494_14132" x1="49.8083" y1="31.2981" x2="52.6663" y2="31.2981" gradientUnits="userSpaceOnUse">
<stop stop-color="white"/>
<stop offset="1" stop-color="white"/>
</linearGradient>
<linearGradient id="paint22_linear_494_14132" x1="50.496" y1="38.613" x2="54.3846" y2="38.613" gradientUnits="userSpaceOnUse">
<stop stop-color="white"/>
<stop offset="1" stop-color="white"/>
</linearGradient>
<linearGradient id="paint23_linear_494_14132" x1="48.5161" y1="36.9847" x2="52.1919" y2="36.9847" gradientUnits="userSpaceOnUse">
<stop stop-color="white"/>
<stop offset="1" stop-color="white"/>
</linearGradient>
<linearGradient id="paint24_linear_494_14132" x1="53.0916" y1="25.6515" x2="53.5779" y2="25.6515" gradientUnits="userSpaceOnUse">
<stop stop-color="white"/>
<stop offset="1" stop-color="white"/>
</linearGradient>
<linearGradient id="paint25_linear_494_14132" x1="12.4807" y1="19.8958" x2="13.4049" y2="39.9443" gradientUnits="userSpaceOnUse">
<stop offset="0.06" stop-color="#E5F1DC"/>
<stop offset="0.5" stop-color="#BF7DDC"/>
<stop offset="1" stop-color="#6679DC"/>
</linearGradient>
<linearGradient id="paint26_linear_494_14132" x1="8.96694" y1="32.237" x2="10.8153" y2="32.237" gradientUnits="userSpaceOnUse">
<stop stop-color="white"/>
<stop offset="1" stop-color="white"/>
</linearGradient>
<linearGradient id="paint27_linear_494_14132" x1="8.77588" y1="26.6942" x2="12.4049" y2="26.6942" gradientUnits="userSpaceOnUse">
<stop stop-color="white"/>
<stop offset="1" stop-color="white"/>
</linearGradient>
<linearGradient id="paint28_linear_494_14132" x1="8.29858" y1="26.1112" x2="8.72758" y2="26.1112" gradientUnits="userSpaceOnUse">
<stop stop-color="white"/>
<stop offset="1" stop-color="white"/>
</linearGradient>
<linearGradient id="paint29_linear_494_14132" x1="3.99972" y1="26.4269" x2="7.84661" y2="26.4269" gradientUnits="userSpaceOnUse">
<stop stop-color="white"/>
<stop offset="1" stop-color="white"/>
</linearGradient>
<linearGradient id="paint30_linear_494_14132" x1="4.91711" y1="33.1947" x2="9.52981" y2="33.1947" gradientUnits="userSpaceOnUse">
<stop stop-color="white"/>
<stop offset="1" stop-color="white"/>
</linearGradient>
<linearGradient id="paint31_linear_494_14132" x1="9.59302" y1="19.1029" x2="10.2101" y2="19.1029" gradientUnits="userSpaceOnUse">
<stop stop-color="white"/>
<stop offset="1" stop-color="white"/>
</linearGradient>
<linearGradient id="paint32_linear_494_14132" x1="10.5552" y1="15.0743" x2="14.9939" y2="15.0743" gradientUnits="userSpaceOnUse">
<stop stop-color="white"/>
<stop offset="1" stop-color="white"/>
</linearGradient>
<linearGradient id="paint33_linear_494_14132" x1="6.5439" y1="19.6159" x2="8.78408" y2="19.6159" gradientUnits="userSpaceOnUse">
<stop stop-color="white"/>
<stop offset="1" stop-color="white"/>
</linearGradient>
<linearGradient id="paint34_linear_494_14132" x1="9.13794" y1="20.9678" x2="13.3506" y2="20.9678" gradientUnits="userSpaceOnUse">
<stop stop-color="white"/>
<stop offset="1" stop-color="white"/>
</linearGradient>
<linearGradient id="paint35_linear_494_14132" x1="15.2629" y1="37.0387" x2="22.0786" y2="37.0387" gradientUnits="userSpaceOnUse">
<stop stop-color="white"/>
<stop offset="1" stop-color="white"/>
</linearGradient>
<linearGradient id="paint36_linear_494_14132" x1="11.332" y1="31.2981" x2="14.1901" y2="31.2981" gradientUnits="userSpaceOnUse">
<stop stop-color="white"/>
<stop offset="1" stop-color="white"/>
</linearGradient>
<linearGradient id="paint37_linear_494_14132" x1="9.61387" y1="38.613" x2="13.5024" y2="38.613" gradientUnits="userSpaceOnUse">
<stop stop-color="white"/>
<stop offset="1" stop-color="white"/>
</linearGradient>
<linearGradient id="paint38_linear_494_14132" x1="11.8064" y1="36.9847" x2="15.4823" y2="36.9847" gradientUnits="userSpaceOnUse">
<stop stop-color="white"/>
<stop offset="1" stop-color="white"/>
</linearGradient>
<linearGradient id="paint39_linear_494_14132" x1="10.4204" y1="25.6515" x2="10.9067" y2="25.6515" gradientUnits="userSpaceOnUse">
<stop stop-color="white"/>
<stop offset="1" stop-color="white"/>
</linearGradient>
<linearGradient id="paint40_linear_494_14132" x1="31.9992" y1="48.8089" x2="31.9992" y2="6.94174" gradientUnits="userSpaceOnUse">
<stop stop-color="#6679DC"/>
<stop offset="0.38" stop-color="#BF7DDC"/>
<stop offset="0.78" stop-color="#DBFFD6"/>
</linearGradient>
<linearGradient id="paint41_linear_494_14132" x1="20.5012" y1="31.5721" x2="43.5388" y2="30.9755" gradientUnits="userSpaceOnUse">
<stop stop-color="white"/>
<stop offset="0.91" stop-color="white"/>
</linearGradient>
<linearGradient id="paint42_linear_494_14132" x1="20.7847" y1="42.6052" x2="43.8267" y2="42.0085" gradientUnits="userSpaceOnUse">
<stop stop-color="white"/>
<stop offset="0.91" stop-color="white"/>
</linearGradient>
<linearGradient id="paint43_linear_494_14132" x1="42.2924" y1="42.33" x2="40.0455" y2="38.6678" gradientUnits="userSpaceOnUse">
<stop stop-color="white"/>
<stop offset="0.91" stop-color="white"/>
</linearGradient>
<linearGradient id="paint44_linear_494_14132" x1="17.3443" y1="24.6065" x2="46.3302" y2="23.8559" gradientUnits="userSpaceOnUse">
<stop stop-color="white"/>
<stop offset="0.91" stop-color="white"/>
</linearGradient>
<linearGradient id="paint45_linear_494_14132" x1="41.6725" y1="17.1287" x2="35.2001" y2="22.1518" gradientUnits="userSpaceOnUse">
<stop stop-color="white"/>
<stop offset="0.63" stop-color="white"/>
</linearGradient>
<linearGradient id="paint46_linear_494_14132" x1="21.5727" y1="31.9348" x2="41.6751" y2="31.4143" gradientUnits="userSpaceOnUse">
<stop stop-color="white"/>
<stop offset="0.91" stop-color="white"/>
</linearGradient>
<linearGradient id="paint47_linear_494_14132" x1="21.2021" y1="39.1387" x2="32.0524" y2="38.8577" gradientUnits="userSpaceOnUse">
<stop offset="0.09" stop-color="white"/>
<stop offset="1" stop-color="white"/>
</linearGradient>
</defs>
</svg>
