<svg width="64" height="64" viewBox="0 0 64 64" fill="none" xmlns="http://www.w3.org/2000/svg">
<path d="M26.5622 26.4989C26.1629 25.2793 3.65616 16.2645 3.65616 16.2645C2.39909 14.8824 2.80829 17.535 3.23446 21.5251C3.66063 25.5152 3.82413 27.3584 4.75867 28.1071C5.69322 28.8558 23.8846 32.0025 25.2185 32.4439C26.5524 32.8852 26.9625 27.7193 26.5622 26.4989Z" fill="url(#paint0_linear_494_14028)"/>
<path opacity="0.49" d="M26.3442 27.7369C25.9484 26.5173 3.43816 17.5025 3.43816 17.5025C3.15136 17.1871 2.95212 17.0835 2.819 17.1567C2.78237 15.956 2.97267 15.5128 3.65616 16.2633C3.65616 16.2633 26.1629 25.2781 26.5622 26.4977C26.8017 27.2285 26.749 29.371 26.3835 30.8756C26.5381 29.6131 26.5229 28.2819 26.3442 27.7369Z" fill="white"/>
<path d="M26.6158 32.8832C26.0449 31.6449 1.26619 24.651 1.26619 24.651C-0.264277 23.4529 0.472813 26.2592 1.37251 30.5397C2.27221 34.8202 2.65192 36.7983 3.75979 37.3826C4.86766 37.9669 24.2696 39.6162 25.7805 39.7583C27.2913 39.9003 27.1867 34.1215 26.6158 32.8832Z" fill="url(#paint1_linear_494_14028)"/>
<path opacity="0.49" d="M26.5104 34.2997C25.9395 33.0613 1.16078 26.0675 1.16078 26.0675C0.811442 25.7941 0.580934 25.7315 0.446024 25.845C0.275376 24.5352 0.437091 24 1.26889 24.6514C1.26889 24.6514 26.0476 31.6452 26.6185 32.8835C26.9607 33.6242 27.1349 35.9927 26.8964 37.7448C26.9312 36.3117 26.7651 34.8545 26.5104 34.2997Z" fill="white"/>
<path d="M29.9974 41C29.2309 39.7492 1.91298 35.1837 1.91298 35.1837C0.0751694 34.2107 1.1884 37.1814 2.63578 41.7568C4.08315 46.3321 4.71035 48.4629 6.0112 48.8507C7.31205 49.2384 28.0569 49.1071 29.7652 48.907C31.4734 48.7069 30.764 42.2499 29.9974 41Z" fill="url(#paint2_linear_494_14028)"/>
<path opacity="0.49" d="M30.0243 42.6127C29.2578 41.3619 1.93987 36.7964 1.93987 36.7964C1.52085 36.5748 1.25639 36.5596 1.11344 36.7204C0.788223 35.2909 0.914198 34.6548 1.91753 35.1837C1.91753 35.1837 29.2354 39.7501 30.002 41C30.4612 41.7478 30.8954 44.3603 30.8061 46.3812C30.6962 44.7713 30.3665 43.1711 30.0243 42.6127Z" fill="white"/>
<path d="M37.8142 26.4989C38.2145 25.2793 60.7212 16.2645 60.7212 16.2645C61.9782 14.8824 61.569 17.535 61.1429 21.5251C60.7167 25.5152 60.5532 27.3584 59.6187 28.1071C58.6841 28.8558 40.4927 32.0025 39.1588 32.4439C37.8249 32.8852 37.4148 27.7193 37.8142 26.4989Z" fill="url(#paint3_linear_494_14028)"/>
<path opacity="0.49" d="M38.0331 27.7369C38.4325 26.5173 60.9392 17.5025 60.9392 17.5025C61.226 17.1871 61.4252 17.0835 61.5583 17.1567C61.595 15.956 61.4047 15.5128 60.7212 16.2633C60.7212 16.2633 38.2145 25.2781 37.8142 26.4977C37.5757 27.2285 37.6284 29.371 37.9929 30.8756C37.8383 29.6131 37.8544 28.2819 38.0331 27.7369Z" fill="white"/>
<path d="M37.7615 32.8832C38.3324 31.6449 63.1156 24.651 63.1156 24.651C64.6461 23.4529 63.909 26.2592 63.0093 30.5397C62.1096 34.8202 61.7299 36.7983 60.622 37.3826C59.5141 37.9669 40.1121 39.6162 38.6013 39.7583C37.0905 39.9003 37.1897 34.1215 37.7615 32.8832Z" fill="url(#paint4_linear_494_14028)"/>
<path opacity="0.49" d="M37.8669 34.2997C38.4378 33.0613 63.2166 26.0675 63.2166 26.0675C63.5659 25.7941 63.7955 25.7315 63.9313 25.845C64.102 24.5352 63.9403 24 63.1085 24.6514C63.1085 24.6514 38.3297 31.6452 37.7588 32.8835C37.4166 33.6242 37.2424 35.9927 37.481 37.7448C37.4506 36.3117 37.6123 34.8545 37.8669 34.2997Z" fill="white"/>
<path d="M34.3799 41C35.1464 39.7492 62.4643 35.1837 62.4643 35.1837C64.3021 34.2107 63.1889 37.1814 61.7415 41.7568C60.2942 46.3321 59.667 48.4629 58.3661 48.8507C57.0653 49.2384 36.3204 49.1071 34.6122 48.907C32.9039 48.7069 33.6133 42.2499 34.3799 41Z" fill="url(#paint5_linear_494_14028)"/>
<path opacity="0.49" d="M34.3531 42.6127C35.1197 41.3619 62.4376 36.7964 62.4376 36.7964C62.8566 36.5748 63.1211 36.5596 63.264 36.7204C63.5892 35.2909 63.4632 34.6548 62.4599 35.1837C62.4599 35.1837 35.142 39.7501 34.3754 41C33.9162 41.7478 33.482 44.3603 33.5713 46.3812C33.6803 44.7713 34.0109 43.1711 34.3531 42.6127Z" fill="white"/>
<path d="M32.4463 9.21522L9.05603 32.6055L32.4463 55.9957L55.8365 32.6055L32.4463 9.21522Z" fill="url(#paint6_linear_494_14028)"/>
<g style="mix-blend-mode:overlay" opacity="0.52">
<path d="M17.7198 32.3894L32.6627 17.4457V9L9.27234 32.3903L17.7198 32.3894Z" fill="white"/>
</g>
<g style="mix-blend-mode:multiply" opacity="0.23">
<path d="M47.6063 32.3906L32.6626 47.3343V55.7809L56.0529 32.3906H47.6063Z" fill="black"/>
</g>
<path style="mix-blend-mode:overlay" d="M32.6626 17.4475L47.6063 32.3903H56.0529L32.6626 9V17.4475Z" fill="url(#paint7_linear_494_14028)"/>
<g style="mix-blend-mode:multiply" opacity="0.36">
<path d="M32.6627 47.3325L17.7198 32.3896L9.27234 32.3905L32.6627 55.7809V47.3325Z" fill="black"/>
</g>
<path style="mix-blend-mode:overlay" opacity="0.4" d="M32.6627 47.2059L47.6064 32.3899L32.6627 17.4453L17.719 32.3899L32.6627 47.2059Z" fill="url(#paint8_linear_494_14028)"/>
<path d="M9.27234 32.3903L17.2856 32.8236L32.6627 47.334L18.4498 32.6333L32.8253 18.2579L47.6064 32.3903L33.1505 16.9588L32.6627 9L32.0676 17.9317L18.0424 31.957L9.27234 32.3903Z" fill="white"/>
<path style="mix-blend-mode:overlay" d="M33.557 10.7031L33.9626 16.8759L48.0138 30.9271L54.6333 31.7794L33.557 10.7031Z" fill="url(#paint9_linear_494_14028)"/>
<path style="mix-blend-mode:overlay" d="M11.2424 33.0186L17.4143 33.4251L31.4655 47.4762L32.3187 54.0949L11.2424 33.0186Z" fill="url(#paint10_linear_494_14028)"/>
<path style="mix-blend-mode:overlay" opacity="0.25" d="M54.5002 33.1514L48.3274 33.5579L34.2753 47.6082L33.423 54.2268L54.5002 33.1514Z" fill="url(#paint11_linear_494_14028)"/>
<path style="mix-blend-mode:overlay" d="M31.8701 10.5225L31.779 17.0097L17.7278 31.0609L10.7938 31.5988L31.8701 10.5225Z" fill="url(#paint12_linear_494_14028)"/>
<path style="mix-blend-mode:overlay" opacity="0.53" d="M27.6263 22.8076L40.7992 25.1243L47.6171 31.9413L23.4039 27.4642L40.7814 38.777L35.3126 44.2458L20.4252 30.0079L27.6263 22.8076Z" fill="url(#paint13_linear_494_14028)"/>
<path style="mix-blend-mode:overlay" opacity="0.4" d="M18.0737 33.0186C18.0737 33.0186 23.1565 40.226 30.899 33.0248C36.2829 28.0162 46.8363 32.1055 46.8363 32.1055C46.8363 32.1055 33.1505 19.0693 32.7449 18.9066C32.3393 18.744 16.21 33.0999 18.0737 33.0186Z" fill="url(#paint14_linear_494_14028)"/>
<path opacity="0.7" d="M16.679 23.1445C17.542 25.6381 19.2235 33.3673 19.2235 33.3673C19.2235 33.3673 19.9874 43.2398 19.9909 43.5901C19.9945 43.9403 17.6466 33.5076 17.6466 33.5076L16.679 23.1445Z" fill="white"/>
<path opacity="0.7" d="M28.2025 34.73C25.5946 34.5772 17.7493 33.9572 17.7493 33.9572C17.7493 33.9572 9.07841 31.3144 8.84255 31.2259C8.77375 31.1991 18.0209 32.6965 18.0209 32.6965L28.2025 34.73Z" fill="white"/>
<path d="M16.3967 33.2808C16.645 31.2947 13.9924 29.0522 13.3125 28.3499L13.9745 29.0129C13.8709 28.9012 13.7628 28.785 13.7378 28.76L13.3205 28.3428C13.5225 28.5384 13.8486 28.836 14.2542 29.1594C14.2542 29.1594 17.0391 31.2831 18.1389 31.208C20.6218 31.0383 23.7408 27.4824 22.4855 28.7913C18.2595 33.2031 22.4801 37.4237 23.8256 38.8461L23.127 38.1474L23.2395 38.2752C23.462 38.4994 23.6595 38.6951 23.8176 38.8532C20.4493 35.6672 18.3899 33.5819 14.3391 37.078C12.998 38.2305 16.1117 35.594 16.3967 33.2808Z" fill="white"/>
<defs>
<linearGradient id="paint0_linear_494_14028" x1="2.04368" y1="22.6688" x2="27.0554" y2="25.7398" gradientUnits="userSpaceOnUse">
<stop stop-color="#B5C0C9"/>
<stop offset="1" stop-color="#8F939C"/>
</linearGradient>
<linearGradient id="paint1_linear_494_14028" x1="0.588736" y1="32.45" x2="26.8967" y2="31.7197" gradientUnits="userSpaceOnUse">
<stop stop-color="#B5C0C9"/>
<stop offset="1" stop-color="#8F939C"/>
</linearGradient>
<linearGradient id="paint2_linear_494_14028" x1="2.40022" y1="44.212" x2="30.0331" y2="39.5531" gradientUnits="userSpaceOnUse">
<stop stop-color="#B5C0C9"/>
<stop offset="1" stop-color="#8F939C"/>
</linearGradient>
<linearGradient id="paint3_linear_494_14028" x1="62.1143" y1="22.288" x2="37.1668" y2="25.312" gradientUnits="userSpaceOnUse">
<stop stop-color="#B5C0C9"/>
<stop offset="1" stop-color="#8F939C"/>
</linearGradient>
<linearGradient id="paint4_linear_494_14028" x1="63.628" y1="32.2539" x2="37.3108" y2="31.4644" gradientUnits="userSpaceOnUse">
<stop stop-color="#B5C0C9"/>
<stop offset="1" stop-color="#8F939C"/>
</linearGradient>
<linearGradient id="paint5_linear_494_14028" x1="61.4" y1="43.595" x2="33.6565" y2="38.831" gradientUnits="userSpaceOnUse">
<stop stop-color="#B5C0C9"/>
<stop offset="1" stop-color="#8F939C"/>
</linearGradient>
<linearGradient id="paint6_linear_494_14028" x1="32.8149" y1="54.1877" x2="32.1538" y2="15.3774" gradientUnits="userSpaceOnUse">
<stop stop-color="#B5C0C9"/>
<stop offset="1" stop-color="#8F939C"/>
</linearGradient>
<linearGradient id="paint7_linear_494_14028" x1="35.7639" y1="16.9475" x2="56.9675" y2="37.0625" gradientUnits="userSpaceOnUse">
<stop stop-color="white"/>
<stop offset="1" stop-color="white"/>
</linearGradient>
<linearGradient id="paint8_linear_494_14028" x1="35.3809" y1="35.5892" x2="24.6148" y2="24.8231" gradientUnits="userSpaceOnUse">
<stop stop-color="white"/>
<stop offset="1" stop-color="white"/>
</linearGradient>
<linearGradient id="paint9_linear_494_14028" x1="35.4291" y1="15.8595" x2="52.3229" y2="32.7534" gradientUnits="userSpaceOnUse">
<stop stop-color="white"/>
<stop offset="1" stop-color="white"/>
</linearGradient>
<linearGradient id="paint10_linear_494_14028" x1="16.0967" y1="34.9873" x2="32.9217" y2="51.8123" gradientUnits="userSpaceOnUse">
<stop stop-color="white"/>
<stop offset="1" stop-color="white"/>
</linearGradient>
<linearGradient id="paint11_linear_494_14028" x1="53.0327" y1="32.0787" x2="31.8698" y2="53.2417" gradientUnits="userSpaceOnUse">
<stop stop-color="white"/>
<stop offset="1" stop-color="white"/>
</linearGradient>
<linearGradient id="paint12_linear_494_14028" x1="30.0595" y1="15.5326" x2="13.2339" y2="32.3583" gradientUnits="userSpaceOnUse">
<stop stop-color="white"/>
<stop offset="1" stop-color="white"/>
</linearGradient>
<linearGradient id="paint13_linear_494_14028" x1="40.0896" y1="39.6491" x2="34.435" y2="32.0382" gradientUnits="userSpaceOnUse">
<stop stop-color="white"/>
<stop offset="1" stop-color="white"/>
</linearGradient>
<linearGradient id="paint14_linear_494_14028" x1="32.2745" y1="33.9791" x2="32.2231" y2="21.0176" gradientUnits="userSpaceOnUse">
<stop stop-color="white"/>
<stop offset="1" stop-color="white"/>
</linearGradient>
</defs>
</svg>
