<svg width="24" height="24" viewBox="0 0 24 24" fill="none" xmlns="http://www.w3.org/2000/svg">
<g id="speed">
<g id="Vector">
<path d="M20.3642 8.55059L19.1342 10.4006C19.7274 11.5837 20.0178 12.8954 19.9794 14.2183C19.941 15.5412 19.575 16.8339 18.9142 17.9806H5.05418C4.19535 16.4907 3.83948 14.7637 4.03932 13.0557C4.23917 11.3476 4.98409 9.74942 6.16366 8.49802C7.34323 7.24662 8.89465 6.40863 10.5879 6.10829C12.2812 5.80794 14.0262 6.06122 15.5642 6.83059L17.4142 5.60059C15.5307 4.39281 13.2965 3.85159 11.0691 4.06353C8.84163 4.27546 6.74963 5.22829 5.12767 6.7696C3.50572 8.31092 2.44754 10.3517 2.1224 12.5654C1.79725 14.7791 2.22393 17.038 3.33418 18.9806C3.50869 19.2829 3.75927 19.5342 4.06101 19.7096C4.36275 19.8851 4.70515 19.9785 5.05418 19.9806H18.9042C19.2566 19.982 19.6031 19.8902 19.9087 19.7146C20.2142 19.539 20.468 19.2858 20.6442 18.9806C21.5656 17.3845 22.0279 15.5649 21.9803 13.7225C21.9327 11.8802 21.3768 10.0869 20.3742 8.54059L20.3642 8.55059Z" fill="#8544F5"/>
<path d="M10.5742 15.3906C10.7599 15.5765 10.9805 15.7241 11.2233 15.8247C11.4661 15.9254 11.7264 15.9772 11.9892 15.9772C12.252 15.9772 12.5123 15.9254 12.7551 15.8247C12.9979 15.7241 13.2184 15.5765 13.4042 15.3906L19.0642 6.90059L10.5742 12.5606C10.3882 12.7463 10.2407 12.9669 10.1401 13.2097C10.0394 13.4525 9.98761 13.7128 9.98761 13.9756C9.98761 14.2384 10.0394 14.4987 10.1401 14.7415C10.2407 14.9843 10.3882 15.2048 10.5742 15.3906Z" fill="#8544F5"/>
</g>
</g>
</svg>
