<svg width="21" height="21" viewBox="0 0 21 21" fill="none" xmlns="http://www.w3.org/2000/svg">
<g clip-path="url(#clip0_444_936)">
<path fill-rule="evenodd" clip-rule="evenodd" d="M20.9502 10.0898C20.9502 15.6127 16.473 20.0898 10.9502 20.0898C5.42735 20.0898 0.950195 15.6127 0.950195 10.0898C0.950195 4.567 5.42735 0.0898438 10.9502 0.0898438C16.473 0.0898438 20.9502 4.567 20.9502 10.0898ZM11.3085 7.47228C10.3359 7.87684 8.39198 8.71417 5.47677 9.98428C5.00339 10.1725 4.75541 10.3567 4.73284 10.5368C4.69468 10.8411 5.07579 10.9609 5.59476 11.1241C5.66535 11.1463 5.73849 11.1693 5.81348 11.1937C6.32406 11.3597 7.01088 11.5538 7.36794 11.5615C7.69181 11.5685 8.0533 11.435 8.4524 11.161C11.1762 9.32234 12.5822 8.39302 12.6705 8.37298C12.7327 8.35885 12.819 8.34108 12.8775 8.39305C12.936 8.44502 12.9302 8.54344 12.924 8.56985C12.8863 8.73079 11.3903 10.1216 10.6161 10.8413C10.3748 11.0657 10.2036 11.2249 10.1686 11.2612C10.0902 11.3426 10.0103 11.4197 9.93351 11.4937C9.45917 11.951 9.10345 12.2939 9.95321 12.8538C10.3616 13.1229 10.6883 13.3455 11.0143 13.5675C11.3703 13.8099 11.7254 14.0517 12.1849 14.3529C12.3019 14.4296 12.4137 14.5093 12.5226 14.587C12.9369 14.8823 13.3092 15.1477 13.769 15.1054C14.0362 15.0808 14.3122 14.8295 14.4524 14.0801C14.7837 12.3091 15.4349 8.47189 15.5854 6.89066C15.5986 6.75212 15.582 6.57482 15.5687 6.49699C15.5553 6.41916 15.5275 6.30827 15.4263 6.22618C15.3065 6.12896 15.1216 6.10846 15.0388 6.10991C14.6627 6.11654 14.0857 6.31719 11.3085 7.47228Z" fill="#ADABB2"/>
</g>
<defs>
<clipPath id="clip0_444_936">
<rect width="20" height="20" fill="white" transform="translate(0.950195 0.0898438)"/>
</clipPath>
</defs>
</svg>
