<svg width="64" height="65" viewBox="0 0 64 65" fill="none" xmlns="http://www.w3.org/2000/svg">
<path d="M31.6798 31.377C28.9212 31.377 21.2469 38.3251 21.2469 39.0477V58.2592C21.2469 58.9818 28.9248 63.7337 31.6798 63.7337C34.4349 63.7337 42.1118 58.9818 42.1118 58.2592V39.0477C42.1118 38.3251 34.434 31.377 31.6798 31.377Z" fill="url(#paint0_linear_494_14322)"/>
<g style="mix-blend-mode:multiply">
<path d="M31.6798 62.0106C34.434 62.0106 42.1118 57.2596 42.1118 56.5361V58.2589C42.1118 58.9815 34.434 63.7334 31.6798 63.7334C28.9257 63.7334 21.2469 58.9815 21.2469 58.2589V56.5361C21.2469 57.2641 28.9248 62.0106 31.6798 62.0106Z" fill="#A2B2E7"/>
</g>
<path d="M53.0724 12.3156C52.6171 12.3156 52.1804 12.4964 51.8583 12.8183C51.5362 13.1402 51.3552 13.5768 51.355 14.0322C51.3545 14.4799 51.5307 14.9096 51.8453 15.2282C50.369 15.7621 47.7563 16.5852 45.0707 16.9127C44.8402 16.5567 44.7014 16.0949 44.7307 15.4791C44.7957 14.1221 44.7912 12.7677 44.7726 11.7808C45.2837 11.8409 45.7996 11.7186 46.2294 11.4355C46.6591 11.1523 46.975 10.7264 47.1214 10.233C47.2677 9.73962 47.2351 9.21038 47.0293 8.73868C46.8235 8.26698 46.4577 7.88312 45.9964 7.65484C45.5352 7.42656 45.0081 7.36851 44.5083 7.49095C44.0084 7.6134 43.5678 7.90845 43.2643 8.32406C42.9608 8.73967 42.8138 9.24914 42.8492 9.76256C42.8847 10.276 43.1004 10.7604 43.4582 11.1303L38.3263 14.5661L32.6382 6.04644C33.1973 5.81293 33.6582 5.393 33.9426 4.85805C34.227 4.32311 34.3173 3.70618 34.1982 3.11215C34.0791 2.51813 33.758 1.98368 33.2894 1.59969C32.8208 1.21569 32.2336 1.00586 31.6278 1.00586C31.0219 1.00586 30.4348 1.21569 29.9662 1.59969C29.4976 1.98368 29.1764 2.51813 29.0573 3.11215C28.9383 3.70618 29.0286 4.32311 29.313 4.85805C29.5974 5.393 30.0583 5.81293 30.6173 6.04644L24.939 14.5501L19.8276 11.1285C20.176 10.7664 20.3885 10.2951 20.4293 9.7943C20.4701 9.2935 20.3365 8.794 20.0513 8.38036C19.7661 7.96671 19.3466 7.66433 18.8641 7.52441C18.3815 7.38449 17.8654 7.41562 17.4031 7.61254C16.9408 7.80945 16.5608 8.16005 16.3274 8.60498C16.0939 9.04992 16.0214 9.56185 16.1221 10.0541C16.2227 10.5464 16.4904 10.9888 16.8798 11.3063C17.2691 11.6239 17.7563 11.7972 18.2588 11.7968C18.3429 11.7964 18.427 11.7911 18.5106 11.7808C18.4919 12.7677 18.4883 14.1221 18.5524 15.4791C18.5818 16.0967 18.4421 16.563 18.2116 16.9163C15.5295 16.5968 12.9195 15.7674 11.4343 15.2371C11.7122 14.9545 11.8838 14.5844 11.9198 14.1897C11.9557 13.795 11.854 13.4 11.6317 13.0719C11.4095 12.7437 11.0804 12.5026 10.7006 12.3896C10.3207 12.2765 9.91338 12.2985 9.54786 12.4517C9.18233 12.6049 8.88113 12.88 8.69544 13.2301C8.50975 13.5803 8.45101 13.9839 8.52921 14.3725C8.60742 14.761 8.81773 15.1105 9.12443 15.3616C9.43112 15.6126 9.81528 15.7497 10.2116 15.7496C10.2713 15.7469 10.3307 15.7407 10.3896 15.7309L12.6196 28.2008V29.2588C12.6196 29.2588 14.5248 29.1369 30.9768 29.1369H32.2743C48.7254 29.1369 50.6315 29.2588 50.6315 29.2588V28.2008L52.8615 15.7283C52.9304 15.7399 53 15.747 53.0698 15.7496C53.5184 15.7394 53.9452 15.554 54.2588 15.2331C54.5725 14.9123 54.7481 14.4813 54.7481 14.0326C54.7481 13.5839 54.5725 13.153 54.2588 12.8321C53.9452 12.5112 53.5184 12.3258 53.0698 12.3156H53.0724Z" fill="url(#paint1_linear_494_14322)"/>
<g style="mix-blend-mode:overlay">
<path d="M32.7201 6.04785C32.6907 6.0612 32.6694 6.09858 32.64 6.11103L39.1023 15.7777L43.8551 11.5063C43.4751 11.1139 43.6193 11.4129 43.6193 10.8247C43.619 10.4044 43.7403 9.99292 43.9686 9.63996C44.1969 9.287 44.5223 9.00758 44.9058 8.83538C45.2892 8.66317 45.7143 8.60553 46.1297 8.6694C46.5452 8.73326 46.9333 8.91591 47.2473 9.19534C47.1825 8.86222 47.0409 8.54883 46.8336 8.2801C46.6264 8.01138 46.3593 7.79474 46.0536 7.64743C45.7479 7.50012 45.412 7.42622 45.0727 7.43159C44.7334 7.43696 44.4 7.52147 44.0991 7.67838C43.7982 7.8353 43.5381 8.06029 43.3395 8.33544C43.1408 8.6106 43.0092 8.92832 42.955 9.26332C42.9008 9.59831 42.9255 9.94133 43.0273 10.2651C43.129 10.5888 43.3049 10.8844 43.541 11.1281L38.4091 14.5639L32.7201 6.04785Z" fill="white"/>
<path d="M29.7836 4.83881C29.7825 4.32124 29.9347 3.81494 30.221 3.38375C30.5072 2.95256 30.9148 2.61579 31.3922 2.41591C31.8696 2.21604 32.3955 2.162 32.9036 2.26063C33.4117 2.35925 33.8792 2.60611 34.2472 2.97008C34.1467 2.57937 33.9573 2.21715 33.6938 1.91166C33.4303 1.60617 33.0999 1.36566 32.7282 1.20887C32.3564 1.05208 31.9535 0.983262 31.5509 1.00777C31.1482 1.03227 30.7566 1.14944 30.4066 1.35015C30.0567 1.55086 29.7578 1.82968 29.5333 2.16487C29.3088 2.50006 29.1648 2.88256 29.1124 3.28257C29.06 3.68258 29.1007 4.08929 29.2313 4.47098C29.362 4.85267 29.579 5.19904 29.8655 5.48308C29.8117 5.27251 29.7842 5.05612 29.7836 4.83881Z" fill="white"/>
<path d="M45.5041 16.8655C45.4921 17.3098 45.6106 17.7479 45.845 18.1255C48.5306 17.7972 51.1433 16.9687 52.6196 16.4419C52.314 16.1349 52.136 15.7236 52.1214 15.2908C52.1067 14.8579 52.2565 14.4356 52.5406 14.1086C52.8247 13.7817 53.222 13.5745 53.6527 13.5286C54.0834 13.4827 54.5155 13.6015 54.8621 13.8613C54.8173 13.4235 54.6063 13.0196 54.2724 12.7329C53.9386 12.4462 53.5074 12.2986 53.0679 12.3205C52.6284 12.3424 52.2141 12.5322 51.9105 12.8507C51.6068 13.1692 51.437 13.5921 51.436 14.0321C51.4352 14.4799 51.6115 14.9098 51.9264 15.2281C50.5159 15.7371 48.0643 16.514 45.5041 16.8655Z" fill="white"/>
<path d="M19.3267 16.6869C19.2626 15.3316 19.2662 13.9754 19.2849 12.9894C19.2021 12.9983 18.726 11.8095 18.5801 11.7783C18.5801 12.5525 18.5925 14.6028 18.6335 15.4766C18.6619 16.0942 18.5231 16.5605 18.2926 16.9138C16.2032 16.6619 14.1601 16.1067 12.6571 15.6217C12.587 15.9328 12.431 16.218 12.2068 16.4448C13.6893 16.9787 16.3002 17.801 18.9858 18.1249C19.2199 17.7752 19.3596 17.3098 19.3267 16.6869Z" fill="white"/>
<path d="M20.6036 12.3424L25.7141 15.764L30.8433 7.93306C31.1993 7.11527 30.9679 6.36599 30.6992 6.04297L25.0218 14.5511L19.9103 11.1295C19.8125 11.3164 19.9023 11.5851 20.6036 12.3424Z" fill="white"/>
<path d="M13.4588 29.2344L11.2136 16.9435C11.154 16.9497 11.0721 16.9622 11.0107 16.9622C10.9372 16.9616 10.864 16.9524 10.7927 16.9346L12.8875 28.2022V29.2602C12.8875 29.2602 12.9347 29.2513 13.4588 29.2344Z" fill="white"/>
<path d="M9.27106 15.2442C9.27106 15.0188 9.31546 14.7956 9.40173 14.5873C9.48799 14.379 9.61443 14.1898 9.77383 14.0304C9.93323 13.871 10.1225 13.7446 10.3307 13.6583C10.539 13.572 10.7622 13.5276 10.9876 13.5276C11.353 13.5271 11.7087 13.6444 12.0021 13.8622C11.9739 13.5773 11.8749 13.3039 11.7141 13.067C11.5533 12.8301 11.3358 12.6371 11.0814 12.5058C10.827 12.3744 10.5437 12.3088 10.2574 12.3148C9.97117 12.3209 9.69096 12.3985 9.44234 12.5405C9.19372 12.6826 8.98457 12.8845 8.83395 13.1281C8.68333 13.3716 8.59602 13.6489 8.57997 13.9348C8.56392 14.2207 8.61964 14.506 8.74205 14.7649C8.86447 15.0237 9.04969 15.2479 9.28085 15.4168C9.27443 15.3595 9.27117 15.3019 9.27106 15.2442Z" fill="white"/>
<path d="M16.8964 11.2455C16.8692 11.1077 16.8555 10.9677 16.8555 10.8273C16.8552 10.4069 16.9765 9.99548 17.2048 9.64252C17.4331 9.28956 17.7585 9.01014 18.142 8.83794C18.5254 8.66573 18.9505 8.60809 19.3659 8.67196C19.7814 8.73583 20.1695 8.91847 20.4835 9.1979C20.4176 8.85778 20.2715 8.53828 20.0575 8.26586C19.8435 7.99344 19.5676 7.77594 19.2527 7.63141C18.9379 7.48687 18.5931 7.41946 18.247 7.43474C17.9009 7.45002 17.5634 7.54757 17.2625 7.71929C16.9616 7.89102 16.706 8.13198 16.5168 8.42221C16.3276 8.71243 16.2103 9.04357 16.1746 9.38817C16.1389 9.73278 16.1858 10.0809 16.3115 10.4038C16.4372 10.7266 16.638 11.0149 16.8973 11.2446L16.8964 11.2455Z" fill="white"/>
</g>
<path d="M26.0762 27.1612C25.6785 25.9465 3.26075 16.9668 3.26075 16.9668C2.00958 15.5911 2.41626 18.2322 2.84073 22.2073C3.2652 26.1823 3.42804 28.0164 4.35885 28.7621C5.28966 29.5078 23.4084 32.6419 24.737 33.0824C26.0656 33.5229 26.474 28.3759 26.0762 27.1612Z" fill="url(#paint2_linear_494_14322)"/>
<path opacity="0.49" d="M25.8582 28.3945C25.4605 27.1789 3.04187 18.1992 3.04187 18.1992C2.75622 17.8851 2.55778 17.7827 2.42519 17.8548C2.3887 16.6588 2.57824 16.2175 3.259 16.965C3.259 16.965 25.6767 25.9447 26.0745 27.1593C26.3121 27.8864 26.2605 30.0212 25.8965 31.5197C26.0522 30.2632 26.0362 28.9364 25.8582 28.3945Z" fill="white"/>
<path d="M26.1297 33.5189C25.5602 32.2855 0.880378 25.3195 0.880378 25.3195C-0.643087 24.1271 0.090171 26.9213 0.987164 31.1847C1.88416 35.4481 2.26146 37.4192 3.36402 38.0011C4.46657 38.5831 23.792 40.2258 25.2968 40.3673C26.8015 40.5088 26.6983 34.7504 26.1297 33.5189Z" fill="url(#paint3_linear_494_14322)"/>
<path opacity="0.49" d="M26.0238 34.9288C25.4551 33.6954 0.775358 26.7295 0.775358 26.7295C0.427418 26.4625 0.19872 26.3949 0.063459 26.5088C-0.105617 25.2042 0.0545594 24.6703 0.883033 25.319C0.883033 25.319 25.5628 32.285 26.1323 33.5183C26.4723 34.2569 26.6458 36.616 26.4082 38.3601C26.4384 36.9337 26.2774 35.4805 26.0238 34.9288Z" fill="white"/>
<path d="M29.4969 41.603C28.7334 40.3571 1.52464 35.8099 1.52464 35.8099C-0.305837 34.8408 0.803836 37.8005 2.24454 42.3576C3.68525 46.9146 4.31083 49.037 5.60649 49.4232C6.90215 49.8094 27.5641 49.6786 29.2656 49.4784C30.967 49.2781 30.2605 42.8488 29.4969 41.603Z" fill="url(#paint4_linear_494_14322)"/>
<path opacity="0.49" d="M29.5236 43.2102C28.7601 41.9644 1.5513 37.4171 1.5513 37.4171C1.13395 37.1964 0.87055 37.1813 0.72817 37.3415C0.404256 35.9177 0.529729 35.2841 1.52461 35.8109C1.52461 35.8109 28.7334 40.3591 29.4969 41.604C29.9543 42.3497 30.3868 44.9508 30.3023 46.9637C30.1937 45.3566 29.8644 43.7664 29.5236 43.2102Z" fill="white"/>
<path d="M37.2834 27.1612C37.6811 25.9465 60.098 16.9668 60.098 16.9668C61.35 15.5911 60.9424 18.2322 60.518 22.2073C60.0935 26.1823 59.9307 28.0164 58.9998 28.7621C58.069 29.5078 39.9503 32.6419 38.6217 33.0824C37.2931 33.5229 36.8847 28.3759 37.2834 27.1612Z" fill="url(#paint5_linear_494_14322)"/>
<path opacity="0.49" d="M37.5005 28.3945C37.8983 27.1789 60.316 18.1992 60.316 18.1992C60.6008 17.8851 60.7992 17.7827 60.9318 17.8548C60.9683 16.6588 60.7788 16.2175 60.098 16.965C60.098 16.965 37.6812 25.9447 37.2834 27.1593C37.0449 27.8864 37.0974 30.0212 37.4614 31.5197C37.3074 30.2632 37.3226 28.9364 37.5005 28.3945Z" fill="white"/>
<path d="M37.23 33.5189C37.7986 32.2855 62.4784 25.3195 62.4784 25.3195C64.0027 24.1271 63.2686 26.9213 62.3725 31.1847C61.4764 35.4481 61.0982 37.4192 59.9947 38.0011C58.8913 38.5831 39.5677 40.2258 38.062 40.3673C36.5563 40.5088 36.6613 34.7504 37.23 33.5189Z" fill="url(#paint6_linear_494_14322)"/>
<path opacity="0.49" d="M37.3349 34.9288C37.9035 33.6954 62.5833 26.7295 62.5833 26.7295C62.9313 26.4625 63.1608 26.3949 63.2952 26.5088C63.4652 25.2042 63.3041 24.6703 62.4756 25.319C62.4756 25.319 37.7959 32.285 37.2272 33.5183C36.8864 34.2569 36.7129 36.616 36.9505 38.3601C36.9202 36.9337 37.0813 35.4805 37.3349 34.9288Z" fill="white"/>
<path d="M33.8618 41.603C34.6253 40.3571 61.8341 35.8099 61.8341 35.8099C63.6646 34.8408 62.5558 37.8005 61.1142 42.3576C59.6726 46.9146 59.0479 49.037 57.7523 49.4232C56.4566 49.8094 35.7955 49.6786 34.0932 49.4784C32.3908 49.2781 33.0983 42.8488 33.8618 41.603Z" fill="url(#paint7_linear_494_14322)"/>
<path opacity="0.49" d="M33.836 43.2102C34.5995 41.9644 61.8074 37.4171 61.8074 37.4171C62.2257 37.1964 62.4882 37.1813 62.6306 37.3415C62.9545 35.9177 62.829 35.2841 61.8297 35.8109C61.8297 35.8109 34.6209 40.3591 33.8574 41.604C33.4 42.3497 32.9675 44.9508 33.052 46.9637C33.1659 45.3566 33.4943 43.7664 33.836 43.2102Z" fill="white"/>
<g style="mix-blend-mode:overlay">
<path d="M9.68303 10.9521C8.4025 10.9521 7.36401 11.9194 7.36401 13.1128C7.36401 14.3061 8.4025 15.2725 9.68303 15.2725C10.9636 15.2725 12.002 14.3043 12.002 13.1128C12.002 11.9212 10.9618 10.9521 9.68303 10.9521Z" fill="white"/>
</g>
<path opacity="0.7" d="M7.56506 15.9555C8.18798 15.257 10.0176 13.1133 10.0176 13.1133C10.0176 13.1133 11.5464 10.2452 11.5846 10.1642C11.5953 10.1411 9.6269 12.8614 9.6269 12.8614L7.56506 15.9555Z" fill="white"/>
<path d="M10.1876 12.5998C9.62345 12.1548 9.72578 10.9188 9.72133 10.5682V10.9028C9.72133 10.8485 9.72133 10.7907 9.72133 10.7782V10.5664C9.71938 10.7152 9.70869 10.8638 9.6893 11.0113C9.6893 11.0113 9.52378 12.2572 9.22567 12.5126C8.55471 13.1017 6.86395 12.9886 7.51178 13.0038C9.70176 13.0509 9.70175 15.1875 9.72133 15.8888V15.5328C9.72133 15.5577 9.72133 15.5791 9.72133 15.5915V15.8861C9.76761 14.2265 9.76227 13.1764 11.6728 13.0385C12.3055 12.9913 10.847 13.1132 10.1876 12.5998Z" fill="white"/>
<path d="M50.9697 29.1453L31.6808 15.7598L12.3856 29.1453L19.9887 51.9421H37.1188L43.3773 51.9349L50.9697 29.1453Z" fill="url(#paint8_linear_494_14322)"/>
<path style="mix-blend-mode:overlay" opacity="0.5" d="M31.6807 22.3105L31.678 22.3132L31.6753 22.3105L31.6735 22.3168L19.7136 30.6131L24.4264 44.7487H28.3089H35.047H38.9296L43.6415 30.6131L31.6807 22.3105Z" fill="url(#paint9_linear_494_14322)"/>
<g style="mix-blend-mode:multiply" opacity="0.24">
<path d="M24.4193 45.0684L19.9824 51.9426H26.2454H37.1107H43.3746L38.9287 45.0684H24.4193Z" fill="black"/>
</g>
<path style="mix-blend-mode:overlay" opacity="0.25" d="M25.5085 45.5889L21.7417 51.4238H27.0578H36.2831H41.5992L37.8262 45.5889H25.5085Z" fill="url(#paint10_linear_494_14322)"/>
<g style="mix-blend-mode:multiply" opacity="0.1">
<path d="M19.7084 30.9315L12.3829 29.1455L19.9807 51.9423L24.4194 45.068L19.7084 30.9315Z" fill="black"/>
</g>
<g style="mix-blend-mode:multiply" opacity="0.23">
<path d="M43.6406 30.9315L50.966 29.1455L43.3674 51.9423L38.9287 45.068L43.6406 30.9315Z" fill="black"/>
</g>
<path style="mix-blend-mode:overlay" d="M43.7804 31.9626L50.3201 30.3662L43.5365 50.7194L39.5748 44.582L43.7804 31.9626Z" fill="url(#paint11_linear_494_14322)"/>
<path style="mix-blend-mode:overlay" d="M19.6647 31.8669L13.1241 30.2705L19.9077 50.6237L23.8703 44.4863L19.6647 31.8669Z" fill="url(#paint12_linear_494_14322)"/>
<path style="mix-blend-mode:overlay" d="M31.6772 15.7568L31.67 15.7613L31.6665 15.7568L31.6647 15.7648L12.3776 29.1468L19.7083 30.9328L31.6736 22.6311L31.6772 15.7568Z" fill="url(#paint13_linear_494_14322)"/>
<path style="mix-blend-mode:overlay" d="M31.67 15.7568L31.6772 15.7613L31.6807 15.7568L31.6825 15.7648L50.9714 29.1468L43.6406 30.9328L31.6736 22.6311L31.67 15.7568Z" fill="url(#paint14_linear_494_14322)"/>
<path style="mix-blend-mode:overlay" d="M31.9922 16.2988L31.9975 16.3015L32.0011 16.2988L32.0038 16.3059L49.9107 28.7304L43.4413 30.1293L32.3303 22.4221L31.9922 16.2988Z" fill="url(#paint15_linear_494_14322)"/>
<path style="mix-blend-mode:overlay" d="M31.3372 16.2988L31.33 16.3015L31.3283 16.2988L31.3247 16.3059L13.4169 28.7304L19.888 30.1293L30.9981 22.4221L31.3372 16.2988Z" fill="url(#paint16_linear_494_14322)"/>
<path d="M12.3776 29.1466L19.7083 30.5375L31.3372 22.3337L31.6825 15.7646L31.9922 22.42L43.7403 30.6229L50.9714 29.1466L43.6344 30.9326L31.8133 22.9984L20.0572 31.1799L22.911 40.5432L19.5428 31.3277L12.3776 29.1466Z" fill="white"/>
<g style="mix-blend-mode:overlay" opacity="0.53">
<path style="mix-blend-mode:overlay" opacity="0.53" d="M19.9824 32.6125L22.3913 39.8392L33.3127 23.9647L31.3888 22.6299L31.3853 22.6326L31.3835 22.6299L31.3817 22.6343L22.8051 28.5858L19.9824 32.6125Z" fill="url(#paint17_linear_494_14322)"/>
<path style="mix-blend-mode:overlay" opacity="0.53" d="M34.7552 45.0689H37.4685L37.8093 27.0881L33.4809 24.083L29.0449 45.0689H34.7552Z" fill="url(#paint18_linear_494_14322)"/>
</g>
<path style="mix-blend-mode:overlay" opacity="0.4" d="M43.6344 30.9311C43.6344 30.9311 34.5755 30.9899 29.885 34.5743C25.1945 38.1587 23.4263 42.0902 23.4263 42.0902L19.7084 31.2337L31.3373 22.335L43.6344 30.9311Z" fill="url(#paint19_linear_494_14322)"/>
<path opacity="0.7" d="M14.8888 25.0518C15.6897 26.7132 18.6859 31.3699 18.6859 31.3699C18.6859 31.3699 23.1922 36.6299 23.364 36.8052C23.5357 36.9805 19.5375 30.6597 19.5375 30.6597L14.8888 25.0518Z" fill="white"/>
<path opacity="0.7" d="M14.9199 36.4855C16.1328 35.1196 19.7083 30.9318 19.7083 30.9318C19.7083 30.9318 22.6903 25.3345 22.7615 25.1761C22.7829 25.1272 18.9502 30.4433 18.9502 30.4433L14.9199 36.4855Z" fill="white"/>
<path d="M20.0385 29.9292C18.9341 29.0695 19.137 26.6473 19.1255 25.9639V26.6179C19.1255 26.5129 19.1175 26.4017 19.1175 26.3768V25.9639C19.1134 26.2539 19.0941 26.5435 19.0596 26.8315C19.0596 26.8315 18.733 29.2591 18.1528 29.7681C16.8412 30.9142 13.5388 30.698 14.8069 30.7247C19.0783 30.8137 19.0783 34.9961 19.1183 36.3585V35.668C19.1183 35.7187 19.1255 35.7569 19.1264 35.7863V36.3532C19.2153 33.1122 19.2056 31.062 22.9377 30.787C24.1719 30.6944 21.3279 30.9312 20.0385 29.9292Z" fill="white"/>
<defs>
<linearGradient id="paint0_linear_494_14322" x1="31.6798" y1="62.8304" x2="31.6798" y2="52.8906" gradientUnits="userSpaceOnUse">
<stop stop-color="#D6FFD4"/>
<stop offset="1" stop-color="#A2B2E7"/>
</linearGradient>
<linearGradient id="paint1_linear_494_14322" x1="31.6425" y1="0.541677" x2="31.6425" y2="35.245" gradientUnits="userSpaceOnUse">
<stop stop-color="#D6FFD4"/>
<stop offset="1" stop-color="#A2B2E7"/>
</linearGradient>
<linearGradient id="paint2_linear_494_14322" x1="1.65816" y1="23.3429" x2="26.57" y2="26.4017" gradientUnits="userSpaceOnUse">
<stop stop-color="#D6FFD4"/>
<stop offset="1" stop-color="#A2B2E7"/>
</linearGradient>
<linearGradient id="paint3_linear_494_14322" x1="0.20221" y1="33.0862" x2="26.4043" y2="32.3589" gradientUnits="userSpaceOnUse">
<stop stop-color="#D6FFD4"/>
<stop offset="1" stop-color="#A2B2E7"/>
</linearGradient>
<linearGradient id="paint4_linear_494_14322" x1="2.00317" y1="44.8055" x2="29.5265" y2="40.1651" gradientUnits="userSpaceOnUse">
<stop stop-color="#D6FFD4"/>
<stop offset="1" stop-color="#A2B2E7"/>
</linearGradient>
<linearGradient id="paint5_linear_494_14322" x1="61.4837" y1="22.7336" x2="36.6357" y2="25.7455" gradientUnits="userSpaceOnUse">
<stop stop-color="#D6FFD4"/>
<stop offset="1" stop-color="#A2B2E7"/>
</linearGradient>
<linearGradient id="paint6_linear_494_14322" x1="62.8389" y1="32.8456" x2="36.6258" y2="32.0592" gradientUnits="userSpaceOnUse">
<stop stop-color="#D6FFD4"/>
<stop offset="1" stop-color="#A2B2E7"/>
</linearGradient>
<linearGradient id="paint7_linear_494_14322" x1="60.4263" y1="44.3744" x2="32.7945" y2="39.6295" gradientUnits="userSpaceOnUse">
<stop stop-color="#D6FFD4"/>
<stop offset="1" stop-color="#A2B2E7"/>
</linearGradient>
<linearGradient id="paint8_linear_494_14322" x1="12.3812" y1="33.85" x2="50.9697" y2="33.85" gradientUnits="userSpaceOnUse">
<stop stop-color="#D6FFD4"/>
<stop offset="1" stop-color="#A2B2E7"/>
</linearGradient>
<linearGradient id="paint9_linear_494_14322" x1="52.0321" y1="33.5292" x2="52.2038" y2="33.5292" gradientUnits="userSpaceOnUse">
<stop stop-color="white"/>
<stop offset="1" stop-color="white"/>
</linearGradient>
<linearGradient id="paint10_linear_494_14322" x1="52.0312" y1="48.5059" x2="52.203" y2="48.5059" gradientUnits="userSpaceOnUse">
<stop stop-color="white"/>
<stop offset="1" stop-color="white"/>
</linearGradient>
<linearGradient id="paint11_linear_494_14322" x1="52.0322" y1="40.5428" x2="52.2039" y2="40.5428" gradientUnits="userSpaceOnUse">
<stop stop-color="white"/>
<stop offset="1" stop-color="white"/>
</linearGradient>
<linearGradient id="paint12_linear_494_14322" x1="52.0303" y1="40.4471" x2="52.2021" y2="40.4471" gradientUnits="userSpaceOnUse">
<stop stop-color="white"/>
<stop offset="1" stop-color="white"/>
</linearGradient>
<linearGradient id="paint13_linear_494_14322" x1="52.033" y1="23.3448" x2="52.2039" y2="23.3448" gradientUnits="userSpaceOnUse">
<stop stop-color="white"/>
<stop offset="1" stop-color="white"/>
</linearGradient>
<linearGradient id="paint14_linear_494_14322" x1="-885.761" y1="23.3448" x2="-885.933" y2="23.3448" gradientUnits="userSpaceOnUse">
<stop stop-color="white"/>
<stop offset="1" stop-color="white"/>
</linearGradient>
<linearGradient id="paint15_linear_494_14322" x1="-885.717" y1="23.2132" x2="-885.888" y2="23.2132" gradientUnits="userSpaceOnUse">
<stop stop-color="white"/>
<stop offset="1" stop-color="white"/>
</linearGradient>
<linearGradient id="paint16_linear_494_14322" x1="41.7558" y1="23.2132" x2="41.9276" y2="23.2132" gradientUnits="userSpaceOnUse">
<stop stop-color="white"/>
<stop offset="1" stop-color="white"/>
</linearGradient>
<linearGradient id="paint17_linear_494_14322" x1="52.0322" y1="31.235" x2="52.2039" y2="31.235" gradientUnits="userSpaceOnUse">
<stop stop-color="white"/>
<stop offset="1" stop-color="white"/>
</linearGradient>
<linearGradient id="paint18_linear_494_14322" x1="52.0322" y1="34.5764" x2="52.2039" y2="34.5764" gradientUnits="userSpaceOnUse">
<stop stop-color="white"/>
<stop offset="1" stop-color="white"/>
</linearGradient>
<linearGradient id="paint19_linear_494_14322" x1="52.0322" y1="32.2117" x2="52.2039" y2="32.2117" gradientUnits="userSpaceOnUse">
<stop stop-color="white"/>
<stop offset="1" stop-color="white"/>
</linearGradient>
</defs>
</svg>
