<svg width="21" height="21" viewBox="0 0 21 21" fill="none" xmlns="http://www.w3.org/2000/svg">
<g clip-path="url(#clip0_444_932)">
<path d="M7.24199 18.2154C14.7873 18.2154 18.9154 11.9627 18.9154 6.542C18.9154 6.36622 18.9115 6.18654 18.9037 6.01075C19.7068 5.43001 20.3998 4.71067 20.9502 3.88654C20.2023 4.21929 19.4082 4.43661 18.5951 4.53107C19.4513 4.01788 20.0923 3.21168 20.3994 2.26193C19.594 2.73925 18.7132 3.07596 17.7947 3.25763C17.1759 2.60009 16.3577 2.16472 15.4666 2.01883C14.5755 1.87294 13.6612 2.02466 12.865 2.45053C12.0688 2.87641 11.435 3.55271 11.0617 4.37488C10.6884 5.19705 10.5964 6.1193 10.7998 6.99904C9.16894 6.9172 7.57348 6.49354 6.11685 5.75554C4.66022 5.01753 3.37494 3.98165 2.34434 2.71505C1.82053 3.61816 1.66024 4.68683 1.89605 5.70386C2.13187 6.7209 2.74608 7.60999 3.61387 8.19044C2.96239 8.16976 2.32518 7.99435 1.75488 7.67872V7.7295C1.7543 8.67725 2.08194 9.59594 2.68212 10.3294C3.2823 11.0629 4.11796 11.5659 5.04707 11.7529C4.44357 11.9181 3.81018 11.9421 3.1959 11.8233C3.45807 12.6383 3.96817 13.3512 4.655 13.8624C5.34184 14.3736 6.17113 14.6576 7.02715 14.6748C5.57388 15.8164 3.77867 16.4356 1.93066 16.4326C1.60293 16.4321 1.27553 16.412 0.950195 16.3725C2.82758 17.5769 5.01147 18.2166 7.24199 18.2154Z" fill="#ADABB2"/>
</g>
<defs>
<clipPath id="clip0_444_932">
<rect width="20" height="20" fill="white" transform="translate(0.950195 0.0898438)"/>
</clipPath>
</defs>
</svg>
