<svg width="18" height="16" viewBox="0 0 18 16" fill="none" xmlns="http://www.w3.org/2000/svg">
<path id="Vector" d="M13.3643 11.268L17.6338 8.7939C17.8601 8.66247 18 8.41873 18 8.15717V3.20893C18 2.94735 17.8601 2.70364 17.6338 2.57221L13.3643 0.0980892C13.1379 -0.033334 12.857 -0.0320572 12.6319 0.0980892L8.36234 2.57221C8.13606 2.70364 7.99618 2.94735 7.99618 3.20893V12.0515L5.0019 13.7855L2.00763 12.0515V8.58212L5.0019 6.84805L6.9765 7.99255V5.66518L5.36806 4.73245C5.25743 4.66865 5.13035 4.6342 5.0019 4.6342C4.87345 4.6342 4.74637 4.66865 4.63575 4.73245L0.366182 7.20657C0.139863 7.338 0 7.58174 0 7.84331V12.7916C0 13.0531 0.139863 13.2968 0.366182 13.4282L4.63575 15.9024C4.86202 16.0325 5.14178 16.0325 5.36806 15.9024L9.63762 13.4282C9.86397 13.2968 10.0038 13.0531 10.0038 12.7916V3.94773L10.0572 3.9171L12.9968 2.21367L15.9911 3.94773V7.41713L12.9968 9.15119L11.0247 8.00914V10.3366L12.6306 11.2668C12.857 11.3969 13.1379 11.3969 13.363 11.2668L13.3643 11.268Z" fill="url(#paint0_linear_163_24547)"/>
<defs>
<linearGradient id="paint0_linear_163_24547" x1="-0.0584882" y1="13.2764" x2="17.2578" y2="3.26108" gradientUnits="userSpaceOnUse">
<stop stop-color="#A726C1"/>
<stop offset="0.88" stop-color="#803BDF"/>
<stop offset="1" stop-color="#7B3FE4"/>
</linearGradient>
</defs>
</svg>
