<svg width="1370" height="769" viewBox="0 0 1370 769" fill="none" xmlns="http://www.w3.org/2000/svg">
<g filter="url(#filter0_d_1_443)">
<ellipse cx="1282.4" cy="154.375" rx="38.764" ry="41.2311" fill="url(#paint0_linear_1_443)" shape-rendering="crispEdges"/>
</g>
<g filter="url(#filter1_bf_1_443)">
<ellipse cx="1281.15" cy="151.923" rx="35.8305" ry="38.7795" fill="url(#paint1_angular_1_443)"/>
<ellipse cx="1281.15" cy="151.923" rx="35.8305" ry="38.7795" fill="#9847FF" fill-opacity="0.2"/>
</g>
<g filter="url(#filter2_bf_1_443)">
<ellipse rx="35.0749" ry="36.1728" transform="matrix(-0.852148 -0.5233 0.477056 -0.878873 1284.97 157.941)" fill="url(#paint2_angular_1_443)"/>
</g>
<g filter="url(#filter3_bf_1_443)">
<ellipse rx="35.0749" ry="36.1728" transform="matrix(-0.852148 -0.5233 0.477056 -0.878873 1281.15 157.941)" fill="url(#paint3_angular_1_443)"/>
</g>
<g filter="url(#filter4_i_1_443)">
<ellipse cx="1282.37" cy="154.233" rx="38.764" ry="41.2311" fill="url(#paint4_linear_1_443)" fill-opacity="0.5"/>
</g>
<path d="M1271.77 154.467C1271.66 156.427 1273.05 158.108 1274.87 158.223H1275.05C1276.84 158.22 1278.3 156.671 1278.33 154.738C1278.37 152.805 1276.96 151.199 1275.17 151.125C1273.38 151.052 1271.86 152.539 1271.76 154.469L1271.77 154.467Z" fill="white"/>
<path d="M1259.5 153.567C1258.92 153.532 1258.42 154.015 1258.38 154.647C1258.35 155.279 1258.8 155.82 1259.38 155.856C1259.97 155.892 1260.47 155.409 1260.5 154.778C1260.52 154.474 1260.42 154.175 1260.24 153.948C1260.05 153.721 1259.78 153.584 1259.5 153.567Z" fill="white"/>
<path d="M1271.56 133.864C1272.08 133.575 1272.29 132.886 1272.02 132.322C1271.76 131.758 1271.12 131.533 1270.59 131.817C1270.07 132.102 1269.86 132.79 1270.12 133.356C1270.25 133.63 1270.47 133.838 1270.74 133.933C1271.01 134.029 1271.31 134.004 1271.56 133.864Z" fill="white"/>
<path d="M1274.9 140.146C1275.71 139.705 1276.03 138.639 1275.62 137.764C1275.22 136.89 1274.23 136.539 1273.42 136.979C1272.61 137.42 1272.28 138.485 1272.69 139.36C1272.89 139.78 1273.23 140.099 1273.64 140.246C1274.06 140.394 1274.51 140.357 1274.9 140.146Z" fill="white"/>
<path d="M1263.66 144.465C1264.12 144.79 1264.72 144.785 1265.17 144.453C1265.62 144.121 1265.85 143.527 1265.73 142.948C1265.62 142.37 1265.2 141.92 1264.66 141.81C1264.12 141.7 1263.58 141.95 1263.28 142.444C1262.87 143.118 1263.04 144.023 1263.66 144.465V144.465Z" fill="white"/>
<path d="M1265.67 152.921C1264.76 152.866 1263.98 153.613 1263.93 154.591C1263.88 155.568 1264.57 156.405 1265.48 156.461C1266.38 156.517 1267.16 155.77 1267.21 154.793C1267.26 153.815 1266.57 152.977 1265.67 152.921V152.921Z" fill="white"/>
<path d="M1263.84 164.841C1263.18 165.205 1262.91 166.083 1263.25 166.803C1263.58 167.523 1264.4 167.812 1265.06 167.449C1265.73 167.085 1266 166.207 1265.66 165.487C1265.5 165.141 1265.22 164.878 1264.88 164.757C1264.54 164.636 1264.16 164.666 1263.84 164.841V164.841Z" fill="white"/>
<path d="M1270.23 149.257C1271.12 149.889 1272.32 149.619 1272.91 148.655C1273.49 147.691 1273.24 146.398 1272.35 145.766C1271.46 145.134 1270.26 145.403 1269.67 146.367C1269.39 146.829 1269.29 147.394 1269.4 147.936C1269.5 148.479 1269.8 148.954 1270.23 149.257V149.257Z" fill="white"/>
<path d="M1290.49 140.006C1291.25 140.541 1292.27 140.31 1292.77 139.49C1293.27 138.669 1293.05 137.569 1292.29 137.033C1291.53 136.497 1290.51 136.728 1290.02 137.548C1289.78 137.942 1289.69 138.423 1289.78 138.884C1289.87 139.345 1290.13 139.749 1290.49 140.006V140.006Z" fill="white"/>
<path d="M1293.86 133.744C1294.22 133.999 1294.69 133.994 1295.05 133.733C1295.4 133.471 1295.58 133.004 1295.49 132.549C1295.4 132.094 1295.07 131.742 1294.65 131.655C1294.22 131.569 1293.79 131.767 1293.56 132.156C1293.24 132.686 1293.37 133.397 1293.86 133.744V133.744Z" fill="white"/>
<path d="M1290.75 151.088C1288.94 150.975 1287.38 152.471 1287.28 154.429C1287.17 156.387 1288.56 158.065 1290.37 158.178C1290.44 158.178 1290.5 158.178 1290.57 158.178C1291.86 158.177 1293.04 157.355 1293.57 156.078C1294.1 154.801 1293.88 153.307 1293.02 152.263C1292.44 151.56 1291.62 151.136 1290.75 151.088Z" fill="white"/>
<path d="M1275.98 149.011C1276.53 150.212 1277.67 150.968 1278.92 150.964C1280.06 150.964 1281.12 150.324 1281.72 149.272C1282.32 148.221 1282.37 146.909 1281.86 145.808C1281.29 144.613 1280.16 143.862 1278.91 143.868C1277.77 143.87 1276.72 144.509 1276.12 145.556C1275.52 146.604 1275.47 147.911 1275.98 149.011V149.011Z" fill="white"/>
<path d="M1301.77 144.462C1302.44 144.098 1302.71 143.22 1302.37 142.5C1302.03 141.78 1301.22 141.49 1300.55 141.853C1299.89 142.215 1299.62 143.093 1299.95 143.814C1300.29 144.534 1301.1 144.824 1301.77 144.462V144.462Z" fill="white"/>
<path d="M1293.43 145.593C1292.48 146.111 1292.09 147.366 1292.57 148.396C1293.05 149.425 1294.22 149.839 1295.17 149.321C1296.12 148.802 1296.51 147.547 1296.03 146.518C1295.8 146.023 1295.39 145.647 1294.91 145.474C1294.42 145.3 1293.89 145.343 1293.43 145.593Z" fill="white"/>
<path d="M1282.69 133.209C1283.23 133.242 1283.74 132.917 1283.98 132.385C1284.22 131.853 1284.14 131.218 1283.77 130.778C1283.41 130.337 1282.83 130.177 1282.32 130.372C1281.8 130.567 1281.44 131.079 1281.41 131.669C1281.37 132.474 1281.94 133.163 1282.69 133.209Z" fill="white"/>
<path d="M1282.67 142.402C1283.74 142.466 1284.65 141.586 1284.71 140.435C1284.77 139.285 1283.95 138.299 1282.89 138.234C1281.82 138.168 1280.91 139.047 1280.85 140.198C1280.79 141.35 1281.6 142.336 1282.67 142.402Z" fill="white"/>
<path d="M1272.19 163.708C1272.89 163.328 1273.31 162.531 1273.25 161.69C1273.19 160.848 1272.67 160.126 1271.93 159.862C1271.18 159.598 1270.36 159.843 1269.85 160.483C1269.34 161.123 1269.24 162.031 1269.59 162.785C1270.07 163.814 1271.24 164.227 1272.19 163.708Z" fill="white"/>
<path d="M1283.92 145.447C1283.09 146.806 1283.23 148.596 1284.25 149.793C1285.27 150.99 1286.91 151.288 1288.23 150.517C1289.56 149.745 1290.23 148.101 1289.86 146.526C1289.49 144.95 1288.18 143.845 1286.68 143.843C1285.56 143.842 1284.53 144.445 1283.92 145.447V145.447Z" fill="white"/>
<path d="M1289.64 160.292C1288.91 158.731 1287.24 157.976 1285.69 158.511C1284.15 159.047 1283.2 160.714 1283.45 162.441C1283.7 164.168 1285.08 165.44 1286.7 165.44C1287.22 165.436 1287.72 165.304 1288.18 165.052C1289.8 164.169 1290.45 162.041 1289.64 160.292V160.292Z" fill="white"/>
<path d="M1295.39 160.044C1294.49 159.411 1293.3 159.68 1292.71 160.643C1292.12 161.607 1292.37 162.901 1293.26 163.534C1294.16 164.166 1295.36 163.898 1295.94 162.934C1296.53 161.97 1296.28 160.678 1295.39 160.044Z" fill="white"/>
<path d="M1301.69 154.711C1301.74 153.734 1301.04 152.897 1300.14 152.841C1299.23 152.786 1298.46 153.533 1298.4 154.51C1298.35 155.488 1299.05 156.325 1299.95 156.381C1300.86 156.437 1301.63 155.689 1301.69 154.711Z" fill="white"/>
<path d="M1306.24 153.449C1305.81 153.422 1305.41 153.677 1305.22 154.095C1305.03 154.514 1305.1 155.012 1305.38 155.359C1305.67 155.706 1306.12 155.832 1306.53 155.68C1306.93 155.527 1307.21 155.125 1307.24 154.661C1307.27 154.028 1306.82 153.486 1306.24 153.449V153.449Z" fill="white"/>
<path d="M1301.95 164.835C1301.33 164.393 1300.49 164.582 1300.08 165.257C1299.67 165.931 1299.84 166.836 1300.47 167.279C1301.09 167.721 1301.93 167.533 1302.34 166.859C1302.54 166.535 1302.61 166.139 1302.53 165.76C1302.46 165.38 1302.25 165.048 1301.95 164.835V164.835Z" fill="white"/>
<path d="M1271.75 175.557C1271.26 175.209 1270.6 175.357 1270.28 175.887C1269.96 176.417 1270.09 177.129 1270.59 177.477C1271.08 177.825 1271.74 177.678 1272.06 177.148C1272.21 176.893 1272.27 176.582 1272.21 176.284C1272.15 175.986 1271.99 175.724 1271.75 175.557V175.557Z" fill="white"/>
<path d="M1294.06 175.436C1293.67 175.645 1293.44 176.084 1293.47 176.547C1293.51 177.01 1293.79 177.407 1294.2 177.553C1294.61 177.698 1295.06 177.563 1295.34 177.211C1295.62 176.859 1295.68 176.359 1295.49 175.945C1295.36 175.672 1295.14 175.466 1294.87 175.37C1294.6 175.275 1294.31 175.299 1294.06 175.436Z" fill="white"/>
<path d="M1281.7 163.848C1282.52 162.489 1282.39 160.698 1281.37 159.501C1280.35 158.304 1278.71 158.007 1277.38 158.779C1276.06 159.551 1275.39 161.195 1275.76 162.771C1276.12 164.346 1277.44 165.451 1278.94 165.452C1280.05 165.456 1281.09 164.852 1281.7 163.848Z" fill="white"/>
<path d="M1275.12 169.297C1274.36 168.761 1273.35 168.99 1272.85 169.81C1272.35 170.629 1272.57 171.727 1273.32 172.264C1274.08 172.8 1275.1 172.571 1275.6 171.753C1276.1 170.933 1275.88 169.834 1275.12 169.297V169.297Z" fill="white"/>
<path d="M1282.79 176.092C1282.05 176.046 1281.41 176.662 1281.37 177.467C1281.32 178.272 1281.89 178.963 1282.64 179.009C1283.39 179.055 1284.03 178.44 1284.07 177.634C1284.09 177.247 1283.97 176.867 1283.73 176.578C1283.49 176.289 1283.15 176.114 1282.79 176.092Z" fill="white"/>
<path d="M1282.81 166.901C1282.03 166.85 1281.29 167.312 1280.95 168.072C1280.61 168.832 1280.73 169.74 1281.25 170.371C1281.77 171.003 1282.59 171.234 1283.33 170.956C1284.07 170.678 1284.58 169.946 1284.62 169.103C1284.68 167.955 1283.87 166.97 1282.81 166.901Z" fill="white"/>
<path d="M1290.72 169.155C1290.13 169.48 1289.77 170.159 1289.82 170.875C1289.87 171.591 1290.32 172.204 1290.95 172.426C1291.59 172.648 1292.28 172.437 1292.71 171.891C1293.15 171.344 1293.23 170.571 1292.93 169.931C1292.73 169.512 1292.39 169.194 1291.97 169.049C1291.56 168.903 1291.11 168.941 1290.72 169.155V169.155Z" fill="white"/>
<g filter="url(#filter5_d_1_443)">
<ellipse cx="87.4021" cy="678.375" rx="38.764" ry="41.2311" fill="url(#paint5_linear_1_443)" shape-rendering="crispEdges"/>
</g>
<g filter="url(#filter6_bf_1_443)">
<ellipse cx="86.1453" cy="675.923" rx="35.8305" ry="38.7795" fill="url(#paint6_angular_1_443)"/>
<ellipse cx="86.1453" cy="675.923" rx="35.8305" ry="38.7795" fill="#9847FF" fill-opacity="0.2"/>
</g>
<g filter="url(#filter7_bf_1_443)">
<ellipse rx="35.0749" ry="36.1728" transform="matrix(-0.852148 -0.5233 0.477056 -0.878873 89.9686 681.941)" fill="url(#paint7_angular_1_443)"/>
</g>
<g filter="url(#filter8_bf_1_443)">
<ellipse rx="35.0749" ry="36.1728" transform="matrix(-0.852148 -0.5233 0.477056 -0.878873 86.1454 681.941)" fill="url(#paint8_angular_1_443)"/>
</g>
<g filter="url(#filter9_i_1_443)">
<ellipse cx="87.3681" cy="678.233" rx="38.764" ry="41.2311" fill="url(#paint9_linear_1_443)" fill-opacity="0.5"/>
</g>
<path d="M70.7686 678.68L86.6482 688.489V671.138V651.146L70.7686 678.68Z" fill="#BF98FF"/>
<path d="M86.6486 651.146V671.138V688.489L102.528 678.68L86.6486 651.146Z" fill="#A56FFF"/>
<path d="M86.6529 671.14L102.528 678.681L86.6529 688.487V671.14Z" fill="#3A0295"/>
<path d="M86.6482 671.138L86.6529 671.14V688.484L86.6482 688.489L70.7686 678.68L86.6482 671.138Z" fill="#5705DB"/>
<path d="M70.7686 681.827L86.6482 705.211V691.631L70.7686 681.827Z" fill="#BF98FF"/>
<path d="M86.6486 691.631V705.211L102.538 681.827L86.6486 691.631Z" fill="#A56FFF"/>
<g filter="url(#filter10_d_1_443)">
<ellipse cx="179.402" cy="91.58" rx="38.764" ry="41.2311" fill="url(#paint10_linear_1_443)" shape-rendering="crispEdges"/>
</g>
<g filter="url(#filter11_bf_1_443)">
<ellipse cx="178.145" cy="89.1284" rx="35.8305" ry="38.7795" fill="url(#paint11_angular_1_443)"/>
<ellipse cx="178.145" cy="89.1284" rx="35.8305" ry="38.7795" fill="#CFFF47" fill-opacity="0.2"/>
</g>
<g filter="url(#filter12_bf_1_443)">
<ellipse rx="35.0749" ry="36.1728" transform="matrix(-0.852148 -0.5233 0.477056 -0.878873 181.969 95.146)" fill="url(#paint12_angular_1_443)"/>
</g>
<g filter="url(#filter13_bf_1_443)">
<ellipse rx="35.0749" ry="36.1728" transform="matrix(-0.852148 -0.5233 0.477056 -0.878873 178.145 95.146)" fill="url(#paint13_angular_1_443)"/>
</g>
<g filter="url(#filter14_i_1_443)">
<ellipse cx="179.368" cy="91.438" rx="38.764" ry="41.2311" fill="url(#paint14_linear_1_443)" fill-opacity="0.5"/>
</g>
<path fill-rule="evenodd" clip-rule="evenodd" d="M192.975 86.8147C193.651 81.9705 190.209 79.3664 185.501 77.6292L187.028 71.0671L183.3 70.0716L181.814 76.4608C180.833 76.1991 179.827 75.9523 178.827 75.7077L180.324 69.2764L176.598 68.2809L175.07 74.8408C174.259 74.6428 173.462 74.4471 172.689 74.2412L172.693 74.2207L167.552 72.8453L166.56 77.1115C166.56 77.1115 169.326 77.7907 169.268 77.8328C170.778 78.2367 171.051 79.3072 171.005 80.1559L169.266 87.6316C169.37 87.66 169.505 87.701 169.653 87.7647L169.527 87.7309C169.44 87.7076 169.351 87.6836 169.259 87.66L166.821 98.1323C166.637 98.6237 166.168 99.361 165.113 99.0811C165.15 99.1391 162.403 98.3564 162.403 98.3564L160.552 102.929L165.404 104.224C165.946 104.37 166.481 104.52 167.011 104.668L167.012 104.668C167.364 104.766 167.714 104.864 168.062 104.959L166.519 111.597L170.243 112.592L171.771 106.025C172.788 106.321 173.775 106.594 174.742 106.851L173.219 113.387L176.947 114.383L178.49 107.758C184.847 109.047 189.628 108.527 191.64 102.367C193.261 97.4064 191.559 94.5452 188.214 92.6794C190.65 92.0776 192.485 90.3608 192.975 86.8147ZM184.456 99.6124C183.399 104.163 176.751 102.282 173.709 101.421C173.435 101.343 173.191 101.274 172.982 101.219L175.029 92.4257C175.283 92.4936 175.594 92.5683 175.945 92.6528C179.092 93.4092 185.539 94.9593 184.456 99.6124ZM176.578 88.572C179.114 89.2971 184.646 90.879 185.61 86.7428C186.594 82.5122 181.217 81.2369 178.591 80.614C178.296 80.544 178.035 80.4822 177.822 80.4254L175.966 88.4004C176.141 88.4472 176.347 88.5061 176.578 88.572Z" fill="#FFF59E"/>
<defs>
<filter id="filter0_d_1_443" x="1233.64" y="107.144" width="97.528" height="102.462" filterUnits="userSpaceOnUse" color-interpolation-filters="sRGB">
<feFlood flood-opacity="0" result="BackgroundImageFix"/>
<feColorMatrix in="SourceAlpha" type="matrix" values="0 0 0 0 0 0 0 0 0 0 0 0 0 0 0 0 0 0 127 0" result="hardAlpha"/>
<feOffset dy="4"/>
<feGaussianBlur stdDeviation="5"/>
<feComposite in2="hardAlpha" operator="out"/>
<feColorMatrix type="matrix" values="0 0 0 0 0 0 0 0 0 0 0 0 0 0 0 0 0 0 0.62 0"/>
<feBlend mode="normal" in2="BackgroundImageFix" result="effect1_dropShadow_1_443"/>
<feBlend mode="normal" in="SourceGraphic" in2="effect1_dropShadow_1_443" result="shape"/>
</filter>
<filter id="filter1_bf_1_443" x="1045.31" y="-86.8564" width="471.661" height="477.559" filterUnits="userSpaceOnUse" color-interpolation-filters="sRGB">
<feFlood flood-opacity="0" result="BackgroundImageFix"/>
<feGaussianBlur in="BackgroundImageFix" stdDeviation="100"/>
<feComposite in2="SourceAlpha" operator="in" result="effect1_backgroundBlur_1_443"/>
<feBlend mode="normal" in="SourceGraphic" in2="effect1_backgroundBlur_1_443" result="shape"/>
<feGaussianBlur stdDeviation="25" result="effect2_foregroundBlur_1_443"/>
</filter>
<filter id="filter2_bf_1_443" x="1050.45" y="-78.7748" width="469.037" height="473.431" filterUnits="userSpaceOnUse" color-interpolation-filters="sRGB">
<feFlood flood-opacity="0" result="BackgroundImageFix"/>
<feGaussianBlur in="BackgroundImageFix" stdDeviation="100"/>
<feComposite in2="SourceAlpha" operator="in" result="effect1_backgroundBlur_1_443"/>
<feBlend mode="normal" in="SourceGraphic" in2="effect1_backgroundBlur_1_443" result="shape"/>
<feGaussianBlur stdDeviation="25" result="effect2_foregroundBlur_1_443"/>
</filter>
<filter id="filter3_bf_1_443" x="1046.63" y="-78.7748" width="469.037" height="473.431" filterUnits="userSpaceOnUse" color-interpolation-filters="sRGB">
<feFlood flood-opacity="0" result="BackgroundImageFix"/>
<feGaussianBlur in="BackgroundImageFix" stdDeviation="100"/>
<feComposite in2="SourceAlpha" operator="in" result="effect1_backgroundBlur_1_443"/>
<feBlend mode="normal" in="SourceGraphic" in2="effect1_backgroundBlur_1_443" result="shape"/>
<feGaussianBlur stdDeviation="25" result="effect2_foregroundBlur_1_443"/>
</filter>
<filter id="filter4_i_1_443" x="1243.6" y="113.002" width="77.528" height="86.4622" filterUnits="userSpaceOnUse" color-interpolation-filters="sRGB">
<feFlood flood-opacity="0" result="BackgroundImageFix"/>
<feBlend mode="normal" in="SourceGraphic" in2="BackgroundImageFix" result="shape"/>
<feColorMatrix in="SourceAlpha" type="matrix" values="0 0 0 0 0 0 0 0 0 0 0 0 0 0 0 0 0 0 127 0" result="hardAlpha"/>
<feOffset dy="4"/>
<feGaussianBlur stdDeviation="5"/>
<feComposite in2="hardAlpha" operator="arithmetic" k2="-1" k3="1"/>
<feColorMatrix type="matrix" values="0 0 0 0 0.929167 0 0 0 0 0.929167 0 0 0 0 0.929167 0 0 0 0.87 0"/>
<feBlend mode="normal" in2="shape" result="effect1_innerShadow_1_443"/>
</filter>
<filter id="filter5_d_1_443" x="38.6381" y="631.144" width="97.528" height="102.462" filterUnits="userSpaceOnUse" color-interpolation-filters="sRGB">
<feFlood flood-opacity="0" result="BackgroundImageFix"/>
<feColorMatrix in="SourceAlpha" type="matrix" values="0 0 0 0 0 0 0 0 0 0 0 0 0 0 0 0 0 0 127 0" result="hardAlpha"/>
<feOffset dy="4"/>
<feGaussianBlur stdDeviation="5"/>
<feComposite in2="hardAlpha" operator="out"/>
<feColorMatrix type="matrix" values="0 0 0 0 0 0 0 0 0 0 0 0 0 0 0 0 0 0 0.62 0"/>
<feBlend mode="normal" in2="BackgroundImageFix" result="effect1_dropShadow_1_443"/>
<feBlend mode="normal" in="SourceGraphic" in2="effect1_dropShadow_1_443" result="shape"/>
</filter>
<filter id="filter6_bf_1_443" x="-149.685" y="437.144" width="471.661" height="477.559" filterUnits="userSpaceOnUse" color-interpolation-filters="sRGB">
<feFlood flood-opacity="0" result="BackgroundImageFix"/>
<feGaussianBlur in="BackgroundImageFix" stdDeviation="100"/>
<feComposite in2="SourceAlpha" operator="in" result="effect1_backgroundBlur_1_443"/>
<feBlend mode="normal" in="SourceGraphic" in2="effect1_backgroundBlur_1_443" result="shape"/>
<feGaussianBlur stdDeviation="25" result="effect2_foregroundBlur_1_443"/>
</filter>
<filter id="filter7_bf_1_443" x="-144.55" y="445.225" width="469.037" height="473.431" filterUnits="userSpaceOnUse" color-interpolation-filters="sRGB">
<feFlood flood-opacity="0" result="BackgroundImageFix"/>
<feGaussianBlur in="BackgroundImageFix" stdDeviation="100"/>
<feComposite in2="SourceAlpha" operator="in" result="effect1_backgroundBlur_1_443"/>
<feBlend mode="normal" in="SourceGraphic" in2="effect1_backgroundBlur_1_443" result="shape"/>
<feGaussianBlur stdDeviation="25" result="effect2_foregroundBlur_1_443"/>
</filter>
<filter id="filter8_bf_1_443" x="-148.373" y="445.225" width="469.037" height="473.431" filterUnits="userSpaceOnUse" color-interpolation-filters="sRGB">
<feFlood flood-opacity="0" result="BackgroundImageFix"/>
<feGaussianBlur in="BackgroundImageFix" stdDeviation="100"/>
<feComposite in2="SourceAlpha" operator="in" result="effect1_backgroundBlur_1_443"/>
<feBlend mode="normal" in="SourceGraphic" in2="effect1_backgroundBlur_1_443" result="shape"/>
<feGaussianBlur stdDeviation="25" result="effect2_foregroundBlur_1_443"/>
</filter>
<filter id="filter9_i_1_443" x="48.6041" y="637.002" width="77.528" height="86.4622" filterUnits="userSpaceOnUse" color-interpolation-filters="sRGB">
<feFlood flood-opacity="0" result="BackgroundImageFix"/>
<feBlend mode="normal" in="SourceGraphic" in2="BackgroundImageFix" result="shape"/>
<feColorMatrix in="SourceAlpha" type="matrix" values="0 0 0 0 0 0 0 0 0 0 0 0 0 0 0 0 0 0 127 0" result="hardAlpha"/>
<feOffset dy="4"/>
<feGaussianBlur stdDeviation="5"/>
<feComposite in2="hardAlpha" operator="arithmetic" k2="-1" k3="1"/>
<feColorMatrix type="matrix" values="0 0 0 0 0.929167 0 0 0 0 0.929167 0 0 0 0 0.929167 0 0 0 0.87 0"/>
<feBlend mode="normal" in2="shape" result="effect1_innerShadow_1_443"/>
</filter>
<filter id="filter10_d_1_443" x="130.638" y="44.3489" width="97.528" height="102.462" filterUnits="userSpaceOnUse" color-interpolation-filters="sRGB">
<feFlood flood-opacity="0" result="BackgroundImageFix"/>
<feColorMatrix in="SourceAlpha" type="matrix" values="0 0 0 0 0 0 0 0 0 0 0 0 0 0 0 0 0 0 127 0" result="hardAlpha"/>
<feOffset dy="4"/>
<feGaussianBlur stdDeviation="5"/>
<feComposite in2="hardAlpha" operator="out"/>
<feColorMatrix type="matrix" values="0 0 0 0 0 0 0 0 0 0 0 0 0 0 0 0 0 0 0.62 0"/>
<feBlend mode="normal" in2="BackgroundImageFix" result="effect1_dropShadow_1_443"/>
<feBlend mode="normal" in="SourceGraphic" in2="effect1_dropShadow_1_443" result="shape"/>
</filter>
<filter id="filter11_bf_1_443" x="-57.6852" y="-149.651" width="471.661" height="477.559" filterUnits="userSpaceOnUse" color-interpolation-filters="sRGB">
<feFlood flood-opacity="0" result="BackgroundImageFix"/>
<feGaussianBlur in="BackgroundImageFix" stdDeviation="100"/>
<feComposite in2="SourceAlpha" operator="in" result="effect1_backgroundBlur_1_443"/>
<feBlend mode="normal" in="SourceGraphic" in2="effect1_backgroundBlur_1_443" result="shape"/>
<feGaussianBlur stdDeviation="25" result="effect2_foregroundBlur_1_443"/>
</filter>
<filter id="filter12_bf_1_443" x="-52.55" y="-141.57" width="469.037" height="473.431" filterUnits="userSpaceOnUse" color-interpolation-filters="sRGB">
<feFlood flood-opacity="0" result="BackgroundImageFix"/>
<feGaussianBlur in="BackgroundImageFix" stdDeviation="100"/>
<feComposite in2="SourceAlpha" operator="in" result="effect1_backgroundBlur_1_443"/>
<feBlend mode="normal" in="SourceGraphic" in2="effect1_backgroundBlur_1_443" result="shape"/>
<feGaussianBlur stdDeviation="25" result="effect2_foregroundBlur_1_443"/>
</filter>
<filter id="filter13_bf_1_443" x="-56.3732" y="-141.57" width="469.037" height="473.431" filterUnits="userSpaceOnUse" color-interpolation-filters="sRGB">
<feFlood flood-opacity="0" result="BackgroundImageFix"/>
<feGaussianBlur in="BackgroundImageFix" stdDeviation="100"/>
<feComposite in2="SourceAlpha" operator="in" result="effect1_backgroundBlur_1_443"/>
<feBlend mode="normal" in="SourceGraphic" in2="effect1_backgroundBlur_1_443" result="shape"/>
<feGaussianBlur stdDeviation="25" result="effect2_foregroundBlur_1_443"/>
</filter>
<filter id="filter14_i_1_443" x="140.604" y="50.2069" width="77.528" height="86.4622" filterUnits="userSpaceOnUse" color-interpolation-filters="sRGB">
<feFlood flood-opacity="0" result="BackgroundImageFix"/>
<feBlend mode="normal" in="SourceGraphic" in2="BackgroundImageFix" result="shape"/>
<feColorMatrix in="SourceAlpha" type="matrix" values="0 0 0 0 0 0 0 0 0 0 0 0 0 0 0 0 0 0 127 0" result="hardAlpha"/>
<feOffset dy="4"/>
<feGaussianBlur stdDeviation="5"/>
<feComposite in2="hardAlpha" operator="arithmetic" k2="-1" k3="1"/>
<feColorMatrix type="matrix" values="0 0 0 0 0.929167 0 0 0 0 0.929167 0 0 0 0 0.929167 0 0 0 0.87 0"/>
<feBlend mode="normal" in2="shape" result="effect1_innerShadow_1_443"/>
</filter>
<linearGradient id="paint0_linear_1_443" x1="1282.4" y1="113.144" x2="1282.4" y2="195.606" gradientUnits="userSpaceOnUse">
<stop stop-color="#18C8CC"/>
<stop offset="1" stop-color="#22DDE9" stop-opacity="0"/>
</linearGradient>
<radialGradient id="paint1_angular_1_443" cx="0" cy="0" r="1" gradientUnits="userSpaceOnUse" gradientTransform="translate(1281.15 151.923) rotate(90) scale(38.7795 35.8305)">
<stop stop-color="#597CEB"/>
<stop offset="0.159183" stop-color="#597CEB"/>
</radialGradient>
<radialGradient id="paint2_angular_1_443" cx="0" cy="0" r="1" gradientUnits="userSpaceOnUse" gradientTransform="translate(35.0749 36.1728) rotate(90) scale(36.1728 35.0749)">
<stop stop-color="#597CEB"/>
<stop offset="0.159183" stop-color="#597CEB"/>
</radialGradient>
<radialGradient id="paint3_angular_1_443" cx="0" cy="0" r="1" gradientUnits="userSpaceOnUse" gradientTransform="translate(35.0749 36.1728) rotate(90) scale(36.1728 35.0749)">
<stop stop-color="#597CEB"/>
<stop offset="0.159183" stop-color="#597CEB"/>
</radialGradient>
<linearGradient id="paint4_linear_1_443" x1="1282.37" y1="113.002" x2="1282.37" y2="195.464" gradientUnits="userSpaceOnUse">
<stop stop-color="#0D16FF"/>
<stop offset="1" stop-color="#2A07FF" stop-opacity="0"/>
</linearGradient>
<linearGradient id="paint5_linear_1_443" x1="87.4021" y1="637.144" x2="87.4021" y2="719.606" gradientUnits="userSpaceOnUse">
<stop stop-color="#6D22E9"/>
<stop offset="1" stop-color="#6D22E9" stop-opacity="0"/>
</linearGradient>
<radialGradient id="paint6_angular_1_443" cx="0" cy="0" r="1" gradientUnits="userSpaceOnUse" gradientTransform="translate(86.1453 675.923) rotate(90) scale(38.7795 35.8305)">
<stop stop-color="#6D22E9"/>
<stop offset="0.159183" stop-color="#6D22E9" stop-opacity="0"/>
</radialGradient>
<radialGradient id="paint7_angular_1_443" cx="0" cy="0" r="1" gradientUnits="userSpaceOnUse" gradientTransform="translate(35.0749 36.1728) rotate(90) scale(36.1728 35.0749)">
<stop stop-color="#6D22E9"/>
<stop offset="0.159183" stop-color="#6D22E9" stop-opacity="0"/>
</radialGradient>
<radialGradient id="paint8_angular_1_443" cx="0" cy="0" r="1" gradientUnits="userSpaceOnUse" gradientTransform="translate(35.0749 36.1728) rotate(90) scale(36.1728 35.0749)">
<stop stop-color="#6D22E9"/>
<stop offset="0.159183" stop-color="#6D22E9" stop-opacity="0"/>
</radialGradient>
<linearGradient id="paint9_linear_1_443" x1="87.3681" y1="637.002" x2="87.3681" y2="719.464" gradientUnits="userSpaceOnUse">
<stop stop-color="#6D22E9"/>
<stop offset="1" stop-color="#6D22E9" stop-opacity="0"/>
</linearGradient>
<linearGradient id="paint10_linear_1_443" x1="179.402" y1="50.3489" x2="179.402" y2="132.811" gradientUnits="userSpaceOnUse">
<stop stop-color="#FFEF5A" stop-opacity="0.37"/>
<stop offset="1" stop-color="#6D22E9" stop-opacity="0"/>
</linearGradient>
<radialGradient id="paint11_angular_1_443" cx="0" cy="0" r="1" gradientUnits="userSpaceOnUse" gradientTransform="translate(178.145 89.1284) rotate(90) scale(38.7795 35.8305)">
<stop stop-color="#E5E922" stop-opacity="0.44"/>
<stop offset="0.159183" stop-color="#E9D522" stop-opacity="0"/>
</radialGradient>
<radialGradient id="paint12_angular_1_443" cx="0" cy="0" r="1" gradientUnits="userSpaceOnUse" gradientTransform="translate(35.0749 36.1728) rotate(90) scale(36.1728 35.0749)">
<stop stop-color="#E5E922" stop-opacity="0.44"/>
<stop offset="0.159183" stop-color="#E9D522" stop-opacity="0"/>
</radialGradient>
<radialGradient id="paint13_angular_1_443" cx="0" cy="0" r="1" gradientUnits="userSpaceOnUse" gradientTransform="translate(35.0749 36.1728) rotate(90) scale(36.1728 35.0749)">
<stop stop-color="#E5E922" stop-opacity="0.44"/>
<stop offset="0.159183" stop-color="#E9D522" stop-opacity="0"/>
</radialGradient>
<linearGradient id="paint14_linear_1_443" x1="179.368" y1="50.2069" x2="179.368" y2="132.669" gradientUnits="userSpaceOnUse">
<stop stop-color="#E9D522" stop-opacity="0.63"/>
<stop offset="1" stop-color="#6D22E9" stop-opacity="0"/>
</linearGradient>
</defs>
</svg>
