<svg width="1375" height="998" viewBox="0 0 1375 998" fill="none" xmlns="http://www.w3.org/2000/svg">
<g filter="url(#filter0_d_869_2103)">
<ellipse cx="1262.45" cy="224.447" rx="64.4355" ry="64.9054" fill="url(#paint0_linear_869_2103)" shape-rendering="crispEdges"/>
</g>
<g filter="url(#filter1_bf_869_2103)">
<ellipse cx="1260.36" cy="220.588" rx="59.5593" ry="61.0462" fill="url(#paint1_angular_869_2103)"/>
<ellipse cx="1260.36" cy="220.588" rx="59.5593" ry="61.0462" fill="#9847FF" fill-opacity="0.2"/>
</g>
<g filter="url(#filter2_bf_869_2103)">
<ellipse cx="57.4739" cy="57.6831" rx="57.4739" ry="57.6831" transform="matrix(-0.864445 -0.502728 0.497277 -0.867592 1287.72 309)" fill="url(#paint2_angular_869_2103)"/>
</g>
<g filter="url(#filter3_bf_869_2103)">
<ellipse cx="57.4739" cy="57.6831" rx="57.4739" ry="57.6831" transform="matrix(-0.864445 -0.502728 0.497277 -0.867592 1281.37 309)" fill="url(#paint3_angular_869_2103)"/>
</g>
<g filter="url(#filter4_i_869_2103)">
<ellipse cx="1262.4" cy="224.224" rx="64.4355" ry="64.9054" fill="url(#paint4_linear_869_2103)" fill-opacity="0.5"/>
</g>
<path d="M1244.78 224.593C1244.61 227.679 1246.91 230.325 1249.93 230.505H1250.23C1253.21 230.502 1255.64 228.063 1255.69 225.02C1255.75 221.976 1253.41 219.448 1250.43 219.333C1247.46 219.217 1244.94 221.557 1244.77 224.596L1244.78 224.593Z" fill="white"/>
<path d="M1224.39 223.177C1223.42 223.121 1222.58 223.882 1222.53 224.877C1222.47 225.872 1223.22 226.724 1224.19 226.78C1225.17 226.837 1226 226.077 1226.06 225.082C1226.08 224.604 1225.92 224.134 1225.61 223.776C1225.3 223.418 1224.86 223.203 1224.39 223.177Z" fill="white"/>
<path d="M1244.43 192.161C1245.3 191.706 1245.64 190.62 1245.2 189.733C1244.76 188.845 1243.7 188.49 1242.83 188.939C1241.96 189.387 1241.61 190.47 1242.04 191.361C1242.26 191.792 1242.63 192.119 1243.08 192.269C1243.52 192.42 1244.01 192.381 1244.43 192.161Z" fill="white"/>
<path d="M1249.98 202.049C1251.33 201.355 1251.87 199.677 1251.19 198.3C1250.51 196.924 1248.87 196.371 1247.52 197.064C1246.18 197.758 1245.63 199.435 1246.31 200.812C1246.64 201.473 1247.21 201.975 1247.9 202.207C1248.58 202.439 1249.34 202.382 1249.98 202.049Z" fill="white"/>
<path d="M1231.31 208.849C1232.07 209.36 1233.06 209.352 1233.81 208.829C1234.56 208.307 1234.93 207.372 1234.75 206.461C1234.57 205.55 1233.86 204.842 1232.97 204.669C1232.07 204.495 1231.16 204.889 1230.67 205.667C1229.98 206.728 1230.27 208.152 1231.31 208.849V208.849Z" fill="white"/>
<path d="M1234.64 222.16C1233.13 222.073 1231.84 223.25 1231.76 224.788C1231.67 226.327 1232.82 227.645 1234.33 227.733C1235.83 227.821 1237.12 226.645 1237.21 225.107C1237.29 223.567 1236.14 222.248 1234.64 222.16V222.16Z" fill="white"/>
<path d="M1231.61 240.924C1230.5 241.497 1230.06 242.879 1230.62 244.013C1231.18 245.146 1232.53 245.601 1233.64 245.029C1234.75 244.457 1235.19 243.074 1234.63 241.941C1234.36 241.396 1233.89 240.983 1233.33 240.792C1232.76 240.601 1232.14 240.649 1231.61 240.924V240.924Z" fill="white"/>
<path d="M1242.22 216.392C1243.71 217.386 1245.7 216.962 1246.68 215.445C1247.65 213.927 1247.23 211.891 1245.75 210.896C1244.26 209.901 1242.27 210.324 1241.3 211.842C1240.83 212.57 1240.66 213.459 1240.84 214.313C1241.01 215.167 1241.51 215.914 1242.22 216.392V216.392Z" fill="white"/>
<path d="M1275.91 201.829C1277.17 202.672 1278.86 202.308 1279.69 201.016C1280.51 199.724 1280.16 197.993 1278.9 197.149C1277.63 196.306 1275.94 196.669 1275.11 197.96C1274.71 198.58 1274.57 199.337 1274.72 200.063C1274.87 200.789 1275.3 201.424 1275.91 201.829V201.829Z" fill="white"/>
<path d="M1281.51 191.972C1282.11 192.373 1282.88 192.366 1283.48 191.954C1284.07 191.542 1284.36 190.807 1284.21 190.091C1284.06 189.375 1283.51 188.819 1282.81 188.684C1282.1 188.548 1281.39 188.859 1281 189.471C1280.46 190.306 1280.69 191.425 1281.51 191.972V191.972Z" fill="white"/>
<path d="M1276.34 219.274C1273.32 219.097 1270.74 221.452 1270.56 224.534C1270.39 227.616 1272.69 230.258 1275.71 230.435C1275.81 230.435 1275.92 230.435 1276.03 230.435C1278.18 230.434 1280.13 229.139 1281.01 227.129C1281.89 225.118 1281.54 222.767 1280.1 221.125C1279.14 220.017 1277.78 219.35 1276.34 219.274Z" fill="white"/>
<path d="M1251.78 216.004C1252.7 217.894 1254.6 219.086 1256.67 219.079C1258.57 219.079 1260.33 218.071 1261.33 216.416C1262.32 214.761 1262.41 212.696 1261.55 210.962C1260.62 209.081 1258.72 207.899 1256.66 207.909C1254.76 207.912 1253.01 208.917 1252.01 210.566C1251.02 212.215 1250.93 214.272 1251.78 216.004V216.004Z" fill="white"/>
<path d="M1294.65 208.843C1295.76 208.271 1296.21 206.889 1295.65 205.755C1295.09 204.622 1293.74 204.165 1292.63 204.736C1291.52 205.307 1291.07 206.689 1291.63 207.823C1292.19 208.957 1293.54 209.414 1294.65 208.843V208.843Z" fill="white"/>
<path d="M1280.79 210.623C1279.2 211.439 1278.56 213.415 1279.36 215.036C1280.16 216.656 1282.09 217.308 1283.68 216.492C1285.26 215.676 1285.9 213.7 1285.1 212.08C1284.72 211.301 1284.05 210.71 1283.24 210.436C1282.43 210.163 1281.55 210.23 1280.79 210.623Z" fill="white"/>
<path d="M1262.93 191.129C1263.84 191.182 1264.69 190.67 1265.08 189.832C1265.48 188.994 1265.34 187.995 1264.73 187.302C1264.13 186.608 1263.17 186.356 1262.31 186.663C1261.45 186.97 1260.86 187.776 1260.81 188.704C1260.74 189.971 1261.69 191.057 1262.93 191.129Z" fill="white"/>
<path d="M1262.9 205.6C1264.67 205.702 1266.19 204.316 1266.29 202.505C1266.39 200.694 1265.04 199.142 1263.26 199.039C1261.49 198.936 1259.97 200.32 1259.87 202.131C1259.77 203.944 1261.13 205.497 1262.9 205.6Z" fill="white"/>
<path d="M1245.48 239.141C1246.64 238.542 1247.34 237.288 1247.24 235.963C1247.14 234.637 1246.28 233.502 1245.04 233.086C1243.81 232.67 1242.45 233.056 1241.6 234.063C1240.75 235.07 1240.58 236.501 1241.17 237.687C1241.96 239.307 1243.9 239.957 1245.48 239.141Z" fill="white"/>
<path d="M1264.98 210.394C1263.61 212.533 1263.83 215.352 1265.52 217.236C1267.22 219.12 1269.95 219.589 1272.15 218.375C1274.35 217.16 1275.47 214.572 1274.85 212.092C1274.24 209.612 1272.06 207.872 1269.56 207.869C1267.71 207.867 1265.99 208.817 1264.98 210.394V210.394Z" fill="white"/>
<path d="M1274.49 233.763C1273.27 231.306 1270.49 230.116 1267.93 230.959C1265.37 231.803 1263.79 234.427 1264.2 237.145C1264.62 239.864 1266.91 241.867 1269.61 241.867C1270.46 241.861 1271.3 241.652 1272.07 241.256C1274.76 239.866 1275.84 236.515 1274.49 233.763V233.763Z" fill="white"/>
<path d="M1284.04 233.372C1282.56 232.377 1280.56 232.799 1279.59 234.316C1278.61 235.833 1279.03 237.87 1280.51 238.866C1282 239.862 1283.99 239.439 1284.96 237.922C1285.94 236.405 1285.52 234.37 1284.04 233.372Z" fill="white"/>
<path d="M1294.51 224.978C1294.6 223.439 1293.44 222.121 1291.94 222.034C1290.43 221.947 1289.14 223.123 1289.06 224.661C1288.97 226.2 1290.12 227.518 1291.63 227.607C1293.13 227.694 1294.42 226.517 1294.51 224.978Z" fill="white"/>
<path d="M1302.08 222.99C1301.36 222.948 1300.69 223.35 1300.38 224.008C1300.07 224.667 1300.18 225.452 1300.65 225.998C1301.13 226.544 1301.88 226.743 1302.56 226.502C1303.23 226.262 1303.7 225.629 1303.74 224.899C1303.79 223.903 1303.05 223.049 1302.08 222.99V222.99Z" fill="white"/>
<path d="M1294.95 240.915C1293.91 240.219 1292.52 240.516 1291.84 241.578C1291.16 242.64 1291.45 244.065 1292.49 244.761C1293.53 245.457 1294.92 245.161 1295.6 244.1C1295.93 243.589 1296.04 242.967 1295.92 242.37C1295.8 241.772 1295.45 241.249 1294.95 240.915V240.915Z" fill="white"/>
<path d="M1244.76 257.793C1243.94 257.245 1242.84 257.477 1242.31 258.312C1241.77 259.147 1242 260.267 1242.81 260.815C1243.63 261.363 1244.73 261.131 1245.26 260.297C1245.52 259.896 1245.61 259.407 1245.52 258.937C1245.42 258.467 1245.15 258.056 1244.76 257.793V257.793Z" fill="white"/>
<path d="M1281.83 257.603C1281.19 257.932 1280.81 258.622 1280.86 259.352C1280.91 260.081 1281.39 260.706 1282.07 260.934C1282.75 261.163 1283.5 260.951 1283.96 260.397C1284.43 259.843 1284.53 259.056 1284.2 258.403C1283.99 257.975 1283.62 257.649 1283.18 257.499C1282.73 257.349 1282.25 257.387 1281.83 257.603Z" fill="white"/>
<path d="M1261.28 239.361C1262.66 237.221 1262.43 234.402 1260.74 232.518C1259.04 230.634 1256.32 230.165 1254.11 231.38C1251.91 232.596 1250.8 235.184 1251.41 237.665C1252.02 240.145 1254.2 241.884 1256.71 241.886C1258.55 241.892 1260.28 240.942 1261.28 239.361Z" fill="white"/>
<path d="M1250.36 247.938C1249.1 247.094 1247.4 247.456 1246.58 248.745C1245.75 250.034 1246.11 251.764 1247.37 252.608C1248.63 253.453 1250.32 253.093 1251.15 251.804C1251.97 250.514 1251.62 248.784 1250.36 247.938V247.938Z" fill="white"/>
<path d="M1263.11 258.635C1261.87 258.563 1260.8 259.532 1260.73 260.8C1260.66 262.067 1261.61 263.154 1262.85 263.226C1264.09 263.299 1265.16 262.33 1265.23 261.063C1265.26 260.454 1265.06 259.856 1264.66 259.4C1264.26 258.945 1263.7 258.67 1263.11 258.635Z" fill="white"/>
<path d="M1263.13 244.167C1261.83 244.086 1260.61 244.814 1260.05 246.01C1259.48 247.206 1259.67 248.635 1260.53 249.629C1261.4 250.623 1262.76 250.987 1263.99 250.549C1265.22 250.112 1266.07 248.961 1266.15 247.633C1266.25 245.825 1264.9 244.275 1263.13 244.167Z" fill="white"/>
<path d="M1276.28 247.715C1275.3 248.227 1274.71 249.296 1274.79 250.423C1274.88 251.55 1275.62 252.514 1276.67 252.864C1277.73 253.214 1278.88 252.881 1279.6 252.021C1280.32 251.161 1280.46 249.944 1279.95 248.937C1279.63 248.276 1279.05 247.777 1278.37 247.548C1277.68 247.318 1276.93 247.379 1276.28 247.715V247.715Z" fill="white"/>
<g filter="url(#filter5_d_869_2103)">
<ellipse cx="175.455" cy="115.447" rx="64.4355" ry="64.9054" fill="url(#paint5_linear_869_2103)" shape-rendering="crispEdges"/>
</g>
<g filter="url(#filter6_bf_869_2103)">
<ellipse cx="173.365" cy="111.588" rx="59.5593" ry="61.0462" fill="url(#paint6_angular_869_2103)"/>
<ellipse cx="173.365" cy="111.588" rx="59.5593" ry="61.0462" fill="#F0FF47" fill-opacity="0.21"/>
</g>
<g filter="url(#filter7_bf_869_2103)">
<ellipse cx="57.4739" cy="57.6831" rx="57.4739" ry="57.6831" transform="matrix(-0.864445 -0.502728 0.497277 -0.867592 200.721 200)" fill="url(#paint7_angular_869_2103)"/>
</g>
<g filter="url(#filter8_bf_869_2103)">
<ellipse cx="57.4739" cy="57.6831" rx="57.4739" ry="57.6831" transform="matrix(-0.864445 -0.502728 0.497277 -0.867592 194.366 200)" fill="url(#paint8_angular_869_2103)"/>
</g>
<g filter="url(#filter9_i_869_2103)">
<ellipse cx="175.399" cy="115.224" rx="64.4355" ry="64.9054" fill="url(#paint9_linear_869_2103)" fill-opacity="0.5"/>
</g>
<path fill-rule="evenodd" clip-rule="evenodd" d="M199.96 108.85C201.086 101.832 195.357 98.0594 187.523 95.5427L190.064 86.0363L183.859 84.5942L181.385 93.8501C179.754 93.471 178.079 93.1134 176.414 92.759L178.906 83.4421L172.704 82L170.161 91.5031C168.811 91.2164 167.486 90.9329 166.199 90.6346L166.206 90.6049L157.65 88.6123L155.999 94.7928C155.999 94.7928 160.603 95.7767 160.505 95.8377C163.018 96.4228 163.473 97.9737 163.397 99.2032L160.502 110.033C160.675 110.074 160.899 110.134 161.147 110.226C161.078 110.21 161.008 110.194 160.937 110.177L160.937 110.177C160.793 110.143 160.644 110.108 160.491 110.074L156.434 125.245C156.126 125.957 155.347 127.025 153.59 126.62C153.652 126.704 149.08 125.57 149.08 125.57L146 132.194L154.074 134.071C154.976 134.282 155.867 134.498 156.749 134.713C157.336 134.856 157.919 134.997 158.498 135.136L155.93 144.751L162.128 146.193L164.671 136.68C166.364 137.109 168.007 137.504 169.615 137.877L167.081 147.345L173.286 148.787L175.854 139.19C186.434 141.057 194.39 140.304 197.739 131.38C200.438 124.194 197.605 120.049 192.038 117.346C196.092 116.474 199.146 113.987 199.96 108.85ZM185.783 127.39C184.024 133.982 172.959 131.257 167.896 130.01C167.44 129.897 167.033 129.797 166.686 129.717L170.093 116.978C170.516 117.077 171.033 117.185 171.618 117.307L171.618 117.307C176.854 118.403 187.585 120.649 185.783 127.39ZM172.671 111.395C176.892 112.446 186.099 114.738 187.703 108.746C189.341 102.617 180.392 100.769 176.022 99.8668C175.53 99.7653 175.097 99.6758 174.742 99.5935L171.653 111.147C171.945 111.215 172.288 111.3 172.671 111.395Z" fill="#FFF59E"/>
<g filter="url(#filter10_d_869_2103)">
<ellipse cx="112.455" cy="884.447" rx="64.4355" ry="64.9054" fill="url(#paint10_linear_869_2103)" shape-rendering="crispEdges"/>
</g>
<g filter="url(#filter11_bf_869_2103)">
<ellipse cx="110.365" cy="880.588" rx="59.5593" ry="61.0462" fill="url(#paint11_angular_869_2103)"/>
<ellipse cx="110.365" cy="880.588" rx="59.5593" ry="61.0462" fill="#9847FF" fill-opacity="0.2"/>
</g>
<g filter="url(#filter12_bf_869_2103)">
<ellipse cx="57.4739" cy="57.6831" rx="57.4739" ry="57.6831" transform="matrix(-0.864445 -0.502728 0.497277 -0.867592 137.721 969)" fill="url(#paint12_angular_869_2103)"/>
</g>
<g filter="url(#filter13_bf_869_2103)">
<ellipse cx="57.4739" cy="57.6831" rx="57.4739" ry="57.6831" transform="matrix(-0.864445 -0.502728 0.497277 -0.867592 131.366 969)" fill="url(#paint13_angular_869_2103)"/>
</g>
<g filter="url(#filter14_i_869_2103)">
<ellipse cx="112.399" cy="884.224" rx="64.4355" ry="64.9054" fill="url(#paint14_linear_869_2103)" fill-opacity="0.5"/>
</g>
<path d="M90.7129 882.571L113.063 895.338V872.753V846.731L90.7129 882.571Z" fill="#BF98FF"/>
<path d="M113.063 846.731V872.753V895.338L135.413 882.571L113.063 846.731Z" fill="#A56FFF"/>
<path d="M113.071 872.756L135.414 882.57L113.071 895.335V872.756Z" fill="#3A0295"/>
<path d="M113.063 872.753L113.069 872.755V895.332L113.063 895.338L90.7129 882.571L113.063 872.753Z" fill="#5705DB"/>
<path d="M90.7129 886.666L113.063 917.104V899.427L90.7129 886.666Z" fill="#BF98FF"/>
<path d="M113.063 899.428V917.105L135.426 886.667L113.063 899.428Z" fill="#A56FFF"/>
<defs>
<filter id="filter0_d_869_2103" x="1188.02" y="153.542" width="148.871" height="149.811" filterUnits="userSpaceOnUse" color-interpolation-filters="sRGB">
<feFlood flood-opacity="0" result="BackgroundImageFix"/>
<feColorMatrix in="SourceAlpha" type="matrix" values="0 0 0 0 0 0 0 0 0 0 0 0 0 0 0 0 0 0 127 0" result="hardAlpha"/>
<feOffset dy="4"/>
<feGaussianBlur stdDeviation="5"/>
<feComposite in2="hardAlpha" operator="out"/>
<feColorMatrix type="matrix" values="0 0 0 0 0 0 0 0 0 0 0 0 0 0 0 0 0 0 0.62 0"/>
<feBlend mode="normal" in2="BackgroundImageFix" result="effect1_dropShadow_869_2103"/>
<feBlend mode="normal" in="SourceGraphic" in2="effect1_dropShadow_869_2103" result="shape"/>
</filter>
<filter id="filter1_bf_869_2103" x="1000.81" y="-40.458" width="519.118" height="522.092" filterUnits="userSpaceOnUse" color-interpolation-filters="sRGB">
<feFlood flood-opacity="0" result="BackgroundImageFix"/>
<feGaussianBlur in="BackgroundImageFix" stdDeviation="100"/>
<feComposite in2="SourceAlpha" operator="in" result="effect1_backgroundBlur_869_2103"/>
<feBlend mode="normal" in="SourceGraphic" in2="effect1_backgroundBlur_869_2103" result="shape"/>
<feGaussianBlur stdDeviation="25" result="effect2_foregroundBlur_869_2103"/>
</filter>
<filter id="filter2_bf_869_2103" x="1009.34" y="-27.7358" width="514.757" height="515.594" filterUnits="userSpaceOnUse" color-interpolation-filters="sRGB">
<feFlood flood-opacity="0" result="BackgroundImageFix"/>
<feGaussianBlur in="BackgroundImageFix" stdDeviation="100"/>
<feComposite in2="SourceAlpha" operator="in" result="effect1_backgroundBlur_869_2103"/>
<feBlend mode="normal" in="SourceGraphic" in2="effect1_backgroundBlur_869_2103" result="shape"/>
<feGaussianBlur stdDeviation="25" result="effect2_foregroundBlur_869_2103"/>
</filter>
<filter id="filter3_bf_869_2103" x="1002.99" y="-27.7358" width="514.757" height="515.594" filterUnits="userSpaceOnUse" color-interpolation-filters="sRGB">
<feFlood flood-opacity="0" result="BackgroundImageFix"/>
<feGaussianBlur in="BackgroundImageFix" stdDeviation="100"/>
<feComposite in2="SourceAlpha" operator="in" result="effect1_backgroundBlur_869_2103"/>
<feBlend mode="normal" in="SourceGraphic" in2="effect1_backgroundBlur_869_2103" result="shape"/>
<feGaussianBlur stdDeviation="25" result="effect2_foregroundBlur_869_2103"/>
</filter>
<filter id="filter4_i_869_2103" x="1197.96" y="159.319" width="128.871" height="133.811" filterUnits="userSpaceOnUse" color-interpolation-filters="sRGB">
<feFlood flood-opacity="0" result="BackgroundImageFix"/>
<feBlend mode="normal" in="SourceGraphic" in2="BackgroundImageFix" result="shape"/>
<feColorMatrix in="SourceAlpha" type="matrix" values="0 0 0 0 0 0 0 0 0 0 0 0 0 0 0 0 0 0 127 0" result="hardAlpha"/>
<feOffset dy="4"/>
<feGaussianBlur stdDeviation="5"/>
<feComposite in2="hardAlpha" operator="arithmetic" k2="-1" k3="1"/>
<feColorMatrix type="matrix" values="0 0 0 0 0.929167 0 0 0 0 0.929167 0 0 0 0 0.929167 0 0 0 0.87 0"/>
<feBlend mode="normal" in2="shape" result="effect1_innerShadow_869_2103"/>
</filter>
<filter id="filter5_d_869_2103" x="101.02" y="44.542" width="148.871" height="149.811" filterUnits="userSpaceOnUse" color-interpolation-filters="sRGB">
<feFlood flood-opacity="0" result="BackgroundImageFix"/>
<feColorMatrix in="SourceAlpha" type="matrix" values="0 0 0 0 0 0 0 0 0 0 0 0 0 0 0 0 0 0 127 0" result="hardAlpha"/>
<feOffset dy="4"/>
<feGaussianBlur stdDeviation="5"/>
<feComposite in2="hardAlpha" operator="out"/>
<feColorMatrix type="matrix" values="0 0 0 0 0 0 0 0 0 0 0 0 0 0 0 0 0 0 0.62 0"/>
<feBlend mode="normal" in2="BackgroundImageFix" result="effect1_dropShadow_869_2103"/>
<feBlend mode="normal" in="SourceGraphic" in2="effect1_dropShadow_869_2103" result="shape"/>
</filter>
<filter id="filter6_bf_869_2103" x="-86.1943" y="-149.458" width="519.118" height="522.092" filterUnits="userSpaceOnUse" color-interpolation-filters="sRGB">
<feFlood flood-opacity="0" result="BackgroundImageFix"/>
<feGaussianBlur in="BackgroundImageFix" stdDeviation="100"/>
<feComposite in2="SourceAlpha" operator="in" result="effect1_backgroundBlur_869_2103"/>
<feBlend mode="normal" in="SourceGraphic" in2="effect1_backgroundBlur_869_2103" result="shape"/>
<feGaussianBlur stdDeviation="25" result="effect2_foregroundBlur_869_2103"/>
</filter>
<filter id="filter7_bf_869_2103" x="-77.6562" y="-136.736" width="514.757" height="515.594" filterUnits="userSpaceOnUse" color-interpolation-filters="sRGB">
<feFlood flood-opacity="0" result="BackgroundImageFix"/>
<feGaussianBlur in="BackgroundImageFix" stdDeviation="100"/>
<feComposite in2="SourceAlpha" operator="in" result="effect1_backgroundBlur_869_2103"/>
<feBlend mode="normal" in="SourceGraphic" in2="effect1_backgroundBlur_869_2103" result="shape"/>
<feGaussianBlur stdDeviation="25" result="effect2_foregroundBlur_869_2103"/>
</filter>
<filter id="filter8_bf_869_2103" x="-84.0107" y="-136.736" width="514.757" height="515.594" filterUnits="userSpaceOnUse" color-interpolation-filters="sRGB">
<feFlood flood-opacity="0" result="BackgroundImageFix"/>
<feGaussianBlur in="BackgroundImageFix" stdDeviation="100"/>
<feComposite in2="SourceAlpha" operator="in" result="effect1_backgroundBlur_869_2103"/>
<feBlend mode="normal" in="SourceGraphic" in2="effect1_backgroundBlur_869_2103" result="shape"/>
<feGaussianBlur stdDeviation="25" result="effect2_foregroundBlur_869_2103"/>
</filter>
<filter id="filter9_i_869_2103" x="110.964" y="50.3188" width="128.871" height="133.811" filterUnits="userSpaceOnUse" color-interpolation-filters="sRGB">
<feFlood flood-opacity="0" result="BackgroundImageFix"/>
<feBlend mode="normal" in="SourceGraphic" in2="BackgroundImageFix" result="shape"/>
<feColorMatrix in="SourceAlpha" type="matrix" values="0 0 0 0 0 0 0 0 0 0 0 0 0 0 0 0 0 0 127 0" result="hardAlpha"/>
<feOffset dy="4"/>
<feGaussianBlur stdDeviation="5"/>
<feComposite in2="hardAlpha" operator="arithmetic" k2="-1" k3="1"/>
<feColorMatrix type="matrix" values="0 0 0 0 0.929167 0 0 0 0 0.929167 0 0 0 0 0.929167 0 0 0 0.87 0"/>
<feBlend mode="normal" in2="shape" result="effect1_innerShadow_869_2103"/>
</filter>
<filter id="filter10_d_869_2103" x="38.0195" y="813.542" width="148.871" height="149.811" filterUnits="userSpaceOnUse" color-interpolation-filters="sRGB">
<feFlood flood-opacity="0" result="BackgroundImageFix"/>
<feColorMatrix in="SourceAlpha" type="matrix" values="0 0 0 0 0 0 0 0 0 0 0 0 0 0 0 0 0 0 127 0" result="hardAlpha"/>
<feOffset dy="4"/>
<feGaussianBlur stdDeviation="5"/>
<feComposite in2="hardAlpha" operator="out"/>
<feColorMatrix type="matrix" values="0 0 0 0 0 0 0 0 0 0 0 0 0 0 0 0 0 0 0.62 0"/>
<feBlend mode="normal" in2="BackgroundImageFix" result="effect1_dropShadow_869_2103"/>
<feBlend mode="normal" in="SourceGraphic" in2="effect1_dropShadow_869_2103" result="shape"/>
</filter>
<filter id="filter11_bf_869_2103" x="-149.194" y="619.542" width="519.118" height="522.093" filterUnits="userSpaceOnUse" color-interpolation-filters="sRGB">
<feFlood flood-opacity="0" result="BackgroundImageFix"/>
<feGaussianBlur in="BackgroundImageFix" stdDeviation="100"/>
<feComposite in2="SourceAlpha" operator="in" result="effect1_backgroundBlur_869_2103"/>
<feBlend mode="normal" in="SourceGraphic" in2="effect1_backgroundBlur_869_2103" result="shape"/>
<feGaussianBlur stdDeviation="25" result="effect2_foregroundBlur_869_2103"/>
</filter>
<filter id="filter12_bf_869_2103" x="-140.656" y="632.264" width="514.757" height="515.595" filterUnits="userSpaceOnUse" color-interpolation-filters="sRGB">
<feFlood flood-opacity="0" result="BackgroundImageFix"/>
<feGaussianBlur in="BackgroundImageFix" stdDeviation="100"/>
<feComposite in2="SourceAlpha" operator="in" result="effect1_backgroundBlur_869_2103"/>
<feBlend mode="normal" in="SourceGraphic" in2="effect1_backgroundBlur_869_2103" result="shape"/>
<feGaussianBlur stdDeviation="25" result="effect2_foregroundBlur_869_2103"/>
</filter>
<filter id="filter13_bf_869_2103" x="-147.011" y="632.264" width="514.757" height="515.595" filterUnits="userSpaceOnUse" color-interpolation-filters="sRGB">
<feFlood flood-opacity="0" result="BackgroundImageFix"/>
<feGaussianBlur in="BackgroundImageFix" stdDeviation="100"/>
<feComposite in2="SourceAlpha" operator="in" result="effect1_backgroundBlur_869_2103"/>
<feBlend mode="normal" in="SourceGraphic" in2="effect1_backgroundBlur_869_2103" result="shape"/>
<feGaussianBlur stdDeviation="25" result="effect2_foregroundBlur_869_2103"/>
</filter>
<filter id="filter14_i_869_2103" x="47.9639" y="819.318" width="128.871" height="133.811" filterUnits="userSpaceOnUse" color-interpolation-filters="sRGB">
<feFlood flood-opacity="0" result="BackgroundImageFix"/>
<feBlend mode="normal" in="SourceGraphic" in2="BackgroundImageFix" result="shape"/>
<feColorMatrix in="SourceAlpha" type="matrix" values="0 0 0 0 0 0 0 0 0 0 0 0 0 0 0 0 0 0 127 0" result="hardAlpha"/>
<feOffset dy="4"/>
<feGaussianBlur stdDeviation="5"/>
<feComposite in2="hardAlpha" operator="arithmetic" k2="-1" k3="1"/>
<feColorMatrix type="matrix" values="0 0 0 0 0.929167 0 0 0 0 0.929167 0 0 0 0 0.929167 0 0 0 0.87 0"/>
<feBlend mode="normal" in2="shape" result="effect1_innerShadow_869_2103"/>
</filter>
<linearGradient id="paint0_linear_869_2103" x1="1262.45" y1="159.542" x2="1262.45" y2="289.353" gradientUnits="userSpaceOnUse">
<stop stop-color="#18C8CC"/>
<stop offset="1" stop-color="#22DDE9" stop-opacity="0"/>
</linearGradient>
<radialGradient id="paint1_angular_869_2103" cx="0" cy="0" r="1" gradientUnits="userSpaceOnUse" gradientTransform="translate(1260.36 220.588) rotate(90) scale(61.0462 59.5593)">
<stop stop-color="#597CEB"/>
<stop offset="0.159183" stop-color="#597CEB"/>
</radialGradient>
<radialGradient id="paint2_angular_869_2103" cx="0" cy="0" r="1" gradientUnits="userSpaceOnUse" gradientTransform="translate(57.4739 57.6831) rotate(90) scale(57.6831 57.4739)">
<stop stop-color="#597CEB"/>
<stop offset="0.159183" stop-color="#597CEB"/>
</radialGradient>
<radialGradient id="paint3_angular_869_2103" cx="0" cy="0" r="1" gradientUnits="userSpaceOnUse" gradientTransform="translate(57.4739 57.6831) rotate(90) scale(57.6831 57.4739)">
<stop stop-color="#597CEB"/>
<stop offset="0.159183" stop-color="#597CEB"/>
</radialGradient>
<linearGradient id="paint4_linear_869_2103" x1="1262.4" y1="159.319" x2="1261.92" y2="308.077" gradientUnits="userSpaceOnUse">
<stop stop-color="#0D16FF"/>
<stop offset="1" stop-color="#2A07FF" stop-opacity="0"/>
</linearGradient>
<linearGradient id="paint5_linear_869_2103" x1="175.455" y1="50.542" x2="178.5" y2="184.5" gradientUnits="userSpaceOnUse">
<stop stop-color="#A8CC18"/>
<stop offset="1" stop-color="#22DDE9" stop-opacity="0"/>
</linearGradient>
<radialGradient id="paint6_angular_869_2103" cx="0" cy="0" r="1" gradientUnits="userSpaceOnUse" gradientTransform="translate(173.365 111.588) rotate(90) scale(61.0462 59.5593)">
<stop stop-color="#C5EB59"/>
<stop offset="0.159183" stop-color="#EBDC59" stop-opacity="0.31"/>
</radialGradient>
<radialGradient id="paint7_angular_869_2103" cx="0" cy="0" r="1" gradientUnits="userSpaceOnUse" gradientTransform="translate(57.4739 57.6831) rotate(90) scale(57.6831 57.4739)">
<stop stop-color="#C5EB59"/>
<stop offset="0.159183" stop-color="#EBDC59" stop-opacity="0.31"/>
</radialGradient>
<radialGradient id="paint8_angular_869_2103" cx="0" cy="0" r="1" gradientUnits="userSpaceOnUse" gradientTransform="translate(57.4739 57.6831) rotate(90) scale(57.6831 57.4739)">
<stop stop-color="#C5EB59"/>
<stop offset="0.159183" stop-color="#EBDC59" stop-opacity="0.31"/>
</radialGradient>
<linearGradient id="paint9_linear_869_2103" x1="175.399" y1="50.3188" x2="176.478" y2="196" gradientUnits="userSpaceOnUse">
<stop stop-color="#ECFF0D"/>
<stop offset="1" stop-color="#5D5A3C" stop-opacity="0.42"/>
</linearGradient>
<linearGradient id="paint10_linear_869_2103" x1="112.455" y1="819.542" x2="112" y2="961.5" gradientUnits="userSpaceOnUse">
<stop stop-color="#6718CC"/>
<stop offset="1" stop-color="#22DDE9" stop-opacity="0"/>
</linearGradient>
<radialGradient id="paint11_angular_869_2103" cx="0" cy="0" r="1" gradientUnits="userSpaceOnUse" gradientTransform="translate(110.365 880.588) rotate(90) scale(61.0462 59.5593)">
<stop stop-color="#5A1EC0"/>
<stop offset="0.159183" stop-color="#531CAF"/>
</radialGradient>
<radialGradient id="paint12_angular_869_2103" cx="0" cy="0" r="1" gradientUnits="userSpaceOnUse" gradientTransform="translate(57.4739 57.6831) rotate(90) scale(57.6831 57.4739)">
<stop stop-color="#5A1EC0"/>
<stop offset="0.159183" stop-color="#531CAF"/>
</radialGradient>
<radialGradient id="paint13_angular_869_2103" cx="0" cy="0" r="1" gradientUnits="userSpaceOnUse" gradientTransform="translate(57.4739 57.6831) rotate(90) scale(57.6831 57.4739)">
<stop stop-color="#5A1EC0" stop-opacity="0.68"/>
<stop offset="0.159183" stop-color="#531CAF"/>
</radialGradient>
<linearGradient id="paint14_linear_869_2103" x1="112.399" y1="819.318" x2="111.916" y2="968.076" gradientUnits="userSpaceOnUse">
<stop stop-color="#531DB0"/>
<stop offset="1" stop-color="#2A07FF" stop-opacity="0"/>
</linearGradient>
</defs>
</svg>
