<svg width="1440" height="1550" viewBox="0 0 1440 1550" fill="none" xmlns="http://www.w3.org/2000/svg">
<path d="M-384.464 1752C-488.983 1752 -595.242 1728.03 -699.534 1704.51C-773.232 1687.89 -849.402 1670.7 -922.318 1662.96C-922.512 1662.93 -922.69 1662.81 -922.816 1662.62C-922.942 1662.43 -923.007 1662.19 -922.999 1661.94C-922.974 1661.69 -922.878 1661.47 -922.728 1661.31C-922.579 1661.15 -922.387 1661.07 -922.192 1661.08C-849.226 1668.88 -773.005 1686.07 -699.282 1702.62C-511.935 1744.87 -318.206 1788.59 -140.04 1692.01C-95.9521 1668.11 -58.2455 1638.19 -21.7748 1609.27C45.2142 1556.12 108.47 1505.92 201.059 1500.61C334.079 1492.78 464.955 1549.38 591.518 1604.09C607.937 1611.19 624.937 1618.54 641.457 1625.54C657.977 1632.54 675.33 1640.08 691.901 1647.27C800.934 1694.67 913.625 1743.63 1027.35 1743.63C1030.38 1743.63 1033.38 1743.63 1036.4 1743.63C1152.73 1740.94 1237.62 1663.73 1327.51 1581.72C1377.66 1536.05 1429.51 1488.82 1487.32 1455.74C1550.37 1419.76 1605.86 1405.57 1662.06 1411.19C1714.52 1416.4 1768.16 1439.22 1830.89 1482.97L1854.65 1499.56C2000.43 1601.54 2115.59 1682.07 2291.36 1714.99C2291.56 1715.04 2291.73 1715.18 2291.85 1715.38C2291.96 1715.58 2292.02 1715.83 2291.99 1716.08C2291.96 1716.32 2291.86 1716.53 2291.7 1716.68C2291.55 1716.82 2291.35 1716.88 2291.16 1716.85C2115.17 1683.67 2000.03 1603.14 1853.97 1500.87L1830.23 1484.28C1703.9 1396.14 1607.93 1388.41 1487.98 1457.15C1430.29 1490.13 1378.51 1537.3 1328.45 1582.91C1238.33 1665.1 1153.26 1742.6 1036.56 1745.29C919.855 1747.97 803.608 1697.64 691.547 1648.97C674.926 1641.74 657.75 1634.3 641.104 1627.23C624.457 1620.17 607.559 1612.88 591.139 1605.79C464.728 1551.11 333.877 1494.57 201.236 1502.37C109.05 1507.8 45.9203 1557.88 -20.8922 1611.03C-57.4133 1639.98 -95.1703 1669.93 -139.434 1693.9C-218.706 1736.72 -301.03 1752 -384.464 1752Z" fill="url(#paint0_linear_34_132)"/>
<path d="M-512.467 1628C-621.078 1628 -732.439 1610.99 -840.193 1594.52C-864.129 1590.84 -888.899 1587.07 -913.34 1583.52C-913.436 1583.51 -913.53 1583.47 -913.615 1583.41C-913.7 1583.36 -913.775 1583.28 -913.836 1583.18C-913.897 1583.09 -913.943 1582.98 -913.97 1582.86C-913.998 1582.74 -914.006 1582.62 -913.996 1582.5C-913.994 1582.37 -913.97 1582.24 -913.925 1582.13C-913.881 1582.01 -913.816 1581.91 -913.736 1581.83C-913.656 1581.75 -913.563 1581.69 -913.464 1581.67C-913.365 1581.64 -913.262 1581.64 -913.163 1581.67C-888.772 1585.21 -864.003 1588.99 -840.016 1592.67C-621.028 1626.15 -394.574 1660.74 -178.512 1553.56C-145.545 1537.19 -115.151 1519.66 -85.7409 1502.68C1.25397 1452.48 76.4444 1409.09 183.113 1412.48C314.274 1416.6 443.14 1461.4 567.868 1504.76C587.24 1511.51 607.267 1518.45 626.891 1525.13L639.502 1529.42C759.615 1570.25 883.839 1612.56 1008.47 1599.76C1111.88 1589.08 1186.9 1525 1266.35 1457.15C1310.62 1419.35 1356.4 1380.24 1408.08 1350.41C1518.68 1286.45 1616.25 1292.85 1744.83 1371.71C1911.64 1474.03 2031.19 1526.44 2217.85 1526.44H2223.27C2223.46 1526.44 2223.65 1526.54 2223.79 1526.71C2223.92 1526.89 2224 1527.12 2224 1527.37C2224 1527.49 2223.99 1527.61 2223.95 1527.73C2223.92 1527.84 2223.86 1527.95 2223.79 1528.03C2223.72 1528.12 2223.64 1528.19 2223.55 1528.23C2223.46 1528.28 2223.37 1528.3 2223.27 1528.3H2217.85C2030.89 1528.3 1911.21 1475.92 1744.2 1373.34C1616.07 1294.64 1518.83 1288.47 1408.73 1352.1C1357.18 1381.87 1311.45 1420.92 1267.23 1458.68C1187.55 1526.57 1112.44 1590.71 1008.59 1601.49C883.713 1614.28 759.363 1572.1 639.124 1531.14L626.512 1526.86C606.889 1520.21 586.861 1513.23 567.49 1506.52C442.837 1463.19 313.946 1418.39 183.063 1414.27C179.179 1414.14 175.345 1414.07 171.561 1414.07C71.2232 1414.07 -1.44482 1456.03 -85.1354 1504.31C-114.546 1521.29 -144.965 1538.85 -177.982 1555.22C-275.091 1603.41 -382.517 1627.2 -506.388 1627.94L-512.467 1628Z" fill="url(#paint1_linear_34_132)"/>
<path d="M-630.642 1536C-714.077 1536 -800.665 1527.19 -893.382 1509.89C-893.479 1509.87 -893.571 1509.83 -893.655 1509.76C-893.738 1509.7 -893.81 1509.61 -893.866 1509.51C-893.922 1509.41 -893.963 1509.3 -893.983 1509.18C-894.004 1509.05 -894.005 1508.93 -893.987 1508.81C-893.975 1508.69 -893.944 1508.57 -893.895 1508.47C-893.846 1508.36 -893.78 1508.27 -893.702 1508.2C-893.624 1508.13 -893.536 1508.07 -893.441 1508.05C-893.347 1508.02 -893.25 1508.02 -893.155 1508.04C-617.88 1559.46 -396.277 1535.84 -152.454 1429.05C-15.6237 1369.11 84.8616 1331.33 229.158 1350.99C333.603 1365.25 437.771 1393.98 538.533 1421.74C576.796 1432.31 616.344 1443.22 655.338 1453.18C767.778 1481.9 887.382 1508.27 1005.3 1488.7C1094.66 1473.86 1161.35 1420.94 1231.94 1364.93C1276.89 1329.25 1323.37 1292.36 1376.49 1265.99C1431.8 1238.45 1483.41 1229.61 1538.9 1238.1C1594.01 1246.59 1647.35 1271.71 1696.74 1297.62C1867.09 1386.99 1996.2 1405.53 2190.16 1368.73C2190.26 1368.71 2190.36 1368.71 2190.45 1368.74C2190.55 1368.77 2190.64 1368.82 2190.72 1368.9C2190.79 1368.97 2190.86 1369.07 2190.91 1369.18C2190.95 1369.28 2190.98 1369.4 2190.99 1369.53C2191.01 1369.65 2191 1369.77 2190.98 1369.89C2190.95 1370.01 2190.91 1370.12 2190.85 1370.22C2190.79 1370.32 2190.72 1370.4 2190.64 1370.46C2190.55 1370.53 2190.46 1370.57 2190.36 1370.58C2091.29 1389.38 2013.38 1392.92 1937.71 1382.52C1860.73 1371.79 1783.98 1345.37 1696.18 1299.31C1575.29 1235.99 1488.63 1212.18 1377.02 1267.72C1324.05 1294.08 1277.62 1330.94 1232.72 1366.66C1162.1 1422.8 1095.19 1475.81 1005.5 1490.71C887.407 1510.34 767.627 1483.88 655.035 1455.16C616.041 1445.2 576.468 1434.28 538.231 1423.75C437.493 1395.95 333.351 1367.23 229.006 1353C85.0129 1333.37 -15.321 1371.12 -151.849 1430.97C-313.977 1501.72 -466.118 1536 -630.642 1536Z" fill="url(#paint2_linear_34_132)"/>
<path d="M-593.185 1468.98C-684.889 1468.98 -773.641 1452.55 -858.406 1432.87C-858.501 1432.84 -858.591 1432.8 -858.671 1432.73C-858.751 1432.66 -858.821 1432.58 -858.874 1432.47C-858.928 1432.37 -858.966 1432.26 -858.985 1432.14C-859.005 1432.02 -859.005 1431.9 -858.987 1431.78C-858.968 1431.66 -858.932 1431.54 -858.879 1431.44C-858.826 1431.34 -858.758 1431.25 -858.678 1431.19C-858.598 1431.12 -858.509 1431.07 -858.415 1431.04C-858.32 1431.02 -858.223 1431.02 -858.129 1431.04C-713.447 1464.64 -557.135 1488.58 -394.491 1437.76C-338.989 1420.34 -283.892 1395.63 -230.686 1371.72C-186.815 1352.03 -141.48 1331.67 -95.9691 1315.46C-8.50397 1284.33 85.6718 1274.1 191.78 1284.33C286.612 1293.44 382.856 1317.7 475.947 1341.19C553.195 1360.66 633.067 1380.8 713.241 1392.75C840.692 1411.74 937.921 1410.14 1028.59 1387.51C1101.27 1369.35 1162.3 1325.34 1221.13 1282.73C1267.7 1249.08 1315.86 1214.27 1369.97 1191.96C1475 1148.62 1558.83 1187.16 1655.91 1231.78L1674.12 1240.16C1854.22 1322.3 1997.04 1300.38 2183.07 1234.76C2183.16 1234.72 2183.26 1234.7 2183.36 1234.72C2183.45 1234.73 2183.55 1234.76 2183.63 1234.82C2183.72 1234.88 2183.79 1234.97 2183.85 1235.06C2183.91 1235.16 2183.95 1235.28 2183.98 1235.4C2184.02 1235.63 2184 1235.88 2183.9 1236.1C2183.81 1236.31 2183.66 1236.47 2183.47 1236.55C2077.34 1273.85 2000.82 1291.3 1927.21 1294.46C1840.93 1298.2 1760.3 1281.46 1673.57 1241.88L1655.35 1233.54C1558.53 1189.05 1474.9 1150.44 1370.28 1193.75C1316.34 1216.12 1268.23 1250.77 1221.73 1284.36C1162.7 1327.03 1101.67 1371.14 1028.74 1389.33C937.921 1411.99 840.566 1413.62 712.964 1394.61C632.739 1382.65 552.842 1362.64 475.544 1343.02C281.819 1294.14 98.8155 1248.02 -95.6663 1317.25C-141.077 1333.46 -186.487 1353.82 -230.308 1373.51C-283.513 1397.39 -338.56 1422.13 -394.289 1439.55C-459.395 1459.57 -526.188 1469.46 -593.185 1468.98Z" fill="url(#paint3_linear_34_132)"/>
<path d="M-541.619 1386.98C-549.692 1386.98 -557.832 1386.81 -566.04 1386.47C-633.956 1383.73 -705.252 1370.53 -804.425 1342.27C-804.52 1342.25 -804.61 1342.2 -804.689 1342.13C-804.769 1342.06 -804.836 1341.97 -804.888 1341.86C-804.94 1341.76 -804.974 1341.64 -804.99 1341.52C-805.006 1341.4 -805.003 1341.28 -804.98 1341.16C-804.963 1341.04 -804.925 1340.92 -804.87 1340.82C-804.815 1340.71 -804.744 1340.63 -804.661 1340.56C-804.578 1340.49 -804.485 1340.45 -804.388 1340.43C-804.291 1340.42 -804.192 1340.42 -804.097 1340.46C-631.534 1389.57 -484.905 1408.58 -330.228 1341.7C-291.653 1325.02 -253.81 1304.87 -217.229 1285.38C-152.997 1251.23 -86.595 1215.89 -15.1476 1198.86C137.057 1162.6 290.977 1209.89 439.851 1255.63C552.572 1290.23 669.128 1326.04 785.256 1326.14H786.038C880.224 1326.09 973.941 1309.38 1064.46 1276.48C1115.62 1257.92 1164.64 1226.22 1212.05 1195.54C1270.96 1157.43 1331.91 1118.02 1396.75 1104.3C1473.39 1088.1 1536.92 1120.44 1604.18 1154.69C1627.16 1166.4 1650.95 1178.51 1675.35 1188.56C1861.03 1265.1 2024.74 1198.92 2190.01 1118.11C2190.1 1118.07 2190.19 1118.04 2190.29 1118.04C2190.38 1118.04 2190.48 1118.07 2190.56 1118.12C2190.65 1118.16 2190.73 1118.23 2190.79 1118.32C2190.86 1118.41 2190.91 1118.51 2190.94 1118.62C2190.98 1118.74 2191 1118.86 2191 1118.98C2191 1119.1 2190.98 1119.22 2190.94 1119.33C2190.91 1119.45 2190.85 1119.55 2190.78 1119.64C2190.71 1119.72 2190.63 1119.79 2190.54 1119.83C2025.02 1200.68 1861.03 1267.07 1674.89 1190.35C1650.45 1180.24 1626.66 1168.02 1603.62 1156.41C1536.56 1122.26 1473.24 1090.05 1397 1106.15C1332.36 1119.8 1271.54 1159.16 1212.83 1197.2C1165.38 1227.91 1116.31 1259.64 1064.99 1278.27C974.342 1311.23 880.488 1327.97 786.164 1328.02H785.382C669.053 1328.02 552.421 1292.08 439.624 1257.41C290.926 1211.74 137.158 1164.51 -14.744 1200.68C-86.0401 1217.68 -152.366 1252.98 -216.573 1287.1C-253.205 1306.59 -291.048 1326.74 -329.673 1343.45C-397.903 1372.83 -469.543 1387.54 -541.619 1386.98Z" fill="url(#paint4_linear_34_132)"/>
<path d="M-460.243 1285.99C-470.43 1285.99 -480.719 1285.63 -491.108 1284.9C-569.937 1279.53 -650.809 1254.15 -726.46 1227.53C-726.554 1227.5 -726.643 1227.45 -726.72 1227.38C-726.798 1227.31 -726.863 1227.22 -726.91 1227.11C-726.958 1227 -726.987 1226.89 -726.997 1226.77C-727.006 1226.65 -726.995 1226.52 -726.965 1226.41C-726.963 1226.26 -726.932 1226.11 -726.874 1225.98C-726.816 1225.85 -726.733 1225.74 -726.633 1225.66C-726.532 1225.58 -726.418 1225.53 -726.299 1225.52C-726.181 1225.51 -726.063 1225.54 -725.956 1225.61C-571.753 1279.95 -419.996 1321.08 -258.883 1230.63C-229.707 1214.26 -201.313 1195.31 -173.876 1176.99C-108.917 1133.62 -47.5383 1092.67 26.7263 1079.85C143.28 1059.72 252.723 1106.89 358.559 1152.48C402.412 1171.37 447.727 1190.83 493.068 1205.44C629.24 1249.17 748.72 1259.27 858.414 1236.38C949.776 1217.2 1036.17 1171.4 1119.74 1126.97L1137.04 1117.76C1159.08 1106.06 1181.95 1092.19 1206.16 1077.2C1278.13 1033.03 1359.71 983.003 1435.64 989.587C1491.31 994.414 1541.27 1029.19 1589.46 1062.85C1613.34 1079.47 1638 1096.67 1662.79 1109.71C1843.95 1205.18 2013.69 1120.61 2200.95 1009.02C2201.04 1008.97 2201.13 1008.94 2201.23 1008.93C2201.33 1008.92 2201.43 1008.94 2201.52 1008.98C2201.61 1009.02 2201.69 1009.09 2201.76 1009.17C2201.84 1009.26 2201.89 1009.36 2201.94 1009.47C2202.01 1009.69 2202.02 1009.95 2201.96 1010.18C2201.89 1010.41 2201.76 1010.61 2201.58 1010.72C2112.99 1063.49 2026.12 1113 1937.15 1137.39C1837.35 1164.85 1747.42 1156.34 1662.29 1111.43C1637.45 1098.33 1612.74 1081.13 1588.83 1064.48C1540.67 1030.95 1490.86 996.268 1435.51 991.441C1359.86 984.857 1278.51 1034.82 1206.74 1078.86C1182.51 1093.73 1159.61 1107.63 1137.52 1119.49L1120.22 1128.69C1036.57 1173.28 950.104 1219.22 858.566 1238.39C748.644 1261.31 628.938 1251.18 492.614 1207.42C447.223 1192.85 401.832 1173.28 358.004 1154.39C252.319 1108.91 143.053 1061.7 26.8273 1081.87C-47.1851 1094.65 -108.438 1135.5 -173.271 1178.78C-200.758 1197.13 -229.152 1216.08 -258.379 1232.51C-321.907 1268.31 -390.722 1286.54 -460.243 1285.99Z" fill="url(#paint5_linear_34_132)"/>
<path d="M-361.039 1154.98C-374.206 1154.98 -387.66 1154.12 -401.399 1152.4C-471.878 1143.63 -543.24 1114.12 -622.498 1079.03C-622.591 1079 -622.677 1078.94 -622.752 1078.86C-622.826 1078.78 -622.886 1078.68 -622.929 1078.57C-622.971 1078.46 -622.996 1078.34 -622.999 1078.21C-623.003 1078.09 -622.987 1077.97 -622.952 1077.85C-622.92 1077.74 -622.871 1077.63 -622.807 1077.54C-622.744 1077.45 -622.666 1077.37 -622.579 1077.32C-622.493 1077.27 -622.398 1077.24 -622.302 1077.23C-622.206 1077.22 -622.109 1077.24 -622.018 1077.28C-479.698 1139.93 -332.509 1204.71 -184.892 1090.9C-163.929 1074.73 -144.178 1056.83 -125.083 1039.51C-71.0506 990.577 -20.0201 944.323 52.8049 939.251C154.765 932.106 254.606 986.877 351.042 1039.83C411.582 1072.97 473.964 1107.26 535.488 1125.16C674.983 1165.8 803.379 1159.29 917.094 1105.83C969.209 1081.33 1027.25 1033.13 1088.63 982.092C1151.99 929.427 1217.55 875.007 1282.86 841.162C1357.2 802.692 1419.71 797.748 1473.96 826.042C1515.79 847.893 1551.15 887.575 1585.33 925.982C1612.88 956.892 1641.36 988.886 1673.04 1011.28C1852.44 1138.21 2039.76 1013.93 2205.04 904.258L2206.93 903.014C2207.1 902.901 2207.3 902.878 2207.49 902.95C2207.67 903.021 2207.82 903.182 2207.92 903.397C2208.01 903.618 2208.02 903.874 2207.97 904.113C2207.91 904.351 2207.78 904.552 2207.61 904.673L2205.72 905.917C2040.4 1015.9 1852.72 1140.44 1672.61 1013C1640.8 990.673 1612.27 958.455 1584.68 927.481C1550.57 889.202 1515.31 849.583 1473.69 827.86C1419.83 799.757 1357.65 804.702 1283.72 842.98C1218.46 876.761 1152.97 931.149 1089.66 983.751C1028.14 1034.79 970.016 1083.12 917.75 1107.68C803.758 1161.27 675.084 1167.81 535.286 1127.1C473.611 1109.11 411.078 1074.82 350.588 1041.62C254.253 988.791 154.664 934.084 52.931 941.197C-19.4652 946.237 -70.319 992.236 -124.175 1041.14C-143.295 1058.46 -163.072 1076.23 -184.059 1092.59C-237.231 1134.04 -298.577 1155.67 -361.039 1154.98Z" fill="url(#paint6_linear_34_132)"/>
<path d="M699.453 1021C641.599 1021 579.963 1013.48 512.828 998.59C446.88 983.8 380.098 953.099 315.536 923.39C232.312 885.166 146.566 845.629 61.173 839.547C3.36993 835.385 -39.8563 860.676 -85.6801 887.407C-102.375 897.011 -119.651 907.192 -138.187 916.219C-268.244 979.606 -390.155 931.426 -519.228 880.396L-520.489 879.916C-520.674 879.835 -520.827 879.667 -520.916 879.446C-521.006 879.225 -521.024 878.969 -520.968 878.731C-520.939 878.613 -520.892 878.502 -520.83 878.407C-520.767 878.312 -520.69 878.234 -520.603 878.177C-520.516 878.12 -520.421 878.086 -520.323 878.077C-520.226 878.068 -520.128 878.083 -520.035 878.123L-518.774 878.603C-389.978 929.537 -268.319 977.654 -138.717 914.459C-120.205 905.431 -102.981 895.25 -86.3106 885.646C-40.3103 858.819 3.19336 833.528 61.2486 837.626C146.768 843.741 232.741 883.309 315.965 921.598C380.477 951.274 447.106 981.975 513.005 996.734C664.12 1030.6 787.897 1026.38 902.267 983.448C963.324 960.558 1031.79 908.152 1104.28 852.64C1231.08 755.575 1362.19 655.18 1474.57 694.909C1519.77 710.916 1558.73 749.845 1596.43 787.493C1621.8 812.847 1648.01 839.035 1675.55 857.442C1848.7 973.012 2009.55 900.533 2186.82 801.515C2186.91 801.436 2187.02 801.384 2187.13 801.363C2187.23 801.341 2187.35 801.35 2187.45 801.388C2187.56 801.427 2187.66 801.495 2187.74 801.587C2187.82 801.679 2187.89 801.793 2187.93 801.921C2187.98 802.049 2188 802.188 2188 802.329C2188 802.469 2187.97 802.607 2187.92 802.733C2187.88 802.859 2187.81 802.97 2187.72 803.058C2187.63 803.146 2187.53 803.209 2187.43 803.243C2110.38 846.27 2020.8 893.554 1932.86 910.905C1839.12 929.313 1754.79 912.314 1675.02 858.979C1647.28 840.475 1621.1 814.16 1595.7 788.837C1558.12 751.285 1519.26 712.485 1474.35 696.606C1362.62 657.069 1231.76 757.24 1105.21 854.113C1032.65 909.689 963.98 962.159 902.873 985.113C838.992 1009.09 772.211 1021 699.453 1021Z" fill="url(#paint7_linear_34_132)"/>
<path d="M703.658 917.996C658.531 917.811 613.468 913.648 568.797 905.537C478.267 889.563 387.814 859.692 300.335 830.844C215.909 803.049 128.607 774.297 39.7671 757.173C-17.6523 746.087 -67.7588 755.607 -120.79 765.703C-134.66 768.322 -148.983 771.07 -163.66 773.466C-287.047 793.625 -404.155 759.441 -517.43 726.375C-517.618 726.315 -517.781 726.165 -517.884 725.957C-517.987 725.749 -518.023 725.498 -517.985 725.257C-517.937 725.019 -517.819 724.813 -517.655 724.683C-517.49 724.552 -517.293 724.506 -517.103 724.554C-403.953 757.588 -286.971 791.644 -163.836 771.613C-149.16 769.217 -134.811 766.469 -120.967 763.85C-67.8091 753.754 -17.5767 744.202 40.0444 755.32C128.96 772.444 216.287 801.228 300.739 829.055C483.008 889.116 655.166 945.823 848.278 899.339C946.121 875.762 1036.35 823.144 1120.37 771.262C1142.94 757.333 1166.64 739.889 1191.74 721.424C1255.76 674.365 1328.31 620.981 1396.57 619H1400.56C1461.08 619 1518.02 659.03 1573.09 697.75C1599.82 716.536 1625.07 734.298 1650.51 747.557C1828.92 840.588 1990.16 780.91 2140 711.807C2140.09 711.761 2140.19 711.739 2140.29 711.742C2140.38 711.744 2140.48 711.771 2140.57 711.822C2140.66 711.873 2140.74 711.946 2140.81 712.036C2140.87 712.127 2140.92 712.234 2140.96 712.35C2141.02 712.588 2141.01 712.848 2140.93 713.075C2140.84 713.302 2140.69 713.478 2140.5 713.564C2067.65 747.141 1981.64 782.986 1895.9 794.04C1809.48 805.126 1729.06 790.494 1650.03 749.314C1624.31 735.864 1599.09 718.101 1572.34 699.284C1517.41 660.691 1460.68 620.789 1400.48 620.789C1399.17 620.789 1397.96 620.789 1396.57 620.789C1328.69 622.738 1256.29 675.994 1192.32 723.021C1167.1 741.487 1143.47 758.93 1120.88 772.891C1036.75 824.838 946.423 877.519 848.53 901.128C800.767 912.518 752.26 918.166 703.658 917.996Z" fill="url(#paint8_linear_34_132)"/>
<path d="M708.514 844C524.4 844 339.883 788.85 160.863 735.424C103.031 718.148 43.257 700.297 -14.9282 684.84C-133.114 653.417 -256.773 642.017 -376.321 631C-444.418 624.613 -514.912 618.226 -583.362 608.103C-583.458 608.087 -583.551 608.047 -583.635 607.986C-583.719 607.924 -583.793 607.842 -583.851 607.744C-583.91 607.645 -583.953 607.534 -583.977 607.414C-584.001 607.295 -584.006 607.171 -583.992 607.049C-583.983 606.928 -583.954 606.811 -583.908 606.705C-583.862 606.599 -583.8 606.505 -583.724 606.431C-583.649 606.356 -583.562 606.301 -583.469 606.27C-583.376 606.24 -583.28 606.233 -583.185 606.251C-514.785 616.374 -444.343 622.857 -376.221 629.148C-256.597 640.165 -132.913 651.501 -14.6255 682.988C43.5596 698.444 103.359 716.327 161.191 733.604C360.186 793.065 565.964 854.57 770.356 840.04C856.108 833.94 939.969 807.18 1034.42 755.766C1069.38 736.765 1104.69 710.068 1138.81 684.266C1195.69 641.282 1254.48 596.83 1316.22 583.354C1388.05 567.675 1458.21 597.245 1526.06 625.858C1545.15 633.874 1564.87 642.208 1584.07 649.234C1772.69 718.307 1922.38 691.515 2089.04 630.074C2089.23 630.012 2089.43 630.044 2089.61 630.162C2089.78 630.28 2089.91 630.477 2089.98 630.712C2090.02 630.953 2090 631.209 2089.91 631.428C2089.81 631.647 2089.66 631.813 2089.47 631.894C1922.53 693.431 1772.64 720.255 1583.66 651.054C1564.42 643.997 1544.67 635.662 1525.65 627.615C1457.98 599.098 1388 569.591 1316.52 585.174C1255.06 598.619 1196.37 642.975 1139.62 685.862C1105.44 711.697 1070.08 738.426 1035.05 757.49C940.448 808.968 856.386 835.792 770.483 841.892C749.818 843.318 729.162 844.021 708.514 844Z" fill="url(#paint9_linear_34_132)"/>
<path d="M752.207 797.994C729.96 797.929 707.731 796.359 685.615 793.291C494.995 767.407 303.845 712.92 118.951 660.256C-143.382 585.547 -414.593 508.183 -687.243 512.023C-687.437 512.015 -687.623 511.916 -687.763 511.745C-687.903 511.573 -687.987 511.341 -688 511.095C-688.003 510.97 -687.987 510.846 -687.951 510.73C-687.916 510.614 -687.863 510.508 -687.794 510.418C-687.726 510.328 -687.644 510.257 -687.554 510.209C-687.464 510.16 -687.366 510.135 -687.268 510.135C-414.442 506.328 -143.104 583.724 119.279 658.432C304.123 711.096 495.247 765.551 685.741 791.435C774.405 803.466 851.717 792.363 929.156 756.433C980.513 732.564 1026.35 694.107 1070.69 656.896C1116.57 618.502 1164.02 578.572 1216.99 555.824C1310.55 515.67 1407.31 536.403 1500.86 556.496C1510.13 558.48 1519.38 560.442 1528.61 562.383C1725.21 603.369 1878.04 600.329 2056.1 551.953C2056.2 551.919 2056.3 551.912 2056.39 551.93C2056.49 551.948 2056.58 551.991 2056.67 552.058C2056.75 552.124 2056.82 552.211 2056.88 552.314C2056.93 552.417 2056.97 552.534 2056.98 552.656C2057.02 552.898 2056.99 553.148 2056.88 553.357C2056.78 553.565 2056.62 553.715 2056.43 553.776C1878.2 602.217 1725.21 605.224 1528.44 564.271L1500.69 558.352C1407.36 538.323 1310.75 517.622 1217.55 557.616C1164.73 580.3 1117.35 620.038 1071.55 658.496C1027.15 695.77 981.244 734.292 929.711 758.192C872.9 784.836 812.777 798.318 752.207 797.994Z" fill="url(#paint10_linear_34_132)"/>
<path d="M740.832 766C698.401 766 656.373 755.437 610.611 739.721C576.504 728.006 542.322 714.85 509.275 702.111C440.885 675.8 370.174 648.593 297.369 633.165C241.289 621.29 183.444 617.353 127.516 613.544C58.4196 608.838 -13.0229 603.941 -81.6401 584.096C-142.967 566.331 -201.922 536.467 -258.96 507.596C-295.034 489.351 -332.32 470.466 -369.958 454.814C-523.666 390.797 -666.602 403.6 -798.16 427.095C-798.256 427.113 -798.354 427.106 -798.448 427.076C-798.543 427.045 -798.631 426.991 -798.708 426.916C-798.786 426.842 -798.851 426.748 -798.899 426.641C-798.948 426.535 -798.98 426.417 -798.992 426.294C-799.006 426.172 -799.001 426.048 -798.977 425.928C-798.953 425.809 -798.91 425.697 -798.852 425.598C-798.793 425.5 -798.719 425.417 -798.635 425.356C-798.551 425.294 -798.458 425.254 -798.361 425.238C-666.627 401.744 -523.388 388.813 -369.504 453.021C-331.916 468.706 -294.606 487.59 -258.506 505.867C-201.544 534.675 -142.639 564.539 -81.413 582.271C-12.922 602.085 58.4449 606.95 127.491 611.687C183.469 615.496 241.34 619.433 297.52 631.34C370.375 646.736 441.112 673.976 509.552 700.318C542.574 713.122 576.757 726.181 610.864 737.928C685.661 763.535 750.469 775.506 823.425 749.803C891.891 725.701 946.835 673.335 1000.01 622.666C1041.89 582.719 1085.23 541.429 1135.23 513.677C1244.46 452.861 1366.43 455.07 1482 466.401L1503.79 468.545C1693.35 487.142 1872.41 504.715 2064.19 474.243C2064.28 474.225 2064.38 474.232 2064.47 474.263C2064.56 474.294 2064.65 474.348 2064.72 474.423C2064.8 474.498 2064.86 474.592 2064.91 474.698C2064.95 474.805 2064.98 474.922 2064.99 475.043C2065.01 475.165 2065 475.29 2064.98 475.409C2064.95 475.529 2064.91 475.641 2064.85 475.739C2064.79 475.838 2064.72 475.92 2064.64 475.982C2064.55 476.044 2064.46 476.084 2064.36 476.099C1872.44 506.603 1693.32 488.903 1503.69 470.402L1481.87 468.257C1366.54 456.99 1244.74 454.878 1135.84 515.374C1085.96 543.061 1042.72 584.288 1000.9 624.202C947.643 674.968 892.572 727.462 823.854 751.628C796.828 761.213 768.894 766.048 740.832 766Z" fill="url(#paint11_linear_34_132)"/>
<path d="M688.245 702C649.804 702 607.529 691.47 559.428 666.6L530.093 651.332C448.066 608.538 370.579 568.113 282.044 551.661C220.246 540.171 157.717 543.308 97.2559 546.38C19.5671 550.285 -60.7701 554.35 -139.417 527.016C-201.543 505.475 -259.557 468.026 -315.554 431.794C-348.723 410.381 -383.002 388.232 -417.735 369.668C-567.84 289.297 -708.21 280.911 -887.07 341.661C-887.165 341.695 -887.263 341.704 -887.361 341.688C-887.458 341.672 -887.552 341.632 -887.637 341.569C-887.721 341.507 -887.795 341.423 -887.854 341.323C-887.913 341.224 -887.955 341.11 -887.978 340.989C-888.025 340.747 -887.996 340.492 -887.897 340.277C-887.798 340.062 -887.638 339.904 -887.449 339.837C-708.235 279.023 -567.588 287.409 -417.154 367.939C-382.396 386.536 -348.067 408.717 -314.873 430.13C-258.851 466.33 -200.913 503.746 -139.014 525.223C-60.6188 552.462 19.6176 548.429 97.2054 544.428C157.742 541.227 220.347 538.218 282.246 549.741C370.982 566.257 448.545 606.714 530.648 649.54L559.983 664.807C726.61 750.875 822.788 664.295 934.175 564.048C982.73 520.358 1032.95 475.164 1093.74 438.74C1310.28 308.982 1564.94 339.517 1811.23 368.771C1924 382.246 2030.42 394.921 2133.38 393.193C2133.56 393.234 2133.71 393.351 2133.83 393.523C2133.94 393.696 2134 393.913 2134 394.137C2134 394.362 2133.94 394.579 2133.83 394.751C2133.71 394.924 2133.56 395.041 2133.38 395.081C2030.42 396.842 1923.87 384.103 1811.07 370.66C1564.99 341.277 1310.54 310.902 1094.34 440.436C1033.66 476.764 983.512 521.927 934.982 565.585C855.326 637.281 783.514 701.968 688.245 702Z" fill="url(#paint12_linear_34_132)"/>
<path d="M696.56 611C646.508 611 601.652 587.001 549.052 558.88L538.506 553.224C439.84 500.369 354.544 454.705 245.357 454.705H243.465C192.782 454.96 144.622 465.601 98.0507 475.891C18.2798 493.499 -57.051 510.148 -141.615 477.553C-216.416 448.793 -284.481 394.724 -350.301 342.476C-389.909 311.032 -430.854 278.565 -472.607 252.105C-620.241 158.731 -750.998 156.238 -923.986 243.893C-924.075 243.94 -924.171 243.963 -924.268 243.963C-924.364 243.963 -924.46 243.938 -924.549 243.89C-924.639 243.843 -924.719 243.773 -924.787 243.686C-924.855 243.599 -924.909 243.495 -924.945 243.381C-924.982 243.268 -925 243.147 -925 243.024C-925 242.902 -924.98 242.78 -924.943 242.668C-924.905 242.555 -924.85 242.452 -924.781 242.366C-924.712 242.28 -924.631 242.213 -924.541 242.167C-838.488 198.611 -766.185 178.256 -697.035 178H-695.925C-622.284 178 -548.997 201.679 -471.951 250.412C-430.148 276.871 -389.152 309.402 -349.519 340.878C-283.775 393.062 -215.811 447.035 -141.186 475.763C-56.9247 508.262 18.2547 491.741 97.849 474.038C144.496 463.748 192.706 453.075 243.516 452.851H245.408C354.897 452.851 440.319 498.612 539.137 551.53L549.657 557.187C624.382 597.131 683.366 628.703 763.818 594.703C834.103 565.016 895.382 502.638 954.642 442.37C1005.91 390.186 1058.91 336.277 1118.12 302.659C1250.62 227.467 1404 193.019 1586.93 197.205C1748.67 200.976 1913.36 233.667 2072.65 265.303C2147.07 280.066 2217.38 294.063 2287.36 305.216C2287.46 305.227 2287.55 305.264 2287.63 305.322C2287.72 305.38 2287.79 305.46 2287.85 305.555C2287.91 305.651 2287.95 305.761 2287.98 305.878C2288 305.996 2288.01 306.118 2287.99 306.238C2287.96 306.478 2287.86 306.695 2287.71 306.848C2287.56 307.001 2287.38 307.08 2287.19 307.069C2217.18 295.885 2146.87 281.92 2072.42 267.156C1748.95 202.925 1414.45 136.521 1118.8 304.321C1059.77 337.842 1006.81 391.688 955.651 443.776C896.29 504.172 834.91 566.645 764.373 596.46C742.545 605.956 719.639 610.867 696.56 611Z" fill="url(#paint13_linear_34_132)"/>
<path d="M691.913 436C654.579 436 614.646 428.142 570.502 409.647C481.077 372.209 403.331 348.028 314.461 352.149C260.554 354.545 207.706 369.845 156.599 384.667C70.3269 409.647 -11.1267 433.221 -99.2147 401.629C-177.591 373.519 -246.861 316.181 -313.835 260.695C-346.83 233.384 -380.935 205.146 -415.57 180.837C-576.182 68.4601 -713.107 60.1869 -904.014 151.353C-904.104 151.399 -904.199 151.421 -904.295 151.418C-904.391 151.415 -904.486 151.387 -904.574 151.336C-904.661 151.286 -904.739 151.213 -904.804 151.122C-904.868 151.032 -904.917 150.925 -904.948 150.81C-904.984 150.695 -905.002 150.572 -905 150.448C-904.998 150.324 -904.976 150.201 -904.936 150.088C-904.896 149.975 -904.839 149.873 -904.767 149.789C-904.695 149.704 -904.611 149.639 -904.519 149.596C-809.267 104.109 -730.462 84.2402 -656.399 87.3067C-576.611 90.501 -499.849 119.729 -414.864 179.208C-380.178 203.485 -346.048 231.754 -313.028 259.066C-246.129 314.424 -176.96 371.698 -98.8112 399.617C-11.1016 431.081 70.2009 407.539 156.271 382.623C207.454 367.801 260.377 352.468 314.411 350.041C403.457 346.111 481.379 370.229 570.981 407.762C726.119 472.735 829.721 405.75 949.669 328.191C1006.22 291.744 1064.8 253.923 1133.41 226.995C1430.57 110.434 1752.15 154.356 2063.13 196.84C2168.02 211.183 2276.46 226.005 2380.32 233.799C2380.41 233.807 2380.51 233.839 2380.59 233.893C2380.68 233.947 2380.76 234.023 2380.82 234.115C2380.88 234.207 2380.93 234.314 2380.96 234.429C2380.99 234.545 2381.01 234.667 2381 234.789C2380.97 235.032 2380.88 235.256 2380.74 235.42C2380.59 235.584 2380.41 235.678 2380.22 235.683C2276.34 227.857 2167.87 213.036 2062.95 198.693C1752.12 156.24 1430.7 112.446 1133.84 228.784C1065.28 255.68 1006.86 293.469 950.35 329.98C864.154 385.721 786.383 436 691.913 436Z" fill="url(#paint14_linear_34_132)"/>
<path d="M35.0498 368.998C5.67963 369.124 -23.5502 363.863 -51.7291 353.38C-129.073 324.475 -195.898 264.366 -260.528 206.237C-291.96 177.97 -324.452 148.746 -357.549 123.706C-538.75 -13.3763 -688.267 8.72555 -857.032 84.3891C-857.216 84.462 -857.415 84.443 -857.589 84.3361C-857.762 84.2293 -857.897 84.0426 -857.966 83.8142C-858.023 83.5811 -858.008 83.3289 -857.924 83.1092C-857.839 82.8896 -857.692 82.7191 -857.511 82.6325C-756.353 37.3429 -677.697 18.7544 -602.397 22.4593C-519.351 26.5155 -441.326 58.1672 -356.817 122.109C-323.67 147.181 -291.229 176.405 -259.696 204.703C-195.167 262.737 -128.518 322.878 -51.3254 351.623C44.7115 387.49 132.121 354.625 224.651 319.684C268.142 303.331 313.121 286.403 358.755 277.492C433.224 262.992 506.128 265.26 595.177 284.87C734.528 315.564 845.423 269.38 962.878 220.481C1022.82 195.537 1084.82 169.698 1153.79 152.547C1417.31 86.9442 1691.11 102.051 1955.99 116.679C2117.26 125.59 2283.93 134.821 2446.24 125.59C2446.43 125.59 2446.62 125.682 2446.76 125.848C2446.9 126.014 2446.99 126.242 2447 126.485C2447.01 126.607 2446.99 126.731 2446.96 126.847C2446.93 126.963 2446.88 127.069 2446.81 127.159C2446.74 127.249 2446.66 127.32 2446.57 127.369C2446.49 127.418 2446.39 127.443 2446.29 127.443C2284.04 136.673 2117.24 127.443 1955.92 118.564C1691.19 103.936 1417.43 88.7967 1154.09 154.368C1085.23 171.519 1023.27 197.325 963.357 222.27C845.751 271.232 734.629 317.48 595.051 286.723C506.178 267.144 433.425 264.877 359.108 279.345C313.55 288.224 268.646 305.12 225.207 321.472C160.854 345.778 99.0493 368.998 35.0498 368.998Z" fill="url(#paint15_linear_34_132)"/>
<path d="M96.4624 334.991C65.3361 335.256 34.3585 329.54 4.58771 318.04C-71.4448 288.225 -135.469 225.466 -197.375 164.622C-227.243 135.317 -258.121 104.991 -289.729 79.0697C-466.92 -66.1771 -615.958 -47.6302 -799.026 29.3984C-799.119 29.438 -799.217 29.4536 -799.314 29.4444C-799.412 29.4352 -799.507 29.4013 -799.594 29.3448C-799.681 29.2882 -799.758 29.2102 -799.821 29.1152C-799.884 29.0202 -799.931 28.9103 -799.959 28.792C-799.991 28.6767 -800.004 28.5546 -799.999 28.4327C-799.993 28.3109 -799.969 28.1916 -799.926 28.0818C-799.884 27.972 -799.825 27.8739 -799.753 27.7931C-799.681 27.7122 -799.596 27.6503 -799.505 27.6108C-693.857 -16.8251 -613.157 -34.7335 -537.857 -30.3602C-451.708 -25.3803 -372.623 8.90431 -288.947 77.5055C-257.263 103.49 -226.36 133.816 -196.467 163.153C-134.662 223.806 -70.7385 286.565 5.01654 316.38C120.15 361.519 239.471 307.442 354.857 255.153C441.611 215.857 531.291 175.188 620.264 175.188H629.043C746.624 175.188 853.962 150.735 967.531 124.878C1032.24 110.162 1099.14 94.9032 1168.06 84.6561C1360.89 55.926 1558.26 54.266 1749.12 52.7337C1991.3 50.6588 2241.9 48.5519 2485.13 -9.00415C2485.32 -9.04162 2485.52 -8.98271 2485.68 -8.83986C2485.84 -8.69699 2485.95 -8.48128 2485.99 -8.238C2486.01 -8.11851 2486 -7.99562 2485.99 -7.87638C2485.97 -7.75713 2485.93 -7.64387 2485.87 -7.54306C2485.82 -7.44225 2485.75 -7.35588 2485.67 -7.28889C2485.59 -7.2219 2485.5 -7.17561 2485.41 -7.15265C2242.05 50.3076 1991.47 52.5422 1749.12 54.5852C1558.31 56.2133 1360.99 57.7775 1168.23 86.5076C1099.36 96.7547 1032.46 112.045 967.784 126.73C854.265 152.619 746.75 177.071 629.043 177.071H620.29C531.543 177.071 441.989 217.645 355.412 256.877C270.146 295.376 182.787 334.991 96.4624 334.991Z" fill="url(#paint16_linear_34_132)"/>
<path d="M141.306 295.998C107.865 296.122 74.6553 288.953 43.1321 274.806C-27.4966 243.161 -86.8499 179.263 -144.16 117.443C-177.557 81.4191 -212.065 44.2122 -248.085 14.3891C-410.556 -120.151 -560.567 -100.684 -750.054 -25.2792C-750.238 -25.209 -750.436 -25.2334 -750.606 -25.347C-750.776 -25.4607 -750.904 -25.6544 -750.962 -25.8865C-750.993 -26.0039 -751.005 -26.1282 -750.998 -26.2518C-750.991 -26.3754 -750.964 -26.4959 -750.919 -26.6062C-750.874 -26.7165 -750.813 -26.8142 -750.738 -26.8938C-750.663 -26.9733 -750.576 -27.033 -750.482 -27.0692C-644.539 -69.1987 -565.082 -87.2588 -493.192 -85.6606C-405.562 -83.7427 -325.197 -51.5222 -247.505 12.8228C-211.409 42.7099 -176.876 79.9488 -143.454 116.005C-86.2192 177.729 -27.0424 241.531 43.4097 273.048C177.453 333.046 304.408 253.581 427.176 176.738C499.293 131.604 573.857 84.9353 648.975 67.0989C774.367 37.3717 912.521 32.1295 1046.11 27.0471C1100.37 25.0014 1151.6 23.0515 1202.05 19.5354C1304.03 12.4712 1409.65 9.56239 1511.78 6.7495C1841.69 -2.36046 2182.75 -11.7261 2493.02 -158.924C2493.1 -158.974 2493.2 -159 2493.3 -159C2493.4 -159 2493.49 -158.973 2493.58 -158.921C2493.67 -158.87 2493.75 -158.795 2493.81 -158.701C2493.87 -158.608 2493.92 -158.499 2493.95 -158.38C2493.98 -158.267 2494 -158.146 2494 -158.024C2494 -157.903 2493.98 -157.783 2493.94 -157.672C2493.9 -157.561 2493.84 -157.462 2493.77 -157.38C2493.69 -157.299 2493.61 -157.237 2493.52 -157.198C2183.08 -9.87215 1841.82 -0.570435 1511.81 8.60345C1409.67 11.4164 1304.06 14.3251 1202.1 21.3893C1151.65 24.8735 1100.39 26.8234 1046.14 28.9011C912.597 33.9515 774.493 39.1937 649.228 68.9209C574.285 86.6933 499.823 133.298 427.806 178.4C335.308 236.48 240.186 295.998 141.306 295.998Z" fill="url(#paint17_linear_34_132)"/>
<path d="M178.122 236C144.968 235.96 112.061 228.759 80.8091 214.707C10.3342 183.425 -47.8317 118.042 -104.03 54.6128C-136.493 18.0792 -170.091 -19.7352 -205.253 -49.769C-367.29 -188.283 -524.282 -168.463 -725.037 -91.6176C-725.13 -91.578 -725.228 -91.5623 -725.325 -91.5716C-725.423 -91.5808 -725.518 -91.6148 -725.605 -91.6715C-725.692 -91.7283 -725.769 -91.8066 -725.832 -91.9018C-725.895 -91.997 -725.942 -92.1073 -725.97 -92.226C-726.025 -92.468 -726.003 -92.7278 -725.909 -92.9494C-725.815 -93.171 -725.655 -93.3366 -725.466 -93.4107C-524.282 -170.416 -366.936 -190.268 -204.42 -51.3378C-169.107 -21.208 -135.56 16.6383 -103.046 53.2039C-46.9236 116.345 11.0909 181.632 81.2884 212.786C231.294 279.322 360.716 176.445 485.851 76.962C547.75 27.7809 611.742 -23.0972 676.668 -51.626C726.813 -73.6551 770.551 -68.7561 821.2 -63.0568C958.82 -47.5916 1088.97 -40.3874 1219.33 -40.8997C1245.24 -40.8997 1271.46 -40.9531 1297.98 -41.0598C1691.82 -41.444 2138.2 -41.9243 2471.86 -311.844C2471.94 -311.913 2472.03 -311.96 2472.13 -311.983C2472.23 -312.007 2472.32 -312.005 2472.42 -311.98C2472.52 -311.954 2472.61 -311.904 2472.69 -311.834C2472.77 -311.763 2472.83 -311.673 2472.89 -311.568C2472.94 -311.463 2472.97 -311.346 2472.99 -311.224C2473.01 -311.102 2473 -310.977 2472.98 -310.857C2472.96 -310.736 2472.92 -310.623 2472.86 -310.523C2472.8 -310.423 2472.73 -310.339 2472.64 -310.275C2138.63 -40.0032 1692.02 -39.4268 1297.98 -39.0106C1271.48 -39.0106 1245.26 -38.9572 1219.33 -38.8505C1089 -38.3382 958.744 -45.5424 821.073 -61.0396C770.626 -66.707 726.989 -71.6058 677.172 -49.7049C612.398 -21.2401 548.532 29.574 486.633 78.723C388.967 156.337 288.803 235.968 178.122 236Z" fill="url(#paint18_linear_34_132)"/>
<path d="M188.257 133C159.465 132.935 130.817 127.852 103.119 117.894C26.7601 90.7808 -34.3375 24.4182 -93.3917 -39.7728C-121.14 -69.8244 -149.671 -100.93 -179.16 -127.181C-355.743 -284.146 -520.418 -265.91 -745.056 -181.472C-745.149 -181.438 -745.246 -181.427 -745.342 -181.441C-745.438 -181.455 -745.531 -181.493 -745.615 -181.552C-745.7 -181.611 -745.774 -181.691 -745.834 -181.787C-745.894 -181.883 -745.938 -181.993 -745.964 -182.111C-745.995 -182.228 -746.006 -182.352 -745.997 -182.475C-745.988 -182.598 -745.959 -182.718 -745.911 -182.826C-745.864 -182.934 -745.799 -183.028 -745.721 -183.103C-745.644 -183.178 -745.555 -183.231 -745.46 -183.26C-657.547 -216.378 -554.095 -249.847 -453.746 -246.749C-354.33 -243.747 -264.222 -205.232 -178.303 -128.842C-148.687 -102.527 -120.056 -71.3573 -92.3573 -41.3376C-33.4041 22.7256 27.5421 88.9604 103.573 115.978C263.002 172.536 390.999 58.7172 514.758 -51.3975C574.695 -104.73 636.701 -159.979 700.649 -193.448C751.605 -220.242 794.111 -207.979 843.302 -193.767C868.679 -186.422 894.032 -178.758 918.551 -171.412C1020.39 -140.594 1116.58 -111.469 1222.63 -102.814C1600.03 -71.9002 2134.37 -74.8383 2416.75 -454.715C2416.82 -454.805 2416.9 -454.877 2416.99 -454.926C2417.08 -454.975 2417.17 -455 2417.27 -455C2417.37 -455 2417.46 -454.975 2417.55 -454.926C2417.64 -454.877 2417.72 -454.805 2417.79 -454.715C2417.92 -454.541 2418 -454.306 2418 -454.06C2418 -453.815 2417.92 -453.579 2417.79 -453.406C2135.03 -72.9861 1600.21 -69.9202 1222.58 -100.642C1116.4 -109.297 1020.14 -138.423 918.249 -169.304C893.729 -176.714 868.377 -184.378 842.999 -191.66C794.036 -205.775 751.757 -217.975 701.229 -191.436C637.432 -157.935 575.528 -102.846 515.641 -49.5771C414.333 40.3861 310.2 133 188.257 133Z" fill="url(#paint19_linear_34_132)"/>
<path d="M1830.3 1569C1830.11 1569 1829.91 1568.89 1829.77 1568.71C1806.45 1537.43 1779.84 1506.17 1754.12 1476.03C1660.18 1365.52 1562.79 1251.4 1573.53 1085.7C1575.8 1050.55 1581.96 1015.39 1587.91 981.2C1601.2 905.013 1613.76 833.044 1588.21 757.24C1566.9 694.027 1523.68 651.619 1481.89 610.585C1470.14 599.048 1457.96 587.096 1446.59 575.016C1394.71 519.569 1369.01 465.656 1368.03 410.21C1366.57 328.526 1417.58 251.635 1494.63 161.354C1570.89 71.8723 1594.11 -5.08206 1629.27 -121.76C1632.27 -131.688 1635.37 -141.904 1638.55 -152.408C1638.58 -152.524 1638.63 -152.631 1638.7 -152.721C1638.77 -152.811 1638.85 -152.882 1638.94 -152.93C1639.03 -152.978 1639.12 -153.002 1639.22 -153C1639.32 -152.998 1639.42 -152.97 1639.5 -152.919C1639.59 -152.877 1639.67 -152.812 1639.74 -152.729C1639.81 -152.646 1639.87 -152.547 1639.9 -152.436C1639.94 -152.326 1639.96 -152.207 1639.96 -152.087C1639.96 -151.967 1639.94 -151.847 1639.91 -151.736L1630.65 -121.089C1595.35 -4.1553 1572.15 73.0867 1495.63 162.728C1419.12 252.37 1368.06 329.165 1369.54 410.146C1370.53 465.049 1396.05 518.515 1447.72 573.61C1458.99 585.658 1471.15 597.578 1482.9 609.115C1524.84 650.277 1568.21 692.845 1589.67 756.505C1615.4 832.852 1602.28 908.464 1589.45 981.615C1583.49 1015.59 1577.37 1050.77 1575.1 1085.86C1564.35 1250.6 1661.32 1364.47 1755.13 1474.6C1780.88 1504.83 1807.48 1536.08 1830.78 1567.27C1830.92 1567.45 1831 1567.69 1831 1567.95C1831 1568.2 1830.92 1568.44 1830.78 1568.62C1830.73 1568.72 1830.66 1568.81 1830.58 1568.87C1830.49 1568.94 1830.4 1568.98 1830.3 1569Z" fill="url(#paint20_linear_34_132)"/>
<path d="M1755.29 1561C1755.08 1560.99 1754.88 1560.87 1754.74 1560.68C1733.84 1530.64 1710.74 1501.3 1686.29 1470.23C1596.14 1355.69 1502.92 1237.21 1515.81 1076.42C1518.76 1039.6 1527.17 1002.37 1535.96 962.962C1550.36 899.041 1565.27 832.948 1554.64 769.762C1538.65 674.489 1478.32 630.928 1420 588.804C1407.84 580.015 1395.27 570.938 1383.26 561.542C1315.95 508.744 1281.83 458.311 1275.89 402.796C1267.5 324.302 1319.93 240.151 1377.82 160.858C1416.1 108.475 1436.39 46.7918 1456.03 -12.8778C1470.61 -57.1426 1485.67 -102.942 1508.08 -145.576C1508.14 -145.681 1508.21 -145.771 1508.29 -145.841C1508.37 -145.911 1508.46 -145.959 1508.56 -145.983C1508.65 -146.007 1508.75 -146.006 1508.85 -145.98C1508.95 -145.954 1509.04 -145.904 1509.12 -145.832C1509.28 -145.696 1509.39 -145.485 1509.42 -145.245C1509.46 -145.006 1509.42 -144.758 1509.32 -144.554C1486.98 -102.079 1471.95 -56.3437 1457.39 -12.1428C1437.7 47.6547 1417.33 109.498 1378.9 162.136C1321.24 241.078 1269.04 324.813 1277.35 402.54C1283.21 457.448 1317.11 507.465 1384.04 559.944C1396.03 569.34 1408.57 578.417 1420.73 587.174C1479.33 629.521 1539.94 673.275 1556.08 769.347C1566.78 833.012 1551.82 899.329 1537.37 963.473C1528.51 1002.82 1520.12 1039.95 1517.22 1076.61C1504.41 1236.41 1597.38 1354.67 1687.27 1468.92C1711.75 1499.99 1734.84 1529.36 1755.79 1559.43C1755.93 1559.62 1756 1559.86 1756 1560.11C1756 1560.35 1755.93 1560.59 1755.79 1560.78C1755.65 1560.92 1755.47 1561 1755.29 1561Z" fill="url(#paint21_linear_34_132)"/>
<path d="M1669.21 1581.81C1669.1 1581.81 1668.99 1581.77 1668.89 1581.71C1668.79 1581.65 1668.7 1581.56 1668.63 1581.45C1646.75 1546.48 1624.06 1513.59 1602.11 1481.76C1508.54 1346.16 1427.73 1229.04 1464.5 1035.84C1469.22 1011.1 1475.91 984.918 1483 957.237C1506.09 867.126 1532.23 765.029 1493.27 683.294C1464.12 622.112 1402.65 595.102 1348.42 571.415C1338.6 567.1 1329.32 563.009 1320.49 558.853C1247.45 524.331 1207.1 485.908 1193.45 437.96C1175.94 376.331 1202.16 298.528 1250.15 192.915C1269.99 149.25 1284.8 99.9275 1299.14 52.2672C1320.69 -19.3989 1342.94 -93.5264 1382.74 -150.712C1382.81 -150.803 1382.89 -150.876 1382.98 -150.925C1383.07 -150.975 1383.17 -151 1383.27 -151C1383.37 -151 1383.47 -150.975 1383.56 -150.925C1383.65 -150.876 1383.73 -150.803 1383.8 -150.712C1383.94 -150.538 1384.01 -150.303 1384.01 -150.057C1384.01 -149.811 1383.94 -149.576 1383.8 -149.402C1344.18 -92.4396 1321.95 -18.3441 1300.52 53.0344C1286.17 100.982 1271.33 150.241 1251.44 194.033C1203.65 299.167 1177.53 376.587 1194.86 437.513C1208.31 484.917 1248.41 522.956 1321.04 557.287C1329.82 561.442 1339.11 565.534 1348.93 569.849C1403.41 593.759 1465.01 620.994 1494.56 682.655C1533.87 765.093 1507.6 867.67 1484.46 958.132C1477.37 985.782 1470.69 1011.9 1465.99 1036.61C1429.4 1228.85 1509.98 1345.65 1603.27 1480.92C1625.23 1512.89 1647.94 1545.69 1669.84 1580.69C1669.9 1580.78 1669.95 1580.89 1669.97 1581.01C1670 1581.13 1670.01 1581.25 1669.99 1581.38C1669.98 1581.5 1669.95 1581.62 1669.9 1581.72C1669.86 1581.83 1669.79 1581.92 1669.72 1582C1669.53 1582.01 1669.36 1581.94 1669.21 1581.81Z" fill="url(#paint22_linear_34_132)"/>
<path d="M1566.47 1637.78C1566.35 1637.77 1566.23 1637.73 1566.13 1637.66C1566.02 1637.59 1565.93 1637.48 1565.86 1637.36C1548.06 1604.22 1530.76 1573.67 1514.04 1544.14C1419.83 1377.64 1351.75 1257.35 1404.8 1033.35C1410.15 1010.69 1417.94 985.189 1426.19 958.152C1455.16 863.14 1491.25 744.927 1445.88 664.328C1414.13 607.89 1345.17 592.006 1289.77 579.255C1279.07 576.794 1268.99 574.461 1259.81 572C1253.68 570.339 1247.2 568.805 1240.49 567.015C1186.05 553.305 1118.29 536.239 1089.19 473.825C1060.7 412.848 1087.93 347.558 1111.89 289.969C1120.71 268.78 1129.06 248.807 1134.58 229.536C1146.13 190.035 1155.08 148.554 1163.73 108.446C1184.81 10.8135 1206.6 -90.1107 1267.12 -166.715C1267.19 -166.805 1267.27 -166.876 1267.36 -166.926C1267.45 -166.975 1267.54 -167 1267.64 -167C1267.74 -167 1267.83 -166.975 1267.92 -166.926C1268.01 -166.876 1268.09 -166.805 1268.16 -166.715C1268.29 -166.537 1268.36 -166.303 1268.36 -166.06C1268.36 -165.816 1268.29 -165.582 1268.16 -165.404C1207.84 -89.152 1186.1 11.5485 1165.07 108.925C1156.42 149.097 1147.42 190.611 1135.9 230.367C1130.22 249.733 1121.87 269.771 1113.02 291.087C1087.98 351.041 1062.11 413.04 1090.18 473.249C1119.03 534.961 1186.43 551.931 1240.57 565.577C1247.35 567.271 1253.78 568.773 1259.91 570.562C1269.06 573.023 1279.15 575.356 1289.82 577.785C1345.49 590.568 1414.79 606.547 1446.89 663.625C1492.71 745.055 1456.47 863.779 1427.37 959.207C1419.13 986.18 1411.36 1011.68 1406.01 1034.28C1353.06 1257.38 1421.14 1377.38 1515.05 1543.44C1531.77 1572.97 1549.07 1603.55 1566.87 1636.69C1566.98 1636.89 1567.02 1637.15 1566.99 1637.39C1566.96 1637.63 1566.85 1637.85 1566.69 1638C1566.61 1637.94 1566.53 1637.87 1566.47 1637.78Z" fill="url(#paint23_linear_34_132)"/>
<path d="M1442.39 1735C1442.26 1734.99 1442.13 1734.94 1442.01 1734.85C1441.9 1734.76 1441.8 1734.64 1441.74 1734.49C1429.91 1707.6 1415.79 1678.61 1400.87 1647.89C1346.91 1537.09 1285.77 1411.49 1284.89 1293.69C1284.39 1225.51 1305.97 1154.51 1325 1091.88C1328.59 1080.15 1331.94 1069.09 1335.09 1058C1341.32 1036.77 1350.22 1011.77 1359.8 985.273C1395.68 885.407 1440.33 761.151 1399.46 681.585C1365.32 615.093 1290.56 610.873 1230.53 607.485C1219.01 606.845 1208.15 606.206 1197.88 605.215C1189.77 604.448 1180.24 603.936 1170.15 603.393C1117.2 600.484 1044.9 596.552 1012.45 549.272C967.494 483.772 991.546 396.501 1012.78 319.492C1020.01 293.311 1026.82 268.6 1030.95 245.424C1035.84 217.868 1040.13 191.591 1044.27 166.209C1066.23 31.4357 1083.57 -75.015 1165.03 -193.741C1165.17 -193.907 1165.36 -194 1165.55 -194C1165.74 -194 1165.93 -193.907 1166.07 -193.741C1166.14 -193.655 1166.2 -193.55 1166.23 -193.435C1166.27 -193.32 1166.29 -193.195 1166.29 -193.07C1166.29 -192.944 1166.27 -192.82 1166.23 -192.705C1166.2 -192.589 1166.14 -192.485 1166.07 -192.399C1084.86 -74.1199 1067.56 32.171 1045.65 166.689C1041.49 192.071 1037.23 218.348 1032.31 245.904C1028.15 269.208 1021.32 293.854 1014.09 320.195C993.009 396.725 969.082 483.452 1013.48 548.154C1045.5 594.794 1117.53 598.726 1170.13 601.603C1180.21 602.146 1189.74 602.69 1197.86 603.457C1208.12 604.448 1218.96 605.055 1230.46 605.694C1290.97 609.115 1366.03 613.367 1400.59 680.658C1441.89 761.087 1397.06 885.855 1361.06 986.136C1351.55 1012.6 1342.58 1037.6 1336.38 1058.73C1333.12 1069.86 1329.74 1080.92 1326.29 1092.65C1307.31 1155.11 1285.77 1225.92 1286.28 1293.76C1287.14 1411.04 1348.15 1536.42 1401.98 1647.03C1416.93 1677.75 1431.07 1706.74 1442.92 1733.69C1443.01 1733.91 1443.02 1734.17 1442.97 1734.4C1442.91 1734.64 1442.79 1734.84 1442.62 1734.97C1442.55 1734.99 1442.47 1735 1442.39 1735Z" fill="url(#paint24_linear_34_132)"/>
<path d="M1293.64 1879C1293.5 1879.01 1293.35 1878.96 1293.23 1878.86C1293.11 1878.77 1293.01 1878.62 1292.96 1878.46C1283.96 1851.98 1274.16 1825.02 1263.75 1796.53C1219.86 1676.08 1170.13 1539.54 1176.05 1408.43C1180.34 1313.72 1213.86 1221.37 1246.48 1132.06C1256.86 1103.51 1266.64 1076.58 1275.52 1049.63C1278.41 1040.83 1283.3 1027.75 1289.51 1011.26C1320.69 928.116 1378.68 773.51 1351.54 713.555C1320.26 644.39 1232.11 653.759 1167.76 660.634C1155.69 661.913 1144.27 663.128 1134.67 663.607C1125.57 664.055 1115.74 664.854 1105.3 665.718C1038.03 671.154 945.824 678.508 905.394 601.925C879.709 553.225 896.496 474.019 909.981 410.418C914.615 390.215 918.426 369.723 921.399 349.023C924.953 319.669 928.104 291.466 931.129 264.286C952.554 71.7559 968.055 -67.3096 1081.61 -230.741C1081.75 -230.907 1081.93 -231 1082.12 -231C1082.32 -231 1082.5 -230.907 1082.64 -230.741C1082.78 -230.567 1082.85 -230.331 1082.85 -230.086C1082.85 -229.84 1082.78 -229.604 1082.64 -229.43C969.366 -66.3503 953.915 72.4593 932.515 264.638C929.49 291.882 926.34 320.021 922.786 349.407C919.814 370.094 916.011 390.575 911.393 410.77C897.983 474.019 881.297 552.713 906.629 600.742C946.58 676.526 1038.25 669.107 1105.23 663.671C1115.64 662.84 1125.39 662.041 1134.62 661.593C1144.17 661.081 1155.56 659.898 1167.64 658.587C1232.39 651.712 1321.06 642.279 1352.82 712.467C1380.32 773.223 1322.12 928.5 1290.84 1011.89C1284.64 1028.43 1279.75 1041.47 1276.88 1050.27C1268.03 1077.22 1258.2 1104.18 1247.81 1132.73C1215.35 1221.88 1181.78 1314.07 1177.52 1408.43C1171.62 1539.19 1221.27 1675.47 1265.08 1795.7C1275.49 1824.22 1285.25 1851.18 1294.29 1877.66C1294.34 1877.77 1294.36 1877.89 1294.36 1878.02C1294.37 1878.14 1294.35 1878.27 1294.31 1878.38C1294.28 1878.5 1294.23 1878.6 1294.16 1878.69C1294.09 1878.78 1294.01 1878.85 1293.92 1878.9C1293.83 1878.96 1293.74 1879 1293.64 1879Z" fill="url(#paint25_linear_34_132)"/>
<path d="M1216.93 1930C1216.79 1930 1216.65 1929.95 1216.54 1929.85C1216.42 1929.76 1216.33 1929.62 1216.27 1929.46C1207.88 1906.4 1199.05 1883.31 1189.72 1858.85C1141.82 1733.66 1087.68 1591.71 1097.09 1449.82C1103.14 1358.52 1135.72 1269.11 1167.23 1182.68C1179.28 1149.65 1190.66 1118.44 1200.59 1087.19C1203.11 1079.04 1207.35 1067.4 1212.59 1052.69C1239.27 977.989 1294.76 822.448 1266.8 763.641C1235.76 698.215 1145.98 707.808 1086.55 714.14C1075 715.355 1064.11 716.538 1054.98 717.018C1045.85 717.497 1035.64 718.393 1024.93 719.352C960.808 724.98 873.039 732.751 833.53 663.263C807.509 617.503 822.083 534.744 833.782 468.198C837.967 444.343 841.926 421.799 843.338 404.435C845.43 378.629 847.397 353.27 849.313 328.519C866.358 107.361 881.083 -83.6106 973.541 -292.522C973.588 -292.63 973.652 -292.725 973.729 -292.801C973.805 -292.878 973.893 -292.934 973.987 -292.967C974.081 -293 974.179 -293.008 974.276 -292.992C974.372 -292.976 974.465 -292.936 974.55 -292.873C974.635 -292.814 974.71 -292.733 974.77 -292.636C974.83 -292.539 974.875 -292.427 974.901 -292.308C974.926 -292.189 974.933 -292.064 974.921 -291.942C974.908 -291.819 974.876 -291.701 974.827 -291.594C882.52 -83.035 867.795 107.776 850.776 328.775C848.885 353.43 846.918 378.916 844.825 404.69C842.502 426.206 839.296 447.554 835.219 468.646C823.57 534.776 809.098 617.087 834.715 662.176C873.745 730.832 961.086 723.125 1024.83 717.465C1035.57 716.538 1045.68 715.643 1054.93 715.131C1064.18 714.619 1074.9 713.5 1086.42 712.285C1146.2 705.889 1236.54 696.296 1267.96 762.682C1296.33 822.448 1242.75 972.744 1213.83 1053.46C1208.58 1068.17 1204.45 1079.77 1201.85 1087.9C1191.92 1119.17 1180.52 1150.41 1168.47 1183.48C1137.03 1269.82 1104.48 1359 1098.45 1449.98C1089.07 1591.35 1143.2 1733.05 1190.96 1858.05C1200.29 1882.48 1209.11 1905.6 1217.51 1928.69C1217.59 1928.91 1217.59 1929.16 1217.53 1929.39C1217.46 1929.61 1217.33 1929.8 1217.16 1929.9C1217.08 1929.95 1217.01 1929.98 1216.93 1930Z" fill="url(#paint26_linear_34_132)"/>
<path d="M1129.31 1943C1129.17 1943 1129.04 1942.95 1128.92 1942.85C1128.8 1942.76 1128.71 1942.62 1128.66 1942.46C1121.08 1923.02 1113.02 1902.87 1105.19 1883.4C1052.89 1753.31 998.786 1618.77 1015.28 1473.17C1024.55 1391.07 1057.15 1310.98 1088.65 1233.54C1103.98 1195.88 1118.45 1160.29 1130.37 1124.61C1132.9 1117.04 1136.46 1107.12 1140.6 1095.65C1168.03 1019.46 1219.08 877.598 1189.75 814.901C1159.45 749.934 1076.1 753.962 1015.15 756.904C1003.61 757.479 992.674 757.895 983.43 757.959C973.453 757.959 962.618 758.343 951.101 758.758C887.327 761.188 807.945 764.225 770.236 698.427C743.918 652.547 757.431 567.055 768.266 498.379C772.004 474.784 775.515 452.499 776.702 435.554L777.838 419.568C796.806 149.181 813.375 -84.3098 892.101 -337.4C892.174 -337.63 892.315 -337.815 892.494 -337.916C892.673 -338.018 892.876 -338.027 893.06 -337.943C893.15 -337.897 893.232 -337.83 893.301 -337.744C893.37 -337.658 893.425 -337.555 893.463 -337.442C893.5 -337.329 893.52 -337.208 893.52 -337.086C893.52 -336.963 893.501 -336.841 893.464 -336.728C814.84 -83.8941 798.372 149.501 779.303 419.728L778.192 435.714C776.979 452.755 773.443 475.103 769.705 498.762C758.921 567.086 745.509 652.228 771.423 697.34C808.677 762.435 887.731 759.238 951.076 756.904C962.593 756.456 973.479 756.105 983.43 756.073C992.674 756.073 1003.64 755.593 1015.1 755.049C1076.35 752.108 1160.18 748.016 1191.02 813.974C1220.74 877.47 1169.47 1019.91 1141.94 1096.41C1137.83 1107.89 1134.37 1117.8 1131.84 1125.19C1119.89 1160.93 1105.42 1196.55 1090.06 1234.24C1058.62 1311.55 1026.09 1391.48 1016.82 1473.3C1000.43 1618.29 1054.4 1752.57 1106.61 1882.54C1114.44 1902.01 1122.55 1922.15 1130.07 1941.62C1130.15 1941.85 1130.16 1942.1 1130.1 1942.33C1130.04 1942.56 1129.91 1942.75 1129.74 1942.87C1129.61 1942.96 1129.46 1943.01 1129.31 1943Z" fill="url(#paint27_linear_34_132)"/>
<path d="M1032.62 1926C1032.49 1926 1032.35 1925.95 1032.24 1925.86C1032.12 1925.77 1032.03 1925.64 1031.97 1925.49C1025.16 1908.96 1017.95 1891.96 1010.99 1875.56C958.581 1752.03 904.379 1624.35 930.825 1481.45C943.909 1410.65 977.262 1342.92 1009.51 1277.4C1029.32 1237.13 1048.05 1199.1 1062.45 1160.29C1064.49 1154.83 1066.83 1148.69 1069.38 1141.95C1096.86 1070 1147.96 936.019 1117 865.256C1088.26 799.542 1014.7 794.716 955.657 790.817C941.968 789.922 929.01 789.059 917.69 787.621C905.085 785.895 891.421 784.968 876.9 784.009C816.874 779.982 748.806 775.443 714.319 711.839C688.1 663.545 701.26 577.089 711.798 507.636C715.251 485.039 718.478 463.721 719.789 446.909C739.479 191.983 766.731 -83.0157 832.278 -366.324C832.304 -366.442 832.348 -366.552 832.408 -366.648C832.468 -366.744 832.542 -366.824 832.626 -366.883C832.711 -366.943 832.804 -366.98 832.9 -366.994C832.995 -367.008 833.093 -366.997 833.185 -366.963C833.28 -366.934 833.369 -366.88 833.447 -366.806C833.524 -366.731 833.589 -366.636 833.636 -366.528C833.684 -366.42 833.713 -366.301 833.722 -366.177C833.731 -366.054 833.72 -365.93 833.689 -365.813C768.143 -82.6321 740.941 192.238 721.252 447.101C719.941 463.913 716.688 485.295 713.26 507.828C702.747 576.929 689.663 662.938 715.504 710.593C749.588 773.43 817.252 777.936 876.85 781.931C891.396 782.922 905.11 783.817 917.741 785.575C929.01 787.109 941.917 787.972 955.556 788.771C1015.03 792.671 1089.04 797.529 1118.19 864.137C1149.52 935.763 1098.2 1070.32 1070.62 1142.59C1068.09 1149.3 1065.7 1155.37 1063.68 1160.9C1049.19 1199.8 1030.46 1237.86 1010.74 1278.2C978.548 1343.56 945.195 1411.19 932.237 1481.7C905.917 1623.87 959.968 1751.27 1012.25 1874.48C1019.24 1890.91 1026.45 1907.88 1033.25 1924.43C1033.34 1924.66 1033.35 1924.92 1033.29 1925.15C1033.23 1925.39 1033.1 1925.59 1032.93 1925.71C1032.85 1925.84 1032.74 1925.94 1032.62 1926Z" fill="url(#paint28_linear_34_132)"/>
<path d="M929.846 1887.97C929.717 1887.97 929.59 1887.93 929.479 1887.84C929.368 1887.76 929.277 1887.64 929.215 1887.5C922.828 1872.95 916.139 1858.17 909.651 1843.88C858.306 1730.49 805.219 1613.23 843.791 1478.09C860.881 1418.3 895.54 1363.65 929.089 1310.76C953.272 1272.64 978.263 1233.24 995.883 1192.86C1023.5 1129.54 1080.98 997.797 1047.3 912.642C1019.74 842.996 948.375 827.615 891.047 815.272C878.223 812.49 866.106 809.9 854.999 806.83C745.72 776.9 698.817 748.888 675.77 699.803C650.526 645.858 656.257 563.005 667.97 442.803C697.883 135.823 747.588 -158.813 787.548 -381.278C787.596 -381.516 787.715 -381.722 787.879 -381.853C788.043 -381.984 788.241 -382.03 788.432 -381.981C788.617 -381.914 788.776 -381.762 788.878 -381.556C788.981 -381.349 789.019 -381.102 788.987 -380.862C749.052 -158.333 699.372 136.175 669.459 443.027C657.771 562.877 652.016 645.41 677.032 698.844C699.751 747.417 746.452 775.205 855.251 805.008C866.358 808.045 878.45 810.667 891.249 813.417C948.905 825.857 1020.67 841.301 1048.57 911.811C1082.59 997.829 1024.86 1130.18 997.12 1193.75C979.449 1234.27 954.408 1273.7 930.199 1312.07C896.726 1364.83 862.042 1419.38 845.129 1478.86C806.784 1613.16 859.719 1730.04 910.888 1843.08C917.35 1857.37 924.065 1872.15 930.452 1886.7C930.542 1886.92 930.561 1887.17 930.505 1887.41C930.448 1887.65 930.321 1887.85 930.149 1887.97C930.05 1888.01 929.945 1888.01 929.846 1887.97Z" fill="url(#paint29_linear_34_132)"/>
<path d="M822.946 1834C822.819 1834 822.694 1833.96 822.584 1833.88C822.473 1833.8 822.381 1833.69 822.315 1833.55C816.084 1820.28 809.702 1807.11 803.572 1794.39C749.158 1681.69 702.186 1584.4 758.719 1456.39C776.655 1415.79 806.851 1381.84 836.064 1349C856.245 1326.4 876.981 1303.03 893.202 1277.97C964.77 1167.47 992.065 1072.2 974.28 994.833C956.874 919.03 895.901 858.861 793.002 816.053C782.18 811.545 770.651 807.389 758.441 802.977C707.433 784.53 649.614 763.653 620.174 708.439C583.722 640.054 599.993 544.014 614.196 459.259C617.399 440.237 620.427 422.301 622.672 405.517C641.44 266.092 666.516 125.837 690.784 -9.78278C712.529 -131.495 735.006 -257.332 752.892 -382.242C752.906 -382.363 752.941 -382.48 752.993 -382.584C753.045 -382.688 753.113 -382.777 753.194 -382.846C753.274 -382.915 753.365 -382.963 753.461 -382.985C753.556 -383.007 753.655 -383.005 753.749 -382.977C753.942 -382.93 754.112 -382.791 754.225 -382.588C754.338 -382.385 754.384 -382.135 754.355 -381.89C736.444 -256.948 713.992 -131.08 692.222 -9.36713C668.004 126.253 642.954 266.476 624.11 405.836C621.839 422.653 618.812 440.621 615.608 459.643C601.381 544.014 585.336 639.67 621.36 707.384C650.497 762.054 708.039 782.835 758.82 801.186C771.055 805.598 782.583 809.754 793.431 814.262C896.86 857.295 958.135 917.879 975.693 994.321C993.579 1072.3 966.208 1168.15 894.312 1279.15C878.016 1304.34 857.178 1327.74 837.022 1350.41C807.911 1383.15 777.79 1416.97 759.98 1457.32C703.851 1584.37 750.646 1681.12 804.808 1793.4C810.963 1806.19 817.421 1819.33 823.551 1832.59C823.602 1832.7 823.635 1832.81 823.649 1832.94C823.664 1833.06 823.659 1833.18 823.636 1833.3C823.612 1833.42 823.57 1833.53 823.513 1833.63C823.455 1833.73 823.382 1833.81 823.299 1833.87C823.192 1833.95 823.07 1834 822.946 1834Z" fill="url(#paint30_linear_34_132)"/>
<path d="M713.746 1775C713.62 1775 713.496 1774.96 713.385 1774.88C713.275 1774.8 713.182 1774.69 713.115 1774.55C707.026 1762.59 700.888 1750.89 694.951 1739.57C640.056 1634.7 596.68 1551.85 667.162 1437.9C688.534 1403.36 720.668 1377.4 751.715 1352.27C775.614 1333.08 800.295 1312.97 819.924 1289.34C887.728 1207.14 917.31 1126.76 907.786 1050.47C896.949 963.656 834.904 883.273 728.424 818.078C637.151 762.187 591.224 714.45 569.852 653.219C548.834 592.98 550.021 518.224 574.071 386.555C591.754 289.833 613.126 194.294 633.816 101.985C667.693 -49.4443 702.732 -206.118 721.502 -369.186C721.511 -369.31 721.54 -369.43 721.588 -369.539C721.635 -369.648 721.701 -369.743 721.779 -369.818C721.858 -369.894 721.948 -369.947 722.043 -369.976C722.139 -370.005 722.239 -370.008 722.335 -369.985C722.432 -369.969 722.525 -369.929 722.609 -369.868C722.694 -369.806 722.767 -369.723 722.826 -369.625C722.885 -369.527 722.928 -369.415 722.952 -369.295C722.976 -369.176 722.981 -369.052 722.967 -368.93C704.172 -205.862 669.133 -49.1885 635.206 102.433C614.541 194.838 593.169 290.377 575.485 387.003C530.67 632.308 559.368 712.563 729.03 816.415C836.016 881.898 898.288 962.76 909.252 1050.21C918.826 1127.11 889.042 1208.03 820.833 1290.72C801.23 1314.48 776.473 1334.52 752.625 1353.87C721.653 1378.9 689.646 1404.8 668.426 1439.08C598.499 1551.98 641.622 1634.31 696.214 1738.58C702.151 1749.9 708.29 1761.6 714.378 1773.59C714.484 1773.8 714.522 1774.05 714.484 1774.28C714.447 1774.52 714.336 1774.73 714.176 1774.87C714.044 1774.96 713.896 1775.01 713.746 1775Z" fill="url(#paint31_linear_34_132)"/>
<path d="M604.883 1715.99C604.765 1715.99 604.649 1715.96 604.544 1715.89C604.439 1715.82 604.347 1715.73 604.277 1715.61C598.971 1706.02 593.691 1696.65 588.588 1687.53C558.979 1634.9 533.412 1589.46 527.146 1545.37C520.401 1497.69 537.252 1454.14 580.2 1408.38C605.793 1381.1 637.17 1362.01 667.487 1343.53C697.803 1325.05 729.484 1305.8 755.658 1278.14C811.465 1219.2 838.624 1157.01 836.35 1093.31C833.218 1005.38 775.187 913.187 658.973 811.469C503.727 675.536 462.926 588.847 527.273 343.426C544.098 279.185 561.985 217.694 579.291 158.25C626.635 -4.4158 671.352 -158.096 688.431 -345.159C688.437 -345.283 688.463 -345.404 688.507 -345.514C688.552 -345.624 688.615 -345.721 688.691 -345.8C688.767 -345.878 688.855 -345.935 688.949 -345.968C689.043 -346.001 689.142 -346.009 689.239 -345.991C689.335 -345.979 689.429 -345.943 689.514 -345.885C689.6 -345.826 689.675 -345.748 689.736 -345.652C689.797 -345.557 689.843 -345.448 689.87 -345.33C689.898 -345.213 689.906 -345.089 689.896 -344.967C672.818 -157.68 628.05 -3.90421 580.68 158.921C563.375 218.334 545.488 279.793 528.662 344.002C464.694 588.304 505.318 674.609 659.882 809.902C776.5 912.004 834.708 1004.67 837.866 1093.22C840.165 1157.55 812.83 1220.26 756.643 1279.58C730.318 1307.36 698.738 1326.61 668.22 1345.22C637.701 1363.83 606.727 1382.67 581.261 1409.82C538.768 1455.1 522.068 1498.07 528.738 1545.05C534.927 1588.73 560.419 1634 589.902 1686.45C594.954 1695.57 600.192 1704.93 605.616 1714.52C605.726 1714.73 605.769 1714.98 605.736 1715.22C605.703 1715.47 605.596 1715.69 605.439 1715.83C605.273 1715.96 605.077 1716.02 604.883 1715.99Z" fill="url(#paint32_linear_34_132)"/>
<path d="M498.108 1666C497.99 1666 497.875 1665.97 497.77 1665.9C497.665 1665.83 497.574 1665.74 497.503 1665.62C493.422 1658.84 489.391 1652.25 485.46 1645.8C444.293 1578.31 414.563 1529.56 420.837 1480.23C424.969 1447.5 444.998 1416.81 483.823 1383.59C511.536 1359.81 543.961 1344.78 575.228 1330.3C607.98 1315.12 641.69 1299.45 670.84 1273.65C720.574 1229.66 747.002 1178.58 749.446 1121.83C754.485 1006.04 662.198 888.465 581.35 798.954C514.081 724.531 468.152 664.431 447.064 594.708C424.389 519.87 431.292 437.551 469.336 327.74C483.671 286.373 502.668 247.627 521.035 210.16C533.959 183.818 547.312 156.549 558.826 128.641C617.252 -11.7964 635.19 -138.231 646.427 -309.134C646.446 -309.383 646.541 -309.613 646.691 -309.774C646.842 -309.935 647.036 -310.015 647.233 -309.998C647.329 -309.986 647.422 -309.95 647.507 -309.892C647.593 -309.834 647.668 -309.755 647.729 -309.66C647.79 -309.564 647.835 -309.455 647.862 -309.337C647.89 -309.22 647.898 -309.096 647.888 -308.975C636.651 -137.848 618.663 -11.2211 560.111 129.504C548.471 157.476 535.118 184.777 522.168 211.151C503.827 248.554 484.881 287.268 470.57 328.507C389.949 561.461 458.88 660.978 582.206 797.547C663.307 887.282 755.795 1005.34 750.807 1121.83C748.287 1179.19 721.707 1230.75 671.596 1275.09C642.27 1301.02 608.383 1316.65 575.631 1331.96C544.465 1346.41 512.217 1361.37 484.528 1385.03C446.056 1417.93 426.254 1448.26 422.147 1480.42C416 1528.98 445.578 1577.45 486.493 1644.55C490.424 1650.94 494.455 1657.59 498.561 1664.37C498.682 1664.57 498.733 1664.83 498.705 1665.08C498.677 1665.33 498.57 1665.56 498.41 1665.71C498.327 1665.83 498.224 1665.93 498.108 1666Z" fill="url(#paint33_linear_34_132)"/>
<path d="M396.632 1632.98C396.526 1632.99 396.421 1632.96 396.325 1632.9C396.228 1632.85 396.144 1632.76 396.077 1632.66L387.812 1620.16C343.414 1553 308.339 1499.99 316.074 1449.04C320.963 1416.84 343.515 1387.46 384.99 1359.25C412.708 1340.48 442.945 1328.11 472.275 1316.15C508.585 1301.34 546.13 1286.02 578.811 1258.59C622 1222.16 646.19 1177.87 650.65 1126.97C661.51 1003.79 556.864 864.557 494.424 781.383C440.753 709.945 394.616 644.934 373.853 572.824C351.477 495.086 360.473 414.63 402.125 319.593C417.924 283.554 439.342 251.992 460.079 221.485C475.349 199.101 491.148 175.757 504.503 150.942C576.694 16.86 586.345 -105.263 592.115 -263.137C592.145 -263.374 592.239 -263.591 592.382 -263.749C592.525 -263.906 592.707 -263.995 592.896 -264C592.992 -263.996 593.087 -263.968 593.174 -263.917C593.262 -263.867 593.34 -263.795 593.406 -263.706C593.471 -263.617 593.523 -263.512 593.556 -263.398C593.59 -263.284 593.605 -263.162 593.602 -263.041C587.807 -104.847 578.131 17.4996 505.712 151.998C492.307 176.876 476.483 200.188 461.188 222.7C440.501 253.143 419.133 284.641 403.41 320.488C361.985 415.014 353.014 494.99 375.239 572.185C395.901 643.974 441.937 708.825 495.507 780.039C558.199 863.469 663.122 1003.08 652.212 1127.13C647.676 1178.64 623.285 1223.38 579.718 1260.12C546.961 1287.81 509.164 1303.16 472.804 1318C443.524 1329.96 413.262 1342.3 385.746 1361.01C344.699 1388.93 322.399 1417.87 317.586 1449.49C310.027 1499.57 344.875 1552.3 389.022 1618.97L397.262 1631.45C397.398 1631.62 397.475 1631.86 397.475 1632.1C397.475 1632.35 397.398 1632.58 397.262 1632.76C397.179 1632.86 397.078 1632.93 396.968 1632.97C396.859 1633.01 396.743 1633.01 396.632 1632.98Z" fill="url(#paint34_linear_34_132)"/>
<path d="M301.109 1624C301.003 1624 300.898 1623.97 300.802 1623.92C300.706 1623.86 300.621 1623.78 300.553 1623.68L292.665 1612.55C245.564 1546.13 204.885 1488.72 211.762 1434.19C216.111 1400.02 238.991 1368.38 281.718 1337.37C309.275 1317.39 340.22 1304.09 370.205 1291.24C406.636 1275.61 444.282 1259.44 476.213 1231.02C512.594 1198.71 533.502 1158.91 538.331 1112.75C550.441 997.36 461.296 861.957 402.313 772.36C399.381 767.949 396.549 763.601 393.768 759.382L393.111 758.359C348.235 689.955 305.837 625.322 286.749 555.702C265.335 477.612 276.105 403.774 320.677 323.35C337.894 292.281 361.129 267.572 383.529 243.662C400.872 225.219 418.772 206.136 433.688 184.336C517.802 61.527 517.827 -56.9984 517.852 -207.073C517.852 -207.195 517.871 -207.315 517.908 -207.428C517.945 -207.54 517.999 -207.642 518.067 -207.728C518.135 -207.815 518.216 -207.883 518.305 -207.929C518.394 -207.976 518.489 -208 518.586 -208C518.78 -208 518.967 -207.902 519.104 -207.728C519.242 -207.555 519.319 -207.319 519.319 -207.073C519.319 -56.6148 519.319 62.2302 434.826 185.582C419.808 207.478 401.959 226.593 384.489 245.101C362.115 268.914 338.982 293.559 321.891 324.405C277.622 404.317 266.902 477.612 288.139 555.063C307.126 624.395 349.448 688.9 394.324 757.176L394.981 758.199L403.527 771.177C462.687 861.03 552.059 996.784 539.873 1113.01C534.968 1159.68 513.883 1199.92 477.148 1232.56C445.04 1261.1 407.268 1277.31 370.761 1293C340.903 1305.79 310.084 1319.09 282.577 1339C240.28 1369.69 217.628 1400.92 213.355 1434.48C206.503 1488.18 246.955 1545.24 293.777 1611.31L301.64 1622.43C301.777 1622.6 301.855 1622.84 301.855 1623.09C301.855 1623.33 301.777 1623.57 301.64 1623.74C301.572 1623.83 301.489 1623.9 301.398 1623.95C301.306 1623.99 301.207 1624.01 301.109 1624Z" fill="url(#paint35_linear_34_132)"/>
<path d="M215.499 1647C215.4 1647 215.301 1646.98 215.21 1646.93C215.118 1646.88 215.036 1646.8 214.97 1646.71C210.314 1640.32 205.659 1634.05 201.004 1627.92C152.247 1562.49 106.213 1500.7 110.247 1436.14C112.566 1398.52 131.499 1362.62 168.23 1326.86C195.306 1300.36 227.399 1282.11 258.457 1264.43C289.516 1246.76 322.088 1228.22 349.214 1201.43C384.231 1166.82 404.324 1125.33 408.887 1078.09C419.979 963.819 340.265 834.752 282.054 740.525L274.869 728.858C203.625 613.503 129.961 494.217 216.886 355.817C237.382 323.118 264.205 301.224 290.147 280C310.315 263.571 331.088 246.567 348.836 224.64C431.299 122.87 425.904 13.332 419.097 -125.324C418.794 -131.173 418.517 -137.086 418.215 -143C418.208 -143.249 418.277 -143.491 418.409 -143.676C418.541 -143.861 418.724 -143.974 418.92 -143.99C419.018 -144.009 419.117 -144 419.212 -143.965C419.307 -143.93 419.394 -143.87 419.468 -143.788C419.543 -143.706 419.602 -143.604 419.642 -143.49C419.683 -143.376 419.703 -143.252 419.702 -143.127C419.979 -137.182 420.257 -131.301 420.559 -125.452C423.862 -58.3293 426.962 4.95763 418.845 62.9387C409.82 127.216 387.912 179.029 349.87 225.951C331.996 248.005 311.122 265.073 290.953 281.534C265.113 302.662 238.365 324.493 218.02 356.967C131.953 494.217 205.264 612.896 276.155 727.739L283.34 739.406C341.702 833.889 421.643 963.307 410.5 1078.37C405.861 1126.1 385.592 1167.87 350.248 1203.03C322.718 1229.72 290.197 1248.23 258.936 1266.03C227.978 1283.64 195.911 1301.86 169.012 1328.23C132.709 1363.81 113.953 1399.09 111.659 1436.17C107.726 1500.1 153.558 1561.5 202.062 1626.64C206.701 1632.84 211.357 1639.1 216.029 1645.43C216.166 1645.61 216.243 1645.84 216.243 1646.09C216.243 1646.33 216.166 1646.57 216.029 1646.74C215.96 1646.83 215.877 1646.9 215.786 1646.94C215.695 1646.99 215.597 1647.01 215.499 1647Z" fill="url(#paint36_linear_34_132)"/>
<path d="M141.13 1709.96C141.027 1709.96 140.925 1709.93 140.83 1709.88C140.734 1709.83 140.648 1709.76 140.575 1709.67C134.642 1701.74 128.609 1693.68 122.601 1685.85C82.3873 1632.94 40.8358 1578.2 21.8271 1520.02C0.495932 1454.61 10.6188 1391.78 52.7762 1328C75.4957 1293.57 108.313 1265.69 140.045 1238.71C183.944 1201.4 229.307 1162.84 250.689 1105.68C301.379 970.183 219.942 833.444 154.484 723.592C150.899 717.549 147.365 711.635 143.932 705.816C139.893 699.006 135.803 692.196 131.739 685.387C79.5852 598.554 25.7147 508.748 91.9043 401.581C113.437 366.733 144.008 348.478 173.568 330.83C196.414 317.178 220.017 303.111 239.203 281.467C317.636 193.163 304.837 80.5301 291.407 -38.7212C290.17 -49.7511 288.883 -60.813 287.722 -71.9389C287.707 -72.0608 287.712 -72.1851 287.737 -72.3044C287.761 -72.4238 287.804 -72.5359 287.862 -72.6341C287.921 -72.7324 287.995 -72.8148 288.079 -72.8765C288.163 -72.9383 288.256 -72.9782 288.353 -72.9939C288.546 -73.0217 288.74 -72.9542 288.896 -72.8054C289.051 -72.6566 289.154 -72.4378 289.186 -72.1946C290.372 -61.0687 291.71 -50.0068 292.871 -38.9769C306.427 80.7859 319.226 193.899 240.187 282.874C220.825 304.678 197.096 318.809 174.174 332.524C144.765 350.076 114.346 368.236 93.0403 402.86C63.6311 450.401 55.6288 498.773 68.5789 550.342C80.1406 596.54 106.95 641.203 132.875 684.395C136.965 691.205 141.054 697.983 145.093 704.793C148.526 710.643 152.061 716.558 155.645 722.569C187.983 776.919 224.612 838.367 247.054 903.747C273.055 979.614 274.822 1045.95 252.102 1106.6C230.544 1164.15 185.004 1202.96 141.029 1240.4C109.373 1267.29 76.657 1295.1 54.0384 1329.31C12.2849 1392.55 2.23773 1454.73 23.3669 1519.44C42.2241 1577.31 83.6999 1631.88 123.813 1684.7C129.821 1692.63 135.854 1700.68 141.811 1708.52C141.949 1708.69 142.026 1708.93 142.026 1709.17C142.026 1709.42 141.949 1709.65 141.811 1709.83C141.712 1709.91 141.6 1709.97 141.482 1709.99C141.364 1710.01 141.244 1710 141.13 1709.96Z" fill="url(#paint37_linear_34_132)"/>
<path d="M54.9465 1801.97C54.7278 1801.96 54.5201 1801.85 54.3658 1801.65C50.7056 1796.02 47.0455 1790.46 43.3854 1784.9C-41.6817 1655.32 -122.028 1532.97 -39.2836 1365.48C-16.9693 1320.33 13.3216 1281.27 42.5776 1243.48C80.1384 1194.98 118.961 1144.85 141.276 1081.52C186.207 954.017 159.98 823.832 61.1309 683.546C54.8203 674.594 48.3581 665.738 42.098 657.17C15.6439 620.979 -9.34604 586.835 -19.9731 548.886C-31.8875 506.333 -24.0372 464.995 4.73919 418.83C25.8419 384.941 55.7037 367.677 84.5811 351.244C107.299 338.296 130.522 324.9 149.429 303.576C224.954 218.502 208.143 111.753 190.372 -1.23108C188.63 -12.2289 186.838 -23.6105 185.172 -34.896C185.154 -35.0157 185.154 -35.1388 185.174 -35.2582C185.193 -35.3776 185.231 -35.4911 185.285 -35.592C185.338 -35.693 185.408 -35.7795 185.488 -35.8466C185.568 -35.9137 185.658 -35.96 185.753 -35.983C185.847 -36.0062 185.945 -36.0056 186.039 -35.9812C186.133 -35.9568 186.223 -35.9091 186.302 -35.8408C186.382 -35.7725 186.45 -35.685 186.503 -35.5832C186.556 -35.4814 186.593 -35.3674 186.611 -35.2477C188.302 -23.9941 190.094 -12.6126 191.811 -1.58276C209.683 111.945 226.57 219.174 150.413 304.983C131.33 326.467 107.88 339.927 85.1869 352.939C56.461 369.435 26.7759 386.476 5.9004 420.077C-56.297 519.889 -10.1791 582.966 43.1834 656.019C49.4435 664.587 55.8047 673.443 62.2416 682.395C107.426 746.528 136.808 807.304 152.054 868.144C170.366 938.492 167.002 1015.01 142.639 1082.35C120.198 1146.03 81.2742 1196.26 43.6377 1244.85C14.4322 1282.58 -15.7829 1321.58 -38.0215 1366.6C-120.211 1532.84 -40.1923 1654.78 44.5213 1783.78L55.5017 1800.53C55.5728 1800.62 55.6295 1800.72 55.6683 1800.83C55.707 1800.94 55.7271 1801.06 55.7271 1801.19C55.7271 1801.31 55.707 1801.43 55.6683 1801.55C55.6295 1801.66 55.5728 1801.76 55.5017 1801.84C55.4225 1801.92 55.3316 1801.96 55.2355 1801.99C55.1394 1802.01 55.0407 1802 54.9465 1801.97Z" fill="url(#paint38_linear_34_132)"/>
<path d="M-31.1047 1863.89C-31.2199 1863.89 -31.3335 1863.85 -31.4382 1863.79C-31.5429 1863.73 -31.6362 1863.64 -31.7118 1863.53L-34.8483 1858.16C-121.407 1710.29 -196.204 1582.56 -121.129 1400.55C-99.2993 1347.69 -69.325 1300.44 -40.1855 1254.76C-5.91107 1200.81 29.5268 1145.03 51.6092 1079.63C105.032 921.369 85.3524 781.491 -6.89764 663.828C-16.0796 652.129 -25.6663 640.845 -34.9748 629.881C-62.0655 597.916 -87.689 567.837 -98.6669 533.091C-111.011 494.094 -103.321 454.585 -74.4852 408.78C-53.1617 374.897 -22.9344 358.179 6.3063 342.005C29.3245 329.219 53.1016 316.114 72.2245 294.697C147.223 210.821 127.342 108.15 106.322 -0.562744C104.273 -11.1112 102.173 -22.0432 100.15 -32.8473C100.127 -32.967 100.124 -33.0911 100.14 -33.2124C100.156 -33.3338 100.191 -33.4499 100.243 -33.554C100.294 -33.6581 100.362 -33.7482 100.442 -33.8189C100.521 -33.8897 100.611 -33.9397 100.706 -33.9661C100.799 -33.9994 100.897 -34.0083 100.993 -33.9922C101.089 -33.9761 101.181 -33.9354 101.264 -33.8725C101.347 -33.8096 101.419 -33.7259 101.475 -33.6265C101.531 -33.5272 101.571 -33.4143 101.592 -33.2948C103.615 -22.4587 105.715 -11.5587 107.764 -1.01025C128.91 108.246 148.867 211.46 73.2108 296.263C53.9109 317.872 30.0075 331.105 6.91336 343.859C-22.1756 359.842 -52.2259 376.591 -73.3217 410.09C-135.572 509.022 -88.4986 564.481 -33.9631 628.698C-24.6546 639.63 -15.0425 651.074 -5.86046 662.677C40.7831 722.164 69.3156 787.756 78.877 857.663C88.3372 926.643 79.6105 1001.51 52.9499 1080.59C30.7917 1146.21 -4.69702 1202.05 -39.022 1256.17C-67.9845 1301.75 -97.9334 1348.87 -119.687 1401.64C-194.332 1582.63 -119.687 1709.91 -33.5078 1857.27L-30.3964 1862.64C-30.3373 1862.74 -30.2944 1862.85 -30.27 1862.97C-30.2456 1863.09 -30.2402 1863.21 -30.2544 1863.34C-30.2685 1863.46 -30.3018 1863.57 -30.3523 1863.68C-30.4027 1863.79 -30.4693 1863.88 -30.5482 1863.95C-30.639 1863.99 -30.7359 1864.01 -30.8321 1864C-30.9283 1863.99 -31.0214 1863.95 -31.1047 1863.89Z" fill="url(#paint39_linear_34_132)"/>
<path d="M-118.601 1901C-118.725 1901 -118.846 1900.96 -118.956 1900.89C-119.065 1900.82 -119.16 1900.71 -119.231 1900.58C-165.029 1812.61 -198.728 1744.66 -215.161 1670.85C-233.788 1587.1 -226.1 1507.76 -190.964 1421.22C-170.296 1370.38 -142.899 1323.72 -116.383 1278.63C-94.581 1241.47 -71.9974 1203.06 -53.371 1162.51C44.928 949.119 40.618 775.73 -65.9734 647.143C-76.0554 635.087 -86.717 623.159 -97.1014 611.583C-137.631 566.492 -175.942 523.865 -178.085 470.268C-179.395 438.065 -167.373 405.127 -141.311 369.535C-120.265 340.754 -92.8922 325.436 -66.4019 310.598C-44.7005 298.446 -22.2429 285.878 -3.54092 265.828C76.9886 180.028 55.8669 82.8768 31.4182 -29.5927C29.3262 -39.1863 27.209 -48.78 25.117 -58.8213C25.0905 -58.941 25.0832 -59.0662 25.0956 -59.1896C25.108 -59.3129 25.1399 -59.4318 25.1893 -59.5392C25.2387 -59.6466 25.3046 -59.7403 25.3831 -59.8147C25.4616 -59.8892 25.551 -59.9429 25.6462 -59.9725C25.8366 -60.0316 26.0375 -59.9946 26.2068 -59.8693C26.3761 -59.744 26.5005 -59.5403 26.5537 -59.301C28.6205 -49.4515 30.7377 -39.6979 32.8297 -30.1043C57.4297 83.0047 78.6774 180.7 -2.60835 267.299C-21.4616 287.381 -43.9948 300.013 -65.8222 312.229C-92.1613 326.971 -119.383 342.225 -140.227 370.718C-165.986 405.895 -178.034 438.417 -176.623 470.076C-174.48 522.905 -136.295 565.245 -96.1185 610.111C-85.7341 621.656 -74.9967 633.616 -64.9652 645.704C-6.99397 715.514 21.1094 799.01 18.9165 893.859C17.0262 974.35 -6.86801 1065.04 -52.1108 1163.38C-70.8128 1203.99 -93.4216 1242.46 -115.274 1279.65C-141.739 1324.68 -169.087 1371.27 -189.704 1421.99C-267.26 1612.94 -198.097 1745.71 -118.047 1899.43C-117.94 1899.64 -117.901 1899.9 -117.938 1900.14C-117.976 1900.39 -118.087 1900.6 -118.248 1900.74C-118.347 1900.87 -118.469 1900.95 -118.601 1901Z" fill="url(#paint40_linear_34_132)"/>
<path d="M-206.086 1915C-206.213 1915 -206.338 1914.96 -206.449 1914.88C-206.56 1914.8 -206.652 1914.69 -206.718 1914.55C-244.148 1834.82 -276.17 1762.8 -289.438 1688.72C-303.844 1608.26 -294.67 1532.07 -260.525 1449.43C-238.639 1396.4 -209.776 1347.68 -181.874 1300.55C-161.074 1265.39 -139.541 1229.04 -121.091 1191.22C-47.0147 1039.24 34.0627 815.87 -116.567 631.504C-128.775 616.574 -142.726 601.421 -156.222 586.747C-201.107 537.994 -247.509 487.643 -249.986 426.742C-251.402 392.567 -239.018 358.52 -212.076 322.618C-189.936 293.015 -161.327 277.094 -133.728 261.685C-110.982 248.898 -87.2755 235.822 -67.6379 215.106C15.3856 127.543 -6.70349 36.0793 -34.7824 -79.8088C-36.779 -88.0248 -38.7756 -96.3368 -40.7722 -104.809C-40.8032 -104.924 -40.8154 -105.046 -40.8078 -105.168C-40.8002 -105.289 -40.773 -105.407 -40.7281 -105.515C-40.6831 -105.623 -40.6213 -105.718 -40.5463 -105.794C-40.4714 -105.871 -40.3848 -105.927 -40.292 -105.96C-40.1043 -106.031 -39.902 -106.007 -39.7277 -105.894C-39.5534 -105.781 -39.4205 -105.587 -39.3569 -105.352C-37.3603 -96.8803 -35.3637 -88.5683 -33.3671 -80.3522C-5.23764 36.1752 17.0031 128.214 -66.7786 216.545C-86.593 237.421 -110.3 250.624 -133.223 263.38C-160.771 278.725 -189.254 294.582 -211.166 323.897C-237.729 359.415 -249.961 393.014 -248.596 426.646C-246.069 486.684 -199.97 536.843 -155.337 585.341C-141.816 600.014 -127.839 615.2 -115.607 630.097C-51.2354 708.901 -23.5104 798.031 -30.8144 902.634C-36.6779 986.457 -65.8182 1081.15 -119.904 1192.11C-138.404 1230.03 -159.937 1266.41 -180.762 1301.61C-208.563 1348.67 -237.451 1397.32 -259.287 1450.23C-330.508 1622.87 -284.257 1745.76 -205.53 1913.53C-205.48 1913.63 -205.446 1913.75 -205.432 1913.87C-205.417 1913.99 -205.422 1914.12 -205.446 1914.24C-205.469 1914.35 -205.511 1914.47 -205.569 1914.56C-205.627 1914.66 -205.7 1914.75 -205.783 1914.81C-205.87 1914.9 -205.974 1914.97 -206.086 1915Z" fill="url(#paint41_linear_34_132)"/>
<defs>
<linearGradient id="paint0_linear_34_132" x1="684.5" y1="1410" x2="684.5" y2="1752" gradientUnits="userSpaceOnUse">
<stop stop-color="#EFEFEF"/>
<stop offset="1" stop-color="#BDBDBD"/>
</linearGradient>
<linearGradient id="paint1_linear_34_132" x1="655" y1="1307" x2="655" y2="1628" gradientUnits="userSpaceOnUse">
<stop stop-color="#EFEFEF"/>
<stop offset="1" stop-color="#BDBDBD"/>
</linearGradient>
<linearGradient id="paint2_linear_34_132" x1="648.5" y1="1235" x2="648.5" y2="1536" gradientUnits="userSpaceOnUse">
<stop stop-color="#EFEFEF"/>
<stop offset="1" stop-color="#BDBDBD"/>
</linearGradient>
<linearGradient id="paint3_linear_34_132" x1="662.5" y1="1173" x2="662.5" y2="1469" gradientUnits="userSpaceOnUse">
<stop stop-color="#EFEFEF"/>
<stop offset="1" stop-color="#BDBDBD"/>
</linearGradient>
<linearGradient id="paint4_linear_34_132" x1="693" y1="1100" x2="693" y2="1387" gradientUnits="userSpaceOnUse">
<stop stop-color="#EFEFEF"/>
<stop offset="1" stop-color="#BDBDBD"/>
</linearGradient>
<linearGradient id="paint5_linear_34_132" x1="737.5" y1="989" x2="737.5" y2="1286" gradientUnits="userSpaceOnUse">
<stop stop-color="#EFEFEF"/>
<stop offset="1" stop-color="#BDBDBD"/>
</linearGradient>
<linearGradient id="paint6_linear_34_132" x1="792.5" y1="808" x2="792.5" y2="1155" gradientUnits="userSpaceOnUse">
<stop stop-color="#EFEFEF"/>
<stop offset="1" stop-color="#BDBDBD"/>
</linearGradient>
<linearGradient id="paint7_linear_34_132" x1="833.5" y1="686" x2="833.5" y2="1021" gradientUnits="userSpaceOnUse">
<stop stop-color="#EFEFEF"/>
<stop offset="1" stop-color="#BDBDBD"/>
</linearGradient>
<linearGradient id="paint8_linear_34_132" x1="811.5" y1="619" x2="811.5" y2="918" gradientUnits="userSpaceOnUse">
<stop stop-color="#EFEFEF"/>
<stop offset="1" stop-color="#BDBDBD"/>
</linearGradient>
<linearGradient id="paint9_linear_34_132" x1="753" y1="579" x2="753" y2="844" gradientUnits="userSpaceOnUse">
<stop stop-color="#EFEFEF"/>
<stop offset="1" stop-color="#BDBDBD"/>
</linearGradient>
<linearGradient id="paint10_linear_34_132" x1="684.5" y1="510" x2="684.5" y2="798" gradientUnits="userSpaceOnUse">
<stop stop-color="#EFEFEF"/>
<stop offset="1" stop-color="#BDBDBD"/>
</linearGradient>
<linearGradient id="paint11_linear_34_132" x1="633" y1="406" x2="633" y2="766" gradientUnits="userSpaceOnUse">
<stop stop-color="#EFEFEF"/>
<stop offset="1" stop-color="#BDBDBD"/>
</linearGradient>
<linearGradient id="paint12_linear_34_132" x1="623" y1="300" x2="623" y2="702" gradientUnits="userSpaceOnUse">
<stop stop-color="#EFEFEF"/>
<stop offset="1" stop-color="#BDBDBD"/>
</linearGradient>
<linearGradient id="paint13_linear_34_132" x1="681.5" y1="178" x2="681.5" y2="611" gradientUnits="userSpaceOnUse">
<stop stop-color="#EFEFEF"/>
<stop offset="1" stop-color="#BDBDBD"/>
</linearGradient>
<linearGradient id="paint14_linear_34_132" x1="738" y1="87" x2="738" y2="436" gradientUnits="userSpaceOnUse">
<stop stop-color="#EFEFEF"/>
<stop offset="1" stop-color="#BDBDBD"/>
</linearGradient>
<linearGradient id="paint15_linear_34_132" x1="794.5" y1="22" x2="794.5" y2="369" gradientUnits="userSpaceOnUse">
<stop stop-color="#EFEFEF"/>
<stop offset="1" stop-color="#BDBDBD"/>
</linearGradient>
<linearGradient id="paint16_linear_34_132" x1="843" y1="-31" x2="843" y2="335" gradientUnits="userSpaceOnUse">
<stop stop-color="#EFEFEF"/>
<stop offset="1" stop-color="#BDBDBD"/>
</linearGradient>
<linearGradient id="paint17_linear_34_132" x1="871.5" y1="-159" x2="871.5" y2="296" gradientUnits="userSpaceOnUse">
<stop stop-color="#EFEFEF"/>
<stop offset="1" stop-color="#BDBDBD"/>
</linearGradient>
<linearGradient id="paint18_linear_34_132" x1="873.5" y1="-312" x2="873.5" y2="236" gradientUnits="userSpaceOnUse">
<stop stop-color="#EFEFEF"/>
<stop offset="1" stop-color="#BDBDBD"/>
</linearGradient>
<linearGradient id="paint19_linear_34_132" x1="836" y1="-455" x2="836" y2="133" gradientUnits="userSpaceOnUse">
<stop stop-color="#EFEFEF"/>
<stop offset="1" stop-color="#BDBDBD"/>
</linearGradient>
<linearGradient id="paint20_linear_34_132" x1="1599.5" y1="-153" x2="1599.5" y2="1569" gradientUnits="userSpaceOnUse">
<stop stop-color="#EFEFEF"/>
<stop offset="1" stop-color="#BDBDBD"/>
</linearGradient>
<linearGradient id="paint21_linear_34_132" x1="1515.5" y1="-146" x2="1515.5" y2="1561" gradientUnits="userSpaceOnUse">
<stop stop-color="#EFEFEF"/>
<stop offset="1" stop-color="#BDBDBD"/>
</linearGradient>
<linearGradient id="paint22_linear_34_132" x1="1429" y1="-151" x2="1429" y2="1582" gradientUnits="userSpaceOnUse">
<stop stop-color="#EFEFEF"/>
<stop offset="1" stop-color="#BDBDBD"/>
</linearGradient>
<linearGradient id="paint23_linear_34_132" x1="1322" y1="-167" x2="1322" y2="1638" gradientUnits="userSpaceOnUse">
<stop stop-color="#EFEFEF"/>
<stop offset="1" stop-color="#BDBDBD"/>
</linearGradient>
<linearGradient id="paint24_linear_34_132" x1="1215" y1="-194" x2="1215" y2="1735" gradientUnits="userSpaceOnUse">
<stop stop-color="#EFEFEF"/>
<stop offset="1" stop-color="#BDBDBD"/>
</linearGradient>
<linearGradient id="paint25_linear_34_132" x1="1126" y1="-231" x2="1126" y2="1879" gradientUnits="userSpaceOnUse">
<stop stop-color="#EFEFEF"/>
<stop offset="1" stop-color="#BDBDBD"/>
</linearGradient>
<linearGradient id="paint26_linear_34_132" x1="1047.5" y1="-293" x2="1047.5" y2="1930" gradientUnits="userSpaceOnUse">
<stop stop-color="#EFEFEF"/>
<stop offset="1" stop-color="#BDBDBD"/>
</linearGradient>
<linearGradient id="paint27_linear_34_132" x1="977.5" y1="-338" x2="977.5" y2="1943" gradientUnits="userSpaceOnUse">
<stop stop-color="#EFEFEF"/>
<stop offset="1" stop-color="#BDBDBD"/>
</linearGradient>
<linearGradient id="paint28_linear_34_132" x1="913.5" y1="-367" x2="913.5" y2="1926" gradientUnits="userSpaceOnUse">
<stop stop-color="#EFEFEF"/>
<stop offset="1" stop-color="#BDBDBD"/>
</linearGradient>
<linearGradient id="paint29_linear_34_132" x1="858.5" y1="-382" x2="858.5" y2="1888" gradientUnits="userSpaceOnUse">
<stop stop-color="#EFEFEF"/>
<stop offset="1" stop-color="#BDBDBD"/>
</linearGradient>
<linearGradient id="paint30_linear_34_132" x1="789.5" y1="-383" x2="789.5" y2="1834" gradientUnits="userSpaceOnUse">
<stop stop-color="#EFEFEF"/>
<stop offset="1" stop-color="#BDBDBD"/>
</linearGradient>
<linearGradient id="paint31_linear_34_132" x1="733" y1="-370" x2="733" y2="1775" gradientUnits="userSpaceOnUse">
<stop stop-color="#EFEFEF"/>
<stop offset="1" stop-color="#BDBDBD"/>
</linearGradient>
<linearGradient id="paint32_linear_34_132" x1="668" y1="-346" x2="668" y2="1716" gradientUnits="userSpaceOnUse">
<stop stop-color="#EFEFEF"/>
<stop offset="1" stop-color="#BDBDBD"/>
</linearGradient>
<linearGradient id="paint33_linear_34_132" x1="585.5" y1="-310" x2="585.5" y2="1666" gradientUnits="userSpaceOnUse">
<stop stop-color="#EFEFEF"/>
<stop offset="1" stop-color="#BDBDBD"/>
</linearGradient>
<linearGradient id="paint34_linear_34_132" x1="484" y1="-264" x2="484" y2="1633" gradientUnits="userSpaceOnUse">
<stop stop-color="#EFEFEF"/>
<stop offset="1" stop-color="#BDBDBD"/>
</linearGradient>
<linearGradient id="paint35_linear_34_132" x1="376" y1="-208" x2="376" y2="1624" gradientUnits="userSpaceOnUse">
<stop stop-color="#EFEFEF"/>
<stop offset="1" stop-color="#BDBDBD"/>
</linearGradient>
<linearGradient id="paint36_linear_34_132" x1="267" y1="-144" x2="267" y2="1647" gradientUnits="userSpaceOnUse">
<stop stop-color="#EFEFEF"/>
<stop offset="1" stop-color="#BDBDBD"/>
</linearGradient>
<linearGradient id="paint37_linear_34_132" x1="157" y1="-73" x2="157" y2="1710" gradientUnits="userSpaceOnUse">
<stop stop-color="#EFEFEF"/>
<stop offset="1" stop-color="#BDBDBD"/>
</linearGradient>
<linearGradient id="paint38_linear_34_132" x1="66.5" y1="-36" x2="66.5" y2="1802" gradientUnits="userSpaceOnUse">
<stop stop-color="#EFEFEF"/>
<stop offset="1" stop-color="#BDBDBD"/>
</linearGradient>
<linearGradient id="paint39_linear_34_132" x1="-12.5" y1="-34" x2="-12.5" y2="1864" gradientUnits="userSpaceOnUse">
<stop stop-color="#EFEFEF"/>
<stop offset="1" stop-color="#BDBDBD"/>
</linearGradient>
<linearGradient id="paint40_linear_34_132" x1="-85" y1="-60" x2="-85" y2="1901" gradientUnits="userSpaceOnUse">
<stop stop-color="#EFEFEF"/>
<stop offset="1" stop-color="#BDBDBD"/>
</linearGradient>
<linearGradient id="paint41_linear_34_132" x1="-152" y1="-106" x2="-152" y2="1915" gradientUnits="userSpaceOnUse">
<stop stop-color="#EFEFEF"/>
<stop offset="1" stop-color="#BDBDBD"/>
</linearGradient>
</defs>
</svg>
