<svg width="114" height="125" viewBox="0 0 114 125" fill="none" xmlns="http://www.w3.org/2000/svg">
<path d="M32.3594 42.9194L34.2761 33.1011L6.33875 27.6471C5.14077 33.7835 8.76015 38.3123 12.2849 39.0004L32.3594 42.9194Z" fill="url(#paint0_linear_981_1767)"/>
<path d="M32.0752 43.1108L33.992 33.2925L6.76786 27.9777C5.56988 34.1142 9.18926 38.6429 12.714 39.3311L32.0752 43.1108Z" fill="url(#paint1_linear_981_1767)" stroke="url(#paint2_linear_981_1767)" stroke-width="2.29412"/>
<path d="M32.543 52.0879L34.4597 42.2696L11.2776 37.7439C10.0797 43.8803 13.699 48.4091 17.2238 49.0972L32.543 52.0879Z" fill="url(#paint3_linear_981_1767)"/>
<path d="M32.543 52.0879L34.4597 42.2696L11.2776 37.7439C10.0797 43.8803 13.699 48.4091 17.2238 49.0972L32.543 52.0879Z" stroke="url(#paint4_linear_981_1767)" stroke-width="2.29412"/>
<path d="M39.0205 62.4131L40.9373 52.5948L17.7552 48.0691C16.5572 54.2055 20.1766 58.7343 23.7013 59.4224L39.0205 62.4131Z" fill="url(#paint5_linear_981_1767)"/>
<path d="M39.0205 62.4131L40.9373 52.5948L17.7552 48.0691C16.5572 54.2055 20.1766 58.7343 23.7013 59.4224L39.0205 62.4131Z" stroke="url(#paint6_linear_981_1767)" stroke-width="2.29412"/>
<g filter="url(#filter0_d_981_1767)">
<path d="M33.7451 85.653V65.5127H46.2212V94.2198L35.3121 88.2886C34.3464 87.7635 33.7451 86.7523 33.7451 85.653Z" fill="#BAE9EC"/>
<path d="M33.7451 85.653V65.5127H46.2212V94.2198L35.3121 88.2886C34.3464 87.7635 33.7451 86.7523 33.7451 85.653Z" stroke="url(#paint7_linear_981_1767)"/>
</g>
<path fill-rule="evenodd" clip-rule="evenodd" d="M35.1185 86.3802V76.4141H34.9565V86.5152L35.0242 86.5265C35.2482 86.5638 35.4974 86.6964 35.7009 86.8902C35.9041 87.0838 36.0546 87.3314 36.0919 87.5926L36.0981 87.6359L42.6553 90.707V79.7393H42.4932V90.4521L36.2451 87.5258C36.1918 87.2369 36.0242 86.9743 35.8126 86.7728C35.6097 86.5795 35.3602 86.4367 35.1185 86.3802Z" fill="url(#paint8_linear_981_1767)"/>
<path fill-rule="evenodd" clip-rule="evenodd" d="M42.4838 89.8594C42.6585 89.5639 42.6685 89.1448 42.655 88.874L42.4931 88.8821C42.5066 89.1516 42.4923 89.5267 42.3443 89.7769C42.2725 89.8982 42.1709 89.9875 42.0248 90.0242C41.8761 90.0615 41.6706 90.047 41.3879 89.9371L41.3291 90.0882C41.6299 90.2051 41.8714 90.2298 42.0643 90.1814C42.2597 90.1323 42.3941 90.0109 42.4838 89.8594Z" fill="#95D4D0"/>
<g filter="url(#filter1_d_981_1767)">
<path d="M80.8643 85.653V65.5127H68.3882V94.2198L79.2972 88.2886C80.263 87.7635 80.8643 86.7523 80.8643 85.653Z" fill="#BAE9EC"/>
<path d="M80.8643 85.653V65.5127H68.3882V94.2198L79.2972 88.2886C80.263 87.7635 80.8643 86.7523 80.8643 85.653Z" stroke="url(#paint9_linear_981_1767)"/>
</g>
<path fill-rule="evenodd" clip-rule="evenodd" d="M79.4908 86.3802V76.4141H79.6529V86.5152L79.5852 86.5265C79.3611 86.5638 79.112 86.6964 78.9085 86.8902C78.7053 87.0838 78.5548 87.3314 78.5175 87.5926L78.5113 87.6359L71.9541 90.707V79.7393H72.1162V90.4521L78.3642 87.5258C78.4176 87.2369 78.5852 86.9743 78.7967 86.7728C78.9997 86.5795 79.2492 86.4367 79.4908 86.3802Z" fill="url(#paint10_linear_981_1767)"/>
<path fill-rule="evenodd" clip-rule="evenodd" d="M72.1256 89.8589C71.9508 89.5634 71.9409 89.1443 71.9544 88.8735L72.1163 88.8816C72.1028 89.1511 72.1171 89.5262 72.2651 89.7764C72.3369 89.8977 72.4384 89.987 72.5846 90.0237C72.7333 90.061 72.9388 90.0466 73.2215 89.9366L73.2803 90.0877C72.9795 90.2046 72.7379 90.2293 72.5451 90.1809C72.3497 90.1318 72.2153 90.0104 72.1256 89.8589Z" fill="#95D4D0"/>
<path d="M82.084 43.2354L80.1672 33.4171L108.105 27.963C109.303 34.0994 105.683 38.6282 102.158 39.3163L82.084 43.2354Z" fill="url(#paint11_linear_981_1767)"/>
<path d="M82.3682 43.4268L80.4514 33.6085L107.675 28.2936C108.873 34.4301 105.254 38.9589 101.729 39.647L82.3682 43.4268Z" fill="url(#paint12_linear_981_1767)" stroke="url(#paint13_linear_981_1767)" stroke-width="2.29412"/>
<path d="M81.8994 52.4043L79.9826 42.586L103.165 38.0603C104.363 44.1967 100.743 48.7255 97.2186 49.4136L81.8994 52.4043Z" fill="url(#paint14_linear_981_1767)"/>
<path d="M81.8994 52.4043L79.9826 42.586L103.165 38.0603C104.363 44.1967 100.743 48.7255 97.2186 49.4136L81.8994 52.4043Z" stroke="url(#paint15_linear_981_1767)" stroke-width="2.29412"/>
<path d="M75.4209 62.729L73.5041 52.9107L96.6862 48.385C97.8842 54.5214 94.2648 59.0502 90.7401 59.7383L75.4209 62.729Z" fill="url(#paint16_linear_981_1767)"/>
<path d="M75.4209 62.729L73.5041 52.9107L96.6862 48.385C97.8842 54.5214 94.2648 59.0502 90.7401 59.7383L75.4209 62.729Z" stroke="url(#paint17_linear_981_1767)" stroke-width="2.29412"/>
<g filter="url(#filter2_d_981_1767)">
<path d="M43.9199 64.3013H70.5678V98.1406L58.3857 104.333C57.562 104.752 56.5875 104.75 55.7652 104.329L43.9199 98.2569V64.3013Z" fill="url(#paint18_linear_981_1767)"/>
<path d="M43.9199 64.3013H70.5678V98.1406L58.3857 104.333C57.562 104.752 56.5875 104.75 55.7652 104.329L43.9199 98.2569V64.3013Z" stroke="url(#paint19_linear_981_1767)" stroke-width="2"/>
</g>
<path fill-rule="evenodd" clip-rule="evenodd" d="M61.1194 102.701L58.3852 104.091C57.5615 104.51 56.587 104.508 55.7647 104.087L52.8828 102.61V77.8677H61.1194V102.701Z" fill="url(#paint20_linear_981_1767)"/>
<path fill-rule="evenodd" clip-rule="evenodd" d="M45.373 82.4702H45.7591V97.6158L57.1478 103.503L68.7279 97.6152V82.4702H69.1139V97.7524L57.1461 103.789L45.373 97.7518V82.4702Z" fill="url(#paint21_linear_981_1767)"/>
<path fill-rule="evenodd" clip-rule="evenodd" d="M57.2272 98.2168V102.612H57.0166V98.2168H57.2272Z" fill="url(#paint22_linear_981_1767)"/>
<path fill-rule="evenodd" clip-rule="evenodd" d="M56.4913 101.052C56.0722 101.535 55.5616 101.643 55.21 101.584L55.2446 101.377C55.5247 101.423 55.9617 101.341 56.3322 100.914C56.7042 100.485 57.0172 99.6977 57.0172 98.3218H57.2278C57.2278 99.7255 56.909 100.57 56.4913 101.052Z" fill="url(#paint23_linear_981_1767)"/>
<path fill-rule="evenodd" clip-rule="evenodd" d="M57.7538 101.052C58.1729 101.535 58.6836 101.643 59.0352 101.584L59.0005 101.377C58.7204 101.423 58.2834 101.341 57.9129 100.914C57.5409 100.485 57.2279 99.6977 57.2279 98.3218H57.0174C57.0174 99.7255 57.3361 100.57 57.7538 101.052Z" fill="url(#paint24_linear_981_1767)"/>
<path fill-rule="evenodd" clip-rule="evenodd" d="M57.0779 102.708L54.7002 101.376L55.2266 101.376L57.122 102.496L59.017 101.366H59.4817L57.1654 102.708C57.1376 102.721 57.1057 102.721 57.0779 102.708Z" fill="url(#paint25_linear_981_1767)"/>
<g filter="url(#filter3_d_981_1767)">
<path d="M49.119 23.4192L35.8373 30.6443C30.3665 33.6204 26.9609 39.3497 26.9609 45.5777L26.9609 62.7982C26.9609 69.0262 30.3665 74.7555 35.8373 77.7316L49.119 84.9567C54.1843 87.7122 60.301 87.7122 65.3663 84.9567L78.648 77.7316C84.1188 74.7555 87.5243 69.0261 87.5243 62.7982L87.5244 45.5777C87.5244 39.3497 84.1188 33.6204 78.648 30.6443L65.3663 23.4192C60.301 20.6637 54.1843 20.6637 49.119 23.4192Z" fill="url(#paint26_linear_981_1767)"/>
<path d="M49.113 28.7321L40.4065 33.4684C34.9562 36.4333 31.5635 42.1411 31.5635 48.3456L31.5635 59.908C31.5635 66.1125 34.9562 71.8203 40.4065 74.7852L49.113 79.5215C54.1592 82.2665 60.2529 82.2665 65.2991 79.5215L74.0057 74.7852C79.4559 71.8203 82.8487 66.1125 82.8487 59.908L82.8487 48.3456C82.8487 42.1411 79.4559 36.4333 74.0057 33.4684L65.2991 28.7321C60.2529 25.987 54.1592 25.987 49.113 28.7321Z" fill="url(#paint27_linear_981_1767)"/>
<path d="M49.113 28.7321L40.4065 33.4684C34.9562 36.4333 31.5635 42.1411 31.5635 48.3456L31.5635 59.908C31.5635 66.1125 34.9562 71.8203 40.4065 74.7852L49.113 79.5215C54.1592 82.2665 60.2529 82.2665 65.2991 79.5215L74.0057 74.7852C79.4559 71.8203 82.8487 66.1125 82.8487 59.908L82.8487 48.3456C82.8487 42.1411 79.4559 36.4333 74.0057 33.4684L65.2991 28.7321C60.2529 25.987 54.1592 25.987 49.113 28.7321Z" stroke="url(#paint28_linear_981_1767)"/>
<g opacity="0.5">
<mask id="mask0_981_1767" style="mask-type:alpha" maskUnits="userSpaceOnUse" x="33" y="28" width="48" height="52">
<path d="M49.6709 30.9331L42.1611 35.0147C36.9737 37.834 33.7441 43.265 33.7441 49.1691L33.7441 59.1787C33.7441 65.0827 36.9737 70.5138 42.1611 73.3331L49.6709 77.4147C54.4682 80.022 60.2596 80.022 65.0568 77.4147L72.5667 73.3331C77.754 70.5138 80.9836 65.0827 80.9836 59.1787L80.9836 49.1691C80.9836 43.2651 77.754 37.834 72.5667 35.0147L65.0568 30.9331C60.2596 28.3258 54.4682 28.3258 49.6709 30.9331Z" fill="white"/>
</mask>
<g mask="url(#mask0_981_1767)">
<path d="M49.6709 30.9331L42.1611 35.0147C36.9737 37.834 33.7441 43.265 33.7441 49.1691L33.7441 59.1787C33.7441 65.0827 36.9737 70.5138 42.1611 73.3331L49.6709 77.4147C54.4682 80.022 60.2596 80.022 65.0568 77.4147L72.5667 73.3331C77.754 70.5138 80.9836 65.0827 80.9836 59.1787L80.9836 49.1691C80.9836 43.2651 77.754 37.834 72.5667 35.0147L65.0568 30.9331C60.2596 28.3258 54.4682 28.3258 49.6709 30.9331Z" fill="url(#paint29_radial_981_1767)"/>
<path opacity="0.5" d="M53.4158 82.6792L52.4775 25.666H62.2512L61.3129 82.6792H53.4158Z" fill="url(#paint30_linear_981_1767)"/>
<path opacity="0.5" d="M53.2898 82.1738L23.9707 33.2681L32.435 28.3812L60.129 78.2252L53.2898 82.1738Z" fill="url(#paint31_linear_981_1767)"/>
<path opacity="0.5" d="M52.4749 78.2248L80.1689 28.3809L88.6332 33.2677L59.3141 82.1734L52.4749 78.2248Z" fill="url(#paint32_linear_981_1767)"/>
<rect x="33.7441" y="50.9146" width="47.2395" height="30.6785" fill="url(#paint33_linear_981_1767)"/>
<g filter="url(#filter4_i_981_1767)">
<path d="M49.6709 30.9331L42.1611 35.0147C36.9737 37.834 33.7441 43.265 33.7441 49.1691L33.7441 59.1787C33.7441 65.0827 36.9737 70.5138 42.1611 73.3331L49.6709 77.4147C54.4682 80.022 60.2596 80.022 65.0568 77.4147L72.5667 73.3331C77.754 70.5138 80.9836 65.0827 80.9836 59.1787V49.1691C80.9836 43.2651 77.754 37.834 72.5667 35.0147L65.0568 30.9331C60.2596 28.3258 54.4682 28.3258 49.6709 30.9331Z" fill="#FAFEFE" fill-opacity="0.01"/>
</g>
</g>
</g>
</g>
<defs>
<filter id="filter0_d_981_1767" x="25.2451" y="57.0127" width="29.4756" height="46.0479" filterUnits="userSpaceOnUse" color-interpolation-filters="sRGB">
<feFlood flood-opacity="0" result="BackgroundImageFix"/>
<feColorMatrix in="SourceAlpha" type="matrix" values="0 0 0 0 0 0 0 0 0 0 0 0 0 0 0 0 0 0 127 0" result="hardAlpha"/>
<feOffset/>
<feGaussianBlur stdDeviation="4"/>
<feColorMatrix type="matrix" values="0 0 0 0 0.7 0 0 0 0 0.561568 0 0 0 0 0.32375 0 0 0 0.78 0"/>
<feBlend mode="normal" in2="BackgroundImageFix" result="effect1_dropShadow_981_1767"/>
<feBlend mode="normal" in="SourceGraphic" in2="effect1_dropShadow_981_1767" result="shape"/>
</filter>
<filter id="filter1_d_981_1767" x="59.8887" y="57.0127" width="29.4756" height="46.0479" filterUnits="userSpaceOnUse" color-interpolation-filters="sRGB">
<feFlood flood-opacity="0" result="BackgroundImageFix"/>
<feColorMatrix in="SourceAlpha" type="matrix" values="0 0 0 0 0 0 0 0 0 0 0 0 0 0 0 0 0 0 127 0" result="hardAlpha"/>
<feOffset/>
<feGaussianBlur stdDeviation="4"/>
<feColorMatrix type="matrix" values="0 0 0 0 0.7 0 0 0 0 0.561568 0 0 0 0 0.32375 0 0 0 0.78 0"/>
<feBlend mode="normal" in2="BackgroundImageFix" result="effect1_dropShadow_981_1767"/>
<feBlend mode="normal" in="SourceGraphic" in2="effect1_dropShadow_981_1767" result="shape"/>
</filter>
<filter id="filter2_d_981_1767" x="34.9199" y="55.3013" width="44.6475" height="58.3447" filterUnits="userSpaceOnUse" color-interpolation-filters="sRGB">
<feFlood flood-opacity="0" result="BackgroundImageFix"/>
<feColorMatrix in="SourceAlpha" type="matrix" values="0 0 0 0 0 0 0 0 0 0 0 0 0 0 0 0 0 0 127 0" result="hardAlpha"/>
<feOffset/>
<feGaussianBlur stdDeviation="4"/>
<feColorMatrix type="matrix" values="0 0 0 0 0.7 0 0 0 0 0.561568 0 0 0 0 0.32375 0 0 0 0.78 0"/>
<feBlend mode="normal" in2="BackgroundImageFix" result="effect1_dropShadow_981_1767"/>
<feBlend mode="normal" in="SourceGraphic" in2="effect1_dropShadow_981_1767" result="shape"/>
</filter>
<filter id="filter3_d_981_1767" x="20.9609" y="21.3525" width="72.5635" height="79.6709" filterUnits="userSpaceOnUse" color-interpolation-filters="sRGB">
<feFlood flood-opacity="0" result="BackgroundImageFix"/>
<feColorMatrix in="SourceAlpha" type="matrix" values="0 0 0 0 0 0 0 0 0 0 0 0 0 0 0 0 0 0 127 0" result="hardAlpha"/>
<feOffset dy="8"/>
<feGaussianBlur stdDeviation="3"/>
<feColorMatrix type="matrix" values="0 0 0 0 0.111198 0 0 0 0 0.4375 0 0 0 0 0.359188 0 0 0 0.6 0"/>
<feBlend mode="normal" in2="BackgroundImageFix" result="effect1_dropShadow_981_1767"/>
<feBlend mode="normal" in="SourceGraphic" in2="effect1_dropShadow_981_1767" result="shape"/>
</filter>
<filter id="filter4_i_981_1767" x="33.7441" y="28.9775" width="47.2393" height="50.3926" filterUnits="userSpaceOnUse" color-interpolation-filters="sRGB">
<feFlood flood-opacity="0" result="BackgroundImageFix"/>
<feBlend mode="normal" in="SourceGraphic" in2="BackgroundImageFix" result="shape"/>
<feColorMatrix in="SourceAlpha" type="matrix" values="0 0 0 0 0 0 0 0 0 0 0 0 0 0 0 0 0 0 127 0" result="hardAlpha"/>
<feOffset/>
<feGaussianBlur stdDeviation="6.72414"/>
<feComposite in2="hardAlpha" operator="arithmetic" k2="-1" k3="1"/>
<feColorMatrix type="matrix" values="0 0 0 0 0.458333 0 0 0 0 0.256743 0 0 0 0 0.0706597 0 0 0 1 0"/>
<feBlend mode="normal" in2="shape" result="effect1_innerShadow_981_1767"/>
</filter>
<linearGradient id="paint0_linear_981_1767" x1="45.0485" y1="45.7539" x2="14.3307" y2="31.8455" gradientUnits="userSpaceOnUse">
<stop stop-color="#77FFF7"/>
<stop offset="1" stop-color="white"/>
</linearGradient>
<linearGradient id="paint1_linear_981_1767" x1="44.4386" y1="45.8817" x2="14.3878" y2="32.4823" gradientUnits="userSpaceOnUse">
<stop stop-color="#77FFF7"/>
<stop offset="1" stop-color="white"/>
</linearGradient>
<linearGradient id="paint2_linear_981_1767" x1="8.13151" y1="28.2439" x2="14.1239" y2="39.6063" gradientUnits="userSpaceOnUse">
<stop stop-color="#DEFFFF"/>
<stop offset="0.378992" stop-color="#C4F5F2"/>
<stop offset="0.480868" stop-color="#9EE6E6"/>
<stop offset="0.729174" stop-color="#6BD2C6"/>
</linearGradient>
<linearGradient id="paint3_linear_981_1767" x1="23.5429" y1="50.3308" x2="16.8485" y2="40.3886" gradientUnits="userSpaceOnUse">
<stop stop-color="#8EE0E0"/>
<stop offset="0.875" stop-color="#FFF5DE"/>
</linearGradient>
<linearGradient id="paint4_linear_981_1767" x1="12.6413" y1="38.0101" x2="26.1147" y2="54.0051" gradientUnits="userSpaceOnUse">
<stop stop-color="#DEFDFF"/>
<stop offset="0.378992" stop-color="#DEFDFF"/>
<stop offset="0.480868" stop-color="#A9E6EA"/>
<stop offset="0.729174" stop-color="#6BCBD2"/>
</linearGradient>
<linearGradient id="paint5_linear_981_1767" x1="30.0204" y1="60.656" x2="23.326" y2="50.7138" gradientUnits="userSpaceOnUse">
<stop stop-color="#8EE0E0"/>
<stop offset="0.875" stop-color="#FFF5DE"/>
</linearGradient>
<linearGradient id="paint6_linear_981_1767" x1="19.1188" y1="48.3353" x2="32.5923" y2="64.3303" gradientUnits="userSpaceOnUse">
<stop stop-color="#DEFDFF"/>
<stop offset="0.378992" stop-color="#DEFDFF"/>
<stop offset="0.480868" stop-color="#A9E6EA"/>
<stop offset="0.729174" stop-color="#6BCBD2"/>
</linearGradient>
<linearGradient id="paint7_linear_981_1767" x1="33.7451" y1="85.0779" x2="46.5539" y2="87.972" gradientUnits="userSpaceOnUse">
<stop stop-color="#4F8D8D" stop-opacity="0.18"/>
<stop offset="0.208702" stop-color="#7DC4C4"/>
<stop offset="0.648432" stop-color="#DCFFFD"/>
<stop offset="0.827985" stop-color="#68B3AE"/>
<stop offset="0.971703" stop-color="#4C7D8C"/>
</linearGradient>
<linearGradient id="paint8_linear_981_1767" x1="35.3198" y1="84.6507" x2="39.953" y2="83.2694" gradientUnits="userSpaceOnUse">
<stop stop-color="#83B6C7"/>
<stop offset="0.309893" stop-color="#98D1D5"/>
<stop offset="0.523799" stop-color="#8CCBC7"/>
<stop offset="0.77229" stop-color="#78B7BB"/>
<stop offset="1" stop-color="#9BD0D7"/>
</linearGradient>
<linearGradient id="paint9_linear_981_1767" x1="80.8643" y1="85.0779" x2="68.0555" y2="87.972" gradientUnits="userSpaceOnUse">
<stop stop-color="#4F8D8D" stop-opacity="0.18"/>
<stop offset="0.208702" stop-color="#7DC4C4"/>
<stop offset="0.648432" stop-color="#DCFFFD"/>
<stop offset="0.827985" stop-color="#68B3AE"/>
<stop offset="0.971703" stop-color="#4C7D8C"/>
</linearGradient>
<linearGradient id="paint10_linear_981_1767" x1="79.2896" y1="84.6507" x2="74.6563" y2="83.2694" gradientUnits="userSpaceOnUse">
<stop stop-color="#83B6C7"/>
<stop offset="0.309893" stop-color="#98D1D5"/>
<stop offset="0.523799" stop-color="#8CCBC7"/>
<stop offset="0.77229" stop-color="#78B7BB"/>
<stop offset="1" stop-color="#9BD0D7"/>
</linearGradient>
<linearGradient id="paint11_linear_981_1767" x1="81.4674" y1="40.3325" x2="102.658" y2="30.8868" gradientUnits="userSpaceOnUse">
<stop stop-color="#B0F9F5"/>
<stop offset="0.875" stop-color="#F5FFFE"/>
</linearGradient>
<linearGradient id="paint12_linear_981_1767" x1="81.7528" y1="40.5237" x2="102.48" y2="31.4233" gradientUnits="userSpaceOnUse">
<stop stop-color="#B0F9F5"/>
<stop offset="0.875" stop-color="#F5FFFE"/>
</linearGradient>
<linearGradient id="paint13_linear_981_1767" x1="106.312" y1="28.5599" x2="100.319" y2="39.9222" gradientUnits="userSpaceOnUse">
<stop stop-color="#DEFFFF"/>
<stop offset="0.378992" stop-color="#C4F5F2"/>
<stop offset="0.480868" stop-color="#9EE6E6"/>
<stop offset="0.729174" stop-color="#6BD2C6"/>
</linearGradient>
<linearGradient id="paint14_linear_981_1767" x1="90.8995" y1="50.6473" x2="97.5939" y2="40.705" gradientUnits="userSpaceOnUse">
<stop stop-color="#A3EFEF"/>
<stop offset="0.875" stop-color="#FFF5DE"/>
</linearGradient>
<linearGradient id="paint15_linear_981_1767" x1="101.801" y1="38.3265" x2="88.3277" y2="54.3215" gradientUnits="userSpaceOnUse">
<stop stop-color="#DEFDFF"/>
<stop offset="0.378992" stop-color="#DEFDFF"/>
<stop offset="0.480868" stop-color="#A9E6EA"/>
<stop offset="0.729174" stop-color="#6BCBD2"/>
</linearGradient>
<linearGradient id="paint16_linear_981_1767" x1="84.421" y1="60.972" x2="91.1154" y2="51.0297" gradientUnits="userSpaceOnUse">
<stop stop-color="#8EE0E0"/>
<stop offset="0.875" stop-color="#FFF5DE"/>
</linearGradient>
<linearGradient id="paint17_linear_981_1767" x1="95.3226" y1="48.6512" x2="81.8491" y2="64.6462" gradientUnits="userSpaceOnUse">
<stop stop-color="#DEFDFF"/>
<stop offset="0.378992" stop-color="#DEFDFF"/>
<stop offset="0.480868" stop-color="#A9E6EA"/>
<stop offset="0.729174" stop-color="#6BCBD2"/>
</linearGradient>
<linearGradient id="paint18_linear_981_1767" x1="57.2439" y1="82.228" x2="57.2439" y2="105" gradientUnits="userSpaceOnUse">
<stop stop-color="#7ADCE2"/>
<stop offset="0.2286" stop-color="#6EEEE7"/>
<stop offset="0.47675" stop-color="#EDFCFA"/>
<stop offset="0.88344" stop-color="#8EECE6"/>
<stop offset="1" stop-color="#7AE2E9"/>
</linearGradient>
<linearGradient id="paint19_linear_981_1767" x1="43.9199" y1="92.0393" x2="69.6892" y2="100.811" gradientUnits="userSpaceOnUse">
<stop stop-color="#55CAE3" stop-opacity="0.96"/>
<stop offset="0.208702" stop-color="#E6FDFF"/>
<stop offset="0.648432" stop-color="#BAE9EC"/>
<stop offset="0.780206" stop-color="#68C4D0"/>
<stop offset="0.971703" stop-color="#06C0CC"/>
</linearGradient>
<linearGradient id="paint20_linear_981_1767" x1="57.0011" y1="77.8677" x2="57.0011" y2="104.404" gradientUnits="userSpaceOnUse">
<stop stop-color="#A9DDDA"/>
<stop offset="0.22229" stop-color="#A9DDDA"/>
<stop offset="0.669825" stop-color="#C4EBE6"/>
<stop offset="0.898796" stop-color="#A9DDDA"/>
<stop offset="1" stop-color="#A9DADD"/>
</linearGradient>
<linearGradient id="paint21_linear_981_1767" x1="67.9935" y1="95.1495" x2="58.2725" y2="87.6172" gradientUnits="userSpaceOnUse">
<stop stop-color="#BAE9EC"/>
<stop offset="0.309893" stop-color="#AEEBE7"/>
<stop offset="0.523799" stop-color="#9CE2E2"/>
<stop offset="0.77229" stop-color="#A0DFE3"/>
<stop offset="1" stop-color="#BAECE9"/>
</linearGradient>
<linearGradient id="paint22_linear_981_1767" x1="57.1219" y1="98.2168" x2="57.1219" y2="102.323" gradientUnits="userSpaceOnUse">
<stop stop-color="#D8FAFA"/>
<stop offset="0.491891" stop-color="#D7F7F9"/>
<stop offset="1" stop-color="#B4ECE9"/>
</linearGradient>
<linearGradient id="paint23_linear_981_1767" x1="56.2189" y1="98.3218" x2="56.2189" y2="101.599" gradientUnits="userSpaceOnUse">
<stop stop-color="#D7F9F7"/>
<stop offset="0.479167" stop-color="#D9FAFA"/>
<stop offset="1" stop-color="#D4F6F8"/>
</linearGradient>
<linearGradient id="paint24_linear_981_1767" x1="58.0263" y1="98.3218" x2="58.0263" y2="101.599" gradientUnits="userSpaceOnUse">
<stop stop-color="#D8FAFA"/>
<stop offset="0.479167" stop-color="#D8FAF8"/>
<stop offset="1" stop-color="#B2EAEA"/>
</linearGradient>
<linearGradient id="paint25_linear_981_1767" x1="56.867" y1="101.828" x2="54.1354" y2="102.152" gradientUnits="userSpaceOnUse">
<stop stop-color="#A6E5E1"/>
<stop offset="0.309893" stop-color="#DAF6FA"/>
<stop offset="0.523799" stop-color="#C9F3F0"/>
<stop offset="0.613641" stop-color="#C0EFEC"/>
<stop offset="1" stop-color="#C0EFEF"/>
</linearGradient>
<linearGradient id="paint26_linear_981_1767" x1="44.5243" y1="27.4789" x2="71.7779" y2="81.6226" gradientUnits="userSpaceOnUse">
<stop stop-color="#DEFFFD"/>
<stop offset="1" stop-color="#D4F9F7"/>
</linearGradient>
<linearGradient id="paint27_linear_981_1767" x1="44.2818" y1="31.9606" x2="67.7804" y2="75.324" gradientUnits="userSpaceOnUse">
<stop stop-color="#B9FFF6"/>
<stop offset="1" stop-color="#C0F8F1"/>
</linearGradient>
<linearGradient id="paint28_linear_981_1767" x1="46.8255" y1="30.3859" x2="72.141" y2="75.9296" gradientUnits="userSpaceOnUse">
<stop stop-color="#A9F4F9"/>
<stop offset="0.588542" stop-color="#ECFEFF"/>
<stop offset="1" stop-color="#B3E6E9"/>
</linearGradient>
<radialGradient id="paint29_radial_981_1767" cx="0" cy="0" r="1" gradientUnits="userSpaceOnUse" gradientTransform="translate(57.3639 54.1739) rotate(90) scale(27.4219 23.6197)">
<stop stop-color="#D2ECEB" stop-opacity="0"/>
<stop offset="1" stop-color="#9AFEEC"/>
</radialGradient>
<linearGradient id="paint30_linear_981_1767" x1="57.3644" y1="25.666" x2="57.3644" y2="82.6792" gradientUnits="userSpaceOnUse">
<stop stop-color="white"/>
<stop offset="1" stop-color="white" stop-opacity="0.88"/>
</linearGradient>
<linearGradient id="paint31_linear_981_1767" x1="33.9995" y1="37.0002" x2="56.7094" y2="80.1995" gradientUnits="userSpaceOnUse">
<stop stop-color="white"/>
<stop offset="1" stop-color="white" stop-opacity="0.81"/>
</linearGradient>
<linearGradient id="paint32_linear_981_1767" x1="84.4011" y1="30.8243" x2="55.8945" y2="80.1991" gradientUnits="userSpaceOnUse">
<stop stop-color="white"/>
<stop offset="1" stop-color="#F2EDED" stop-opacity="0.99"/>
</linearGradient>
<linearGradient id="paint33_linear_981_1767" x1="57.3639" y1="64.2176" x2="56.9487" y2="85.4988" gradientUnits="userSpaceOnUse">
<stop stop-color="#FEFEFE" stop-opacity="0"/>
<stop offset="1" stop-color="#E3FFFF"/>
</linearGradient>
</defs>
</svg>
