<svg width="72" height="65" viewBox="0 0 72 65" fill="none" xmlns="http://www.w3.org/2000/svg">
<g filter="url(#filter0_d_289_62)">
<mask id="path-1-outside-1_289_62" maskUnits="userSpaceOnUse" x="4" y="0" width="64" height="57" fill="black">
<rect fill="white" x="4" width="64" height="57"/>
<path d="M32.8569 16.1737C32.8217 15.9021 32.7396 15.6422 32.6458 15.3824C32.5051 14.9808 32.2823 14.6264 32.0125 14.2957C31.731 13.9296 31.3675 13.6697 30.9922 13.4217C30.9335 13.4099 30.8749 13.3862 30.828 13.3508C29.9249 12.8075 29.0219 12.2523 28.1188 11.709C26.8874 10.9649 25.656 10.209 24.4246 9.46484C23.9085 9.15774 23.3573 8.99238 22.7592 8.92151C22.079 8.85064 21.4222 8.94514 20.7889 9.22861C20.5309 9.34672 20.2963 9.50027 20.05 9.64201C18.8069 10.3743 17.552 11.1066 16.3088 11.8389C15.4879 12.3232 14.6552 12.7839 13.8342 13.2918C12.7553 13.9532 12.0985 14.9099 11.9461 16.1974C11.9343 16.3273 11.9226 16.4572 11.9226 16.5871C11.9226 19.2447 11.8991 21.8905 11.9343 24.5481C11.9461 25.9064 12.5559 26.9812 13.6935 27.7135C14.9132 28.4931 16.1681 29.2254 17.3995 29.9813C18.3729 30.5719 19.3464 31.1743 20.3198 31.7649C21.0469 32.2137 21.8444 32.3909 22.7005 32.3436C23.3456 32.3082 23.932 32.0838 24.4949 31.7412C26.0078 30.8081 27.5324 29.8987 29.0571 28.9774C29.1274 28.9301 29.1978 28.8829 29.2916 28.8711C29.7256 28.6112 30.1478 28.3514 30.5817 28.0797C31.3206 27.6309 32.0594 27.182 32.7983 26.7332C33.197 26.497 33.5958 26.2844 34.0063 26.0599C34.8624 25.5875 35.7068 25.115 36.5629 24.6426C37.7592 23.9693 38.9672 23.3197 40.14 22.5992C41.301 21.8905 42.4855 21.2172 43.6583 20.5204C44.7373 19.8825 45.8045 19.2329 46.8952 18.5951C47.3292 18.3352 47.7631 18.0518 48.2557 17.91C48.502 17.8392 48.76 17.7801 49.018 17.7329C49.0649 17.7092 49.1235 17.7447 49.1704 17.7092C49.2174 17.7092 49.2643 17.7092 49.3112 17.6974C49.4871 17.6856 49.6747 17.6856 49.8507 17.6974C50.6364 17.7447 51.3049 18.099 51.9734 18.5006C52.7709 18.9849 53.5684 19.4455 54.3776 19.9062C55.656 20.6503 56.9343 21.4062 58.2127 22.1503C59.3151 22.8 60.4292 23.4378 61.5317 24.0874C62.4699 24.6426 63.455 25.1505 64.3581 25.7765C65.2377 26.3907 65.7654 27.2647 65.9414 28.3395C65.9531 28.3986 65.9648 28.4458 65.9765 28.5049C66 28.5521 65.9765 28.6112 66 28.6703C66 28.7884 66 28.9065 66 29.0364C66 33.9618 66 38.8872 66 43.8125C66 45.0173 65.5661 46.0213 64.6748 46.8363C64.3346 47.1434 63.9359 47.3442 63.5489 47.5686C62.8335 47.9938 62.1063 48.419 61.3909 48.8442C60.8163 49.1868 60.2299 49.5175 59.6435 49.86C58.7873 50.3679 57.9312 50.8758 57.0751 51.3719C56.1134 51.9388 55.14 52.494 54.1665 53.0609C53.3221 53.557 52.466 54.0649 51.6216 54.561C51.3988 54.6909 51.1642 54.7972 50.9179 54.8917C50.742 54.9626 50.5543 54.998 50.3667 54.998C49.8155 54.9862 49.276 54.9744 48.7248 54.998C48.2674 55.0216 47.9038 54.8326 47.5285 54.6318C47.0477 54.3602 46.5786 54.0767 46.1095 53.805C45.6521 53.5334 45.183 53.2617 44.7256 52.99C44.2682 52.7184 43.7991 52.4467 43.3417 52.1751C42.8726 51.9034 42.4034 51.6317 41.9343 51.3601C41.4652 51.0884 40.9844 50.8049 40.5152 50.5333C40.0579 50.2616 39.5887 49.9899 39.1314 49.7183C38.5801 49.3994 38.0407 49.0805 37.4894 48.7616C36.9148 48.419 36.3401 48.0883 35.7654 47.7458C35.4019 47.5332 35.0149 47.3324 34.6747 47.0725C34.0532 46.6119 33.5958 46.0095 33.3143 45.2772C33.2088 44.9937 33.1384 44.6984 33.1032 44.4031C33.0798 44.3441 33.1149 44.2732 33.0798 44.2141C33.0798 42.4424 33.0798 40.6707 33.0798 38.899C33.0798 38.7572 33.1267 38.6864 33.2439 38.6037C34.2408 38.0249 35.226 37.4462 36.2111 36.8674C37.0203 36.395 37.8178 35.9343 38.6271 35.4619C38.7561 35.391 38.8851 35.3201 39.0375 35.2256C39.0375 35.8398 39.0375 36.4422 39.0375 37.0328C39.0962 37.1036 39.0727 37.1745 39.0727 37.2572C39.0727 38.2966 39.061 39.336 39.0727 40.3754C39.0844 41.2613 39.3894 42.0408 39.9406 42.7377C40.3276 43.2338 40.8436 43.5409 41.3714 43.848C42.3213 44.4031 43.2713 44.9583 44.2213 45.5134C45.3706 46.1867 46.5082 46.8717 47.6693 47.5213C48.1501 47.793 48.6661 47.9229 49.2174 47.982C49.8038 48.041 50.355 47.9584 50.9062 47.7576C51.0938 47.6867 51.2815 47.604 51.4457 47.4977C52.9117 46.6237 54.3659 45.7496 55.8319 44.8638C56.5942 44.4031 57.3683 43.9779 58.1071 43.4818C59.0805 42.8322 59.6435 41.9109 59.8077 40.7416C59.8311 40.5408 59.8546 40.34 59.8546 40.1392C59.8546 37.5761 59.8546 35.013 59.8546 32.4499C59.8546 31.3751 59.4676 30.442 58.717 29.6624C58.4003 29.3435 58.0133 29.1191 57.6263 28.8947C56.4769 28.2332 55.3393 27.56 54.19 26.8867C53.2283 26.3316 52.2901 25.741 51.3167 25.2095C50.1087 24.5599 48.8538 24.489 47.6106 25.1268C47.0829 25.3985 46.5786 25.7292 46.0626 26.0245C44.491 26.9458 42.9195 27.8671 41.3479 28.7884C39.9523 29.6152 38.545 30.4302 37.1493 31.2452C37.0907 31.2806 37.0203 31.2924 36.95 31.316C36.5395 31.5523 36.1173 31.7885 35.7068 32.0247C35.1439 32.3554 34.5692 32.6862 34.0063 33.0169C33.068 33.572 32.1298 34.1153 31.1916 34.6705C30.2768 35.202 29.3737 35.7335 28.459 36.265C27.5911 36.7729 26.7232 37.2808 25.8671 37.7887C25.3393 38.0958 24.8233 38.4265 24.2838 38.71C23.8499 38.9462 23.3808 39.0762 22.8999 39.1352C22.853 39.1588 22.7944 39.1352 22.7475 39.1588C22.6536 39.1588 22.5481 39.1588 22.4543 39.1706C22.4074 39.1825 22.3604 39.1825 22.3018 39.1706C22.2197 39.1706 22.1259 39.1706 22.0438 39.1588C21.9969 39.1352 21.9382 39.1588 21.8913 39.1352C21.7623 39.1116 21.6333 39.088 21.5043 39.0643C21.3049 39.0643 21.1407 38.9817 20.9648 38.9108C20.4722 38.71 20.0383 38.4029 19.5809 38.1431C18.0563 37.2572 16.5317 36.3595 15.007 35.4737C13.9046 34.8358 12.8139 34.1862 11.7115 33.5484C10.4449 32.8043 9.16654 32.0838 7.91165 31.3278C6.94996 30.7491 6.31665 29.9223 6.05864 28.812C6.02346 28.6585 6.01173 28.4931 6.01173 28.3277C6 28.2569 6.02346 28.186 6 28.1269C6 23.0362 6 17.9455 6 12.8429C6.03518 12.7957 6.01173 12.7366 6.01173 12.6894C6.02346 12.0752 6.25801 11.5318 6.5864 11.024C6.90305 10.5397 7.34871 10.1971 7.85301 9.90186C8.75606 9.35854 9.69429 8.79159 10.6443 8.23645C12.0751 7.39783 13.5059 6.54741 14.9249 5.7088C16.8131 4.59852 18.6896 3.48824 20.5778 2.37797C20.8475 2.22442 21.129 2.11811 21.4222 2.02362C21.4808 2 21.5512 2 21.6216 2C22.2783 2 22.9234 2 23.5801 2C23.9085 2 24.1783 2.15355 24.448 2.31891C25.6091 2.99216 26.7584 3.67723 27.9077 4.36229C28.5762 4.76388 29.2565 5.16547 29.9367 5.55525C29.9836 5.57887 30.0305 5.61431 30.054 5.66155C30.5583 5.96865 31.0743 6.27575 31.5786 6.58284C32.7748 7.29153 33.9593 8.00022 35.1556 8.69709C35.8124 9.08687 36.4926 9.45303 37.1376 9.87824C37.9468 10.4216 38.4746 11.1775 38.7326 12.1106C38.7795 12.2878 38.803 12.4886 38.8382 12.6657C38.8616 12.7248 38.8264 12.7957 38.8616 12.8547C38.8616 12.961 38.8616 13.0673 38.8616 13.1736C38.8616 14.8745 38.8616 16.5871 38.8616 18.288C38.8616 18.4061 38.8382 18.4652 38.7326 18.5242C38.1931 18.8313 37.6654 19.1502 37.1259 19.4691C36.5864 19.788 36.0469 20.0951 35.5074 20.4022C34.6513 20.8983 33.7952 21.4062 32.939 21.9023C32.9156 21.9141 32.9038 21.9023 32.8921 21.8787C32.8921 21.8314 32.8921 21.7842 32.8921 21.7369C32.8921 20.0125 32.8921 18.2998 32.8921 16.5753C32.8921 16.5163 32.9038 16.469 32.8804 16.41C32.8804 16.3745 32.8804 16.3273 32.8686 16.2919C32.8569 16.28 32.8804 16.221 32.8569 16.1737Z"/>
</mask>
<path d="M32.8569 16.1737C32.8217 15.9021 32.7396 15.6422 32.6458 15.3824C32.5051 14.9808 32.2823 14.6264 32.0125 14.2957C31.731 13.9296 31.3675 13.6697 30.9922 13.4217C30.9335 13.4099 30.8749 13.3862 30.828 13.3508C29.9249 12.8075 29.0219 12.2523 28.1188 11.709C26.8874 10.9649 25.656 10.209 24.4246 9.46484C23.9085 9.15774 23.3573 8.99238 22.7592 8.92151C22.079 8.85064 21.4222 8.94514 20.7889 9.22861C20.5309 9.34672 20.2963 9.50027 20.05 9.64201C18.8069 10.3743 17.552 11.1066 16.3088 11.8389C15.4879 12.3232 14.6552 12.7839 13.8342 13.2918C12.7553 13.9532 12.0985 14.9099 11.9461 16.1974C11.9343 16.3273 11.9226 16.4572 11.9226 16.5871C11.9226 19.2447 11.8991 21.8905 11.9343 24.5481C11.9461 25.9064 12.5559 26.9812 13.6935 27.7135C14.9132 28.4931 16.1681 29.2254 17.3995 29.9813C18.3729 30.5719 19.3464 31.1743 20.3198 31.7649C21.0469 32.2137 21.8444 32.3909 22.7005 32.3436C23.3456 32.3082 23.932 32.0838 24.4949 31.7412C26.0078 30.8081 27.5324 29.8987 29.0571 28.9774C29.1274 28.9301 29.1978 28.8829 29.2916 28.8711C29.7256 28.6112 30.1478 28.3514 30.5817 28.0797C31.3206 27.6309 32.0594 27.182 32.7983 26.7332C33.197 26.497 33.5958 26.2844 34.0063 26.0599C34.8624 25.5875 35.7068 25.115 36.5629 24.6426C37.7592 23.9693 38.9672 23.3197 40.14 22.5992C41.301 21.8905 42.4855 21.2172 43.6583 20.5204C44.7373 19.8825 45.8045 19.2329 46.8952 18.5951C47.3292 18.3352 47.7631 18.0518 48.2557 17.91C48.502 17.8392 48.76 17.7801 49.018 17.7329C49.0649 17.7092 49.1235 17.7447 49.1704 17.7092C49.2174 17.7092 49.2643 17.7092 49.3112 17.6974C49.4871 17.6856 49.6747 17.6856 49.8507 17.6974C50.6364 17.7447 51.3049 18.099 51.9734 18.5006C52.7709 18.9849 53.5684 19.4455 54.3776 19.9062C55.656 20.6503 56.9343 21.4062 58.2127 22.1503C59.3151 22.8 60.4292 23.4378 61.5317 24.0874C62.4699 24.6426 63.455 25.1505 64.3581 25.7765C65.2377 26.3907 65.7654 27.2647 65.9414 28.3395C65.9531 28.3986 65.9648 28.4458 65.9765 28.5049C66 28.5521 65.9765 28.6112 66 28.6703C66 28.7884 66 28.9065 66 29.0364C66 33.9618 66 38.8872 66 43.8125C66 45.0173 65.5661 46.0213 64.6748 46.8363C64.3346 47.1434 63.9359 47.3442 63.5489 47.5686C62.8335 47.9938 62.1063 48.419 61.3909 48.8442C60.8163 49.1868 60.2299 49.5175 59.6435 49.86C58.7873 50.3679 57.9312 50.8758 57.0751 51.3719C56.1134 51.9388 55.14 52.494 54.1665 53.0609C53.3221 53.557 52.466 54.0649 51.6216 54.561C51.3988 54.6909 51.1642 54.7972 50.9179 54.8917C50.742 54.9626 50.5543 54.998 50.3667 54.998C49.8155 54.9862 49.276 54.9744 48.7248 54.998C48.2674 55.0216 47.9038 54.8326 47.5285 54.6318C47.0477 54.3602 46.5786 54.0767 46.1095 53.805C45.6521 53.5334 45.183 53.2617 44.7256 52.99C44.2682 52.7184 43.7991 52.4467 43.3417 52.1751C42.8726 51.9034 42.4034 51.6317 41.9343 51.3601C41.4652 51.0884 40.9844 50.8049 40.5152 50.5333C40.0579 50.2616 39.5887 49.9899 39.1314 49.7183C38.5801 49.3994 38.0407 49.0805 37.4894 48.7616C36.9148 48.419 36.3401 48.0883 35.7654 47.7458C35.4019 47.5332 35.0149 47.3324 34.6747 47.0725C34.0532 46.6119 33.5958 46.0095 33.3143 45.2772C33.2088 44.9937 33.1384 44.6984 33.1032 44.4031C33.0798 44.3441 33.1149 44.2732 33.0798 44.2141C33.0798 42.4424 33.0798 40.6707 33.0798 38.899C33.0798 38.7572 33.1267 38.6864 33.2439 38.6037C34.2408 38.0249 35.226 37.4462 36.2111 36.8674C37.0203 36.395 37.8178 35.9343 38.6271 35.4619C38.7561 35.391 38.8851 35.3201 39.0375 35.2256C39.0375 35.8398 39.0375 36.4422 39.0375 37.0328C39.0962 37.1036 39.0727 37.1745 39.0727 37.2572C39.0727 38.2966 39.061 39.336 39.0727 40.3754C39.0844 41.2613 39.3894 42.0408 39.9406 42.7377C40.3276 43.2338 40.8436 43.5409 41.3714 43.848C42.3213 44.4031 43.2713 44.9583 44.2213 45.5134C45.3706 46.1867 46.5082 46.8717 47.6693 47.5213C48.1501 47.793 48.6661 47.9229 49.2174 47.982C49.8038 48.041 50.355 47.9584 50.9062 47.7576C51.0938 47.6867 51.2815 47.604 51.4457 47.4977C52.9117 46.6237 54.3659 45.7496 55.8319 44.8638C56.5942 44.4031 57.3683 43.9779 58.1071 43.4818C59.0805 42.8322 59.6435 41.9109 59.8077 40.7416C59.8311 40.5408 59.8546 40.34 59.8546 40.1392C59.8546 37.5761 59.8546 35.013 59.8546 32.4499C59.8546 31.3751 59.4676 30.442 58.717 29.6624C58.4003 29.3435 58.0133 29.1191 57.6263 28.8947C56.4769 28.2332 55.3393 27.56 54.19 26.8867C53.2283 26.3316 52.2901 25.741 51.3167 25.2095C50.1087 24.5599 48.8538 24.489 47.6106 25.1268C47.0829 25.3985 46.5786 25.7292 46.0626 26.0245C44.491 26.9458 42.9195 27.8671 41.3479 28.7884C39.9523 29.6152 38.545 30.4302 37.1493 31.2452C37.0907 31.2806 37.0203 31.2924 36.95 31.316C36.5395 31.5523 36.1173 31.7885 35.7068 32.0247C35.1439 32.3554 34.5692 32.6862 34.0063 33.0169C33.068 33.572 32.1298 34.1153 31.1916 34.6705C30.2768 35.202 29.3737 35.7335 28.459 36.265C27.5911 36.7729 26.7232 37.2808 25.8671 37.7887C25.3393 38.0958 24.8233 38.4265 24.2838 38.71C23.8499 38.9462 23.3808 39.0762 22.8999 39.1352C22.853 39.1588 22.7944 39.1352 22.7475 39.1588C22.6536 39.1588 22.5481 39.1588 22.4543 39.1706C22.4074 39.1825 22.3604 39.1825 22.3018 39.1706C22.2197 39.1706 22.1259 39.1706 22.0438 39.1588C21.9969 39.1352 21.9382 39.1588 21.8913 39.1352C21.7623 39.1116 21.6333 39.088 21.5043 39.0643C21.3049 39.0643 21.1407 38.9817 20.9648 38.9108C20.4722 38.71 20.0383 38.4029 19.5809 38.1431C18.0563 37.2572 16.5317 36.3595 15.007 35.4737C13.9046 34.8358 12.8139 34.1862 11.7115 33.5484C10.4449 32.8043 9.16654 32.0838 7.91165 31.3278C6.94996 30.7491 6.31665 29.9223 6.05864 28.812C6.02346 28.6585 6.01173 28.4931 6.01173 28.3277C6 28.2569 6.02346 28.186 6 28.1269C6 23.0362 6 17.9455 6 12.8429C6.03518 12.7957 6.01173 12.7366 6.01173 12.6894C6.02346 12.0752 6.25801 11.5318 6.5864 11.024C6.90305 10.5397 7.34871 10.1971 7.85301 9.90186C8.75606 9.35854 9.69429 8.79159 10.6443 8.23645C12.0751 7.39783 13.5059 6.54741 14.9249 5.7088C16.8131 4.59852 18.6896 3.48824 20.5778 2.37797C20.8475 2.22442 21.129 2.11811 21.4222 2.02362C21.4808 2 21.5512 2 21.6216 2C22.2783 2 22.9234 2 23.5801 2C23.9085 2 24.1783 2.15355 24.448 2.31891C25.6091 2.99216 26.7584 3.67723 27.9077 4.36229C28.5762 4.76388 29.2565 5.16547 29.9367 5.55525C29.9836 5.57887 30.0305 5.61431 30.054 5.66155C30.5583 5.96865 31.0743 6.27575 31.5786 6.58284C32.7748 7.29153 33.9593 8.00022 35.1556 8.69709C35.8124 9.08687 36.4926 9.45303 37.1376 9.87824C37.9468 10.4216 38.4746 11.1775 38.7326 12.1106C38.7795 12.2878 38.803 12.4886 38.8382 12.6657C38.8616 12.7248 38.8264 12.7957 38.8616 12.8547C38.8616 12.961 38.8616 13.0673 38.8616 13.1736C38.8616 14.8745 38.8616 16.5871 38.8616 18.288C38.8616 18.4061 38.8382 18.4652 38.7326 18.5242C38.1931 18.8313 37.6654 19.1502 37.1259 19.4691C36.5864 19.788 36.0469 20.0951 35.5074 20.4022C34.6513 20.8983 33.7952 21.4062 32.939 21.9023C32.9156 21.9141 32.9038 21.9023 32.8921 21.8787C32.8921 21.8314 32.8921 21.7842 32.8921 21.7369C32.8921 20.0125 32.8921 18.2998 32.8921 16.5753C32.8921 16.5163 32.9038 16.469 32.8804 16.41C32.8804 16.3745 32.8804 16.3273 32.8686 16.2919C32.8569 16.28 32.8804 16.221 32.8569 16.1737Z" fill="#8046E3"/>
<path d="M32.8569 16.1737C32.8217 15.9021 32.7396 15.6422 32.6458 15.3824C32.5051 14.9808 32.2823 14.6264 32.0125 14.2957C31.731 13.9296 31.3675 13.6697 30.9922 13.4217C30.9335 13.4099 30.8749 13.3862 30.828 13.3508C29.9249 12.8075 29.0219 12.2523 28.1188 11.709C26.8874 10.9649 25.656 10.209 24.4246 9.46484C23.9085 9.15774 23.3573 8.99238 22.7592 8.92151C22.079 8.85064 21.4222 8.94514 20.7889 9.22861C20.5309 9.34672 20.2963 9.50027 20.05 9.64201C18.8069 10.3743 17.552 11.1066 16.3088 11.8389C15.4879 12.3232 14.6552 12.7839 13.8342 13.2918C12.7553 13.9532 12.0985 14.9099 11.9461 16.1974C11.9343 16.3273 11.9226 16.4572 11.9226 16.5871C11.9226 19.2447 11.8991 21.8905 11.9343 24.5481C11.9461 25.9064 12.5559 26.9812 13.6935 27.7135C14.9132 28.4931 16.1681 29.2254 17.3995 29.9813C18.3729 30.5719 19.3464 31.1743 20.3198 31.7649C21.0469 32.2137 21.8444 32.3909 22.7005 32.3436C23.3456 32.3082 23.932 32.0838 24.4949 31.7412C26.0078 30.8081 27.5324 29.8987 29.0571 28.9774C29.1274 28.9301 29.1978 28.8829 29.2916 28.8711C29.7256 28.6112 30.1478 28.3514 30.5817 28.0797C31.3206 27.6309 32.0594 27.182 32.7983 26.7332C33.197 26.497 33.5958 26.2844 34.0063 26.0599C34.8624 25.5875 35.7068 25.115 36.5629 24.6426C37.7592 23.9693 38.9672 23.3197 40.14 22.5992C41.301 21.8905 42.4855 21.2172 43.6583 20.5204C44.7373 19.8825 45.8045 19.2329 46.8952 18.5951C47.3292 18.3352 47.7631 18.0518 48.2557 17.91C48.502 17.8392 48.76 17.7801 49.018 17.7329C49.0649 17.7092 49.1235 17.7447 49.1704 17.7092C49.2174 17.7092 49.2643 17.7092 49.3112 17.6974C49.4871 17.6856 49.6747 17.6856 49.8507 17.6974C50.6364 17.7447 51.3049 18.099 51.9734 18.5006C52.7709 18.9849 53.5684 19.4455 54.3776 19.9062C55.656 20.6503 56.9343 21.4062 58.2127 22.1503C59.3151 22.8 60.4292 23.4378 61.5317 24.0874C62.4699 24.6426 63.455 25.1505 64.3581 25.7765C65.2377 26.3907 65.7654 27.2647 65.9414 28.3395C65.9531 28.3986 65.9648 28.4458 65.9765 28.5049C66 28.5521 65.9765 28.6112 66 28.6703C66 28.7884 66 28.9065 66 29.0364C66 33.9618 66 38.8872 66 43.8125C66 45.0173 65.5661 46.0213 64.6748 46.8363C64.3346 47.1434 63.9359 47.3442 63.5489 47.5686C62.8335 47.9938 62.1063 48.419 61.3909 48.8442C60.8163 49.1868 60.2299 49.5175 59.6435 49.86C58.7873 50.3679 57.9312 50.8758 57.0751 51.3719C56.1134 51.9388 55.14 52.494 54.1665 53.0609C53.3221 53.557 52.466 54.0649 51.6216 54.561C51.3988 54.6909 51.1642 54.7972 50.9179 54.8917C50.742 54.9626 50.5543 54.998 50.3667 54.998C49.8155 54.9862 49.276 54.9744 48.7248 54.998C48.2674 55.0216 47.9038 54.8326 47.5285 54.6318C47.0477 54.3602 46.5786 54.0767 46.1095 53.805C45.6521 53.5334 45.183 53.2617 44.7256 52.99C44.2682 52.7184 43.7991 52.4467 43.3417 52.1751C42.8726 51.9034 42.4034 51.6317 41.9343 51.3601C41.4652 51.0884 40.9844 50.8049 40.5152 50.5333C40.0579 50.2616 39.5887 49.9899 39.1314 49.7183C38.5801 49.3994 38.0407 49.0805 37.4894 48.7616C36.9148 48.419 36.3401 48.0883 35.7654 47.7458C35.4019 47.5332 35.0149 47.3324 34.6747 47.0725C34.0532 46.6119 33.5958 46.0095 33.3143 45.2772C33.2088 44.9937 33.1384 44.6984 33.1032 44.4031C33.0798 44.3441 33.1149 44.2732 33.0798 44.2141C33.0798 42.4424 33.0798 40.6707 33.0798 38.899C33.0798 38.7572 33.1267 38.6864 33.2439 38.6037C34.2408 38.0249 35.226 37.4462 36.2111 36.8674C37.0203 36.395 37.8178 35.9343 38.6271 35.4619C38.7561 35.391 38.8851 35.3201 39.0375 35.2256C39.0375 35.8398 39.0375 36.4422 39.0375 37.0328C39.0962 37.1036 39.0727 37.1745 39.0727 37.2572C39.0727 38.2966 39.061 39.336 39.0727 40.3754C39.0844 41.2613 39.3894 42.0408 39.9406 42.7377C40.3276 43.2338 40.8436 43.5409 41.3714 43.848C42.3213 44.4031 43.2713 44.9583 44.2213 45.5134C45.3706 46.1867 46.5082 46.8717 47.6693 47.5213C48.1501 47.793 48.6661 47.9229 49.2174 47.982C49.8038 48.041 50.355 47.9584 50.9062 47.7576C51.0938 47.6867 51.2815 47.604 51.4457 47.4977C52.9117 46.6237 54.3659 45.7496 55.8319 44.8638C56.5942 44.4031 57.3683 43.9779 58.1071 43.4818C59.0805 42.8322 59.6435 41.9109 59.8077 40.7416C59.8311 40.5408 59.8546 40.34 59.8546 40.1392C59.8546 37.5761 59.8546 35.013 59.8546 32.4499C59.8546 31.3751 59.4676 30.442 58.717 29.6624C58.4003 29.3435 58.0133 29.1191 57.6263 28.8947C56.4769 28.2332 55.3393 27.56 54.19 26.8867C53.2283 26.3316 52.2901 25.741 51.3167 25.2095C50.1087 24.5599 48.8538 24.489 47.6106 25.1268C47.0829 25.3985 46.5786 25.7292 46.0626 26.0245C44.491 26.9458 42.9195 27.8671 41.3479 28.7884C39.9523 29.6152 38.545 30.4302 37.1493 31.2452C37.0907 31.2806 37.0203 31.2924 36.95 31.316C36.5395 31.5523 36.1173 31.7885 35.7068 32.0247C35.1439 32.3554 34.5692 32.6862 34.0063 33.0169C33.068 33.572 32.1298 34.1153 31.1916 34.6705C30.2768 35.202 29.3737 35.7335 28.459 36.265C27.5911 36.7729 26.7232 37.2808 25.8671 37.7887C25.3393 38.0958 24.8233 38.4265 24.2838 38.71C23.8499 38.9462 23.3808 39.0762 22.8999 39.1352C22.853 39.1588 22.7944 39.1352 22.7475 39.1588C22.6536 39.1588 22.5481 39.1588 22.4543 39.1706C22.4074 39.1825 22.3604 39.1825 22.3018 39.1706C22.2197 39.1706 22.1259 39.1706 22.0438 39.1588C21.9969 39.1352 21.9382 39.1588 21.8913 39.1352C21.7623 39.1116 21.6333 39.088 21.5043 39.0643C21.3049 39.0643 21.1407 38.9817 20.9648 38.9108C20.4722 38.71 20.0383 38.4029 19.5809 38.1431C18.0563 37.2572 16.5317 36.3595 15.007 35.4737C13.9046 34.8358 12.8139 34.1862 11.7115 33.5484C10.4449 32.8043 9.16654 32.0838 7.91165 31.3278C6.94996 30.7491 6.31665 29.9223 6.05864 28.812C6.02346 28.6585 6.01173 28.4931 6.01173 28.3277C6 28.2569 6.02346 28.186 6 28.1269C6 23.0362 6 17.9455 6 12.8429C6.03518 12.7957 6.01173 12.7366 6.01173 12.6894C6.02346 12.0752 6.25801 11.5318 6.5864 11.024C6.90305 10.5397 7.34871 10.1971 7.85301 9.90186C8.75606 9.35854 9.69429 8.79159 10.6443 8.23645C12.0751 7.39783 13.5059 6.54741 14.9249 5.7088C16.8131 4.59852 18.6896 3.48824 20.5778 2.37797C20.8475 2.22442 21.129 2.11811 21.4222 2.02362C21.4808 2 21.5512 2 21.6216 2C22.2783 2 22.9234 2 23.5801 2C23.9085 2 24.1783 2.15355 24.448 2.31891C25.6091 2.99216 26.7584 3.67723 27.9077 4.36229C28.5762 4.76388 29.2565 5.16547 29.9367 5.55525C29.9836 5.57887 30.0305 5.61431 30.054 5.66155C30.5583 5.96865 31.0743 6.27575 31.5786 6.58284C32.7748 7.29153 33.9593 8.00022 35.1556 8.69709C35.8124 9.08687 36.4926 9.45303 37.1376 9.87824C37.9468 10.4216 38.4746 11.1775 38.7326 12.1106C38.7795 12.2878 38.803 12.4886 38.8382 12.6657C38.8616 12.7248 38.8264 12.7957 38.8616 12.8547C38.8616 12.961 38.8616 13.0673 38.8616 13.1736C38.8616 14.8745 38.8616 16.5871 38.8616 18.288C38.8616 18.4061 38.8382 18.4652 38.7326 18.5242C38.1931 18.8313 37.6654 19.1502 37.1259 19.4691C36.5864 19.788 36.0469 20.0951 35.5074 20.4022C34.6513 20.8983 33.7952 21.4062 32.939 21.9023C32.9156 21.9141 32.9038 21.9023 32.8921 21.8787C32.8921 21.8314 32.8921 21.7842 32.8921 21.7369C32.8921 20.0125 32.8921 18.2998 32.8921 16.5753C32.8921 16.5163 32.9038 16.469 32.8804 16.41C32.8804 16.3745 32.8804 16.3273 32.8686 16.2919C32.8569 16.28 32.8804 16.221 32.8569 16.1737Z" stroke="white" stroke-width="4" mask="url(#path-1-outside-1_289_62)"/>
</g>
<defs>
<filter id="filter0_d_289_62" x="0" y="0" width="72" height="65" filterUnits="userSpaceOnUse" color-interpolation-filters="sRGB">
<feFlood flood-opacity="0" result="BackgroundImageFix"/>
<feColorMatrix in="SourceAlpha" type="matrix" values="0 0 0 0 0 0 0 0 0 0 0 0 0 0 0 0 0 0 127 0" result="hardAlpha"/>
<feOffset dy="4"/>
<feGaussianBlur stdDeviation="2"/>
<feComposite in2="hardAlpha" operator="out"/>
<feColorMatrix type="matrix" values="0 0 0 0 0 0 0 0 0 0 0 0 0 0 0 0 0 0 0.25 0"/>
<feBlend mode="normal" in2="BackgroundImageFix" result="effect1_dropShadow_289_62"/>
<feBlend mode="normal" in="SourceGraphic" in2="effect1_dropShadow_289_62" result="shape"/>
</filter>
</defs>
</svg>
