<svg width="24" height="14" viewBox="0 0 24 14" fill="none" xmlns="http://www.w3.org/2000/svg">
<path d="M7.20094 1.71977C10.1121 1.71977 12.4809 4.08857 12.4809 6.99977C12.4809 9.91097 10.1121 12.2798 7.20094 12.2798C4.28974 12.2798 1.92094 9.91097 1.92094 6.99977C1.92094 4.08857 4.28974 1.71977 7.20094 1.71977ZM7.20094 0.759766C3.75454 0.759766 0.960938 3.55337 0.960938 6.99977C0.960938 10.4462 3.75454 13.2398 7.20094 13.2398C10.6473 13.2398 13.4409 10.4462 13.4409 6.99977C13.4409 3.55337 10.6473 0.759766 7.20094 0.759766ZM17.0409 2.19977C18.0605 2.19977 19.2009 4.25273 19.2009 6.99977C19.2009 9.74681 18.0605 11.7998 17.0409 11.7998C16.0214 11.7998 14.8809 9.74681 14.8809 6.99977C14.8809 4.25273 16.0214 2.19977 17.0409 2.19977ZM17.0409 1.23977C15.3177 1.23977 13.9209 3.81881 13.9209 6.99977C13.9209 10.1807 15.3177 12.7598 17.0409 12.7598C18.7641 12.7598 20.1609 10.1807 20.1609 6.99977C20.1609 3.81881 18.7641 1.23977 17.0409 1.23977ZM21.8409 3.91673C21.9753 4.67561 22.0809 5.71673 22.0809 6.99977C22.0809 8.28281 21.9753 9.32393 21.8409 10.0828C21.7065 9.32393 21.6009 8.28281 21.6009 6.99977C21.6009 5.71673 21.7065 4.67561 21.8409 3.91673ZM21.8409 1.71977C21.1781 1.71977 20.6409 4.08377 20.6409 6.99977C20.6409 9.91577 21.1781 12.2798 21.8409 12.2798C22.5038 12.2798 23.0409 9.91577 23.0409 6.99977C23.0409 4.08377 22.5038 1.71977 21.8409 1.71977Z" fill="#EFEFEF"/>
</svg>
