<svg width="114" height="125" viewBox="0 0 114 125" fill="none" xmlns="http://www.w3.org/2000/svg">
<path d="M28.8496 46.2192L28.8496 35.2709L2.99947 35.2709C2.99947 42.1136 7.83692 46.2192 11.7674 46.2192L28.8496 46.2192Z" fill="url(#paint0_linear_981_1832)"/>
<path d="M28.8496 46.2192L28.8496 35.2709L2.99947 35.2709C2.99947 42.1136 7.83692 46.2192 11.7674 46.2192L28.8496 46.2192Z" stroke="url(#paint1_linear_981_1832)" stroke-width="2.29412"/>
<path d="M37.9736 55.9512L37.9736 45.0029L12.1235 45.0029C12.1235 51.8456 16.9609 55.9512 20.8914 55.9512L37.9736 55.9512Z" fill="url(#paint2_linear_981_1832)"/>
<path d="M37.9736 55.9512L37.9736 45.0029L12.1235 45.0029C12.1235 51.8456 16.9609 55.9512 20.8914 55.9512L37.9736 55.9512Z" stroke="url(#paint3_linear_981_1832)" stroke-width="2.29412"/>
<path d="M85.8057 46.2192L85.8057 35.2709L111.656 35.2709C111.656 42.1136 106.818 46.2192 102.888 46.2192L85.8057 46.2192Z" fill="url(#paint4_linear_981_1832)"/>
<path d="M85.8057 46.2192L85.8057 35.2709L111.656 35.2709C111.656 42.1136 106.818 46.2192 102.888 46.2192L85.8057 46.2192Z" stroke="url(#paint5_linear_981_1832)" stroke-width="2.29412"/>
<path d="M76.6826 55.9512L76.6826 45.0029L102.533 45.0029C102.533 51.8456 97.6953 55.9512 93.7649 55.9512L76.6826 55.9512Z" fill="url(#paint6_linear_981_1832)"/>
<path d="M76.6826 55.9512L76.6826 45.0029L102.533 45.0029C102.533 51.8456 97.6953 55.9512 93.7649 55.9512L76.6826 55.9512Z" stroke="url(#paint7_linear_981_1832)" stroke-width="2.29412"/>
<g filter="url(#filter0_d_981_1832)">
<path fill-rule="evenodd" clip-rule="evenodd" d="M42.4804 69.2075V92.7621L49.2258 96.3868C49.892 96.7449 50.6992 96.2622 50.6992 95.5059C50.6993 87.0318 50.707 77.5366 50.707 69.2075H42.4804Z" fill="#FDFEFF"/>
<path fill-rule="evenodd" clip-rule="evenodd" d="M42.4804 69.2075V92.7621L49.2258 96.3868C49.892 96.7449 50.6992 96.2622 50.6992 95.5059C50.6993 87.0318 50.707 77.5366 50.707 69.2075H42.4804Z" stroke="url(#paint8_linear_981_1832)"/>
</g>
<path fill-rule="evenodd" clip-rule="evenodd" d="M43.1612 91.7073V82.4639H43.0108V91.8325L43.0736 91.843C43.2815 91.8776 43.5125 92.0006 43.7013 92.1803C43.8898 92.3598 44.0293 92.5896 44.0639 92.8317L44.0697 92.872L50.1514 95.9855V85.548H50.001V95.7491L44.2061 92.7699C44.1566 92.5019 44.0012 92.2583 43.8049 92.0714C43.6167 91.8921 43.3853 91.7597 43.1612 91.7073Z" fill="url(#paint9_linear_981_1832)"/>
<path fill-rule="evenodd" clip-rule="evenodd" d="M49.9926 95.1991C50.1547 94.925 50.1639 94.5363 50.1514 94.2852L50.0012 94.2927C50.0137 94.5426 50.0005 94.8905 49.8632 95.1225C49.7966 95.235 49.7024 95.3179 49.5669 95.3519C49.429 95.3865 49.2384 95.3731 48.9761 95.2711L48.9217 95.4112C49.2006 95.5197 49.4247 95.5426 49.6035 95.4977C49.7847 95.4522 49.9094 95.3396 49.9926 95.1991Z" fill="#E3EFFB"/>
<g filter="url(#filter1_d_981_1832)">
<path fill-rule="evenodd" clip-rule="evenodd" d="M41.1592 92.2318V69.2075H31.6107V85.7146C31.6107 86.8632 32.2665 87.911 33.2996 88.413L41.1592 92.2318Z" fill="#CDD9F1"/>
<path fill-rule="evenodd" clip-rule="evenodd" d="M41.1592 92.2318V69.2075H31.6107V85.7146C31.6107 86.8632 32.2665 87.911 33.2996 88.413L41.1592 92.2318Z" stroke="url(#paint10_linear_981_1832)"/>
</g>
<path fill-rule="evenodd" clip-rule="evenodd" d="M32.318 86.478V75.5708H32.1406V86.6258L32.2147 86.6381C32.4599 86.679 32.7326 86.8241 32.9553 87.0362C33.1777 87.248 33.3424 87.5191 33.3832 87.8049L33.39 87.8523L40.5664 91.2135V79.21H40.389V90.9345L33.551 87.7319C33.4926 87.4156 33.3092 87.1282 33.0776 86.9077C32.8555 86.6962 32.5825 86.5398 32.318 86.478Z" fill="url(#paint11_linear_981_1832)"/>
<path fill-rule="evenodd" clip-rule="evenodd" d="M40.3793 90.2854C40.5706 89.9621 40.5815 89.5033 40.5667 89.207L40.3895 89.2159C40.4043 89.5109 40.3886 89.9213 40.2266 90.1951C40.1481 90.3279 40.0369 90.4256 39.877 90.4658C39.7142 90.5067 39.4893 90.4908 39.1799 90.3705L39.1156 90.5358C39.4448 90.6638 39.7092 90.6908 39.9202 90.6378C40.1341 90.5841 40.2812 90.4513 40.3793 90.2854Z" fill="#F2F9FF"/>
<g filter="url(#filter2_d_981_1832)">
<path fill-rule="evenodd" clip-rule="evenodd" d="M72.4483 69.2075V92.7621L65.7029 96.3868C65.0367 96.7449 64.2295 96.2622 64.2295 95.5059C64.2294 87.0318 64.2217 77.5366 64.2217 69.2075H72.4483Z" fill="#C0FFFB"/>
<path fill-rule="evenodd" clip-rule="evenodd" d="M72.4483 69.2075V92.7621L65.7029 96.3868C65.0367 96.7449 64.2295 96.2622 64.2295 95.5059C64.2294 87.0318 64.2217 77.5366 64.2217 69.2075H72.4483Z" stroke="url(#paint12_linear_981_1832)"/>
</g>
<path fill-rule="evenodd" clip-rule="evenodd" d="M71.7675 91.7073V82.4639H71.9179V91.8325L71.8551 91.843C71.6473 91.8776 71.4162 92.0006 71.2274 92.1803C71.0389 92.3598 70.8994 92.5896 70.8648 92.8317L70.8591 92.872L64.7773 95.9855V85.548H64.9277V95.7491L70.7226 92.7699C70.7721 92.5019 70.9275 92.2583 71.1238 92.0714C71.312 91.8921 71.5434 91.7597 71.7675 91.7073Z" fill="url(#paint13_linear_981_1832)"/>
<path fill-rule="evenodd" clip-rule="evenodd" d="M64.9361 95.1991C64.774 94.925 64.7648 94.5363 64.7773 94.2852L64.9275 94.2927C64.915 94.5426 64.9283 94.8905 65.0655 95.1225C65.1321 95.235 65.2263 95.3179 65.3618 95.3519C65.4998 95.3865 65.6903 95.3731 65.9526 95.2711L66.0071 95.4112C65.7281 95.5197 65.5041 95.5426 65.3252 95.4977C65.144 95.4522 65.0193 95.3396 64.9361 95.1991Z" fill="#E3EFFB"/>
<g filter="url(#filter3_d_981_1832)">
<path fill-rule="evenodd" clip-rule="evenodd" d="M73.7705 92.2318V69.2075H83.319V85.7146C83.319 86.8632 82.6632 87.911 81.6301 88.413L73.7705 92.2318Z" fill="#C6D9FF"/>
<path fill-rule="evenodd" clip-rule="evenodd" d="M73.7705 92.2318V69.2075H83.319V85.7146C83.319 86.8632 82.6632 87.911 81.6301 88.413L73.7705 92.2318Z" stroke="url(#paint14_linear_981_1832)"/>
</g>
<path fill-rule="evenodd" clip-rule="evenodd" d="M82.6107 86.478V75.5708H82.7881V86.6258L82.714 86.6381C82.4688 86.679 82.1961 86.8241 81.9734 87.0362C81.751 87.248 81.5863 87.5191 81.5455 87.8049L81.5387 87.8523L74.3623 91.2135V79.21H74.5397V90.9345L81.3777 87.7319C81.4361 87.4156 81.6195 87.1282 81.8511 86.9077C82.0732 86.6962 82.3462 86.5398 82.6107 86.478Z" fill="url(#paint15_linear_981_1832)"/>
<path fill-rule="evenodd" clip-rule="evenodd" d="M74.5494 90.285C74.3581 89.9616 74.3472 89.5029 74.362 89.2065L74.5392 89.2154C74.5244 89.5104 74.5401 89.9208 74.7021 90.1946C74.7806 90.3274 74.8918 90.4252 75.0517 90.4653C75.2145 90.5062 75.4394 90.4903 75.7488 90.37L75.8131 90.5353C75.4839 90.6633 75.2195 90.6904 75.0085 90.6374C74.7947 90.5837 74.6475 90.4508 74.5494 90.285Z" fill="#F2F9FF"/>
<g filter="url(#filter4_d_981_1832)">
<path d="M48.3135 62.314H66.6074V99.3488L58.8469 104.083C57.9243 104.646 56.7643 104.645 55.8423 104.081L48.3135 99.476V62.314Z" fill="url(#paint16_linear_981_1832)"/>
<path d="M48.3135 62.314H66.6074V99.3488L58.8469 104.083C57.9243 104.646 56.7643 104.645 55.8423 104.081L48.3135 99.476V62.314Z" stroke="url(#paint17_linear_981_1832)" stroke-width="2"/>
</g>
<path fill-rule="evenodd" clip-rule="evenodd" d="M49.2412 85.3804H49.5063V98.6954L57.3282 103.519L65.2816 98.6948V85.3804H65.5467V98.8441L57.3271 103.83L49.2412 98.8434V85.3804Z" fill="url(#paint18_linear_981_1832)"/>
<path fill-rule="evenodd" clip-rule="evenodd" d="M57.4424 98.1064V102.917H57.2119V98.1064H57.4424Z" fill="url(#paint19_linear_981_1832)"/>
<path fill-rule="evenodd" clip-rule="evenodd" d="M56.6367 101.21C56.178 101.739 55.6192 101.856 55.2344 101.792L55.2723 101.565C55.5788 101.616 56.0571 101.526 56.4626 101.059C56.8697 100.589 57.2123 99.7276 57.2123 98.2217H57.4427C57.4427 99.7579 57.0938 100.682 56.6367 101.21Z" fill="url(#paint20_linear_981_1832)"/>
<path fill-rule="evenodd" clip-rule="evenodd" d="M58.0185 101.21C58.4772 101.739 59.0361 101.856 59.4209 101.792L59.383 101.565C59.0764 101.616 58.5982 101.526 58.1927 101.059C57.7855 100.589 57.443 99.7276 57.443 98.2217H57.2126C57.2126 99.7579 57.5614 100.682 58.0185 101.21Z" fill="url(#paint21_linear_981_1832)"/>
<path fill-rule="evenodd" clip-rule="evenodd" d="M57.279 103.022L54.6768 101.564L55.2529 101.564L57.3272 102.791L59.4012 101.554H59.9098L57.3747 103.022C57.3443 103.036 57.3094 103.036 57.279 103.022Z" fill="url(#paint22_linear_981_1832)"/>
<path d="M53.9827 14.8197L27.8415 29.0402C25.5888 30.2656 24.1865 32.6248 24.1865 35.1892L24.1865 67.8322C24.1865 70.3967 25.5888 72.7559 27.8415 73.9813L53.9827 88.2018C56.0684 89.3364 58.5871 89.3364 60.6728 88.2018L86.814 73.9813C89.0667 72.7558 90.4689 70.3967 90.4689 67.8322L90.4689 35.1892C90.4689 32.6248 89.0667 30.2656 86.814 29.0402L60.6728 14.8197C58.5871 13.6851 56.0684 13.6851 53.9827 14.8197Z" fill="url(#paint23_linear_981_1832)"/>
<path d="M49.1946 23.2355L38.0666 29.2891C32.6164 32.2539 29.2236 37.9618 29.2236 44.1663L29.2236 58.7216C29.2236 64.9261 32.6164 70.634 38.0666 73.5989L49.1946 79.6524C54.2408 82.3975 60.3345 82.3975 65.3807 79.6524L76.5087 73.5989C81.9589 70.634 85.3517 64.9262 85.3517 58.7217L85.3517 44.1663C85.3517 37.9618 81.9589 32.2539 76.5087 29.289L65.3807 23.2355C60.3345 20.4905 54.2408 20.4905 49.1946 23.2355Z" fill="url(#paint24_linear_981_1832)"/>
<g filter="url(#filter5_f_981_1832)">
<path d="M49.1946 23.2355L38.0666 29.2891C32.6164 32.2539 29.2236 37.9618 29.2236 44.1663L29.2236 58.7216C29.2236 64.9261 32.6164 70.634 38.0666 73.5989L49.1946 79.6524C54.2408 82.3975 60.3345 82.3975 65.3807 79.6524L76.5087 73.5989C81.9589 70.634 85.3517 64.9262 85.3517 58.7217L85.3517 44.1663C85.3517 37.9618 81.9589 32.2539 76.5087 29.289L65.3807 23.2355C60.3345 20.4905 54.2408 20.4905 49.1946 23.2355Z" stroke="url(#paint25_linear_981_1832)"/>
</g>
<g opacity="0.5">
<mask id="mask0_981_1832" style="mask-type:alpha" maskUnits="userSpaceOnUse" x="31" y="22" width="53" height="59">
<path d="M53.5877 23.5892L35.8476 33.231C33.2362 34.6503 31.6104 37.3844 31.6104 40.3566L31.6104 62.6349C31.6104 65.6071 33.2362 68.3412 35.8476 69.7605L53.5877 79.4023C56.0028 80.7149 58.9182 80.7149 61.3333 79.4023L79.0734 69.7605C81.6848 68.3412 83.3106 65.6071 83.3106 62.6349L83.3106 40.3566C83.3106 37.3844 81.6848 34.6503 79.0734 33.231L61.3332 23.5892C58.9182 22.2767 56.0028 22.2767 53.5877 23.5892Z" fill="#A6D3DE"/>
</mask>
<g mask="url(#mask0_981_1832)">
<path d="M54.5428 23.0701L34.8027 33.7989C32.8352 34.8682 31.6104 36.928 31.6104 39.1673L31.6104 63.8242C31.6104 66.0635 32.8352 68.1233 34.8027 69.1926L54.5428 79.9214C56.3622 80.9102 58.5587 80.9102 60.3782 79.9214L80.1183 69.1926C82.0857 68.1233 83.3106 66.0635 83.3106 63.8242L83.3106 39.1673C83.3106 36.928 82.0858 34.8682 80.1183 33.7989L60.3782 23.0701C58.5587 22.0813 56.3622 22.0813 54.5428 23.0701Z" fill="url(#paint26_radial_981_1832)"/>
<path opacity="0.5" d="M53.1382 82.6928L52.1113 20.2959H62.8079L61.7811 82.6928H53.1382Z" fill="url(#paint27_linear_981_1832)"/>
<path opacity="0.5" d="M53.0008 82.1396L20.9131 28.6157L30.1766 23.2674L60.4858 77.8182L53.0008 82.1396Z" fill="url(#paint28_linear_981_1832)"/>
<path opacity="0.5" d="M52.1088 77.8178L82.418 23.2671L91.6815 28.6154L59.5938 82.1393L52.1088 77.8178Z" fill="url(#paint29_linear_981_1832)"/>
<rect x="31.6094" y="47.9287" width="51.7003" height="33.5755" fill="url(#paint30_linear_981_1832)"/>
<g filter="url(#filter6_i_981_1832)">
<path d="M54.5428 23.0701L34.8027 33.7989C32.8352 34.8682 31.6104 36.928 31.6104 39.1673L31.6104 63.8242C31.6104 66.0635 32.8352 68.1233 34.8027 69.1926L54.5428 79.9214C56.3622 80.9102 58.5587 80.9102 60.3782 79.9214L80.1183 69.1926C82.0857 68.1233 83.3106 66.0635 83.3106 63.8242L83.3106 39.1673C83.3106 36.928 82.0858 34.8682 80.1183 33.7989L60.3782 23.0701C58.5587 22.0813 56.3622 22.0813 54.5428 23.0701Z" fill="#6052B4" fill-opacity="0.01"/>
</g>
</g>
</g>
<defs>
<filter id="filter0_d_981_1832" x="33.9805" y="60.7075" width="25.2266" height="44.3008" filterUnits="userSpaceOnUse" color-interpolation-filters="sRGB">
<feFlood flood-opacity="0" result="BackgroundImageFix"/>
<feColorMatrix in="SourceAlpha" type="matrix" values="0 0 0 0 0 0 0 0 0 0 0 0 0 0 0 0 0 0 127 0" result="hardAlpha"/>
<feOffset/>
<feGaussianBlur stdDeviation="4"/>
<feColorMatrix type="matrix" values="0 0 0 0 0.288889 0 0 0 0 0.357333 0 0 0 0 0.533333 0 0 0 0.74 0"/>
<feBlend mode="normal" in2="BackgroundImageFix" result="effect1_dropShadow_981_1832"/>
<feBlend mode="normal" in="SourceGraphic" in2="effect1_dropShadow_981_1832" result="shape"/>
</filter>
<filter id="filter1_d_981_1832" x="23.1104" y="60.7075" width="26.5488" height="40.3232" filterUnits="userSpaceOnUse" color-interpolation-filters="sRGB">
<feFlood flood-opacity="0" result="BackgroundImageFix"/>
<feColorMatrix in="SourceAlpha" type="matrix" values="0 0 0 0 0 0 0 0 0 0 0 0 0 0 0 0 0 0 127 0" result="hardAlpha"/>
<feOffset/>
<feGaussianBlur stdDeviation="4"/>
<feColorMatrix type="matrix" values="0 0 0 0 0.288889 0 0 0 0 0.357333 0 0 0 0 0.533333 0 0 0 0.74 0"/>
<feBlend mode="normal" in2="BackgroundImageFix" result="effect1_dropShadow_981_1832"/>
<feBlend mode="normal" in="SourceGraphic" in2="effect1_dropShadow_981_1832" result="shape"/>
</filter>
<filter id="filter2_d_981_1832" x="55.7217" y="60.7075" width="25.2266" height="44.3008" filterUnits="userSpaceOnUse" color-interpolation-filters="sRGB">
<feFlood flood-opacity="0" result="BackgroundImageFix"/>
<feColorMatrix in="SourceAlpha" type="matrix" values="0 0 0 0 0 0 0 0 0 0 0 0 0 0 0 0 0 0 127 0" result="hardAlpha"/>
<feOffset/>
<feGaussianBlur stdDeviation="4"/>
<feColorMatrix type="matrix" values="0 0 0 0 0.288889 0 0 0 0 0.357333 0 0 0 0 0.533333 0 0 0 0.74 0"/>
<feBlend mode="normal" in2="BackgroundImageFix" result="effect1_dropShadow_981_1832"/>
<feBlend mode="normal" in="SourceGraphic" in2="effect1_dropShadow_981_1832" result="shape"/>
</filter>
<filter id="filter3_d_981_1832" x="65.2705" y="60.7075" width="26.5488" height="40.3232" filterUnits="userSpaceOnUse" color-interpolation-filters="sRGB">
<feFlood flood-opacity="0" result="BackgroundImageFix"/>
<feColorMatrix in="SourceAlpha" type="matrix" values="0 0 0 0 0 0 0 0 0 0 0 0 0 0 0 0 0 0 127 0" result="hardAlpha"/>
<feOffset/>
<feGaussianBlur stdDeviation="4"/>
<feColorMatrix type="matrix" values="0 0 0 0 0.288889 0 0 0 0 0.357333 0 0 0 0 0.533333 0 0 0 0.74 0"/>
<feBlend mode="normal" in2="BackgroundImageFix" result="effect1_dropShadow_981_1832"/>
<feBlend mode="normal" in="SourceGraphic" in2="effect1_dropShadow_981_1832" result="shape"/>
</filter>
<filter id="filter4_d_981_1832" x="39.3135" y="53.314" width="36.2939" height="60.1909" filterUnits="userSpaceOnUse" color-interpolation-filters="sRGB">
<feFlood flood-opacity="0" result="BackgroundImageFix"/>
<feColorMatrix in="SourceAlpha" type="matrix" values="0 0 0 0 0 0 0 0 0 0 0 0 0 0 0 0 0 0 127 0" result="hardAlpha"/>
<feOffset/>
<feGaussianBlur stdDeviation="4"/>
<feColorMatrix type="matrix" values="0 0 0 0 0.288889 0 0 0 0 0.357333 0 0 0 0 0.533333 0 0 0 0.8 0"/>
<feBlend mode="normal" in2="BackgroundImageFix" result="effect1_dropShadow_981_1832"/>
<feBlend mode="normal" in="SourceGraphic" in2="effect1_dropShadow_981_1832" result="shape"/>
</filter>
<filter id="filter5_f_981_1832" x="28.4236" y="20.3768" width="57.7279" height="62.1347" filterUnits="userSpaceOnUse" color-interpolation-filters="sRGB">
<feFlood flood-opacity="0" result="BackgroundImageFix"/>
<feBlend mode="normal" in="SourceGraphic" in2="BackgroundImageFix" result="shape"/>
<feGaussianBlur stdDeviation="0.15" result="effect1_foregroundBlur_981_1832"/>
</filter>
<filter id="filter6_i_981_1832" x="31.6104" y="22.3286" width="51.7002" height="58.3345" filterUnits="userSpaceOnUse" color-interpolation-filters="sRGB">
<feFlood flood-opacity="0" result="BackgroundImageFix"/>
<feBlend mode="normal" in="SourceGraphic" in2="BackgroundImageFix" result="shape"/>
<feColorMatrix in="SourceAlpha" type="matrix" values="0 0 0 0 0 0 0 0 0 0 0 0 0 0 0 0 0 0 127 0" result="hardAlpha"/>
<feOffset/>
<feGaussianBlur stdDeviation="6.72414"/>
<feComposite in2="hardAlpha" operator="arithmetic" k2="-1" k3="1"/>
<feColorMatrix type="matrix" values="0 0 0 0 0.297222 0 0 0 0 0.329917 0 0 0 0 0.445833 0 0 0 1 0"/>
<feBlend mode="normal" in2="shape" result="effect1_innerShadow_981_1832"/>
</filter>
<linearGradient id="paint0_linear_981_1832" x1="18.8137" y1="46.2192" x2="9.53803" y2="36.9436" gradientUnits="userSpaceOnUse">
<stop stop-color="#C3C5D1"/>
<stop offset="0.875" stop-color="#F9F9F9"/>
</linearGradient>
<linearGradient id="paint1_linear_981_1832" x1="4.52006" y1="35.2709" x2="13.3395" y2="46.2192" gradientUnits="userSpaceOnUse">
<stop stop-color="#F9F9F9"/>
<stop offset="0.378992" stop-color="#F9F9F9"/>
<stop offset="0.480868" stop-color="#DFDFE6"/>
<stop offset="0.729174" stop-color="#B8BAC6"/>
</linearGradient>
<linearGradient id="paint2_linear_981_1832" x1="25.2006" y1="54.5826" x2="15.925" y2="45.0029" gradientUnits="userSpaceOnUse">
<stop stop-color="#C3C5D1"/>
<stop offset="0.875" stop-color="#F9F9F9"/>
</linearGradient>
<linearGradient id="paint3_linear_981_1832" x1="13.492" y1="45.0029" x2="18.2059" y2="54.5826" gradientUnits="userSpaceOnUse">
<stop stop-color="#F4F4F5"/>
<stop offset="0.306027" stop-color="#F4F4F5"/>
<stop offset="0.462087" stop-color="#E8E9EC"/>
<stop offset="0.682292" stop-color="#DFDFE6"/>
<stop offset="1" stop-color="#B8BAC6"/>
</linearGradient>
<linearGradient id="paint4_linear_981_1832" x1="95.8416" y1="46.2192" x2="105.117" y2="36.9436" gradientUnits="userSpaceOnUse">
<stop stop-color="#C3C5D1"/>
<stop offset="0.875" stop-color="#F9F9F9"/>
</linearGradient>
<linearGradient id="paint5_linear_981_1832" x1="110.135" y1="35.2709" x2="101.316" y2="46.2192" gradientUnits="userSpaceOnUse">
<stop stop-color="#F9F9F9"/>
<stop offset="0.378992" stop-color="#F9F9F9"/>
<stop offset="0.480868" stop-color="#DFDFE6"/>
<stop offset="0.729174" stop-color="#B8BAC6"/>
</linearGradient>
<linearGradient id="paint6_linear_981_1832" x1="89.4556" y1="54.5826" x2="98.7313" y2="45.0029" gradientUnits="userSpaceOnUse">
<stop stop-color="#C3C5D1"/>
<stop offset="0.875" stop-color="#F9F9F9"/>
</linearGradient>
<linearGradient id="paint7_linear_981_1832" x1="101.164" y1="45.0029" x2="96.4504" y2="54.5826" gradientUnits="userSpaceOnUse">
<stop stop-color="#F4F4F5"/>
<stop offset="0.306027" stop-color="#F4F4F5"/>
<stop offset="0.462087" stop-color="#E8E9EC"/>
<stop offset="0.682292" stop-color="#DFDFE6"/>
<stop offset="1" stop-color="#B8BAC6"/>
</linearGradient>
<linearGradient id="paint8_linear_981_1832" x1="50.707" y1="88.0403" x2="42.0375" y2="89.3822" gradientUnits="userSpaceOnUse">
<stop stop-color="#91B1E3"/>
<stop offset="0.208702" stop-color="#F0F6FF"/>
<stop offset="0.514766" stop-color="#A4BFE9"/>
<stop offset="0.728274" stop-color="#8BADE0"/>
<stop offset="0.971703" stop-color="#D0DEF3"/>
</linearGradient>
<linearGradient id="paint9_linear_981_1832" x1="43.3478" y1="90.1032" x2="47.6451" y2="88.8221" gradientUnits="userSpaceOnUse">
<stop stop-color="#FAFCFF"/>
<stop offset="0.309893" stop-color="#D7E6FC"/>
<stop offset="0.523799" stop-color="#C1D8F4"/>
<stop offset="0.77229" stop-color="#BBD6FF"/>
<stop offset="1" stop-color="white"/>
</linearGradient>
<linearGradient id="paint10_linear_981_1832" x1="31.3455" y1="82.464" x2="41.582" y2="93.9329" gradientUnits="userSpaceOnUse">
<stop stop-color="#91B1E3"/>
<stop offset="0.208702" stop-color="#F0F6FF"/>
<stop offset="0.648432" stop-color="#A4BFE9"/>
<stop offset="0.780206" stop-color="#8BADE0"/>
<stop offset="0.971703" stop-color="#93B3E4"/>
</linearGradient>
<linearGradient id="paint11_linear_981_1832" x1="32.5382" y1="84.5852" x2="37.609" y2="83.0735" gradientUnits="userSpaceOnUse">
<stop stop-color="#FAFCFF"/>
<stop offset="0.309893" stop-color="#D7E6FC"/>
<stop offset="0.523799" stop-color="#C1D8F4"/>
<stop offset="0.77229" stop-color="#BBD6FF"/>
<stop offset="1" stop-color="white"/>
</linearGradient>
<linearGradient id="paint12_linear_981_1832" x1="64.2217" y1="88.0403" x2="72.8912" y2="89.3822" gradientUnits="userSpaceOnUse">
<stop stop-color="#9FC2F9"/>
<stop offset="0.208702" stop-color="#F0F6FF"/>
<stop offset="0.514766" stop-color="#B9D1F6"/>
<stop offset="0.59375" stop-color="#D2E2FB"/>
<stop offset="0.728274" stop-color="#CFE1FC"/>
<stop offset="0.971703" stop-color="#D0DEF3"/>
</linearGradient>
<linearGradient id="paint13_linear_981_1832" x1="71.5809" y1="90.1032" x2="67.2836" y2="88.8221" gradientUnits="userSpaceOnUse">
<stop stop-color="#FAFCFF"/>
<stop offset="0.309893" stop-color="#D7E6FC"/>
<stop offset="0.523799" stop-color="#C1D8F4"/>
<stop offset="0.77229" stop-color="#BBD6FF"/>
<stop offset="1" stop-color="white"/>
</linearGradient>
<linearGradient id="paint14_linear_981_1832" x1="83.5842" y1="82.464" x2="73.3477" y2="93.9329" gradientUnits="userSpaceOnUse">
<stop stop-color="#91B1E3"/>
<stop offset="0.208702" stop-color="#F0F6FF"/>
<stop offset="0.648432" stop-color="#A4BFE9"/>
<stop offset="0.780206" stop-color="#8BADE0"/>
<stop offset="0.971703" stop-color="#93B3E4"/>
</linearGradient>
<linearGradient id="paint15_linear_981_1832" x1="82.3905" y1="84.5852" x2="77.3197" y2="83.0735" gradientUnits="userSpaceOnUse">
<stop stop-color="#FAFCFF"/>
<stop offset="0.309893" stop-color="#D7E6FC"/>
<stop offset="0.523799" stop-color="#C1D8F4"/>
<stop offset="0.77229" stop-color="#BBD6FF"/>
<stop offset="1" stop-color="white"/>
</linearGradient>
<linearGradient id="paint16_linear_981_1832" x1="57.4605" y1="62.314" x2="57" y2="115" gradientUnits="userSpaceOnUse">
<stop stop-color="#6A88C4"/>
<stop offset="1" stop-color="#F7FAFE"/>
</linearGradient>
<linearGradient id="paint17_linear_981_1832" x1="48.3135" y1="92.6713" x2="67.1933" y2="96.7027" gradientUnits="userSpaceOnUse">
<stop stop-color="#B4BFD1"/>
<stop offset="0.0625" stop-color="#B5C5DF"/>
<stop offset="0.208702" stop-color="#F0F6FF"/>
<stop offset="0.648432" stop-color="#A2BADE"/>
<stop offset="0.780206" stop-color="#C1CEE2"/>
<stop offset="0.971703" stop-color="#98A5B9"/>
</linearGradient>
<linearGradient id="paint18_linear_981_1832" x1="64.7772" y1="96.0122" x2="56.1552" y2="91.7948" gradientUnits="userSpaceOnUse">
<stop stop-color="#FAFCFF"/>
<stop offset="0.309893" stop-color="#D7E6FC"/>
<stop offset="0.523799" stop-color="#C1D8F4"/>
<stop offset="0.77229" stop-color="#BBD6FF"/>
<stop offset="1" stop-color="white"/>
</linearGradient>
<linearGradient id="paint19_linear_981_1832" x1="57.3271" y1="98.1064" x2="57.3271" y2="102.6" gradientUnits="userSpaceOnUse">
<stop stop-color="#6A88C3"/>
<stop offset="0.0001" stop-color="#9DA9BF"/>
<stop offset="0.479167" stop-color="#E4EFFD"/>
<stop offset="1" stop-color="#E1ECFD"/>
</linearGradient>
<linearGradient id="paint20_linear_981_1832" x1="56.3385" y1="98.2217" x2="56.3385" y2="101.808" gradientUnits="userSpaceOnUse">
<stop stop-color="#CFE1EB" stop-opacity="0"/>
<stop offset="0.479167" stop-color="#B6CAFE"/>
<stop offset="1" stop-color="#C5CEEF"/>
</linearGradient>
<linearGradient id="paint21_linear_981_1832" x1="58.3167" y1="98.2217" x2="58.3167" y2="101.808" gradientUnits="userSpaceOnUse">
<stop stop-color="#CFE1EB" stop-opacity="0"/>
<stop offset="0.479167" stop-color="#B6CAFE"/>
<stop offset="1" stop-color="#C5CEEF"/>
</linearGradient>
<linearGradient id="paint22_linear_981_1832" x1="57.0482" y1="102.059" x2="54.0586" y2="102.413" gradientUnits="userSpaceOnUse">
<stop stop-color="#C9DEFC"/>
<stop offset="0.309893" stop-color="#ECF4FF"/>
<stop offset="0.523799" stop-color="#EAF6FF"/>
<stop offset="0.613641" stop-color="#CCE7FF"/>
<stop offset="1" stop-color="#CEE4F9"/>
</linearGradient>
<linearGradient id="paint23_linear_981_1832" x1="43.4084" y1="22.2795" x2="73.2355" y2="81.536" gradientUnits="userSpaceOnUse">
<stop stop-color="#FAFAFA"/>
<stop offset="1" stop-color="#C2C4CD"/>
</linearGradient>
<linearGradient id="paint24_linear_981_1832" x1="43.1429" y1="27.1846" x2="68.8605" y2="74.6428" gradientUnits="userSpaceOnUse">
<stop stop-color="#CDCFD6"/>
<stop offset="1" stop-color="#EFEFF1"/>
</linearGradient>
<linearGradient id="paint25_linear_981_1832" x1="45.9268" y1="25.4613" x2="73.6329" y2="75.3056" gradientUnits="userSpaceOnUse">
<stop stop-color="#DDDFE2"/>
<stop offset="1" stop-color="white"/>
</linearGradient>
<radialGradient id="paint26_radial_981_1832" cx="0" cy="0" r="1" gradientUnits="userSpaceOnUse" gradientTransform="translate(57.4605 51.4958) rotate(90) scale(30.0114 25.8501)">
<stop stop-color="#F5F7FF"/>
<stop offset="1" stop-color="#B3B5C5"/>
</radialGradient>
<linearGradient id="paint27_linear_981_1832" x1="57.4596" y1="20.2959" x2="57.4596" y2="82.6928" gradientUnits="userSpaceOnUse">
<stop stop-color="white"/>
<stop offset="1" stop-color="#F2EDED" stop-opacity="0"/>
</linearGradient>
<linearGradient id="paint28_linear_981_1832" x1="25.5449" y1="25.9416" x2="56.7433" y2="79.9789" gradientUnits="userSpaceOnUse">
<stop stop-color="white"/>
<stop offset="1" stop-color="#F2EDED" stop-opacity="0"/>
</linearGradient>
<linearGradient id="paint29_linear_981_1832" x1="87.0497" y1="25.9412" x2="55.8513" y2="79.9785" gradientUnits="userSpaceOnUse">
<stop stop-color="white"/>
<stop offset="1" stop-color="#F2EDED" stop-opacity="0"/>
</linearGradient>
<linearGradient id="paint30_linear_981_1832" x1="57.4595" y1="62.488" x2="57.3035" y2="79.4239" gradientUnits="userSpaceOnUse">
<stop stop-color="white" stop-opacity="0"/>
<stop offset="1" stop-color="#D0DBFF"/>
</linearGradient>
</defs>
</svg>
