<svg width="170" height="159" viewBox="0 0 170 159" fill="none" xmlns="http://www.w3.org/2000/svg">
<path d="M46.1679 16.4281L76.0165 22.1629L44.9234 46.7399L46.1679 16.4281Z" fill="url(#paint0_linear_1258_1975)"/>
<g filter="url(#filter0_f_1258_1975)">
<path d="M49.4017 21.3803L55.5078 25.3817L62.4002 22.8371L58.3395 28.9501L60.8433 35.7989L54.7372 31.7975L47.8448 34.3421L51.9056 28.2291L49.4017 21.3803Z" fill="white"/>
<path d="M49.5993 21.6292L55.4529 25.4652L55.4952 25.4929L55.5426 25.4754L62.1473 23.037L58.2561 28.8949L58.2281 28.9369L58.2455 28.9843L60.6458 35.5499L54.7921 31.714L54.7499 31.6863L54.7025 31.7038L48.0978 34.1422L51.989 28.2843L52.0169 28.2423L51.9996 28.1948L49.5993 21.6292Z" stroke="#3E74FF" stroke-width="0.2"/>
</g>
<path d="M101.224 16.0744L71.5054 22.446L103.119 46.3526L101.224 16.0744Z" fill="url(#paint1_linear_1258_1975)"/>
<g filter="url(#filter1_f_1258_1975)">
<path d="M98.0971 21.0933L92.0783 25.2244L85.1329 22.8277L89.3238 28.8525L86.9675 35.7532L92.9864 31.6222L99.9318 34.0189L95.7408 27.9941L98.0971 21.0933Z" fill="white"/>
<path d="M97.905 21.3465L92.1349 25.3067L92.0933 25.3353L92.0455 25.3188L85.39 23.0221L89.4061 28.7955L89.4349 28.8369L89.4186 28.8847L87.1597 35.5001L92.9297 31.5399L92.9714 31.5113L93.0191 31.5278L99.6746 33.8244L95.6586 28.0511L95.6298 28.0096L95.6461 27.9619L97.905 21.3465Z" stroke="#3E74FF" stroke-width="0.2"/>
</g>
<path d="M57.4741 70.9478L57.4741 47.4988L2.00015 47.4988C2.00015 62.1544 12.3812 70.9478 20.8159 70.9478L57.4741 70.9478Z" fill="url(#paint2_linear_1258_1975)"/>
<path d="M57.4741 70.9478L57.4741 47.4988L2.00015 47.4988C2.00015 62.1544 12.3812 70.9478 20.8159 70.9478L57.4741 70.9478Z" fill="url(#paint3_linear_1258_1975)" stroke="url(#paint4_linear_1258_1975)" stroke-width="2.29412"/>
<path d="M86.5259 70.9473L86.5259 47.4984L142 47.4984C142 62.1539 131.619 70.9473 123.184 70.9473L86.5259 70.9473Z" fill="url(#paint5_linear_1258_1975)"/>
<path d="M86.5259 70.9473L86.5259 47.4984L142 47.4984C142 62.1539 131.619 70.9473 123.184 70.9473L86.5259 70.9473Z" fill="url(#paint6_linear_1258_1975)" stroke="url(#paint7_linear_1258_1975)" stroke-width="2.29412"/>
<path d="M65.3364 85.9883L65.3364 62.5394L9.86245 62.5394C9.86245 77.1949 20.2435 85.9883 28.6782 85.9883L65.3364 85.9883Z" fill="url(#paint8_linear_1258_1975)"/>
<path d="M65.3364 85.9883L65.3364 62.5394L9.86245 62.5394C9.86245 77.1949 20.2435 85.9883 28.6782 85.9883L65.3364 85.9883Z" fill="url(#paint9_linear_1258_1975)" stroke="url(#paint10_linear_1258_1975)" stroke-width="2.29412"/>
<path d="M81.063 85.9883L81.063 62.5394L136.537 62.5394C136.537 77.1949 126.156 85.9883 117.721 85.9883L81.063 85.9883Z" fill="url(#paint11_linear_1258_1975)"/>
<path d="M81.063 85.9883L81.063 62.5394L136.537 62.5394C136.537 77.1949 126.156 85.9883 117.721 85.9883L81.063 85.9883Z" fill="url(#paint12_linear_1258_1975)" stroke="url(#paint13_radial_1258_1975)" stroke-width="2.29412"/>
<path d="M47.2114 27.8794L47.6978 29.3557L49.1771 29.8413L47.6978 30.3268L47.2114 31.8032L46.7249 30.3268L45.2456 29.8413L46.7249 29.3557L47.2114 27.8794Z" fill="white"/>
<path d="M40.8054 30.4956L42.9498 36.9547L49.4701 39.0789L42.9498 41.2032L40.8054 47.6622L38.6609 41.2032L32.1406 39.0789L38.6609 36.9547L40.8054 30.4956Z" fill="white"/>
<path d="M75.3323 3.9292L95.1639 26.9202H55.5006L75.3323 3.9292Z" fill="url(#paint14_linear_1258_1975)"/>
<g filter="url(#filter2_f_1258_1975)">
<path d="M74.7885 9.81396L77.0861 16.7344L84.0722 19.0104L77.0861 21.2864L74.7885 28.2068L72.4909 21.2864L65.5049 19.0104L72.4909 16.7344L74.7885 9.81396Z" fill="white"/>
<path d="M74.7885 10.1313L76.9912 16.7659L77.0071 16.8138L77.0551 16.8295L83.7493 19.0104L77.0551 21.1913L77.0071 21.2069L76.9912 21.2549L74.7885 27.8894L72.5858 21.2549L72.5699 21.2069L72.5219 21.1913L65.8277 19.0104L72.5219 16.8295L72.5699 16.8138L72.5858 16.7659L74.7885 10.1313Z" stroke="#3E74FF" stroke-width="0.2"/>
</g>
<path d="M25.6641 111.59C26.7724 108.233 33.9771 104.328 37.9795 102.84L44.2313 113.876L60.9419 117.554C58.8606 117.554 41.1405 125.786 33.469 129.816V117.427C29.6568 114.693 25.6641 111.59 25.6641 111.59Z" fill="#47C3B9"/>
<path d="M122.214 111.59C121.106 108.233 113.901 104.328 109.898 102.84L103.647 113.876L85.6982 117.554C87.7795 117.554 106.737 125.786 114.409 129.816V117.427C118.221 114.693 122.214 111.59 122.214 111.59Z" fill="#0A9B90"/>
<path d="M53.5156 108.971L60.9425 117.555L44.2319 113.876L53.5156 108.971Z" fill="#53C5BD"/>
<path d="M93.7449 108.971L85.6991 117.555L103.647 113.876L93.7449 108.971Z" fill="#089B90"/>
<path d="M124.292 66.0544C124.292 93.5393 101.798 115.828 74.0411 115.828C46.284 115.828 23.7905 93.5393 23.7905 66.0544C23.7905 38.5696 46.284 16.2808 74.0411 16.2808C101.798 16.2808 124.292 38.5696 124.292 66.0544Z" fill="url(#paint15_linear_1258_1975)" stroke="url(#paint16_linear_1258_1975)"/>
<g filter="url(#filter3_i_1258_1975)">
<ellipse cx="74.0405" cy="66.0549" rx="44.5615" ry="44.1427" fill="url(#paint17_linear_1258_1975)"/>
</g>
<g filter="url(#filter4_ii_1258_1975)">
<ellipse cx="74.0403" cy="66.0547" rx="37.1346" ry="36.7856" fill="url(#paint18_linear_1258_1975)"/>
</g>
<g filter="url(#filter5_d_1258_1975)">
<path d="M50.1604 62.714C48.3138 60.4951 48.1607 57.0543 49.8008 54.6302L55.3591 46.4147C56.3789 44.9074 57.9463 44.0259 59.6067 44.0259H88.2204C89.8938 44.0259 91.472 44.9212 92.4906 46.4484L97.9601 54.6483C99.5738 57.0676 99.4157 60.4783 97.5876 62.6866L77.8126 86.5739C75.6953 89.1315 72.1499 89.1369 70.0268 86.5857L50.1604 62.714Z" fill="url(#paint19_linear_1258_1975)"/>
</g>
<mask id="mask0_1258_1975" style="mask-type:alpha" maskUnits="userSpaceOnUse" x="48" y="44" width="52" height="45">
<path d="M50.1604 62.714C48.3138 60.4951 48.1607 57.0543 49.8008 54.6302L55.3591 46.4147C56.3789 44.9074 57.9463 44.0259 59.6067 44.0259H88.2204C89.8938 44.0259 91.472 44.9212 92.4906 46.4484L97.9601 54.6483C99.5738 57.0676 99.4157 60.4783 97.5876 62.6866L77.8126 86.5739C75.6953 89.1315 72.1499 89.1369 70.0268 86.5857L50.1604 62.714Z" fill="white"/>
</mask>
<g mask="url(#mask0_1258_1975)">
<path d="M46.9463 58.8507L56.9762 44.0259H90.8758L100.764 58.8507L73.926 91.2699L46.9463 58.8507Z" fill="url(#paint20_linear_1258_1975)"/>
<path d="M46.9458 58.8521L59.3664 63.5699L73.9255 91.2712L46.9458 58.8521Z" fill="black" fill-opacity="0.01"/>
<path d="M100.696 58.8521L88.0685 63.5699L73.9258 91.2712L100.696 58.8521Z" fill="black" fill-opacity="0.1"/>
<g style="mix-blend-mode:overlay">
<path d="M73.7192 47.268L56.8657 44.0195L59.3668 63.5688H73.6484H73.79H88.0687L90.5698 44.0195L73.7192 47.268Z" fill="white" fill-opacity="0.47"/>
</g>
<g style="mix-blend-mode:soft-light">
<path d="M56.8657 44.0195L73.926 50.5359L90.8757 44.026L56.8657 44.0195Z" fill="white"/>
</g>
<g style="mix-blend-mode:overlay">
<path d="M73.7186 47.2676L59.3662 63.5684H88.0681L73.7186 47.2676Z" fill="white" fill-opacity="0.37"/>
</g>
<g style="mix-blend-mode:soft-light">
<path d="M73.9253 50.5361L59.3662 63.569H88.0681L73.9253 50.5361Z" fill="url(#paint21_linear_1258_1975)" fill-opacity="0.61"/>
</g>
<g style="mix-blend-mode:soft-light">
<path d="M59.3664 63.5688L46.9458 58.8509L56.8653 44.0195H59.3664V63.5688Z" fill="white" fill-opacity="0.67"/>
</g>
<g style="mix-blend-mode:soft-light">
<path d="M88.0684 63.5688L100.769 58.8509L90.8499 44.0195H88.3488L88.0684 63.5688Z" fill="white" fill-opacity="0.48"/>
</g>
<g style="mix-blend-mode:soft-light" opacity="0.5">
<path d="M59.3662 63.5703L73.8545 91.2293L88.0681 63.5703H59.3662Z" fill="white" fill-opacity="0.22"/>
</g>
<g style="mix-blend-mode:soft-light" opacity="0.3" filter="url(#filter6_i_1258_1975)">
<path d="M59.3662 63.5703L73.8545 91.2293L88.0681 63.5703H59.3662Z" fill="black"/>
</g>
</g>
<path d="M49.6153 42.9204L50.5343 45.6886L53.3288 46.599L50.5343 47.5094L49.6153 50.2775L48.6963 47.5094L45.9019 46.599L48.6963 45.6886L49.6153 42.9204Z" fill="white"/>
<g filter="url(#filter7_di_1258_1975)">
<path d="M34.3281 98.2152L44.2307 113.876C70.8438 99.7748 96.219 110.197 103.646 113.876L113.549 98.2152C110.717 94.975 98.8503 88.4227 74.0371 88.1347C49.2239 87.8467 37.2256 94.735 34.3281 98.2152Z" fill="url(#paint22_linear_1258_1975)"/>
</g>
<g filter="url(#filter8_dd_1258_1975)">
<path d="M48.3268 101.342V94.0696H51.0541C51.6128 94.0696 52.0815 94.1737 52.4603 94.3821C52.8415 94.5904 53.1291 94.8768 53.3232 95.2414C53.5197 95.6036 53.618 96.0156 53.618 96.4772C53.618 96.9436 53.5197 97.3579 53.3232 97.7201C53.1267 98.0823 52.8367 98.3676 52.4532 98.5759C52.0697 98.7819 51.5974 98.8849 51.0363 98.8849H49.2288V97.8018H50.8588C51.1855 97.8018 51.453 97.745 51.6613 97.6313C51.8696 97.5177 52.0235 97.3615 52.123 97.1626C52.2248 96.9637 52.2757 96.7353 52.2757 96.4772C52.2757 96.2192 52.2248 95.9919 52.123 95.7954C52.0235 95.5989 51.8685 95.4462 51.6578 95.3373C51.4494 95.226 51.1807 95.1704 50.8517 95.1704H49.6443V101.342H48.3268ZM54.7623 101.342V94.0696H56.0798V100.238H59.2829V101.342H54.7623ZM61.6338 101.342H60.2275L62.7879 94.0696H64.4143L66.9783 101.342H65.572L63.6295 95.561H63.5727L61.6338 101.342ZM61.68 98.4907H65.5152V99.549H61.68V98.4907ZM66.7377 95.174V94.0696H72.5402V95.174H70.2923V101.342H68.9855V95.174H66.7377ZM74.9763 94.0696V101.342H73.6588V94.0696H74.9763ZM82.3795 94.0696V101.342H81.2077L77.7808 96.3884H77.7204V101.342H76.403V94.0696H77.5819L81.0052 99.0269H81.0692V94.0696H82.3795ZM88.3996 94.0696H89.7171V98.821C89.7171 99.3418 89.594 99.7999 89.3477 100.195C89.1039 100.591 88.7606 100.9 88.3179 101.122C87.8752 101.342 87.3579 101.452 86.7661 101.452C86.1718 101.452 85.6534 101.342 85.2107 101.122C84.768 100.9 84.4247 100.591 84.1808 100.195C83.937 99.7999 83.8151 99.3418 83.8151 98.821V94.0696H85.1325V98.7109C85.1325 99.0139 85.1988 99.2838 85.3314 99.5206C85.4664 99.7573 85.6557 99.9431 85.8996 100.078C86.1434 100.211 86.4323 100.277 86.7661 100.277C87.0999 100.277 87.3887 100.211 87.6325 100.078C87.8788 99.9431 88.0682 99.7573 88.2007 99.5206C88.3333 99.2838 88.3996 99.0139 88.3996 98.7109V94.0696ZM91.1491 94.0696H92.7613L94.9204 99.3394H95.0056L97.1647 94.0696H98.7769V101.342H97.5127V96.3458H97.4452L95.4353 101.321H94.4907L92.4807 96.3352H92.4133V101.342H91.1491V94.0696Z" fill="white"/>
</g>
<path d="M42.8768 28.9321L45.017 35.3912L51.5246 37.5154L45.017 39.6397L42.8768 46.0987L40.7366 39.6397L34.229 37.5154L40.7366 35.3912L42.8768 28.9321Z" fill="white"/>
<defs>
<filter id="filter0_f_1258_1975" x="42.8447" y="16.3804" width="24.5557" height="24.4185" filterUnits="userSpaceOnUse" color-interpolation-filters="sRGB">
<feFlood flood-opacity="0" result="BackgroundImageFix"/>
<feBlend mode="normal" in="SourceGraphic" in2="BackgroundImageFix" result="shape"/>
<feGaussianBlur stdDeviation="2.5" result="effect1_foregroundBlur_1258_1975"/>
</filter>
<filter id="filter1_f_1258_1975" x="80.1328" y="16.0933" width="24.7988" height="24.6602" filterUnits="userSpaceOnUse" color-interpolation-filters="sRGB">
<feFlood flood-opacity="0" result="BackgroundImageFix"/>
<feBlend mode="normal" in="SourceGraphic" in2="BackgroundImageFix" result="shape"/>
<feGaussianBlur stdDeviation="2.5" result="effect1_foregroundBlur_1258_1975"/>
</filter>
<filter id="filter2_f_1258_1975" x="60.5049" y="4.81396" width="28.5674" height="28.3926" filterUnits="userSpaceOnUse" color-interpolation-filters="sRGB">
<feFlood flood-opacity="0" result="BackgroundImageFix"/>
<feBlend mode="normal" in="SourceGraphic" in2="BackgroundImageFix" result="shape"/>
<feGaussianBlur stdDeviation="2.5" result="effect1_foregroundBlur_1258_1975"/>
</filter>
<filter id="filter3_i_1258_1975" x="29.479" y="19.9121" width="89.123" height="90.2856" filterUnits="userSpaceOnUse" color-interpolation-filters="sRGB">
<feFlood flood-opacity="0" result="BackgroundImageFix"/>
<feBlend mode="normal" in="SourceGraphic" in2="BackgroundImageFix" result="shape"/>
<feColorMatrix in="SourceAlpha" type="matrix" values="0 0 0 0 0 0 0 0 0 0 0 0 0 0 0 0 0 0 127 0" result="hardAlpha"/>
<feOffset dy="-2"/>
<feGaussianBlur stdDeviation="2"/>
<feComposite in2="hardAlpha" operator="arithmetic" k2="-1" k3="1"/>
<feColorMatrix type="matrix" values="0 0 0 0 0 0 0 0 0 0.172667 0 0 0 0 0.616667 0 0 0 0.15 0"/>
<feBlend mode="normal" in2="shape" result="effect1_innerShadow_1258_1975"/>
</filter>
<filter id="filter4_ii_1258_1975" x="36.9058" y="27.269" width="74.269" height="77.5713" filterUnits="userSpaceOnUse" color-interpolation-filters="sRGB">
<feFlood flood-opacity="0" result="BackgroundImageFix"/>
<feBlend mode="normal" in="SourceGraphic" in2="BackgroundImageFix" result="shape"/>
<feColorMatrix in="SourceAlpha" type="matrix" values="0 0 0 0 0 0 0 0 0 0 0 0 0 0 0 0 0 0 127 0" result="hardAlpha"/>
<feOffset dy="2"/>
<feGaussianBlur stdDeviation="5"/>
<feComposite in2="hardAlpha" operator="arithmetic" k2="-1" k3="1"/>
<feColorMatrix type="matrix" values="0 0 0 0 0 0 0 0 0 0.4875 0 0 0 0 0.455 0 0 0 1 0"/>
<feBlend mode="normal" in2="shape" result="effect1_innerShadow_1258_1975"/>
<feColorMatrix in="SourceAlpha" type="matrix" values="0 0 0 0 0 0 0 0 0 0 0 0 0 0 0 0 0 0 127 0" result="hardAlpha"/>
<feOffset dy="-2"/>
<feGaussianBlur stdDeviation="5"/>
<feComposite in2="hardAlpha" operator="arithmetic" k2="-1" k3="1"/>
<feColorMatrix type="matrix" values="0 0 0 0 0.4375 0 0 0 0 1 0 0 0 0 0.9625 0 0 0 1 0"/>
<feBlend mode="normal" in2="effect1_innerShadow_1258_1975" result="effect2_innerShadow_1258_1975"/>
</filter>
<filter id="filter5_d_1258_1975" x="48.666" y="44.0259" width="120.406" height="114.47" filterUnits="userSpaceOnUse" color-interpolation-filters="sRGB">
<feFlood flood-opacity="0" result="BackgroundImageFix"/>
<feColorMatrix in="SourceAlpha" type="matrix" values="0 0 0 0 0 0 0 0 0 0 0 0 0 0 0 0 0 0 127 0" result="hardAlpha"/>
<feOffset dx="50" dy="50"/>
<feGaussianBlur stdDeviation="10"/>
<feComposite in2="hardAlpha" operator="out"/>
<feColorMatrix type="matrix" values="0 0 0 0 0 0 0 0 0 0 0 0 0 0 0 0 0 0 0.2 0"/>
<feBlend mode="normal" in2="BackgroundImageFix" result="effect1_dropShadow_1258_1975"/>
<feBlend mode="normal" in="SourceGraphic" in2="effect1_dropShadow_1258_1975" result="shape"/>
</filter>
<filter id="filter6_i_1258_1975" x="59.3662" y="59.5703" width="28.7017" height="31.6592" filterUnits="userSpaceOnUse" color-interpolation-filters="sRGB">
<feFlood flood-opacity="0" result="BackgroundImageFix"/>
<feBlend mode="normal" in="SourceGraphic" in2="BackgroundImageFix" result="shape"/>
<feColorMatrix in="SourceAlpha" type="matrix" values="0 0 0 0 0 0 0 0 0 0 0 0 0 0 0 0 0 0 127 0" result="hardAlpha"/>
<feOffset dy="-4"/>
<feGaussianBlur stdDeviation="15"/>
<feComposite in2="hardAlpha" operator="arithmetic" k2="-1" k3="1"/>
<feColorMatrix type="matrix" values="0 0 0 0 1 0 0 0 0 1 0 0 0 0 1 0 0 0 1 0"/>
<feBlend mode="normal" in2="shape" result="effect1_innerShadow_1258_1975"/>
</filter>
<filter id="filter7_di_1258_1975" x="14.3281" y="78.126" width="119.22" height="65.75" filterUnits="userSpaceOnUse" color-interpolation-filters="sRGB">
<feFlood flood-opacity="0" result="BackgroundImageFix"/>
<feColorMatrix in="SourceAlpha" type="matrix" values="0 0 0 0 0 0 0 0 0 0 0 0 0 0 0 0 0 0 127 0" result="hardAlpha"/>
<feOffset dy="10"/>
<feGaussianBlur stdDeviation="10"/>
<feComposite in2="hardAlpha" operator="out"/>
<feColorMatrix type="matrix" values="0 0 0 0 0 0 0 0 0 0 0 0 0 0 0 0 0 0 0.3 0"/>
<feBlend mode="normal" in2="BackgroundImageFix" result="effect1_dropShadow_1258_1975"/>
<feBlend mode="normal" in="SourceGraphic" in2="effect1_dropShadow_1258_1975" result="shape"/>
<feColorMatrix in="SourceAlpha" type="matrix" values="0 0 0 0 0 0 0 0 0 0 0 0 0 0 0 0 0 0 127 0" result="hardAlpha"/>
<feOffset dx="4" dy="2"/>
<feGaussianBlur stdDeviation="4"/>
<feComposite in2="hardAlpha" operator="arithmetic" k2="-1" k3="1"/>
<feColorMatrix type="matrix" values="0 0 0 0 0.858333 0 0 0 0 0.858333 0 0 0 0 0.858333 0 0 0 0.25 0"/>
<feBlend mode="normal" in2="shape" result="effect2_innerShadow_1258_1975"/>
</filter>
<filter id="filter8_dd_1258_1975" x="48.3267" y="94.0693" width="51.4502" height="8.38281" filterUnits="userSpaceOnUse" color-interpolation-filters="sRGB">
<feFlood flood-opacity="0" result="BackgroundImageFix"/>
<feColorMatrix in="SourceAlpha" type="matrix" values="0 0 0 0 0 0 0 0 0 0 0 0 0 0 0 0 0 0 127 0" result="hardAlpha"/>
<feOffset dy="1"/>
<feComposite in2="hardAlpha" operator="out"/>
<feColorMatrix type="matrix" values="0 0 0 0 0.221676 0 0 0 0 0.154219 0 0 0 0 0.5875 0 0 0 1 0"/>
<feBlend mode="normal" in2="BackgroundImageFix" result="effect1_dropShadow_1258_1975"/>
<feColorMatrix in="SourceAlpha" type="matrix" values="0 0 0 0 0 0 0 0 0 0 0 0 0 0 0 0 0 0 127 0" result="hardAlpha"/>
<feOffset dx="1"/>
<feComposite in2="hardAlpha" operator="out"/>
<feColorMatrix type="matrix" values="0 0 0 0 0.223529 0 0 0 0 0.152941 0 0 0 0 0.588235 0 0 0 0.64 0"/>
<feBlend mode="normal" in2="effect1_dropShadow_1258_1975" result="effect2_dropShadow_1258_1975"/>
<feBlend mode="normal" in="SourceGraphic" in2="effect2_dropShadow_1258_1975" result="shape"/>
</filter>
<linearGradient id="paint0_linear_1258_1975" x1="45.4262" y1="28.7457" x2="58.3318" y2="18.5046" gradientUnits="userSpaceOnUse">
<stop offset="0.488759" stop-color="#E3EBFF"/>
<stop offset="0.488859" stop-color="#D1E5EE"/>
<stop offset="0.488959" stop-color="#B3C2D9"/>
</linearGradient>
<linearGradient id="paint1_linear_1258_1975" x1="102.23" y1="28.3733" x2="89.1073" y2="18.4107" gradientUnits="userSpaceOnUse">
<stop offset="0.453125" stop-color="#E3FFFD"/>
<stop offset="0.488859" stop-color="#D1E5EE"/>
<stop offset="0.488959" stop-color="#A9E4E7"/>
</linearGradient>
<linearGradient id="paint2_linear_1258_1975" x1="35.9372" y1="70.9478" x2="16.0708" y2="51.0424" gradientUnits="userSpaceOnUse">
<stop stop-color="#C3C5D1"/>
<stop offset="0.0001" stop-color="#2A64BB"/>
<stop offset="0.875" stop-color="#F9F9F9"/>
</linearGradient>
<linearGradient id="paint3_linear_1258_1975" x1="29.9537" y1="62.2131" x2="1.79527" y2="50.0747" gradientUnits="userSpaceOnUse">
<stop stop-color="#C3C5D1"/>
<stop offset="0.0001" stop-color="#2A99BB"/>
<stop offset="0.875" stop-color="#F9F9F9"/>
</linearGradient>
<linearGradient id="paint4_linear_1258_1975" x1="-1.1706" y1="47.4988" x2="29.9132" y2="69.4641" gradientUnits="userSpaceOnUse">
<stop stop-color="#92B4F1"/>
<stop offset="0.378992" stop-color="#E7EEFE"/>
<stop offset="0.480868" stop-color="#CDD6F6"/>
<stop offset="0.729174" stop-color="#3781DF"/>
</linearGradient>
<linearGradient id="paint5_linear_1258_1975" x1="108.063" y1="70.9473" x2="127.929" y2="51.0419" gradientUnits="userSpaceOnUse">
<stop stop-color="#C3C5D1"/>
<stop offset="0.0001" stop-color="#2A64BB"/>
<stop offset="0.875" stop-color="#F9F9F9"/>
</linearGradient>
<linearGradient id="paint6_linear_1258_1975" x1="114.046" y1="62.2126" x2="142.205" y2="50.0742" gradientUnits="userSpaceOnUse">
<stop offset="0.0001" stop-color="#2A99BB"/>
<stop offset="0.875" stop-color="#F9F9F9"/>
</linearGradient>
<linearGradient id="paint7_linear_1258_1975" x1="145.171" y1="47.4983" x2="114.087" y2="69.4636" gradientUnits="userSpaceOnUse">
<stop stop-color="#92DBF1"/>
<stop offset="0.378992" stop-color="#E7F9FE"/>
<stop offset="0.480868" stop-color="#CDECF6"/>
<stop offset="0.729174" stop-color="#37B8DF"/>
</linearGradient>
<linearGradient id="paint8_linear_1258_1975" x1="9.86237" y1="67.4441" x2="23.8936" y2="66.1167" gradientUnits="userSpaceOnUse">
<stop offset="0.0001" stop-color="#2A99BB"/>
<stop offset="0.875" stop-color="#F9F9F9"/>
</linearGradient>
<linearGradient id="paint9_linear_1258_1975" x1="37.816" y1="77.2536" x2="9.65758" y2="65.1152" gradientUnits="userSpaceOnUse">
<stop offset="0.0001" stop-color="#2A99BB"/>
<stop offset="0.875" stop-color="#F9F9F9"/>
</linearGradient>
<linearGradient id="paint10_linear_1258_1975" x1="6.6917" y1="62.5394" x2="37.7755" y2="84.5046" gradientUnits="userSpaceOnUse">
<stop stop-color="#92DBF1"/>
<stop offset="0.378992" stop-color="#E7EEFE"/>
<stop offset="0.480868" stop-color="#CDD6F6"/>
<stop offset="0.729174" stop-color="#37B8DF"/>
</linearGradient>
<linearGradient id="paint11_linear_1258_1975" x1="102.6" y1="85.9883" x2="122.466" y2="66.083" gradientUnits="userSpaceOnUse">
<stop stop-color="#C3C5D1"/>
<stop offset="0.0001" stop-color="#2A64BB"/>
<stop offset="0.875" stop-color="#F9F9F9"/>
</linearGradient>
<linearGradient id="paint12_linear_1258_1975" x1="105.857" y1="82.1584" x2="134.977" y2="61.5046" gradientUnits="userSpaceOnUse">
<stop stop-color="#C3C5D1"/>
<stop offset="0.0001" stop-color="#2A99BB"/>
<stop offset="0.875" stop-color="#F9F9F9"/>
</linearGradient>
<radialGradient id="paint13_radial_1258_1975" cx="0" cy="0" r="1" gradientUnits="userSpaceOnUse" gradientTransform="translate(128.463 70.06) rotate(165.201) scale(23.0428 13.1033)">
<stop stop-color="white"/>
<stop offset="0.205238" stop-color="#BDD3F6"/>
<stop offset="0.464301" stop-color="#9CD7E9"/>
<stop offset="0.594289" stop-color="#D7E1F0"/>
<stop offset="1" stop-color="#7BD8F5"/>
</radialGradient>
<linearGradient id="paint14_linear_1258_1975" x1="67.0884" y1="13.1256" x2="83.5761" y2="13.1256" gradientUnits="userSpaceOnUse">
<stop offset="0.466353" stop-color="#E3FFFD"/>
<stop offset="0.488859" stop-color="#D1E5EE"/>
<stop offset="0.488959" stop-color="#9BE5E0"/>
</linearGradient>
<linearGradient id="paint15_linear_1258_1975" x1="41.5087" y1="28.6714" x2="108.469" y2="104.066" gradientUnits="userSpaceOnUse">
<stop stop-color="#D5E3FF"/>
<stop offset="0.520833" stop-color="#F0F5FF"/>
<stop offset="1" stop-color="#D0DFFE"/>
</linearGradient>
<linearGradient id="paint16_linear_1258_1975" x1="74.0411" y1="15.7808" x2="74.0411" y2="116.328" gradientUnits="userSpaceOnUse">
<stop stop-color="white" stop-opacity="0.5"/>
<stop offset="1" stop-color="white" stop-opacity="0"/>
</linearGradient>
<linearGradient id="paint17_linear_1258_1975" x1="45.5706" y1="32.3347" x2="101.874" y2="100.91" gradientUnits="userSpaceOnUse">
<stop stop-color="#B1CCFF"/>
<stop offset="1" stop-color="#D5E3FF"/>
</linearGradient>
<linearGradient id="paint18_linear_1258_1975" x1="49.466" y1="35.7606" x2="79.5707" y2="103.054" gradientUnits="userSpaceOnUse">
<stop stop-color="#ADFFFA"/>
<stop offset="0.328125" stop-color="#36C1B8"/>
<stop offset="0.484375" stop-color="#37C1B8"/>
<stop offset="1" stop-color="#13B0A6"/>
</linearGradient>
<linearGradient id="paint19_linear_1258_1975" x1="73.8691" y1="44.0259" x2="73.8691" y2="88.4956" gradientUnits="userSpaceOnUse">
<stop stop-color="#62EAE1"/>
<stop offset="0.401042" stop-color="#46CFC6"/>
<stop offset="1" stop-color="#00D1FF"/>
</linearGradient>
<linearGradient id="paint20_linear_1258_1975" x1="73.8552" y1="44.0259" x2="73.8552" y2="91.2699" gradientUnits="userSpaceOnUse">
<stop stop-color="#62EAE1"/>
<stop offset="0.401042" stop-color="#46CFC6"/>
<stop offset="1" stop-color="#00D1FF"/>
</linearGradient>
<linearGradient id="paint21_linear_1258_1975" x1="73.7171" y1="50.5361" x2="73.5673" y2="65.9344" gradientUnits="userSpaceOnUse">
<stop stop-color="white"/>
<stop offset="1" stop-color="white" stop-opacity="0"/>
</linearGradient>
<linearGradient id="paint22_linear_1258_1975" x1="39.2876" y1="104.001" x2="103.288" y2="103.88" gradientUnits="userSpaceOnUse">
<stop stop-color="#38C2B8"/>
<stop offset="1" stop-color="#00998E"/>
</linearGradient>
</defs>
</svg>
