<svg width="1440" height="600" viewBox="0 0 1440 600" fill="none" xmlns="http://www.w3.org/2000/svg">
<path d="M49.0142 323V337.671" stroke="#616670" stroke-width="1.3346" stroke-linecap="round" stroke-linejoin="round"/>
<path d="M49.0142 352.205V366.875" stroke="#616670" stroke-width="1.3346" stroke-linecap="round" stroke-linejoin="round"/>
<path d="M71.0186 344.942H56.2998" stroke="#616670" stroke-width="1.3346" stroke-linecap="round" stroke-linejoin="round"/>
<path d="M41.7188 344.942H27" stroke="#616670" stroke-width="1.3346" stroke-linecap="round" stroke-linejoin="round"/>
<path d="M1395.46 256V267.511" stroke="#616670"/>
<path d="M1395.46 278.915V290.426" stroke="#616670"/>
<path d="M1411.93 273.209H1400.92" stroke="#616670"/>
<path d="M1390.01 273.209H1379" stroke="#616670"/>
<path d="M16.4619 58V69.5111" stroke="#616670"/>
<path d="M16.4619 80.9146V92.4257" stroke="#616670"/>
<path d="M32.9305 75.209H21.9194" stroke="#616670"/>
<path d="M11.0112 75.209H0" stroke="#616670"/>
<path d="M553.245 467V474.164" stroke="#616670"/>
<path d="M553.245 481.262V488.426" stroke="#616670"/>
<path d="M563.495 477.715H556.642" stroke="#616670"/>
<path d="M549.849 477.715H543" stroke="#616670"/>
<path d="M122.151 525.879L110.533 508.968C106.943 503.754 121.856 487.349 143.84 472.301C165.824 457.253 186.542 449.392 190.147 454.613L201.764 471.524" stroke="#35C4BA" stroke-linecap="round" stroke-linejoin="round"/>
<path d="M168.457 508.161C190.442 493.151 205.357 476.753 201.77 471.533C198.184 466.314 177.453 474.251 155.469 489.26C133.484 504.27 118.571 520.669 122.158 525.888C125.744 531.107 146.473 523.17 168.457 508.161Z" stroke="#35C4BA" stroke-linecap="round" stroke-linejoin="round"/>
<path d="M1200.5 410V420.993" stroke="#616670" stroke-linecap="round" stroke-linejoin="round"/>
<path d="M1200.5 431.883V442.875" stroke="#616670" stroke-linecap="round" stroke-linejoin="round"/>
<path d="M1216.98 426.441H1205.95" stroke="#616670" stroke-linecap="round" stroke-linejoin="round"/>
<path d="M1195.03 426.441H1184" stroke="#616670" stroke-linecap="round" stroke-linejoin="round"/>
<path d="M1379.05 552.59V571.542C1379.05 577.386 1360.01 582.131 1336.52 582.131C1313.04 582.131 1294 577.386 1294 571.542V552.59" stroke="#35C4BA"/>
<path d="M1336.52 563.179C1360.01 563.179 1379.05 558.438 1379.05 552.59C1379.05 546.741 1360.01 542 1336.52 542C1313.04 542 1294 546.741 1294 552.59C1294 558.438 1313.04 563.179 1336.52 563.179Z" stroke="#35C4BA"/>
</svg>
