<svg width="134" height="126" viewBox="0 0 134 126" fill="none" xmlns="http://www.w3.org/2000/svg">
<path d="M21.7275 93.2514C22.7666 90.0984 29.5209 86.4298 33.2731 85.0322L39.1342 95.3984L54.8002 98.8537C52.849 98.8537 36.2366 106.587 29.0446 110.372V98.7347C25.4707 96.1662 21.7275 93.2514 21.7275 93.2514Z" fill="url(#paint0_linear_1253_1805)"/>
<path d="M112.242 93.2514C111.203 90.0984 104.449 86.4298 100.697 85.0322L94.8355 95.3984L78.0091 98.8537C79.9603 98.8537 97.7332 106.587 104.925 110.372V98.7347C108.499 96.1662 112.242 93.2514 112.242 93.2514Z" fill="url(#paint1_linear_1253_1805)"/>
<path d="M47.8371 90.7915L54.7998 98.854L39.1338 95.3987L47.8371 90.7915Z" fill="#A0A9BA"/>
<path d="M85.5529 90.7915L78.01 98.854L94.8364 95.3987L85.5529 90.7915Z" fill="#656F7F"/>
<path d="M12.7341 20.2439L40.8733 15.0608L22.2813 47.023L12.7341 20.2439Z" fill="url(#paint2_linear_1253_1805)"/>
<path d="M120.266 20.2439L110.719 47.0231L92.1266 15.0609L120.266 20.2439Z" fill="url(#paint3_linear_1253_1805)"/>
<path d="M114.159 50.4788C114.159 76.28 93.0847 97.2023 67.0806 97.2023C41.0765 97.2023 20.0024 76.28 20.0024 50.4788C20.0024 24.6777 41.0765 3.75537 67.0806 3.75537C93.0847 3.75537 114.159 24.6777 114.159 50.4788Z" fill="url(#paint4_linear_1253_1805)" stroke="url(#paint5_linear_1253_1805)"/>
<g filter="url(#filter0_i_1253_1805)">
<ellipse cx="67.0806" cy="50.4787" rx="41.7759" ry="41.4645" fill="url(#paint6_linear_1253_1805)"/>
</g>
<g filter="url(#filter1_i_1253_1805)">
<ellipse cx="67.0804" cy="50.4019" rx="34.8133" ry="34.5538" fill="url(#paint7_linear_1253_1805)"/>
</g>
<g filter="url(#filter2_d_1253_1805)">
<path d="M47.7431 46.0134C46.7349 43.3048 49.7634 40.877 52.1878 42.4504L73.8316 56.4966C76.3376 58.1229 75.1859 62.0131 72.1985 62.0131H55.7833C54.5301 62.0131 53.4089 61.2341 52.9717 60.0597L47.7431 46.0134Z" fill="url(#paint8_linear_1253_1805)"/>
<path d="M86.4014 45.9772C87.4201 43.2751 84.4071 40.8349 81.9757 42.3929L59.9795 56.4871C57.4565 58.1038 58.6015 62.0131 61.598 62.0131H78.2805C79.5291 62.0131 80.6471 61.2397 81.0876 60.0714L86.4014 45.9772Z" fill="url(#paint9_linear_1253_1805)"/>
<path d="M64.3913 38.2126C65.4884 35.9711 68.6832 35.9711 69.7804 38.2126L79.4333 57.9338C80.4089 59.9269 78.9578 62.2527 76.7388 62.2527H57.4329C55.2138 62.2527 53.7628 59.9269 54.7384 57.9338L64.3913 38.2126Z" fill="url(#paint10_linear_1253_1805)"/>
<mask id="mask0_1253_1805" style="mask-type:alpha" maskUnits="userSpaceOnUse" x="54" y="36" width="26" height="27">
<path d="M64.3913 38.2126C65.4884 35.9711 68.6832 35.9711 69.7804 38.2126L79.4333 57.9338C80.4089 59.9269 78.9578 62.2527 76.7388 62.2527H57.4329C55.2138 62.2527 53.7628 59.9269 54.7384 57.9338L64.3913 38.2126Z" fill="url(#paint11_linear_1253_1805)"/>
</mask>
<g mask="url(#mask0_1253_1805)">
<g filter="url(#filter3_f_1253_1805)">
<ellipse cx="16.9547" cy="7.37653" rx="16.9547" ry="7.37653" transform="matrix(0.204188 0.978932 -0.979534 0.201279 82.1807 33.0483)" fill="url(#paint12_radial_1253_1805)" fill-opacity="0.7"/>
</g>
</g>
<ellipse cx="67.0859" cy="30.5461" rx="2.6621" ry="2.64225" fill="url(#paint13_linear_1253_1805)"/>
<ellipse cx="46.0497" cy="38.2326" rx="2.17808" ry="2.16184" fill="url(#paint14_linear_1253_1805)"/>
<ellipse cx="88.0111" cy="38.2326" rx="2.17808" ry="2.16184" fill="url(#paint15_linear_1253_1805)"/>
<rect x="53.5923" y="64.3369" width="26.4771" height="3.5836" rx="1.7918" fill="url(#paint16_linear_1253_1805)"/>
</g>
<g filter="url(#filter4_d_1253_1805)">
<path d="M29.8501 80.688L39.1336 95.3986C64.0832 82.153 87.8723 91.9432 94.8349 95.3986L104.118 80.688C101.464 77.6445 90.339 71.4897 67.0769 71.2192C43.8148 70.9486 32.5665 77.419 29.8501 80.688Z" fill="url(#paint17_linear_1253_1805)"/>
</g>
<g filter="url(#filter5_dd_1253_1805)">
<path d="M54.4561 78.9897C54.4196 78.6486 54.266 78.383 53.9951 78.1929C53.7269 78.0028 53.3779 77.9077 52.9482 77.9077C52.6462 77.9077 52.387 77.9533 52.1709 78.0444C51.9548 78.1356 51.7894 78.2593 51.6748 78.4155C51.5602 78.5718 51.5016 78.7502 51.499 78.9507C51.499 79.1174 51.5368 79.2619 51.6123 79.3843C51.6904 79.5067 51.7959 79.6108 51.9287 79.6968C52.0615 79.7801 52.2087 79.8504 52.3701 79.9077C52.5316 79.965 52.6943 80.0132 52.8584 80.0522L53.6084 80.2397C53.9105 80.3101 54.2008 80.4051 54.4795 80.5249C54.7607 80.6447 55.012 80.7957 55.2334 80.978C55.4574 81.1603 55.6344 81.3804 55.7646 81.6382C55.8949 81.896 55.96 82.1981 55.96 82.5444C55.96 83.0132 55.8402 83.4259 55.6006 83.7827C55.361 84.1369 55.0146 84.4142 54.5615 84.6147C54.111 84.8127 53.5654 84.9116 52.9248 84.9116C52.3024 84.9116 51.762 84.8153 51.3037 84.6226C50.848 84.4299 50.4912 84.1486 50.2334 83.7788C49.9782 83.409 49.8402 82.9585 49.8193 82.4272H51.2451C51.266 82.7059 51.3519 82.9377 51.5029 83.1226C51.654 83.3075 51.8506 83.4455 52.0928 83.5366C52.3376 83.6278 52.611 83.6733 52.9131 83.6733C53.2282 83.6733 53.5042 83.6265 53.7412 83.5327C53.9808 83.4364 54.1683 83.3035 54.3037 83.1343C54.4391 82.9624 54.5081 82.7619 54.5107 82.5327C54.5081 82.3244 54.4469 82.1525 54.3271 82.0171C54.2074 81.8791 54.0394 81.7645 53.8232 81.6733C53.6097 81.5796 53.3597 81.4963 53.0732 81.4233L52.1631 81.189C51.5042 81.0197 50.9834 80.7632 50.6006 80.4194C50.2204 80.0731 50.0303 79.6134 50.0303 79.0405C50.0303 78.5692 50.1579 78.1564 50.4131 77.8022C50.6709 77.4481 51.0212 77.1733 51.4639 76.978C51.9066 76.7801 52.4079 76.6812 52.9678 76.6812C53.5355 76.6812 54.0329 76.7801 54.46 76.978C54.8896 77.1733 55.2269 77.4455 55.4717 77.7944C55.7165 78.1408 55.8428 78.5392 55.8506 78.9897H54.4561ZM58.7012 76.7905V84.7905H57.252V76.7905H58.7012ZM60.2705 84.7905V76.7905H61.7197V83.5757H65.2432V84.7905H60.2705ZM66.7441 76.7905L68.8262 83.0874H68.9082L70.9863 76.7905H72.5801L69.7598 84.7905H67.9707L65.1543 76.7905H66.7441ZM73.6338 84.7905V76.7905H78.8369V78.0054H75.083V80.1772H78.5674V81.3921H75.083V83.5757H78.8682V84.7905H73.6338ZM80.3154 84.7905V76.7905H83.3154C83.93 76.7905 84.4456 76.8973 84.8623 77.1108C85.2816 77.3244 85.598 77.6239 85.8115 78.0093C86.0277 78.3921 86.1357 78.8387 86.1357 79.3491C86.1357 79.8621 86.0264 80.3075 85.8076 80.6851C85.5915 81.0601 85.2725 81.3504 84.8506 81.5562C84.4287 81.7593 83.9105 81.8608 83.2959 81.8608H81.1592V80.6577H83.1006C83.46 80.6577 83.7542 80.6082 83.9834 80.5093C84.2126 80.4077 84.3818 80.2606 84.4912 80.0679C84.6032 79.8726 84.6592 79.633 84.6592 79.3491C84.6592 79.0653 84.6032 78.8231 84.4912 78.6226C84.3792 78.4194 84.2087 78.2658 83.9795 78.1616C83.7503 78.0549 83.4548 78.0015 83.0928 78.0015H81.7646V84.7905H80.3154ZM84.4482 81.1655L86.4287 84.7905H84.8115L82.8662 81.1655H84.4482Z" fill="white"/>
</g>
<defs>
<filter id="filter0_i_1253_1805" x="25.3047" y="7.01416" width="83.5518" height="84.9292" filterUnits="userSpaceOnUse" color-interpolation-filters="sRGB">
<feFlood flood-opacity="0" result="BackgroundImageFix"/>
<feBlend mode="normal" in="SourceGraphic" in2="BackgroundImageFix" result="shape"/>
<feColorMatrix in="SourceAlpha" type="matrix" values="0 0 0 0 0 0 0 0 0 0 0 0 0 0 0 0 0 0 127 0" result="hardAlpha"/>
<feOffset dy="-2"/>
<feGaussianBlur stdDeviation="2"/>
<feComposite in2="hardAlpha" operator="arithmetic" k2="-1" k3="1"/>
<feColorMatrix type="matrix" values="0 0 0 0 0 0 0 0 0 0.172667 0 0 0 0 0.616667 0 0 0 0.15 0"/>
<feBlend mode="normal" in2="shape" result="effect1_innerShadow_1253_1805"/>
</filter>
<filter id="filter1_i_1253_1805" x="32.2671" y="15.8481" width="69.6265" height="73.1074" filterUnits="userSpaceOnUse" color-interpolation-filters="sRGB">
<feFlood flood-opacity="0" result="BackgroundImageFix"/>
<feBlend mode="normal" in="SourceGraphic" in2="BackgroundImageFix" result="shape"/>
<feColorMatrix in="SourceAlpha" type="matrix" values="0 0 0 0 0 0 0 0 0 0 0 0 0 0 0 0 0 0 127 0" result="hardAlpha"/>
<feOffset dy="4"/>
<feGaussianBlur stdDeviation="10"/>
<feComposite in2="hardAlpha" operator="arithmetic" k2="-1" k3="1"/>
<feColorMatrix type="matrix" values="0 0 0 0 0.619792 0 0 0 0 0.67182 0 0 0 0 0.771875 0 0 0 1 0"/>
<feBlend mode="normal" in2="shape" result="effect1_innerShadow_1253_1805"/>
</filter>
<filter id="filter2_d_1253_1805" x="39.8716" y="25.9038" width="54.3174" height="48.0166" filterUnits="userSpaceOnUse" color-interpolation-filters="sRGB">
<feFlood flood-opacity="0" result="BackgroundImageFix"/>
<feColorMatrix in="SourceAlpha" type="matrix" values="0 0 0 0 0 0 0 0 0 0 0 0 0 0 0 0 0 0 127 0" result="hardAlpha"/>
<feOffset dy="2"/>
<feGaussianBlur stdDeviation="2"/>
<feComposite in2="hardAlpha" operator="out"/>
<feColorMatrix type="matrix" values="0 0 0 0 0.111875 0 0 0 0 0.364131 0 0 0 0 0.745833 0 0 0 0.68 0"/>
<feBlend mode="normal" in2="BackgroundImageFix" result="effect1_dropShadow_1253_1805"/>
<feBlend mode="normal" in="SourceGraphic" in2="effect1_dropShadow_1253_1805" result="shape"/>
</filter>
<filter id="filter3_f_1253_1805" x="60.4033" y="24.4658" width="36.0278" height="53.3296" filterUnits="userSpaceOnUse" color-interpolation-filters="sRGB">
<feFlood flood-opacity="0" result="BackgroundImageFix"/>
<feBlend mode="normal" in="SourceGraphic" in2="BackgroundImageFix" result="shape"/>
<feGaussianBlur stdDeviation="5" result="effect1_foregroundBlur_1253_1805"/>
</filter>
<filter id="filter4_d_1253_1805" x="9.8501" y="61.2109" width="114.269" height="64.1875" filterUnits="userSpaceOnUse" color-interpolation-filters="sRGB">
<feFlood flood-opacity="0" result="BackgroundImageFix"/>
<feColorMatrix in="SourceAlpha" type="matrix" values="0 0 0 0 0 0 0 0 0 0 0 0 0 0 0 0 0 0 127 0" result="hardAlpha"/>
<feOffset dy="10"/>
<feGaussianBlur stdDeviation="10"/>
<feComposite in2="hardAlpha" operator="out"/>
<feColorMatrix type="matrix" values="0 0 0 0 0 0 0 0 0 0 0 0 0 0 0 0 0 0 0.3 0"/>
<feBlend mode="normal" in2="BackgroundImageFix" result="effect1_dropShadow_1253_1805"/>
<feBlend mode="normal" in="SourceGraphic" in2="effect1_dropShadow_1253_1805" result="shape"/>
</filter>
<filter id="filter5_dd_1253_1805" x="49.8193" y="76.6812" width="37.6094" height="9.23047" filterUnits="userSpaceOnUse" color-interpolation-filters="sRGB">
<feFlood flood-opacity="0" result="BackgroundImageFix"/>
<feColorMatrix in="SourceAlpha" type="matrix" values="0 0 0 0 0 0 0 0 0 0 0 0 0 0 0 0 0 0 127 0" result="hardAlpha"/>
<feOffset dx="1" dy="1"/>
<feComposite in2="hardAlpha" operator="out"/>
<feColorMatrix type="matrix" values="0 0 0 0 0.164706 0 0 0 0 0.305882 0 0 0 0 0.529412 0 0 0 1 0"/>
<feBlend mode="normal" in2="BackgroundImageFix" result="effect1_dropShadow_1253_1805"/>
<feColorMatrix in="SourceAlpha" type="matrix" values="0 0 0 0 0 0 0 0 0 0 0 0 0 0 0 0 0 0 127 0" result="hardAlpha"/>
<feOffset dx="1"/>
<feComposite in2="hardAlpha" operator="out"/>
<feColorMatrix type="matrix" values="0 0 0 0 0.16283 0 0 0 0 0.306833 0 0 0 0 0.528837 0 0 0 1 0"/>
<feBlend mode="normal" in2="effect1_dropShadow_1253_1805" result="effect2_dropShadow_1253_1805"/>
<feBlend mode="normal" in="SourceGraphic" in2="effect2_dropShadow_1253_1805" result="shape"/>
</filter>
<linearGradient id="paint0_linear_1253_1805" x1="43.7718" y1="94.4769" x2="26.5717" y2="103.998" gradientUnits="userSpaceOnUse">
<stop offset="0.229647" stop-color="#8392A9"/>
<stop offset="1" stop-color="#CFD4E0"/>
</linearGradient>
<linearGradient id="paint1_linear_1253_1805" x1="81.8577" y1="89.2555" x2="108.886" y2="99.6984" gradientUnits="userSpaceOnUse">
<stop stop-color="#7B8AA2"/>
<stop offset="0.931646" stop-color="#6F7987"/>
</linearGradient>
<linearGradient id="paint2_linear_1253_1805" x1="16.4071" y1="31.2063" x2="24.0492" y2="17.8703" gradientUnits="userSpaceOnUse">
<stop offset="0.488759" stop-color="#E3EBFF"/>
<stop offset="0.488859" stop-color="#D1E5EE"/>
<stop offset="0.488959" stop-color="#B3C2D9"/>
</linearGradient>
<linearGradient id="paint3_linear_1253_1805" x1="108.864" y1="17.9199" x2="116.506" y2="31.2559" gradientUnits="userSpaceOnUse">
<stop offset="0.488759" stop-color="#E3EBFF"/>
<stop offset="0.488859" stop-color="#D1E5EE"/>
<stop offset="0.488959" stop-color="#B3C2D9"/>
</linearGradient>
<linearGradient id="paint4_linear_1253_1805" x1="36.5818" y1="15.364" x2="99.4934" y2="86.0617" gradientUnits="userSpaceOnUse">
<stop stop-color="#E5E8EE"/>
<stop offset="0.520833" stop-color="#F6F7F9"/>
<stop offset="1" stop-color="#E2E5EC"/>
</linearGradient>
<linearGradient id="paint5_linear_1253_1805" x1="67.0806" y1="3.25537" x2="67.0806" y2="97.7023" gradientUnits="userSpaceOnUse">
<stop stop-color="white" stop-opacity="0.5"/>
<stop offset="1" stop-color="white" stop-opacity="0"/>
</linearGradient>
<linearGradient id="paint6_linear_1253_1805" x1="40.3904" y1="18.8044" x2="93.2979" y2="83.1179" gradientUnits="userSpaceOnUse">
<stop stop-color="#D0D6E0"/>
<stop offset="1" stop-color="#E6E9EE"/>
</linearGradient>
<linearGradient id="paint7_linear_1253_1805" x1="29.6432" y1="14.3124" x2="101.749" y2="81.9819" gradientUnits="userSpaceOnUse">
<stop offset="0.162944" stop-color="#EDEDED"/>
<stop offset="0.331392" stop-color="#98A9C3"/>
<stop offset="1" stop-color="#5F6F86"/>
</linearGradient>
<linearGradient id="paint8_linear_1253_1805" x1="46.8683" y1="44.4781" x2="73.4261" y2="63.9521" gradientUnits="userSpaceOnUse">
<stop stop-color="#BCC5D3"/>
<stop offset="1" stop-color="#8F9EB5"/>
</linearGradient>
<linearGradient id="paint9_linear_1253_1805" x1="85.8321" y1="41.5033" x2="65.6979" y2="60.2052" gradientUnits="userSpaceOnUse">
<stop stop-color="#BCC5D3"/>
<stop offset="1" stop-color="#687C9B"/>
</linearGradient>
<linearGradient id="paint10_linear_1253_1805" x1="59.6877" y1="47.9164" x2="74.6953" y2="47.9164" gradientUnits="userSpaceOnUse">
<stop stop-color="#D1D2D6"/>
<stop offset="0.253056" stop-color="#CCCED4"/>
<stop offset="0.485509" stop-color="#BCC5D3"/>
<stop offset="0.508175" stop-color="#A8B0BD"/>
<stop offset="0.793364" stop-color="#8F9EB3"/>
<stop offset="0.83589" stop-color="#8B9CB6"/>
<stop offset="0.936891" stop-color="#8B9AB2"/>
</linearGradient>
<linearGradient id="paint11_linear_1253_1805" x1="59.6877" y1="47.9164" x2="74.6953" y2="47.9164" gradientUnits="userSpaceOnUse">
<stop offset="0.416667" stop-color="#F9F9FD"/>
<stop offset="0.49738" stop-color="#F1D161"/>
</linearGradient>
<radialGradient id="paint12_radial_1253_1805" cx="0" cy="0" r="1" gradientUnits="userSpaceOnUse" gradientTransform="translate(18.2161 8.16074) rotate(100.833) scale(6.71194 15.3699)">
<stop offset="0.208123" stop-color="white" stop-opacity="0.73"/>
<stop offset="1" stop-color="#D4DCE8" stop-opacity="0.38"/>
</radialGradient>
<linearGradient id="paint13_linear_1253_1805" x1="67.0859" y1="27.9038" x2="67.0859" y2="33.1883" gradientUnits="userSpaceOnUse">
<stop stop-color="#D0D4E0"/>
<stop offset="1" stop-color="#909FB5"/>
</linearGradient>
<linearGradient id="paint14_linear_1253_1805" x1="46.0497" y1="36.0708" x2="46.0497" y2="40.3945" gradientUnits="userSpaceOnUse">
<stop stop-color="#D0D4E0"/>
<stop offset="1" stop-color="#769BD3"/>
</linearGradient>
<linearGradient id="paint15_linear_1253_1805" x1="88.0111" y1="36.0708" x2="88.0111" y2="40.3945" gradientUnits="userSpaceOnUse">
<stop stop-color="#D0D4E0"/>
<stop offset="1" stop-color="#798AA5"/>
</linearGradient>
<linearGradient id="paint16_linear_1253_1805" x1="53.8932" y1="66.1287" x2="80.3702" y2="66.1287" gradientUnits="userSpaceOnUse">
<stop stop-color="#EAEDF2"/>
<stop offset="1" stop-color="#8F9EB5"/>
</linearGradient>
<linearGradient id="paint17_linear_1253_1805" x1="13.0573" y1="83.4199" x2="103.978" y2="86.6417" gradientUnits="userSpaceOnUse">
<stop stop-color="#95A5BE"/>
<stop offset="1" stop-color="#78879F"/>
</linearGradient>
</defs>
</svg>
