<svg width="20" height="18" viewBox="0 0 20 18" fill="none" xmlns="http://www.w3.org/2000/svg">
<path d="M18.1238 0.187549C17.8638 0.199021 17.6215 0.274767 17.4082 0.360986C17.2084 0.441357 16.445 0.768777 15.2426 1.28442C14.0391 1.80052 12.4456 2.48467 10.7457 3.21567C7.34596 4.67768 3.52376 6.32338 1.56602 7.16567C1.4924 7.19733 1.23553 7.2794 0.962891 7.49224C0.690254 7.70508 0.400391 8.14612 0.400391 8.63755C0.400391 9.03382 0.589245 9.4275 0.826953 9.66255C1.06466 9.89759 1.31619 10.0137 1.53164 10.1016C2.31337 10.4206 4.73787 11.4127 5.1957 11.6C5.35683 12.0936 6.23438 14.7781 6.43789 15.436C6.57205 15.8701 6.69975 16.1421 6.86602 16.3579C6.94915 16.4658 7.04578 16.5603 7.16289 16.6344C7.2097 16.664 7.26102 16.6869 7.31289 16.7079L7.31602 16.7094C7.32797 16.7142 7.33827 16.7224 7.35039 16.7266C7.37326 16.7346 7.38855 16.7356 7.41914 16.7422C7.541 16.7816 7.66403 16.8063 7.77383 16.8063C8.24196 16.8063 8.52852 16.5485 8.52852 16.5485L8.5457 16.536L10.9535 14.4532L13.8738 17.2157C13.9149 17.2738 14.2984 17.8 15.1441 17.8C15.6463 17.8 16.0446 17.5481 16.3004 17.2797C16.5561 17.0114 16.7155 16.7295 16.7832 16.375V16.3735C16.8466 16.0386 19.5379 2.22192 19.5379 2.22192L19.5332 2.24067C19.612 1.88106 19.6326 1.54616 19.5457 1.21567C19.4588 0.885186 19.2297 0.568761 18.9457 0.398486C18.6617 0.228249 18.3839 0.176076 18.1238 0.187549ZM17.9738 1.85942C17.97 1.88277 17.9767 1.87103 17.9707 1.89849L17.9691 1.90786L17.9676 1.91724C17.9676 1.91724 15.3096 15.5571 15.2113 16.0766C15.2185 16.0374 15.1856 16.1154 15.152 16.1625C15.1043 16.1297 15.0066 16.0875 15.0066 16.0875L14.991 16.0704L11.002 12.2969L8.18164 14.7344L9.0207 11.375C9.0207 11.375 14.2656 5.94574 14.5816 5.62974C14.836 5.37694 14.8895 5.28881 14.8895 5.20161C14.8895 5.08481 14.8286 5.00005 14.6926 5.00005C14.5702 5.00005 14.4056 5.11905 14.3176 5.17505C13.1711 5.90588 8.13785 8.83936 5.88164 10.1516C5.52309 10.0049 3.03212 8.98523 2.18789 8.64067C2.19428 8.63787 2.19218 8.63887 2.19883 8.63599C4.15708 7.79348 7.97769 6.14778 11.377 4.68599C13.0766 3.95509 14.6713 3.27042 15.8738 2.75474C17.0578 2.247 17.8805 1.89756 17.9738 1.85942Z" fill="#E3E3E3"/>
</svg>
