<svg width="134" height="134" viewBox="0 0 134 134" fill="none" xmlns="http://www.w3.org/2000/svg">
<path d="M53.1147 64.9897L53.1147 44.1663L1.99981 44.1663C1.99981 57.181 11.5652 64.9897 19.337 64.9897L53.1147 64.9897Z" fill="url(#paint0_linear_1253_1806)"/>
<path d="M53.1147 64.9897L53.1147 44.1663L1.99981 44.1663C1.99981 57.181 11.5652 64.9897 19.337 64.9897L53.1147 64.9897Z" fill="url(#paint1_linear_1253_1806)" stroke="url(#paint2_linear_1253_1806)" stroke-width="2.29412"/>
<path d="M79.8853 64.9897L79.8853 44.1663L131 44.1663C131 57.181 121.435 64.9897 113.663 64.9897L79.8853 64.9897Z" fill="url(#paint3_linear_1253_1806)"/>
<path d="M79.8853 64.9897L79.8853 44.1663L131 44.1663C131 57.181 121.435 64.9897 113.663 64.9897L79.8853 64.9897Z" fill="url(#paint4_linear_1253_1806)" stroke="url(#paint5_linear_1253_1806)" stroke-width="2.29412"/>
<path d="M60.3604 78.3467L60.3604 57.5232L9.24542 57.5232C9.24542 70.5379 18.8108 78.3467 26.5826 78.3467L60.3604 78.3467Z" fill="url(#paint6_linear_1253_1806)"/>
<path d="M60.3604 78.3467L60.3604 57.5232L9.24542 57.5232C9.24542 70.5379 18.8108 78.3467 26.5826 78.3467L60.3604 78.3467Z" fill="url(#paint7_linear_1253_1806)" stroke="url(#paint8_linear_1253_1806)" stroke-width="2.29412"/>
<path d="M74.8506 78.3467L74.8506 57.5232L125.966 57.5232C125.966 70.5379 116.4 78.3467 108.628 78.3467L74.8506 78.3467Z" fill="url(#paint9_linear_1253_1806)"/>
<path d="M74.8506 78.3467L74.8506 57.5232L125.966 57.5232C125.966 70.5379 116.4 78.3467 108.628 78.3467L74.8506 78.3467Z" fill="url(#paint10_linear_1253_1806)" stroke="url(#paint11_radial_1253_1806)" stroke-width="2.29412"/>
<path d="M23.8047 101.082C24.8259 98.1016 31.4645 94.6333 35.1524 93.312L40.913 103.112L56.3104 106.379C54.3927 106.379 38.065 113.689 30.9963 117.268V106.266C27.4837 103.838 23.8047 101.082 23.8047 101.082Z" fill="#69BFDA"/>
<path d="M112.768 101.082C111.746 98.1016 105.108 94.6333 101.42 93.312L95.6593 103.112L79.1213 106.379C81.039 106.379 98.5072 113.689 105.576 117.268V106.266C109.089 103.838 112.768 101.082 112.768 101.082Z" fill="#168EB1"/>
<path d="M49.4667 98.7563L56.3101 106.379L40.9126 103.112L49.4667 98.7563Z" fill="#58ADC7"/>
<path d="M86.5357 98.7563L79.1221 106.379L95.6602 103.112L86.5357 98.7563Z" fill="#56ABC4"/>
<path d="M114.643 60.6448C114.643 85.0037 93.9526 104.79 68.3804 104.79C42.8081 104.79 22.1177 85.0037 22.1177 60.6448C22.1177 36.2859 42.8081 16.5 68.3804 16.5C93.9526 16.5 114.643 36.2859 114.643 60.6448Z" fill="url(#paint12_linear_1253_1806)" stroke="url(#paint13_linear_1253_1806)"/>
<g filter="url(#filter0_i_1253_1806)">
<ellipse cx="68.3802" cy="60.6446" rx="41.0599" ry="39.2003" fill="url(#paint14_linear_1253_1806)"/>
</g>
<g filter="url(#filter1_ii_1253_1806)">
<ellipse cx="68.3797" cy="60.6444" rx="34.2166" ry="32.6669" fill="url(#paint15_linear_1253_1806)"/>
</g>
<g filter="url(#filter2_d_1253_1806)">
<path d="M42.2368 57.6985C41.2285 54.9899 44.2571 52.562 46.6815 54.1354L74.609 72.2596C77.1149 73.8859 75.9632 77.7761 72.9758 77.7761H51.7949C50.5417 77.7761 49.4206 76.9971 48.9834 75.8227L42.2368 57.6985Z" fill="url(#paint16_linear_1253_1806)"/>
<path d="M88.3872 57.6622C89.4059 54.9601 86.393 52.52 83.9616 54.0779L55.601 72.2502C53.0781 73.8668 54.2231 77.7761 57.2195 77.7761H78.7289C79.9775 77.7761 81.0955 77.0027 81.536 75.8344L88.3872 57.6622Z" fill="url(#paint17_linear_1253_1806)"/>
<path d="M62.6306 49.0983C63.7277 46.8568 66.9225 46.8568 68.0197 49.0983L80.0795 73.7371C81.0551 75.7302 79.6041 78.056 77.385 78.056H53.2652C51.0461 78.056 49.5951 75.7302 50.5707 73.7371L62.6306 49.0983Z" fill="url(#paint18_linear_1253_1806)"/>
<g filter="url(#filter3_f_1253_1806)">
<path d="M62.6677 50.8928C63.767 48.6592 66.9516 48.6592 68.051 50.8928L79.3647 73.8804C80.3459 75.8739 78.895 78.2052 76.6731 78.2052H54.0456C51.8237 78.2052 50.3728 75.8739 51.3539 73.8804L62.6677 50.8928Z" fill="url(#paint19_linear_1253_1806)" fill-opacity="0.5"/>
</g>
<mask id="mask0_1253_1806" style="mask-type:alpha" maskUnits="userSpaceOnUse" x="50" y="47" width="31" height="32">
<path d="M62.6311 49.0983C63.7282 46.8568 66.923 46.8568 68.0201 49.0983L80.08 73.7371C81.0556 75.7302 79.6046 78.056 77.3855 78.056H53.2657C51.0466 78.056 49.5956 75.7302 50.5712 73.7371L62.6311 49.0983Z" fill="url(#paint20_linear_1253_1806)"/>
</mask>
<g mask="url(#mask0_1253_1806)">
<g filter="url(#filter4_f_1253_1806)">
<ellipse cx="17.6674" cy="8.25934" rx="17.6674" ry="8.25934" transform="matrix(0.204188 0.978932 -0.979534 0.201279 85.123 48.29)" fill="url(#paint21_radial_1253_1806)" fill-opacity="0.8"/>
</g>
</g>
<ellipse cx="65.3249" cy="41.0718" rx="3.10518" ry="3.08203" fill="url(#paint22_linear_1253_1806)"/>
<ellipse cx="40.7882" cy="50.0383" rx="2.5406" ry="2.52166" fill="url(#paint23_linear_1253_1806)"/>
<ellipse cx="89.733" cy="50.0383" rx="2.5406" ry="2.52166" fill="url(#paint24_linear_1253_1806)"/>
</g>
<path d="M45.8738 40.1011L46.7206 42.5593L49.2955 43.3678L46.7206 44.1762L45.8738 46.6345L45.027 44.1762L42.4521 43.3678L45.027 42.5593L45.8738 40.1011Z" fill="white"/>
<g filter="url(#filter5_di_1253_1806)">
<path d="M31.7881 89.2047L40.9125 103.112C65.4344 90.5896 88.8157 99.8453 95.6591 103.112L104.783 89.2047C102.174 86.3273 91.2402 80.5087 68.3768 80.2529C45.5134 79.9971 34.4579 86.1142 31.7881 89.2047Z" fill="url(#paint25_linear_1253_1806)"/>
</g>
<g filter="url(#filter6_dd_1253_1806)">
<path d="M44.753 86.9332V85.8288H50.5555V86.9332H48.3076V93.1016H47.0008V86.9332H44.753ZM52.9916 85.8288V93.1016H51.6741V85.8288H52.9916ZM54.0987 86.9332V85.8288H59.9012V86.9332H57.6534V93.1016H56.3465V86.9332H54.0987ZM61.0749 93.1016H59.6686L62.229 85.8288H63.8554L66.4193 93.1016H65.0131L63.0706 87.3203H63.0138L61.0749 93.1016ZM61.121 90.25H64.9563V91.3082H61.121V90.25ZM73.3538 85.8288V93.1016H72.1819L68.7551 88.1477H68.6947V93.1016H67.3772V85.8288H68.5562L71.9795 90.7862H72.0434V85.8288H73.3538ZM76.1068 85.8288V93.1016H74.7894V85.8288H76.1068ZM82.118 85.8288H83.4355V90.5803C83.4355 91.1011 83.3124 91.5592 83.0662 91.9545C82.8223 92.3499 82.479 92.6589 82.0363 92.8814C81.5936 93.1016 81.0763 93.2116 80.4845 93.2116C79.8903 93.2116 79.3718 93.1016 78.9291 92.8814C78.4864 92.6589 78.1431 92.3499 77.8993 91.9545C77.6554 91.5592 77.5335 91.1011 77.5335 90.5803V85.8288H78.851V90.4702C78.851 90.7732 78.9173 91.0431 79.0498 91.2798C79.1848 91.5166 79.3742 91.7024 79.618 91.8374C79.8619 91.9699 80.1507 92.0362 80.4845 92.0362C80.8183 92.0362 81.1071 91.9699 81.351 91.8374C81.5972 91.7024 81.7866 91.5166 81.9192 91.2798C82.0517 91.0431 82.118 90.7732 82.118 90.4702V85.8288ZM84.8675 85.8288H86.4797L88.6388 91.0987H88.724L90.8831 85.8288H92.4953V93.1016H91.2311V88.1051H91.1636L89.1537 93.0803H88.2091L86.1992 88.0945H86.1317V93.1016H84.8675V85.8288Z" fill="white"/>
</g>
<path d="M43.6594 26.7437L44.1077 28.0547L45.4707 28.4859L44.1077 28.9171L43.6594 30.2281L43.2112 28.9171L41.8481 28.4859L43.2112 28.0547L43.6594 26.7437Z" fill="white"/>
<path d="M37.7568 29.0669L39.7327 34.8028L45.7407 36.6892L39.7327 38.5756L37.7568 44.3114L35.7809 38.5756L29.7729 36.6892L35.7809 34.8028L37.7568 29.0669Z" fill="white"/>
<defs>
<filter id="filter0_i_1253_1806" x="27.3203" y="19.4443" width="82.1196" height="80.4004" filterUnits="userSpaceOnUse" color-interpolation-filters="sRGB">
<feFlood flood-opacity="0" result="BackgroundImageFix"/>
<feBlend mode="normal" in="SourceGraphic" in2="BackgroundImageFix" result="shape"/>
<feColorMatrix in="SourceAlpha" type="matrix" values="0 0 0 0 0 0 0 0 0 0 0 0 0 0 0 0 0 0 127 0" result="hardAlpha"/>
<feOffset dy="-2"/>
<feGaussianBlur stdDeviation="2"/>
<feComposite in2="hardAlpha" operator="arithmetic" k2="-1" k3="1"/>
<feColorMatrix type="matrix" values="0 0 0 0 0 0 0 0 0 0.172667 0 0 0 0 0.616667 0 0 0 0.15 0"/>
<feBlend mode="normal" in2="shape" result="effect1_innerShadow_1253_1806"/>
</filter>
<filter id="filter1_ii_1253_1806" x="34.1631" y="25.9775" width="68.4331" height="69.334" filterUnits="userSpaceOnUse" color-interpolation-filters="sRGB">
<feFlood flood-opacity="0" result="BackgroundImageFix"/>
<feBlend mode="normal" in="SourceGraphic" in2="BackgroundImageFix" result="shape"/>
<feColorMatrix in="SourceAlpha" type="matrix" values="0 0 0 0 0 0 0 0 0 0 0 0 0 0 0 0 0 0 127 0" result="hardAlpha"/>
<feOffset dy="2"/>
<feGaussianBlur stdDeviation="5"/>
<feComposite in2="hardAlpha" operator="arithmetic" k2="-1" k3="1"/>
<feColorMatrix type="matrix" values="0 0 0 0 0 0 0 0 0 0.37375 0 0 0 0 0.4875 0 0 0 1 0"/>
<feBlend mode="normal" in2="shape" result="effect1_innerShadow_1253_1806"/>
<feColorMatrix in="SourceAlpha" type="matrix" values="0 0 0 0 0 0 0 0 0 0 0 0 0 0 0 0 0 0 127 0" result="hardAlpha"/>
<feOffset dy="-2"/>
<feGaussianBlur stdDeviation="5"/>
<feComposite in2="hardAlpha" operator="arithmetic" k2="-1" k3="1"/>
<feColorMatrix type="matrix" values="0 0 0 0 0.4375 0 0 0 0 0.86875 0 0 0 0 1 0 0 0 1 0"/>
<feBlend mode="normal" in2="effect1_innerShadow_1253_1806" result="effect2_innerShadow_1253_1806"/>
</filter>
<filter id="filter2_d_1253_1806" x="34.2476" y="35.9897" width="62.0259" height="48.2153" filterUnits="userSpaceOnUse" color-interpolation-filters="sRGB">
<feFlood flood-opacity="0" result="BackgroundImageFix"/>
<feColorMatrix in="SourceAlpha" type="matrix" values="0 0 0 0 0 0 0 0 0 0 0 0 0 0 0 0 0 0 127 0" result="hardAlpha"/>
<feOffset dy="2"/>
<feGaussianBlur stdDeviation="2"/>
<feComposite in2="hardAlpha" operator="out"/>
<feColorMatrix type="matrix" values="0 0 0 0 0.111875 0 0 0 0 0.745833 0 0 0 0 0.703569 0 0 0 0.68 0"/>
<feBlend mode="normal" in2="BackgroundImageFix" result="effect1_dropShadow_1253_1806"/>
<feBlend mode="normal" in="SourceGraphic" in2="effect1_dropShadow_1253_1806" result="shape"/>
</filter>
<filter id="filter3_f_1253_1806" x="47.042" y="45.2178" width="36.6348" height="36.9873" filterUnits="userSpaceOnUse" color-interpolation-filters="sRGB">
<feFlood flood-opacity="0" result="BackgroundImageFix"/>
<feBlend mode="normal" in="SourceGraphic" in2="BackgroundImageFix" result="shape"/>
<feGaussianBlur stdDeviation="2" result="effect1_foregroundBlur_1253_1806"/>
</filter>
<filter id="filter4_f_1253_1806" x="51.7798" y="29.8716" width="57.7207" height="74.7524" filterUnits="userSpaceOnUse" color-interpolation-filters="sRGB">
<feFlood flood-opacity="0" result="BackgroundImageFix"/>
<feBlend mode="normal" in="SourceGraphic" in2="BackgroundImageFix" result="shape"/>
<feGaussianBlur stdDeviation="10" result="effect1_foregroundBlur_1253_1806"/>
</filter>
<filter id="filter5_di_1253_1806" x="11.7881" y="70.2451" width="112.996" height="62.8667" filterUnits="userSpaceOnUse" color-interpolation-filters="sRGB">
<feFlood flood-opacity="0" result="BackgroundImageFix"/>
<feColorMatrix in="SourceAlpha" type="matrix" values="0 0 0 0 0 0 0 0 0 0 0 0 0 0 0 0 0 0 127 0" result="hardAlpha"/>
<feOffset dy="10"/>
<feGaussianBlur stdDeviation="10"/>
<feComposite in2="hardAlpha" operator="out"/>
<feColorMatrix type="matrix" values="0 0 0 0 0 0 0 0 0 0 0 0 0 0 0 0 0 0 0.3 0"/>
<feBlend mode="normal" in2="BackgroundImageFix" result="effect1_dropShadow_1253_1806"/>
<feBlend mode="normal" in="SourceGraphic" in2="effect1_dropShadow_1253_1806" result="shape"/>
<feColorMatrix in="SourceAlpha" type="matrix" values="0 0 0 0 0 0 0 0 0 0 0 0 0 0 0 0 0 0 127 0" result="hardAlpha"/>
<feOffset dx="4" dy="2"/>
<feGaussianBlur stdDeviation="4"/>
<feComposite in2="hardAlpha" operator="arithmetic" k2="-1" k3="1"/>
<feColorMatrix type="matrix" values="0 0 0 0 0.858333 0 0 0 0 0.858333 0 0 0 0 0.858333 0 0 0 0.25 0"/>
<feBlend mode="normal" in2="shape" result="effect2_innerShadow_1253_1806"/>
</filter>
<filter id="filter6_dd_1253_1806" x="44.7529" y="85.8286" width="48.7422" height="8.38281" filterUnits="userSpaceOnUse" color-interpolation-filters="sRGB">
<feFlood flood-opacity="0" result="BackgroundImageFix"/>
<feColorMatrix in="SourceAlpha" type="matrix" values="0 0 0 0 0 0 0 0 0 0 0 0 0 0 0 0 0 0 127 0" result="hardAlpha"/>
<feOffset dy="1"/>
<feComposite in2="hardAlpha" operator="out"/>
<feColorMatrix type="matrix" values="0 0 0 0 0.221676 0 0 0 0 0.154219 0 0 0 0 0.5875 0 0 0 1 0"/>
<feBlend mode="normal" in2="BackgroundImageFix" result="effect1_dropShadow_1253_1806"/>
<feColorMatrix in="SourceAlpha" type="matrix" values="0 0 0 0 0 0 0 0 0 0 0 0 0 0 0 0 0 0 127 0" result="hardAlpha"/>
<feOffset dx="1"/>
<feComposite in2="hardAlpha" operator="out"/>
<feColorMatrix type="matrix" values="0 0 0 0 0.223529 0 0 0 0 0.152941 0 0 0 0 0.588235 0 0 0 0.64 0"/>
<feBlend mode="normal" in2="effect1_dropShadow_1253_1806" result="effect2_dropShadow_1253_1806"/>
<feBlend mode="normal" in="SourceGraphic" in2="effect2_dropShadow_1253_1806" result="shape"/>
</filter>
<linearGradient id="paint0_linear_1253_1806" x1="33.2701" y1="64.9897" x2="15.6414" y2="46.6623" gradientUnits="userSpaceOnUse">
<stop stop-color="#C3C5D1"/>
<stop offset="0.0001" stop-color="#2A64BB"/>
<stop offset="0.875" stop-color="#F9F9F9"/>
</linearGradient>
<linearGradient id="paint1_linear_1253_1806" x1="27.7568" y1="57.2331" x2="2.11882" y2="45.7656" gradientUnits="userSpaceOnUse">
<stop stop-color="#C3C5D1"/>
<stop offset="0.0001" stop-color="#2A99BB"/>
<stop offset="0.875" stop-color="#F9F9F9"/>
</linearGradient>
<linearGradient id="paint2_linear_1253_1806" x1="-0.921781" y1="44.1663" x2="27.0069" y2="64.644" gradientUnits="userSpaceOnUse">
<stop stop-color="#92B4F1"/>
<stop offset="0.378992" stop-color="#E7EEFE"/>
<stop offset="0.480868" stop-color="#CDD6F6"/>
<stop offset="0.729174" stop-color="#3781DF"/>
</linearGradient>
<linearGradient id="paint3_linear_1253_1806" x1="99.7299" y1="64.9897" x2="117.359" y2="46.6623" gradientUnits="userSpaceOnUse">
<stop stop-color="#C3C5D1"/>
<stop offset="0.0001" stop-color="#2A64BB"/>
<stop offset="0.875" stop-color="#F9F9F9"/>
</linearGradient>
<linearGradient id="paint4_linear_1253_1806" x1="105.243" y1="57.2331" x2="130.881" y2="45.7656" gradientUnits="userSpaceOnUse">
<stop offset="0.0001" stop-color="#2A99BB"/>
<stop offset="0.875" stop-color="#F9F9F9"/>
</linearGradient>
<linearGradient id="paint5_linear_1253_1806" x1="133.922" y1="44.1663" x2="105.993" y2="64.644" gradientUnits="userSpaceOnUse">
<stop stop-color="#92DBF1"/>
<stop offset="0.378992" stop-color="#E7F9FE"/>
<stop offset="0.480868" stop-color="#CDECF6"/>
<stop offset="0.729174" stop-color="#37B8DF"/>
</linearGradient>
<linearGradient id="paint6_linear_1253_1806" x1="9.24534" y1="61.8788" x2="22.1653" y2="60.6106" gradientUnits="userSpaceOnUse">
<stop offset="0.0001" stop-color="#2A99BB"/>
<stop offset="0.875" stop-color="#F9F9F9"/>
</linearGradient>
<linearGradient id="paint7_linear_1253_1806" x1="35.0024" y1="70.59" x2="9.36443" y2="59.1226" gradientUnits="userSpaceOnUse">
<stop offset="0.0001" stop-color="#2A99BB"/>
<stop offset="0.875" stop-color="#F9F9F9"/>
</linearGradient>
<linearGradient id="paint8_linear_1253_1806" x1="6.32382" y1="57.5232" x2="34.2525" y2="78.0009" gradientUnits="userSpaceOnUse">
<stop stop-color="#92DBF1"/>
<stop offset="0.378992" stop-color="#E7EEFE"/>
<stop offset="0.480868" stop-color="#CDD6F6"/>
<stop offset="0.729174" stop-color="#37B8DF"/>
</linearGradient>
<linearGradient id="paint9_linear_1253_1806" x1="94.6952" y1="78.3467" x2="112.324" y2="60.0193" gradientUnits="userSpaceOnUse">
<stop stop-color="#C3C5D1"/>
<stop offset="0.0001" stop-color="#2A64BB"/>
<stop offset="0.875" stop-color="#F9F9F9"/>
</linearGradient>
<linearGradient id="paint10_linear_1253_1806" x1="97.6962" y1="74.9456" x2="123.858" y2="55.6929" gradientUnits="userSpaceOnUse">
<stop stop-color="#C3C5D1"/>
<stop offset="0.0001" stop-color="#2A99BB"/>
<stop offset="0.875" stop-color="#F9F9F9"/>
</linearGradient>
<radialGradient id="paint11_radial_1253_1806" cx="0" cy="0" r="1" gradientUnits="userSpaceOnUse" gradientTransform="translate(118.526 64.2018) rotate(165.715) scale(21.1828 11.6633)">
<stop stop-color="white"/>
<stop offset="0.205238" stop-color="#BDD3F6"/>
<stop offset="0.464301" stop-color="#9CD7E9"/>
<stop offset="0.594289" stop-color="#D7E1F0"/>
<stop offset="1" stop-color="#7BD8F5"/>
</radialGradient>
<linearGradient id="paint12_linear_1253_1806" x1="38.4043" y1="27.4474" x2="97.5687" y2="96.569" gradientUnits="userSpaceOnUse">
<stop stop-color="#D5E3FF"/>
<stop offset="0.520833" stop-color="#F0F5FF"/>
<stop offset="1" stop-color="#D0DFFE"/>
</linearGradient>
<linearGradient id="paint13_linear_1253_1806" x1="68.3804" y1="16" x2="68.3804" y2="105.29" gradientUnits="userSpaceOnUse">
<stop stop-color="white" stop-opacity="0.5"/>
<stop offset="1" stop-color="white" stop-opacity="0"/>
</linearGradient>
<linearGradient id="paint14_linear_1253_1806" x1="42.1475" y1="30.7" x2="91.7566" y2="93.3939" gradientUnits="userSpaceOnUse">
<stop stop-color="#B1CCFF"/>
<stop offset="1" stop-color="#D5E3FF"/>
</linearGradient>
<linearGradient id="paint15_linear_1253_1806" x1="45.7363" y1="33.7423" x2="71.8111" y2="94.2183" gradientUnits="userSpaceOnUse">
<stop stop-color="#ADEBFF"/>
<stop offset="0.484375" stop-color="#37A0C1"/>
<stop offset="1" stop-color="#138CB0"/>
</linearGradient>
<linearGradient id="paint16_linear_1253_1806" x1="41.7431" y1="57.3226" x2="58.1389" y2="69.3364" gradientUnits="userSpaceOnUse">
<stop stop-color="#90E5FF"/>
<stop offset="1" stop-color="#72BCD2"/>
</linearGradient>
<linearGradient id="paint17_linear_1253_1806" x1="87.192" y1="53.8526" x2="77.3171" y2="71.7609" gradientUnits="userSpaceOnUse">
<stop stop-color="#90E5FF"/>
<stop offset="1" stop-color="#3EA6C5"/>
</linearGradient>
<linearGradient id="paint18_linear_1253_1806" x1="56.6956" y1="61.3336" x2="74.2011" y2="61.3336" gradientUnits="userSpaceOnUse">
<stop stop-color="#ADECFF"/>
<stop offset="0.131684" stop-color="#90E5FF"/>
<stop offset="0.508075" stop-color="#90CAFF"/>
<stop offset="0.508175" stop-color="#4BC4E9"/>
<stop offset="0.793364" stop-color="#65C2DE"/>
<stop offset="0.83589" stop-color="#66C0DC"/>
<stop offset="0.936891" stop-color="#6CB9D1"/>
</linearGradient>
<linearGradient id="paint19_linear_1253_1806" x1="56.2911" y1="62.2201" x2="73.8489" y2="62.2986" gradientUnits="userSpaceOnUse">
<stop offset="0.487089" stop-color="#90C3FF"/>
<stop offset="0.797358" stop-color="#85C6DA"/>
</linearGradient>
<linearGradient id="paint20_linear_1253_1806" x1="56.6961" y1="61.3336" x2="74.2016" y2="61.3336" gradientUnits="userSpaceOnUse">
<stop offset="0.416667" stop-color="#F9F9FD"/>
<stop offset="0.49738" stop-color="#F1D161"/>
</linearGradient>
<radialGradient id="paint21_radial_1253_1806" cx="0" cy="0" r="1" gradientUnits="userSpaceOnUse" gradientTransform="translate(17.6674 8.25934) rotate(90) scale(8.25934 17.6674)">
<stop stop-color="#D4E8E7"/>
<stop offset="1" stop-color="#D4DCE8" stop-opacity="0.38"/>
</radialGradient>
<linearGradient id="paint22_linear_1253_1806" x1="65.3249" y1="37.9897" x2="65.3249" y2="44.1538" gradientUnits="userSpaceOnUse">
<stop stop-color="#B0EDFF"/>
<stop offset="1" stop-color="#73BCD2"/>
</linearGradient>
<linearGradient id="paint23_linear_1253_1806" x1="40.7882" y1="47.5166" x2="40.7882" y2="52.5599" gradientUnits="userSpaceOnUse">
<stop stop-color="#B0EDFF"/>
<stop offset="1" stop-color="#76BDD3"/>
</linearGradient>
<linearGradient id="paint24_linear_1253_1806" x1="89.733" y1="47.5166" x2="89.733" y2="52.5599" gradientUnits="userSpaceOnUse">
<stop stop-color="#B0EDFF"/>
<stop offset="1" stop-color="#54AECA"/>
</linearGradient>
<linearGradient id="paint25_linear_1253_1806" x1="10.1512" y1="96.7235" x2="77.154" y2="93.7791" gradientUnits="userSpaceOnUse">
<stop stop-color="#81C3D8"/>
<stop offset="1" stop-color="#0F8BB1"/>
</linearGradient>
</defs>
</svg>
