<svg width="114" height="125" viewBox="0 0 114 125" fill="none" xmlns="http://www.w3.org/2000/svg">
<path d="M14 37.897H24.2517V62.1023C17.8444 62.1023 14 57.5726 14 53.8923V37.897Z" fill="url(#paint0_linear_981_1708)"/>
<path d="M14 37.897H24.2517V62.1023C17.8444 62.1023 14 57.5726 14 53.8923V37.897Z" stroke="url(#paint1_linear_981_1708)" stroke-width="2"/>
<path d="M100 37.8965H89.7483V62.1018C96.1556 62.1018 100 57.5721 100 53.8918V37.8965Z" fill="url(#paint2_linear_981_1708)"/>
<path d="M100 37.8965H89.7483V62.1018C96.1556 62.1018 100 57.5721 100 53.8918V37.8965Z" stroke="url(#paint3_linear_981_1708)" stroke-width="2"/>
<path d="M43.3311 59.8237H71.0967V99.6273L58.4776 106.869C57.5861 107.381 56.4895 107.379 55.5999 106.864L43.3311 99.7641V59.8237Z" fill="#4C639E" stroke="url(#paint4_linear_981_1708)"/>
<path fill-rule="evenodd" clip-rule="evenodd" d="M41.3375 59.8237V98.8493L30.8006 92.6678C29.9187 92.1505 29.377 91.2046 29.377 90.1821V59.8237H41.3375Z" fill="#5C788C" stroke="url(#paint5_linear_981_1708)"/>
<path fill-rule="evenodd" clip-rule="evenodd" d="M72.9466 59.8237V98.8493L83.4836 92.6678C84.3655 92.1505 84.9072 91.2046 84.9072 90.1821V59.8237H72.9466Z" fill="#136BAB" stroke="url(#paint6_linear_981_1708)"/>
<path d="M82.9619 77.8125V89.2659C82.4566 89.3061 81.4228 89.7482 81.3295 91.195L74.9164 95.053V81.9116" stroke="url(#paint7_linear_981_1708)" stroke-width="0.5"/>
<path fill-rule="evenodd" clip-rule="evenodd" d="M69.2409 82.4102H69.5128V96.4844L69.3992 96.5042C68.9985 96.5742 68.6561 96.6754 68.3625 96.9505C68.0678 97.2266 67.8054 97.6941 67.6048 98.5341L67.5907 98.5933L57.485 104.598L57.4091 104.622V104.622H57.1012L46.9554 98.5935L46.9412 98.5343C46.7407 97.6943 46.4782 97.2268 46.1835 96.9507C45.8899 96.6757 45.5475 96.5744 45.1468 96.5045L45.0332 96.4847V82.4104H45.3052V96.2446C45.6806 96.3184 46.0447 96.4385 46.3649 96.7385C46.7081 97.0599 46.9847 97.5725 47.1907 98.4059L57.173 104.338H57.3727L67.3553 98.4057C67.5613 97.5722 67.838 97.0597 68.1812 96.7382C68.5014 96.4383 68.8655 96.3182 69.2409 96.2444V82.4102Z" fill="url(#paint8_linear_981_1708)"/>
<path d="M31.2402 78.9619V89.6518C31.7455 89.6893 32.7794 90.1019 32.8727 91.4522L39.2858 95.053V82.7878" stroke="url(#paint9_linear_981_1708)" stroke-width="0.5"/>
<g filter="url(#filter0_d_981_1708)">
<path d="M53.6553 11.8197L25.0593 27.3756C22.8066 28.601 21.4043 30.9602 21.4043 33.5246L21.4043 69.2019C21.4043 71.7664 22.8066 74.1255 25.0593 75.351L53.6553 90.9069C55.741 92.0415 58.2596 92.0415 60.3453 90.9069L88.9414 75.351C91.1941 74.1255 92.5963 71.7664 92.5963 69.2019L92.5964 33.5246C92.5964 30.9602 91.1941 28.601 88.9414 27.3756L60.3453 11.8197C58.2596 10.6851 55.741 10.6851 53.6553 11.8197Z" fill="url(#paint10_linear_981_1708)"/>
<path d="M54.5966 16.3994L29.3938 30.1094C27.8041 30.9742 26.8145 32.6391 26.8145 34.4489L26.8145 65.8345C26.8145 67.6443 27.8041 69.3092 29.3938 70.174L54.5966 83.884C56.0685 84.6848 57.8459 84.6848 59.3178 83.884L84.5206 70.174C86.1104 69.3092 87.1 67.6443 87.1 65.8345L87.1 34.4489C87.1 32.6391 86.1104 30.9742 84.5206 30.1094L59.3178 16.3994C57.8459 15.5987 56.0685 15.5987 54.5966 16.3994Z" fill="url(#paint11_linear_981_1708)"/>
<g filter="url(#filter1_f_981_1708)">
<path d="M54.5966 16.3994L29.3938 30.1094C27.8041 30.9742 26.8145 32.6391 26.8145 34.4489L26.8145 65.8345C26.8145 67.6443 27.8041 69.3092 29.3938 70.174L54.5966 83.884C56.0685 84.6848 57.8459 84.6848 59.3178 83.884L84.5206 70.174C86.1104 69.3092 87.1 67.6443 87.1 65.8345L87.1 34.4489C87.1 32.6391 86.1104 30.9742 84.5206 30.1094L59.3178 16.3994C57.8459 15.5987 56.0685 15.5987 54.5966 16.3994Z" stroke="url(#paint12_linear_981_1708)"/>
</g>
<g opacity="0.5">
<mask id="mask0_981_1708" style="mask-type:alpha" maskUnits="userSpaceOnUse" x="29" y="18" width="56" height="64">
<path d="M55.1792 19.0296L31.5243 31.886C30.2009 32.6053 29.377 33.9909 29.377 35.4971L29.377 64.8974C29.377 66.4036 30.2009 67.7892 31.5243 68.5085L55.1792 81.3649C56.4031 82.0301 57.8806 82.0301 59.1045 81.3649L82.7594 68.5085C84.0828 67.7892 84.9067 66.4036 84.9067 64.8974L84.9068 35.4972C84.9068 33.9909 84.0828 32.6053 82.7594 31.886L59.1045 19.0296C57.8806 18.3644 56.4031 18.3644 55.1792 19.0296Z" fill="#A6D3DE"/>
</mask>
<g mask="url(#mask0_981_1708)">
<path d="M56.1343 18.5105L30.4794 32.454C29.8 32.8232 29.377 33.5346 29.377 34.3078L29.377 66.0867C29.377 66.86 29.7999 67.5713 30.4794 67.9406L56.1343 81.884C56.7626 82.2255 57.5211 82.2255 58.1494 81.884L83.8043 67.9406C84.4837 67.5713 84.9067 66.86 84.9067 66.0867L84.9068 34.3078C84.9068 33.5346 84.4838 32.8232 83.8043 32.454L58.1494 18.5105C57.5211 18.169 56.7626 18.169 56.1343 18.5105Z" fill="url(#paint13_radial_981_1708)" fill-opacity="0.2"/>
<path opacity="0.5" d="M52.5004 83.7057L51.3975 16.687H62.8864L61.7834 83.7057H52.5004Z" fill="url(#paint14_linear_981_1708)"/>
<path opacity="0.5" d="M52.3522 83.111L17.8877 25.6226L27.8374 19.8781L60.3916 78.4695L52.3522 83.111Z" fill="url(#paint15_linear_981_1708)"/>
<path opacity="0.5" d="M51.3941 78.4693L83.9482 19.8779L93.8979 25.6224L59.4334 83.1108L51.3941 78.4693Z" fill="url(#paint16_linear_981_1708)"/>
<rect x="29.376" y="46.3667" width="55.5298" height="36.0625" fill="url(#paint17_linear_981_1708)"/>
<g filter="url(#filter2_i_981_1708)">
<path d="M54.2242 19.5487L32.5693 31.3181C30.6018 32.3874 29.377 34.4472 29.377 36.6865L29.377 63.7081C29.377 65.9473 30.6018 68.0071 32.5693 69.0764L54.2242 80.8459C56.0436 81.8347 58.2401 81.8347 60.0596 80.8459L81.7144 69.0764C83.6819 68.0071 84.9067 65.9473 84.9067 63.7081L84.9068 36.6865C84.9068 34.4472 83.6819 32.3874 81.7145 31.3181L60.0596 19.5487C58.2401 18.5598 56.0436 18.5598 54.2242 19.5487Z" fill="#68F0F8" fill-opacity="0.03"/>
</g>
</g>
</g>
</g>
<defs>
<filter id="filter0_d_981_1708" x="6.4043" y="3.96875" width="101.192" height="110.789" filterUnits="userSpaceOnUse" color-interpolation-filters="sRGB">
<feFlood flood-opacity="0" result="BackgroundImageFix"/>
<feColorMatrix in="SourceAlpha" type="matrix" values="0 0 0 0 0 0 0 0 0 0 0 0 0 0 0 0 0 0 127 0" result="hardAlpha"/>
<feOffset dy="8"/>
<feGaussianBlur stdDeviation="7.5"/>
<feColorMatrix type="matrix" values="0 0 0 0 0.589254 0 0 0 0 0.800342 0 0 0 0 0.91908 0 0 0 0.54 0"/>
<feBlend mode="normal" in2="BackgroundImageFix" result="effect1_dropShadow_981_1708"/>
<feBlend mode="normal" in="SourceGraphic" in2="effect1_dropShadow_981_1708" result="shape"/>
</filter>
<filter id="filter1_f_981_1708" x="25.7145" y="14.6988" width="62.4852" height="70.8855" filterUnits="userSpaceOnUse" color-interpolation-filters="sRGB">
<feFlood flood-opacity="0" result="BackgroundImageFix"/>
<feBlend mode="normal" in="SourceGraphic" in2="BackgroundImageFix" result="shape"/>
<feGaussianBlur stdDeviation="0.3" result="effect1_foregroundBlur_981_1708"/>
</filter>
<filter id="filter2_i_981_1708" x="29.377" y="18.8071" width="55.5303" height="62.7803" filterUnits="userSpaceOnUse" color-interpolation-filters="sRGB">
<feFlood flood-opacity="0" result="BackgroundImageFix"/>
<feBlend mode="normal" in="SourceGraphic" in2="BackgroundImageFix" result="shape"/>
<feColorMatrix in="SourceAlpha" type="matrix" values="0 0 0 0 0 0 0 0 0 0 0 0 0 0 0 0 0 0 127 0" result="hardAlpha"/>
<feOffset/>
<feGaussianBlur stdDeviation="6.72414"/>
<feComposite in2="hardAlpha" operator="arithmetic" k2="-1" k3="1"/>
<feColorMatrix type="matrix" values="0 0 0 0 0.283333 0 0 0 0 0.158667 0 0 0 0 0.0566667 0 0 0 1 0"/>
<feBlend mode="normal" in2="shape" result="effect1_innerShadow_981_1708"/>
</filter>
<linearGradient id="paint0_linear_981_1708" x1="19.1258" y1="37.897" x2="19.1258" y2="62.1023" gradientUnits="userSpaceOnUse">
<stop stop-color="#BDCBEF"/>
<stop offset="1" stop-color="#7270C3"/>
</linearGradient>
<linearGradient id="paint1_linear_981_1708" x1="14" y1="37.897" x2="19.1258" y2="62.1023" gradientUnits="userSpaceOnUse">
<stop stop-color="#C4DAF3"/>
<stop offset="0.46253" stop-color="#F0F8FD"/>
<stop offset="1" stop-color="#3F5474"/>
</linearGradient>
<linearGradient id="paint2_linear_981_1708" x1="94.8742" y1="37.8965" x2="94.8742" y2="62.1018" gradientUnits="userSpaceOnUse">
<stop stop-color="#BDCBEF"/>
<stop offset="1" stop-color="#7270C3"/>
</linearGradient>
<linearGradient id="paint3_linear_981_1708" x1="100" y1="37.8965" x2="94.8742" y2="62.1018" gradientUnits="userSpaceOnUse">
<stop stop-color="#92B5DD"/>
<stop offset="0.265625" stop-color="#C4D7F3"/>
<stop offset="0.46253" stop-color="white"/>
<stop offset="1" stop-color="#2156A5"/>
</linearGradient>
<linearGradient id="paint4_linear_981_1708" x1="43.3306" y1="96.8436" x2="71.2379" y2="99.2641" gradientUnits="userSpaceOnUse">
<stop stop-color="#97B9D8"/>
<stop offset="0.374385" stop-color="#BDCBF0"/>
<stop offset="0.71988" stop-color="#788EC8"/>
<stop offset="0.9381" stop-color="#B9C4DF"/>
</linearGradient>
<linearGradient id="paint5_linear_981_1708" x1="29.3768" y1="90.0027" x2="41.4634" y2="90.5566" gradientUnits="userSpaceOnUse">
<stop stop-color="#97B9D8"/>
<stop offset="0.374385" stop-color="#BDCBF0"/>
<stop offset="0.71988" stop-color="#788EC8"/>
<stop offset="0.9381" stop-color="#B9C4DF"/>
</linearGradient>
<linearGradient id="paint6_linear_981_1708" x1="84.9074" y1="90.0027" x2="72.8208" y2="90.5566" gradientUnits="userSpaceOnUse">
<stop stop-color="#97B9D8"/>
<stop offset="0.374385" stop-color="#BDCBF0"/>
<stop offset="0.71988" stop-color="#788EC8"/>
<stop offset="0.9381" stop-color="#B9C4DF"/>
</linearGradient>
<linearGradient id="paint7_linear_981_1708" x1="82.962" y1="91.1448" x2="74.8541" y2="91.7106" gradientUnits="userSpaceOnUse">
<stop stop-color="#97B9D8"/>
<stop offset="0.374385" stop-color="#BDCBF0"/>
<stop offset="0.71988" stop-color="#788EC8"/>
<stop offset="0.9381" stop-color="#B9C4DF"/>
</linearGradient>
<linearGradient id="paint8_linear_981_1708" x1="45.5772" y1="88.9598" x2="67.7526" y2="97.6426" gradientUnits="userSpaceOnUse">
<stop offset="0.192454" stop-color="#B9C8DF"/>
<stop offset="0.380208" stop-color="#90C2D8"/>
<stop offset="0.5" stop-color="#92AED8"/>
<stop offset="0.678187" stop-color="#A4D4DE"/>
<stop offset="0.866423" stop-color="#B9D6DF"/>
</linearGradient>
<linearGradient id="paint9_linear_981_1708" x1="31.2401" y1="91.4054" x2="39.3422" y2="92.0112" gradientUnits="userSpaceOnUse">
<stop stop-color="#97B9D8"/>
<stop offset="0.374385" stop-color="#BDCBF0"/>
<stop offset="0.71988" stop-color="#788EC8"/>
<stop offset="0.9381" stop-color="#B9C4DF"/>
</linearGradient>
<linearGradient id="paint10_linear_981_1708" x1="42.05" y1="19.9669" x2="74.0864" y2="83.6126" gradientUnits="userSpaceOnUse">
<stop offset="0.078125" stop-color="#A1D5F2"/>
<stop offset="0.557292" stop-color="#DFF1FB"/>
<stop offset="0.927083" stop-color="#657EBD"/>
</linearGradient>
<linearGradient id="paint11_linear_981_1708" x1="41.7648" y1="24.0854" x2="69.3873" y2="75.0589" gradientUnits="userSpaceOnUse">
<stop stop-color="#69AABF"/>
<stop offset="1" stop-color="#96C8E4"/>
</linearGradient>
<linearGradient id="paint12_linear_981_1708" x1="44.7548" y1="22.2344" x2="74.5131" y2="75.7709" gradientUnits="userSpaceOnUse">
<stop stop-color="#DFEFF9"/>
<stop offset="0.475582" stop-color="white" stop-opacity="0.83"/>
<stop offset="1" stop-color="#8EC9FF"/>
</linearGradient>
<radialGradient id="paint13_radial_981_1708" cx="0" cy="0" r="1" gradientUnits="userSpaceOnUse" gradientTransform="translate(57.1419 50.1973) rotate(90) scale(32.2344 27.7649)">
<stop stop-color="#9CC5E3"/>
<stop offset="1" stop-color="#24A3FF"/>
</radialGradient>
<linearGradient id="paint14_linear_981_1708" x1="57.1419" y1="16.687" x2="57.1419" y2="83.7057" gradientUnits="userSpaceOnUse">
<stop stop-color="white" stop-opacity="0.71"/>
<stop offset="1" stop-color="#EDF0F2" stop-opacity="0"/>
</linearGradient>
<linearGradient id="paint15_linear_981_1708" x1="22.8625" y1="22.7503" x2="56.3719" y2="80.7902" gradientUnits="userSpaceOnUse">
<stop stop-color="white" stop-opacity="0.71"/>
<stop offset="1" stop-color="#EDF0F2" stop-opacity="0"/>
</linearGradient>
<linearGradient id="paint16_linear_981_1708" x1="88.9231" y1="22.7502" x2="55.4137" y2="80.7901" gradientUnits="userSpaceOnUse">
<stop stop-color="white" stop-opacity="0.71"/>
<stop offset="1" stop-color="#EDF0F2" stop-opacity="0"/>
</linearGradient>
<linearGradient id="paint17_linear_981_1708" x1="57.1409" y1="62.0044" x2="56.9734" y2="80.1948" gradientUnits="userSpaceOnUse">
<stop offset="0.291667" stop-color="#F7FAFF" stop-opacity="0"/>
<stop offset="1" stop-color="#ADCDE4"/>
</linearGradient>
</defs>
</svg>
