<svg width="23" height="16" viewBox="0 0 23 16" fill="none" xmlns="http://www.w3.org/2000/svg">
<path d="M22.5386 2.81893C22.4198 2.34434 22.1779 1.9095 21.8373 1.55833C21.4966 1.20717 21.0694 0.952111 20.5986 0.818926C18.8786 0.398926 11.9986 0.398926 11.9986 0.398926C11.9986 0.398926 5.11862 0.398926 3.39862 0.858926C2.92787 0.99211 2.5006 1.24717 2.15997 1.59833C1.81933 1.9495 1.57741 2.38434 1.45862 2.85893C1.14383 4.60448 0.989854 6.37524 0.998619 8.14893C0.987398 9.93597 1.14139 11.7202 1.45862 13.4789C1.58958 13.9388 1.83693 14.3571 2.17676 14.6934C2.5166 15.0297 2.93744 15.2727 3.39862 15.3989C5.11862 15.8589 11.9986 15.8589 11.9986 15.8589C11.9986 15.8589 18.8786 15.8589 20.5986 15.3989C21.0694 15.2657 21.4966 15.0107 21.8373 14.6595C22.1779 14.3084 22.4198 13.8735 22.5386 13.3989C22.851 11.6665 23.0049 9.90926 22.9986 8.14893C23.0098 6.36188 22.8559 4.57762 22.5386 2.81893Z" fill="#D9D9D9"/>
<path d="M9.74805 11.4189L15.498 8.14891L9.74805 4.87891V11.4189Z" fill="#0F1113"/>
</svg>
